M48
; DRILL file {KiCad 7.0.11+dfsg-1build4} date Mon Sep 23 14:48:49 2024
; FORMAT={-:-/ absolute / inch / decimal}
; #@! TF.CreationDate,2024-09-23T14:48:49-04:00
; #@! TF.GenerationSoftware,Kicad,Pcbnew,7.0.11+dfsg-1build4
; #@! TF.FileFunction,Plated,1,2,PTH
FMAT,2
INCH
; #@! TA.AperFunction,Plated,PTH,ComponentDrill
T1C0.0315
; #@! TA.AperFunction,Plated,PTH,ComponentDrill
T2C0.0400
; #@! TA.AperFunction,Plated,PTH,ComponentDrill
T3C0.0420
; #@! TA.AperFunction,Plated,PTH,ComponentDrill
T4C0.0510
; #@! TA.AperFunction,Plated,PTH,ComponentDrill
T5C0.0689
; #@! TA.AperFunction,Plated,PTH,ComponentDrill
T6C0.1000
%
G90
G05
T1
X7.95Y-3.58
X7.95Y-4.16
X7.96Y-2.98
X8.45Y-3.58
X8.45Y-4.16
X8.46Y-2.98
T2
X5.6995Y-5.6752
X5.7995Y-5.6752
X5.8995Y-5.6752
X5.9995Y-5.6752
X6.0995Y-5.6752
X6.1995Y-5.6752
X6.2995Y-5.6752
X6.3995Y-5.6752
X6.4995Y-5.6752
X6.5995Y-5.6752
X6.6995Y-5.6752
X6.7995Y-5.6752
X6.8995Y-5.6752
X6.9995Y-5.6752
X7.0995Y-5.6752
X7.1995Y-5.6752
T3
X5.505Y-2.85
X5.505Y-2.95
X5.505Y-3.05
X5.505Y-3.15
X5.505Y-3.25
X5.505Y-3.35
X5.505Y-3.45
X5.505Y-3.55
X6.1Y-4.0
X6.1Y-4.1
X6.1Y-4.2
X6.1Y-4.3
X6.1Y-4.4
X6.1Y-4.5
X6.1Y-4.6
X6.1Y-4.7
X6.1004Y-4.875
X6.2004Y-4.875
X6.3004Y-4.875
X6.4004Y-4.875
X6.5004Y-4.875
X6.6004Y-4.875
X6.7004Y-4.875
X6.8004Y-4.875
X6.9004Y-4.875
X7.0004Y-4.875
X7.1004Y-4.875
X7.2004Y-4.875
X7.6054Y-2.85
X7.6054Y-2.95
X7.6054Y-3.05
X7.6054Y-3.15
X7.6054Y-3.25
X7.6054Y-3.35
X7.6054Y-3.45
X7.6054Y-3.55
X7.7054Y-2.85
X7.7054Y-2.95
X7.7054Y-3.05
X7.7054Y-3.15
X7.7054Y-3.25
X7.7054Y-3.35
X7.7054Y-3.45
X7.7054Y-3.55
T4
X8.2Y-2.64
X8.2Y-2.79
X8.2Y-3.23
X8.2Y-3.38
X8.2Y-3.81
X8.2Y-3.96
X8.86Y-4.8
X8.86Y-4.95
T5
X8.628Y-2.7
X8.628Y-2.8811
X8.628Y-3.0622
X8.6405Y-3.4
X8.6405Y-3.5811
X8.6405Y-3.7622
X8.6405Y-4.1
X8.6405Y-4.2811
X8.6405Y-4.4622
X8.9Y-2.7
X8.9Y-2.8811
X8.9Y-3.0622
X8.9126Y-3.4
X8.9126Y-3.5811
X8.9126Y-3.7622
X8.9126Y-4.1
X8.9126Y-4.2811
X8.9126Y-4.4622
T6
X5.55Y-4.9222
X5.55Y-5.6222
M30
