%TF.GenerationSoftware,KiCad,Pcbnew,7.0.11+dfsg-1build4*%
%TF.CreationDate,2024-09-23T14:49:34-04:00*%
%TF.ProjectId,Geophone+Accel+CalibSwitch,47656f70-686f-46e6-952b-416363656c2b,rev?*%
%TF.SameCoordinates,Original*%
%TF.FileFunction,Copper,L2,Bot*%
%TF.FilePolarity,Positive*%
%FSLAX46Y46*%
G04 Gerber Fmt 4.6, Leading zero omitted, Abs format (unit mm)*
G04 Created by KiCad (PCBNEW 7.0.11+dfsg-1build4) date 2024-09-23 14:49:34*
%MOMM*%
%LPD*%
G01*
G04 APERTURE LIST*
%TA.AperFunction,ComponentPad*%
%ADD10R,2.625000X2.625000*%
%TD*%
%TA.AperFunction,ComponentPad*%
%ADD11C,2.625000*%
%TD*%
%TA.AperFunction,ComponentPad*%
%ADD12C,1.803400*%
%TD*%
%TA.AperFunction,ComponentPad*%
%ADD13C,1.600000*%
%TD*%
%TA.AperFunction,ComponentPad*%
%ADD14O,1.600000X1.600000*%
%TD*%
%TA.AperFunction,ComponentPad*%
%ADD15C,3.200000*%
%TD*%
%TA.AperFunction,ComponentPad*%
%ADD16C,1.524000*%
%TD*%
%TA.AperFunction,ComponentPad*%
%ADD17R,1.574800X1.574800*%
%TD*%
%TA.AperFunction,ComponentPad*%
%ADD18C,1.574800*%
%TD*%
%TA.AperFunction,WasherPad*%
%ADD19C,3.810000*%
%TD*%
%TA.AperFunction,Conductor*%
%ADD20C,0.200000*%
%TD*%
%TA.AperFunction,Conductor*%
%ADD21C,0.500000*%
%TD*%
G04 APERTURE END LIST*
D10*
%TO.P,S2,1*%
%TO.N,unconnected-(S2-Pad1)*%
X226379900Y-86360000D03*
D11*
%TO.P,S2,2*%
%TO.N,Net-(G2-Pin_2)*%
X226379900Y-90960000D03*
%TO.P,S2,3*%
%TO.N,GND*%
X226379900Y-95560000D03*
%TO.P,S2,4*%
%TO.N,Net-(G2-Pin_2)*%
X219469900Y-86360000D03*
%TO.P,S2,5*%
%TO.N,Net-(AD1-AIN4)*%
X219469900Y-90960000D03*
%TO.P,S2,6*%
%TO.N,Net-(V1-Pin_1)*%
X219469900Y-95560000D03*
%TD*%
D12*
%TO.P,G3,1,Pin_1*%
%TO.N,Net-(AD1-AIN6)*%
X208280000Y-100584000D03*
%TO.P,G3,2,Pin_2*%
%TO.N,Net-(G3-Pin_2)*%
X208280000Y-96773999D03*
%TD*%
%TO.P,G2,1,Pin_1*%
%TO.N,Net-(AD1-AIN3)*%
X208280000Y-85852000D03*
%TO.P,G2,2,Pin_2*%
%TO.N,Net-(G2-Pin_2)*%
X208280000Y-82041999D03*
%TD*%
%TO.P,G1,1,Pin_1*%
%TO.N,Net-(AD1-AIN0)*%
X208280000Y-70866001D03*
%TO.P,G1,2,Pin_2*%
%TO.N,Net-(G1-Pin_2)*%
X208280000Y-67056000D03*
%TD*%
D13*
%TO.P,R3,1*%
%TO.N,Net-(AD1-AIN7)*%
X214630000Y-105664000D03*
D14*
%TO.P,R3,2*%
%TO.N,Net-(AD1-AIN6)*%
X201930000Y-105664000D03*
%TD*%
D15*
%TO.P,MCU1,*%
%TO.N,*%
X140970000Y-125024000D03*
X140970000Y-142804000D03*
D16*
%TO.P,MCU1,1,~{RESET}*%
%TO.N,unconnected-(MCU1-~{RESET}-Pad1)*%
X144767000Y-144150000D03*
%TO.P,MCU1,2,3V3*%
%TO.N,unconnected-(MCU1-3V3-Pad2)*%
X147307000Y-144150000D03*
%TO.P,MCU1,3,NC*%
%TO.N,unconnected-(MCU1-NC-Pad3)*%
X149847000Y-144150000D03*
%TO.P,MCU1,4,GND*%
%TO.N,GND*%
X152387000Y-144150000D03*
%TO.P,MCU1,5,DAC2/A0*%
%TO.N,unconnected-(MCU1-DAC2{slash}A0-Pad5)*%
X154927000Y-144150000D03*
%TO.P,MCU1,6,DAC1/A1*%
%TO.N,unconnected-(MCU1-DAC1{slash}A1-Pad6)*%
X157467000Y-144150000D03*
%TO.P,MCU1,7,I34/A2*%
%TO.N,unconnected-(MCU1-I34{slash}A2-Pad7)*%
X160007000Y-144150000D03*
%TO.P,MCU1,8,I39/A3*%
%TO.N,unconnected-(MCU1-I39{slash}A3-Pad8)*%
X162547000Y-144150000D03*
%TO.P,MCU1,9,IO36/A4*%
%TO.N,unconnected-(MCU1-IO36{slash}A4-Pad9)*%
X165087000Y-144150000D03*
%TO.P,MCU1,10,IO4/A5*%
%TO.N,unconnected-(MCU1-IO4{slash}A5-Pad10)*%
X167627000Y-144150000D03*
%TO.P,MCU1,11,SCK/IO5*%
%TO.N,Net-(AD1-SCLK)*%
X170167000Y-144150000D03*
%TO.P,MCU1,12,MOSI/IO18*%
%TO.N,Net-(AD1-DIN)*%
X172707000Y-144150000D03*
%TO.P,MCU1,13,MISO/IO19*%
%TO.N,Net-(AD1-DOUT)*%
X175247000Y-144150000D03*
%TO.P,MCU1,14,RX/IO16*%
%TO.N,unconnected-(MCU1-RX{slash}IO16-Pad14)*%
X177787000Y-144150000D03*
%TO.P,MCU1,15,TX/IO17*%
%TO.N,unconnected-(MCU1-TX{slash}IO17-Pad15)*%
X180327000Y-144150000D03*
%TO.P,MCU1,16,IO21*%
%TO.N,unconnected-(MCU1-IO21-Pad16)*%
X182867000Y-144150000D03*
D17*
%TO.P,MCU1,17,SDA/IO23*%
%TO.N,Net-(A1-SDA)*%
X182890000Y-123825000D03*
D18*
%TO.P,MCU1,18,SCL/IO22*%
%TO.N,Net-(A1-SCL)*%
X180350000Y-123825000D03*
%TO.P,MCU1,19,A6/IO14*%
%TO.N,unconnected-(MCU1-A6{slash}IO14-Pad19)*%
X177810000Y-123825000D03*
%TO.P,MCU1,20,A7/IO32*%
%TO.N,unconnected-(MCU1-A7{slash}IO32-Pad20)*%
X175270000Y-123825000D03*
%TO.P,MCU1,21,A8/IO15*%
%TO.N,unconnected-(MCU1-A8{slash}IO15-Pad21)*%
X172730000Y-123825000D03*
%TO.P,MCU1,22,A9/IO33*%
%TO.N,unconnected-(MCU1-A9{slash}IO33-Pad22)*%
X170190000Y-123825000D03*
%TO.P,MCU1,23,A10/IO27*%
%TO.N,unconnected-(MCU1-A10{slash}IO27-Pad23)*%
X167650000Y-123825000D03*
%TO.P,MCU1,24,A11/IO12*%
%TO.N,Net-(AD1-DRDY)*%
X165110000Y-123825000D03*
%TO.P,MCU1,25,A12/IO13*%
%TO.N,Net-(AD1-CS)*%
X162570000Y-123825000D03*
%TO.P,MCU1,26,USB*%
%TO.N,+5V*%
X160030000Y-123825000D03*
%TO.P,MCU1,27,EN*%
%TO.N,unconnected-(MCU1-EN-Pad27)*%
X157490000Y-123825000D03*
%TO.P,MCU1,28,VBAT*%
%TO.N,unconnected-(MCU1-VBAT-Pad28)*%
X154950000Y-123825000D03*
%TD*%
D13*
%TO.P,R2,1*%
%TO.N,Net-(AD1-AIN4)*%
X214630000Y-90932000D03*
D14*
%TO.P,R2,2*%
%TO.N,Net-(AD1-AIN3)*%
X201930000Y-90932000D03*
%TD*%
D10*
%TO.P,S3,1*%
%TO.N,unconnected-(S3-Pad1)*%
X226379900Y-104140000D03*
D11*
%TO.P,S3,2*%
%TO.N,Net-(G3-Pin_2)*%
X226379900Y-108740000D03*
%TO.P,S3,3*%
%TO.N,GND*%
X226379900Y-113340000D03*
%TO.P,S3,4*%
%TO.N,Net-(G3-Pin_2)*%
X219469900Y-104140000D03*
%TO.P,S3,5*%
%TO.N,Net-(AD1-AIN7)*%
X219469900Y-108740000D03*
%TO.P,S3,6*%
%TO.N,Net-(V1-Pin_1)*%
X219469900Y-113340000D03*
%TD*%
D13*
%TO.P,R1,1*%
%TO.N,Net-(AD1-AIN1)*%
X214884000Y-75692000D03*
D14*
%TO.P,R1,2*%
%TO.N,Net-(AD1-AIN0)*%
X202184000Y-75692000D03*
%TD*%
D10*
%TO.P,S1,1*%
%TO.N,unconnected-(S1-Pad1)*%
X226060000Y-68580000D03*
D11*
%TO.P,S1,2*%
%TO.N,Net-(G1-Pin_2)*%
X226060000Y-73180000D03*
%TO.P,S1,3*%
%TO.N,GND*%
X226060000Y-77780000D03*
%TO.P,S1,4*%
%TO.N,Net-(G1-Pin_2)*%
X219150000Y-68580000D03*
%TO.P,S1,5*%
%TO.N,Net-(AD1-AIN1)*%
X219150000Y-73180000D03*
%TO.P,S1,6*%
%TO.N,Net-(V1-Pin_1)*%
X219150000Y-77780000D03*
%TD*%
D19*
%TO.P,AD1,*%
%TO.N,*%
X195707000Y-67310000D03*
X139827000Y-67310000D03*
X195707000Y-95250000D03*
X139827000Y-95250000D03*
D18*
%TO.P,AD1,1,5V*%
%TO.N,+5V*%
X139827000Y-72390000D03*
%TO.P,AD1,2,GND*%
%TO.N,GND*%
X139827000Y-74930000D03*
%TO.P,AD1,3,SCLK*%
%TO.N,Net-(AD1-SCLK)*%
X139827000Y-77470000D03*
%TO.P,AD1,4,DIN*%
%TO.N,Net-(AD1-DIN)*%
X139827000Y-80010000D03*
%TO.P,AD1,5,DOUT*%
%TO.N,Net-(AD1-DOUT)*%
X139827000Y-82550000D03*
%TO.P,AD1,6,DRDY*%
%TO.N,Net-(AD1-DRDY)*%
X139827000Y-85090000D03*
%TO.P,AD1,7,CS*%
%TO.N,Net-(AD1-CS)*%
X139827000Y-87630000D03*
%TO.P,AD1,8,PDWN*%
%TO.N,unconnected-(AD1-PDWN-Pad8)*%
X139827000Y-90170000D03*
%TO.P,AD1,9,AIN0*%
%TO.N,Net-(AD1-AIN0)*%
X195717000Y-72390000D03*
%TO.P,AD1,10,AIN1*%
%TO.N,Net-(AD1-AIN1)*%
X195717000Y-74930000D03*
%TO.P,AD1,11,AIN2*%
%TO.N,unconnected-(AD1-AIN2-Pad11)*%
X195717000Y-77470000D03*
%TO.P,AD1,12,AIN3*%
%TO.N,Net-(AD1-AIN3)*%
X195717000Y-80010000D03*
%TO.P,AD1,13,AIN4*%
%TO.N,Net-(AD1-AIN4)*%
X195717000Y-82550000D03*
%TO.P,AD1,14,AIN5*%
%TO.N,unconnected-(AD1-AIN5-Pad14)*%
X195717000Y-85090000D03*
%TO.P,AD1,15,AIN6*%
%TO.N,Net-(AD1-AIN6)*%
X195717000Y-87630000D03*
%TO.P,AD1,16,AIN7*%
%TO.N,Net-(AD1-AIN7)*%
X195717000Y-90170000D03*
%TO.P,AD1,17,GND*%
%TO.N,GND*%
X193177000Y-90170000D03*
%TO.P,AD1,18,GND*%
X193177000Y-87630000D03*
%TO.P,AD1,19,GND*%
X193177000Y-85090000D03*
%TO.P,AD1,20,GND*%
X193177000Y-82550000D03*
%TO.P,AD1,21,GND*%
X193177000Y-80010000D03*
%TO.P,AD1,22,GND*%
X193177000Y-77470000D03*
%TO.P,AD1,23,GND*%
X193177000Y-74930000D03*
%TO.P,AD1,24,GND*%
X193177000Y-72390000D03*
%TD*%
D12*
%TO.P,V1,1,Pin_1*%
%TO.N,Net-(V1-Pin_1)*%
X225044000Y-125730001D03*
%TO.P,V1,2,Pin_2*%
%TO.N,GND*%
X225044000Y-121920000D03*
%TD*%
D19*
%TO.P,A1,*%
%TO.N,*%
X142240000Y-118110000D03*
X142240000Y-102870000D03*
D18*
%TO.P,A1,1,5V*%
%TO.N,+5V*%
X154940000Y-119380000D03*
%TO.P,A1,2,GND*%
%TO.N,GND*%
X154940000Y-116840000D03*
%TO.P,A1,3,3V3*%
%TO.N,unconnected-(A1-3V3-Pad3)*%
X154940000Y-114300000D03*
%TO.P,A1,4,I2*%
%TO.N,unconnected-(A1-I2-Pad4)*%
X154940000Y-111760000D03*
%TO.P,A1,5,I1*%
%TO.N,unconnected-(A1-I1-Pad5)*%
X154940000Y-109220000D03*
%TO.P,A1,6,SCL*%
%TO.N,Net-(A1-SCL)*%
X154940000Y-106680000D03*
%TO.P,A1,7,SDA*%
%TO.N,Net-(A1-SDA)*%
X154940000Y-104140000D03*
%TO.P,A1,8,A*%
%TO.N,unconnected-(A1-A-Pad8)*%
X154940000Y-101600000D03*
%TD*%
D20*
%TO.N,GND*%
X193177000Y-82550000D02*
X193177000Y-85090000D01*
X225044000Y-117856000D02*
X225044000Y-121920000D01*
X139827000Y-74930000D02*
X136525000Y-78232000D01*
X223520000Y-92700100D02*
X223520000Y-80320000D01*
X193177000Y-74930000D02*
X193177000Y-77470000D01*
X200152000Y-109728000D02*
X200152000Y-146050000D01*
X152082500Y-119062500D02*
X154305000Y-116840000D01*
X193177000Y-73660000D02*
X193177000Y-74930000D01*
X224967300Y-78872700D02*
X226060000Y-77780000D01*
X223520000Y-80320000D02*
X224967300Y-78872700D01*
X223520000Y-110480000D02*
X223520000Y-98420000D01*
X152400000Y-144221000D02*
X152400000Y-118745000D01*
X189992000Y-99568000D02*
X200152000Y-109728000D01*
X200152000Y-117856000D02*
X225044000Y-117856000D01*
X226380000Y-95560000D02*
X226379900Y-95560000D01*
X193177000Y-90170000D02*
X193040000Y-90170000D01*
X193177000Y-87630000D02*
X193177000Y-90170000D01*
X225044000Y-114676000D02*
X226380000Y-113340000D01*
X189992000Y-93218000D02*
X189992000Y-99568000D01*
X226380000Y-113340000D02*
X223520000Y-110480000D01*
X193177000Y-80010000D02*
X193177000Y-82550000D01*
X136525000Y-78232000D02*
X136525000Y-103505000D01*
X200152000Y-146050000D02*
X154287000Y-146050000D01*
X226379900Y-113340000D02*
X226380000Y-113340000D01*
X226379900Y-95560000D02*
X223520000Y-92700100D01*
X154305000Y-116840000D02*
X154940000Y-116840000D01*
X193177000Y-85090000D02*
X193177000Y-87630000D01*
X139827000Y-74930000D02*
X139700000Y-74930000D01*
X193177000Y-77470000D02*
X193177000Y-80010000D01*
X225044000Y-121920000D02*
X225044000Y-114676000D01*
X136525000Y-103505000D02*
X152082500Y-119062500D01*
X193177000Y-72390000D02*
X193177000Y-73660000D01*
X223520000Y-98420000D02*
X226380000Y-95560000D01*
X193040000Y-90170000D02*
X189992000Y-93218000D01*
X154287000Y-146050000D02*
X152387000Y-144150000D01*
D21*
%TO.N,+5V*%
X142240000Y-83185000D02*
X142240000Y-74803000D01*
D20*
X154940000Y-119380000D02*
X155527000Y-119380000D01*
D21*
X142240000Y-74803000D02*
X139827000Y-72390000D01*
X160030000Y-123200000D02*
X156210000Y-119380000D01*
X157480000Y-116840000D02*
X157480000Y-98425000D01*
X154940000Y-119380000D02*
X157480000Y-116840000D01*
X156210000Y-119380000D02*
X154940000Y-119380000D01*
X157480000Y-98425000D02*
X142240000Y-83185000D01*
X160030000Y-123825000D02*
X160030000Y-123200000D01*
%TO.N,Net-(V1-Pin_1)*%
X219470000Y-95560000D02*
X222250000Y-98340000D01*
X221862000Y-93167900D02*
X219469900Y-95560000D01*
X221862000Y-80492000D02*
X221862000Y-93167900D01*
D20*
X219671000Y-113138000D02*
X219570500Y-113239000D01*
D21*
X222250000Y-98340000D02*
X222250000Y-110560000D01*
X219150000Y-77780000D02*
X221862000Y-80492000D01*
D20*
X219470000Y-113340000D02*
X219672000Y-113138000D01*
X219570500Y-113239000D02*
X219470000Y-113340000D01*
X219469900Y-113339600D02*
X219469900Y-113340000D01*
D21*
X222250000Y-110560000D02*
X219672000Y-113138000D01*
D20*
X220859900Y-94170000D02*
X219469900Y-95560000D01*
X220860000Y-94170000D02*
X220859900Y-94170000D01*
X219672000Y-113138000D02*
X219671000Y-113138000D01*
X220860000Y-94170000D02*
X219470000Y-95560000D01*
X219570500Y-113239000D02*
X219469900Y-113339600D01*
%TD*%
%TA.AperFunction,Conductor*%
%TO.N,GND*%
G36*
X194246978Y-88346425D02*
G01*
X194296182Y-88276154D01*
X194334342Y-88194321D01*
X194380514Y-88141881D01*
X194447707Y-88122729D01*
X194514589Y-88142944D01*
X194559106Y-88194320D01*
X194597384Y-88276408D01*
X194597385Y-88276410D01*
X194726643Y-88461011D01*
X194885988Y-88620356D01*
X194885991Y-88620358D01*
X195070590Y-88749615D01*
X195134507Y-88779419D01*
X195152088Y-88787618D01*
X195204527Y-88833790D01*
X195223679Y-88900984D01*
X195203463Y-88967865D01*
X195152088Y-89012382D01*
X195070591Y-89050384D01*
X195070589Y-89050385D01*
X194885988Y-89179643D01*
X194726643Y-89338988D01*
X194597385Y-89523589D01*
X194597384Y-89523591D01*
X194559106Y-89605680D01*
X194512934Y-89658119D01*
X194445740Y-89677271D01*
X194378859Y-89657055D01*
X194334342Y-89605680D01*
X194296180Y-89523842D01*
X194296179Y-89523840D01*
X194246978Y-89453574D01*
X194246978Y-89453573D01*
X193688891Y-90011660D01*
X193684327Y-89989696D01*
X193616869Y-89859507D01*
X193516787Y-89752345D01*
X193391505Y-89676160D01*
X193333530Y-89659916D01*
X193893425Y-89100021D01*
X193893424Y-89100020D01*
X193823159Y-89050820D01*
X193823157Y-89050819D01*
X193740728Y-89012382D01*
X193688289Y-88966210D01*
X193669137Y-88899016D01*
X193689353Y-88832135D01*
X193740729Y-88787618D01*
X193823154Y-88749182D01*
X193893425Y-88699978D01*
X193335951Y-88142503D01*
X193456752Y-88090032D01*
X193570493Y-87997497D01*
X193655051Y-87877706D01*
X193687357Y-87786804D01*
X194246978Y-88346425D01*
G37*
%TD.AperFunction*%
%TA.AperFunction,Conductor*%
G36*
X194246978Y-85806425D02*
G01*
X194296182Y-85736154D01*
X194334342Y-85654321D01*
X194380514Y-85601881D01*
X194447707Y-85582729D01*
X194514589Y-85602944D01*
X194559106Y-85654320D01*
X194597384Y-85736408D01*
X194597385Y-85736410D01*
X194726643Y-85921011D01*
X194885988Y-86080356D01*
X194898376Y-86089030D01*
X195070590Y-86209615D01*
X195134507Y-86239419D01*
X195152088Y-86247618D01*
X195204527Y-86293790D01*
X195223679Y-86360984D01*
X195203463Y-86427865D01*
X195152088Y-86472382D01*
X195070591Y-86510384D01*
X195070589Y-86510385D01*
X194885988Y-86639643D01*
X194726643Y-86798988D01*
X194597385Y-86983589D01*
X194597384Y-86983591D01*
X194559106Y-87065680D01*
X194512934Y-87118119D01*
X194445740Y-87137271D01*
X194378859Y-87117055D01*
X194334342Y-87065680D01*
X194296180Y-86983842D01*
X194296179Y-86983840D01*
X194246978Y-86913574D01*
X194246978Y-86913573D01*
X193688891Y-87471660D01*
X193684327Y-87449696D01*
X193616869Y-87319507D01*
X193516787Y-87212345D01*
X193391505Y-87136160D01*
X193333530Y-87119916D01*
X193893425Y-86560021D01*
X193893424Y-86560020D01*
X193823159Y-86510820D01*
X193823157Y-86510819D01*
X193740728Y-86472382D01*
X193688289Y-86426210D01*
X193669137Y-86359016D01*
X193689353Y-86292135D01*
X193740729Y-86247618D01*
X193823154Y-86209182D01*
X193893425Y-86159978D01*
X193335951Y-85602503D01*
X193456752Y-85550032D01*
X193570493Y-85457497D01*
X193655051Y-85337706D01*
X193687357Y-85246804D01*
X194246978Y-85806425D01*
G37*
%TD.AperFunction*%
%TA.AperFunction,Conductor*%
G36*
X194246978Y-83266425D02*
G01*
X194296182Y-83196154D01*
X194334342Y-83114321D01*
X194380514Y-83061881D01*
X194447707Y-83042729D01*
X194514589Y-83062944D01*
X194559106Y-83114320D01*
X194597384Y-83196408D01*
X194597385Y-83196410D01*
X194726643Y-83381011D01*
X194885988Y-83540356D01*
X194885991Y-83540358D01*
X195070590Y-83669615D01*
X195134507Y-83699419D01*
X195152088Y-83707618D01*
X195204527Y-83753790D01*
X195223679Y-83820984D01*
X195203463Y-83887865D01*
X195152088Y-83932382D01*
X195070591Y-83970384D01*
X195070589Y-83970385D01*
X194885988Y-84099643D01*
X194726643Y-84258988D01*
X194597385Y-84443589D01*
X194597384Y-84443591D01*
X194559106Y-84525680D01*
X194512934Y-84578119D01*
X194445740Y-84597271D01*
X194378859Y-84577055D01*
X194334342Y-84525680D01*
X194296180Y-84443842D01*
X194296179Y-84443840D01*
X194246978Y-84373574D01*
X194246978Y-84373573D01*
X193688891Y-84931660D01*
X193684327Y-84909696D01*
X193616869Y-84779507D01*
X193516787Y-84672345D01*
X193391505Y-84596160D01*
X193333530Y-84579916D01*
X193893425Y-84020021D01*
X193893424Y-84020020D01*
X193823159Y-83970820D01*
X193823157Y-83970819D01*
X193740728Y-83932382D01*
X193688289Y-83886210D01*
X193669137Y-83819016D01*
X193689353Y-83752135D01*
X193740729Y-83707618D01*
X193823154Y-83669182D01*
X193893425Y-83619978D01*
X193335951Y-83062503D01*
X193456752Y-83010032D01*
X193570493Y-82917497D01*
X193655051Y-82797706D01*
X193687357Y-82706804D01*
X194246978Y-83266425D01*
G37*
%TD.AperFunction*%
%TA.AperFunction,Conductor*%
G36*
X194246978Y-80726425D02*
G01*
X194296182Y-80656154D01*
X194334342Y-80574321D01*
X194380514Y-80521881D01*
X194447707Y-80502729D01*
X194514589Y-80522944D01*
X194559106Y-80574320D01*
X194597384Y-80656408D01*
X194597385Y-80656410D01*
X194726643Y-80841011D01*
X194885988Y-81000356D01*
X194885991Y-81000358D01*
X195070590Y-81129615D01*
X195134507Y-81159419D01*
X195152088Y-81167618D01*
X195204527Y-81213790D01*
X195223679Y-81280984D01*
X195203463Y-81347865D01*
X195152088Y-81392382D01*
X195070591Y-81430384D01*
X195070589Y-81430385D01*
X194885988Y-81559643D01*
X194726643Y-81718988D01*
X194597385Y-81903589D01*
X194597384Y-81903591D01*
X194559106Y-81985680D01*
X194512934Y-82038119D01*
X194445740Y-82057271D01*
X194378859Y-82037055D01*
X194334342Y-81985680D01*
X194296180Y-81903842D01*
X194296179Y-81903840D01*
X194246978Y-81833574D01*
X194246978Y-81833573D01*
X193688891Y-82391660D01*
X193684327Y-82369696D01*
X193616869Y-82239507D01*
X193516787Y-82132345D01*
X193391505Y-82056160D01*
X193333530Y-82039916D01*
X193893425Y-81480021D01*
X193893424Y-81480020D01*
X193823159Y-81430820D01*
X193823157Y-81430819D01*
X193740728Y-81392382D01*
X193688289Y-81346210D01*
X193669137Y-81279016D01*
X193689353Y-81212135D01*
X193740729Y-81167618D01*
X193823154Y-81129182D01*
X193893425Y-81079978D01*
X193335951Y-80522503D01*
X193456752Y-80470032D01*
X193570493Y-80377497D01*
X193655051Y-80257706D01*
X193687357Y-80166804D01*
X194246978Y-80726425D01*
G37*
%TD.AperFunction*%
%TA.AperFunction,Conductor*%
G36*
X194246978Y-78186425D02*
G01*
X194296182Y-78116154D01*
X194334342Y-78034321D01*
X194380514Y-77981881D01*
X194447707Y-77962729D01*
X194514589Y-77982944D01*
X194559106Y-78034320D01*
X194597384Y-78116408D01*
X194597385Y-78116410D01*
X194726643Y-78301011D01*
X194885988Y-78460356D01*
X194885991Y-78460358D01*
X195070590Y-78589615D01*
X195123069Y-78614086D01*
X195152088Y-78627618D01*
X195204527Y-78673790D01*
X195223679Y-78740984D01*
X195203463Y-78807865D01*
X195152088Y-78852382D01*
X195070591Y-78890384D01*
X195070589Y-78890385D01*
X194885988Y-79019643D01*
X194726643Y-79178988D01*
X194597385Y-79363589D01*
X194597384Y-79363591D01*
X194559106Y-79445680D01*
X194512934Y-79498119D01*
X194445740Y-79517271D01*
X194378859Y-79497055D01*
X194334342Y-79445680D01*
X194296180Y-79363842D01*
X194296179Y-79363840D01*
X194246978Y-79293574D01*
X194246978Y-79293573D01*
X193688891Y-79851660D01*
X193684327Y-79829696D01*
X193616869Y-79699507D01*
X193516787Y-79592345D01*
X193391505Y-79516160D01*
X193333530Y-79499916D01*
X193893425Y-78940021D01*
X193893424Y-78940020D01*
X193823159Y-78890820D01*
X193823157Y-78890819D01*
X193740728Y-78852382D01*
X193688289Y-78806210D01*
X193669137Y-78739016D01*
X193689353Y-78672135D01*
X193740729Y-78627618D01*
X193823154Y-78589182D01*
X193893425Y-78539978D01*
X193335951Y-77982503D01*
X193456752Y-77930032D01*
X193570493Y-77837497D01*
X193655051Y-77717706D01*
X193687357Y-77626804D01*
X194246978Y-78186425D01*
G37*
%TD.AperFunction*%
%TA.AperFunction,Conductor*%
G36*
X194246978Y-75646425D02*
G01*
X194296182Y-75576154D01*
X194334342Y-75494321D01*
X194380514Y-75441881D01*
X194447707Y-75422729D01*
X194514589Y-75442944D01*
X194559106Y-75494320D01*
X194597384Y-75576408D01*
X194597385Y-75576410D01*
X194726643Y-75761011D01*
X194885988Y-75920356D01*
X194885991Y-75920358D01*
X195070590Y-76049615D01*
X195134507Y-76079419D01*
X195152088Y-76087618D01*
X195204527Y-76133790D01*
X195223679Y-76200984D01*
X195203463Y-76267865D01*
X195152088Y-76312382D01*
X195070591Y-76350384D01*
X195070589Y-76350385D01*
X194885988Y-76479643D01*
X194726643Y-76638988D01*
X194597385Y-76823589D01*
X194597384Y-76823591D01*
X194559106Y-76905680D01*
X194512934Y-76958119D01*
X194445740Y-76977271D01*
X194378859Y-76957055D01*
X194334342Y-76905680D01*
X194296180Y-76823842D01*
X194296179Y-76823840D01*
X194246978Y-76753574D01*
X194246978Y-76753573D01*
X193688891Y-77311660D01*
X193684327Y-77289696D01*
X193616869Y-77159507D01*
X193516787Y-77052345D01*
X193391505Y-76976160D01*
X193333530Y-76959916D01*
X193893425Y-76400021D01*
X193893424Y-76400020D01*
X193823159Y-76350820D01*
X193823157Y-76350819D01*
X193740728Y-76312382D01*
X193688289Y-76266210D01*
X193669137Y-76199016D01*
X193689353Y-76132135D01*
X193740729Y-76087618D01*
X193823154Y-76049182D01*
X193893425Y-75999978D01*
X193335951Y-75442503D01*
X193456752Y-75390032D01*
X193570493Y-75297497D01*
X193655051Y-75177706D01*
X193687357Y-75086804D01*
X194246978Y-75646425D01*
G37*
%TD.AperFunction*%
%TA.AperFunction,Conductor*%
G36*
X194246978Y-73106425D02*
G01*
X194296182Y-73036154D01*
X194334342Y-72954321D01*
X194380514Y-72901881D01*
X194447707Y-72882729D01*
X194514589Y-72902944D01*
X194559106Y-72954320D01*
X194597384Y-73036408D01*
X194597385Y-73036410D01*
X194726643Y-73221011D01*
X194885988Y-73380356D01*
X194885991Y-73380358D01*
X195070590Y-73509615D01*
X195134507Y-73539419D01*
X195152088Y-73547618D01*
X195204527Y-73593790D01*
X195223679Y-73660984D01*
X195203463Y-73727865D01*
X195152088Y-73772382D01*
X195070591Y-73810384D01*
X195070589Y-73810385D01*
X194885988Y-73939643D01*
X194726643Y-74098988D01*
X194597385Y-74283589D01*
X194597384Y-74283591D01*
X194559106Y-74365680D01*
X194512934Y-74418119D01*
X194445740Y-74437271D01*
X194378859Y-74417055D01*
X194334342Y-74365680D01*
X194296180Y-74283842D01*
X194296179Y-74283840D01*
X194246978Y-74213574D01*
X194246978Y-74213573D01*
X193688891Y-74771660D01*
X193684327Y-74749696D01*
X193616869Y-74619507D01*
X193516787Y-74512345D01*
X193391505Y-74436160D01*
X193333530Y-74419916D01*
X193893425Y-73860021D01*
X193893424Y-73860020D01*
X193823159Y-73810820D01*
X193823157Y-73810819D01*
X193740728Y-73772382D01*
X193688289Y-73726210D01*
X193669137Y-73659016D01*
X193689353Y-73592135D01*
X193740729Y-73547618D01*
X193823154Y-73509182D01*
X193893425Y-73459978D01*
X193335951Y-72902503D01*
X193456752Y-72850032D01*
X193570493Y-72757497D01*
X193655051Y-72637706D01*
X193687357Y-72546804D01*
X194246978Y-73106425D01*
G37*
%TD.AperFunction*%
%TA.AperFunction,Conductor*%
G36*
X230582539Y-64020185D02*
G01*
X230628294Y-64072989D01*
X230639500Y-64124500D01*
X230639500Y-146695500D01*
X230619815Y-146762539D01*
X230567011Y-146808294D01*
X230515500Y-146819500D01*
X135244500Y-146819500D01*
X135177461Y-146799815D01*
X135131706Y-146747011D01*
X135120500Y-146695500D01*
X135120500Y-142804000D01*
X138864592Y-142804000D01*
X138884201Y-143090680D01*
X138884201Y-143090684D01*
X138884202Y-143090686D01*
X138885776Y-143098259D01*
X138942666Y-143372034D01*
X138942667Y-143372037D01*
X139038894Y-143642793D01*
X139038893Y-143642793D01*
X139171098Y-143897935D01*
X139336812Y-144132700D01*
X139381761Y-144180828D01*
X139532947Y-144342708D01*
X139755853Y-144524055D01*
X139969897Y-144654219D01*
X140001382Y-144673365D01*
X140188237Y-144754526D01*
X140264942Y-144787844D01*
X140541642Y-144865371D01*
X140791920Y-144899771D01*
X140826321Y-144904500D01*
X140826322Y-144904500D01*
X141113679Y-144904500D01*
X141144370Y-144900281D01*
X141398358Y-144865371D01*
X141675058Y-144787844D01*
X141788015Y-144738779D01*
X141938617Y-144673365D01*
X141938620Y-144673363D01*
X141938625Y-144673361D01*
X142184147Y-144524055D01*
X142407053Y-144342708D01*
X142587028Y-144150002D01*
X143499677Y-144150002D01*
X143518929Y-144370062D01*
X143518930Y-144370070D01*
X143576104Y-144583445D01*
X143576105Y-144583447D01*
X143576106Y-144583450D01*
X143666313Y-144776901D01*
X143669466Y-144783662D01*
X143669468Y-144783666D01*
X143796170Y-144964615D01*
X143796175Y-144964621D01*
X143952378Y-145120824D01*
X143952384Y-145120829D01*
X144133333Y-145247531D01*
X144133335Y-145247532D01*
X144133338Y-145247534D01*
X144333550Y-145340894D01*
X144546932Y-145398070D01*
X144704123Y-145411822D01*
X144766998Y-145417323D01*
X144767000Y-145417323D01*
X144767002Y-145417323D01*
X144822017Y-145412509D01*
X144987068Y-145398070D01*
X145200450Y-145340894D01*
X145400662Y-145247534D01*
X145581620Y-145120826D01*
X145737826Y-144964620D01*
X145864534Y-144783662D01*
X145924618Y-144654811D01*
X145970790Y-144602371D01*
X146037983Y-144583219D01*
X146104865Y-144603435D01*
X146149382Y-144654811D01*
X146209464Y-144783658D01*
X146209468Y-144783666D01*
X146336170Y-144964615D01*
X146336175Y-144964621D01*
X146492378Y-145120824D01*
X146492384Y-145120829D01*
X146673333Y-145247531D01*
X146673335Y-145247532D01*
X146673338Y-145247534D01*
X146873550Y-145340894D01*
X147086932Y-145398070D01*
X147244123Y-145411822D01*
X147306998Y-145417323D01*
X147307000Y-145417323D01*
X147307002Y-145417323D01*
X147362017Y-145412509D01*
X147527068Y-145398070D01*
X147740450Y-145340894D01*
X147940662Y-145247534D01*
X148121620Y-145120826D01*
X148277826Y-144964620D01*
X148404534Y-144783662D01*
X148464618Y-144654811D01*
X148510790Y-144602371D01*
X148577983Y-144583219D01*
X148644865Y-144603435D01*
X148689382Y-144654811D01*
X148749464Y-144783658D01*
X148749468Y-144783666D01*
X148876170Y-144964615D01*
X148876175Y-144964621D01*
X149032378Y-145120824D01*
X149032384Y-145120829D01*
X149213333Y-145247531D01*
X149213335Y-145247532D01*
X149213338Y-145247534D01*
X149413550Y-145340894D01*
X149626932Y-145398070D01*
X149784123Y-145411822D01*
X149846998Y-145417323D01*
X149847000Y-145417323D01*
X149847002Y-145417323D01*
X149902017Y-145412509D01*
X150067068Y-145398070D01*
X150280450Y-145340894D01*
X150480662Y-145247534D01*
X150661620Y-145120826D01*
X150817826Y-144964620D01*
X150944534Y-144783662D01*
X151004894Y-144654218D01*
X151051066Y-144601779D01*
X151118259Y-144582627D01*
X151185141Y-144602843D01*
X151229658Y-144654219D01*
X151289898Y-144783405D01*
X151289901Y-144783411D01*
X151335258Y-144848187D01*
X151335259Y-144848188D01*
X151897477Y-144285969D01*
X151920155Y-144363201D01*
X151999131Y-144486090D01*
X152109530Y-144581752D01*
X152242408Y-144642435D01*
X152247399Y-144643152D01*
X151688810Y-145201740D01*
X151753590Y-145247099D01*
X151753592Y-145247100D01*
X151953715Y-145340419D01*
X151953729Y-145340424D01*
X152167013Y-145397573D01*
X152167023Y-145397575D01*
X152386999Y-145416821D01*
X152387001Y-145416821D01*
X152606976Y-145397575D01*
X152606986Y-145397573D01*
X152820270Y-145340424D01*
X152820284Y-145340419D01*
X153020407Y-145247100D01*
X153020417Y-145247094D01*
X153085188Y-145201741D01*
X152526600Y-144643152D01*
X152531592Y-144642435D01*
X152664470Y-144581752D01*
X152774869Y-144486090D01*
X152853845Y-144363201D01*
X152876522Y-144285969D01*
X153438741Y-144848188D01*
X153484094Y-144783417D01*
X153484095Y-144783416D01*
X153544340Y-144654219D01*
X153590512Y-144601780D01*
X153657706Y-144582627D01*
X153724587Y-144602842D01*
X153769105Y-144654218D01*
X153829466Y-144783662D01*
X153829468Y-144783666D01*
X153956170Y-144964615D01*
X153956175Y-144964621D01*
X154112378Y-145120824D01*
X154112384Y-145120829D01*
X154293333Y-145247531D01*
X154293335Y-145247532D01*
X154293338Y-145247534D01*
X154493550Y-145340894D01*
X154706932Y-145398070D01*
X154864123Y-145411822D01*
X154926998Y-145417323D01*
X154927000Y-145417323D01*
X154927002Y-145417323D01*
X154982017Y-145412509D01*
X155147068Y-145398070D01*
X155360450Y-145340894D01*
X155560662Y-145247534D01*
X155741620Y-145120826D01*
X155897826Y-144964620D01*
X156024534Y-144783662D01*
X156084618Y-144654811D01*
X156130790Y-144602371D01*
X156197983Y-144583219D01*
X156264865Y-144603435D01*
X156309382Y-144654811D01*
X156369464Y-144783658D01*
X156369468Y-144783666D01*
X156496170Y-144964615D01*
X156496175Y-144964621D01*
X156652378Y-145120824D01*
X156652384Y-145120829D01*
X156833333Y-145247531D01*
X156833335Y-145247532D01*
X156833338Y-145247534D01*
X157033550Y-145340894D01*
X157246932Y-145398070D01*
X157404123Y-145411822D01*
X157466998Y-145417323D01*
X157467000Y-145417323D01*
X157467002Y-145417323D01*
X157522017Y-145412509D01*
X157687068Y-145398070D01*
X157900450Y-145340894D01*
X158100662Y-145247534D01*
X158281620Y-145120826D01*
X158437826Y-144964620D01*
X158564534Y-144783662D01*
X158624618Y-144654811D01*
X158670790Y-144602371D01*
X158737983Y-144583219D01*
X158804865Y-144603435D01*
X158849382Y-144654811D01*
X158909464Y-144783658D01*
X158909468Y-144783666D01*
X159036170Y-144964615D01*
X159036175Y-144964621D01*
X159192378Y-145120824D01*
X159192384Y-145120829D01*
X159373333Y-145247531D01*
X159373335Y-145247532D01*
X159373338Y-145247534D01*
X159573550Y-145340894D01*
X159786932Y-145398070D01*
X159944123Y-145411822D01*
X160006998Y-145417323D01*
X160007000Y-145417323D01*
X160007002Y-145417323D01*
X160062017Y-145412509D01*
X160227068Y-145398070D01*
X160440450Y-145340894D01*
X160640662Y-145247534D01*
X160821620Y-145120826D01*
X160977826Y-144964620D01*
X161104534Y-144783662D01*
X161164618Y-144654811D01*
X161210790Y-144602371D01*
X161277983Y-144583219D01*
X161344865Y-144603435D01*
X161389382Y-144654811D01*
X161449464Y-144783658D01*
X161449468Y-144783666D01*
X161576170Y-144964615D01*
X161576175Y-144964621D01*
X161732378Y-145120824D01*
X161732384Y-145120829D01*
X161913333Y-145247531D01*
X161913335Y-145247532D01*
X161913338Y-145247534D01*
X162113550Y-145340894D01*
X162326932Y-145398070D01*
X162484123Y-145411822D01*
X162546998Y-145417323D01*
X162547000Y-145417323D01*
X162547002Y-145417323D01*
X162602017Y-145412509D01*
X162767068Y-145398070D01*
X162980450Y-145340894D01*
X163180662Y-145247534D01*
X163361620Y-145120826D01*
X163517826Y-144964620D01*
X163644534Y-144783662D01*
X163704618Y-144654811D01*
X163750790Y-144602371D01*
X163817983Y-144583219D01*
X163884865Y-144603435D01*
X163929382Y-144654811D01*
X163989464Y-144783658D01*
X163989468Y-144783666D01*
X164116170Y-144964615D01*
X164116175Y-144964621D01*
X164272378Y-145120824D01*
X164272384Y-145120829D01*
X164453333Y-145247531D01*
X164453335Y-145247532D01*
X164453338Y-145247534D01*
X164653550Y-145340894D01*
X164866932Y-145398070D01*
X165024123Y-145411822D01*
X165086998Y-145417323D01*
X165087000Y-145417323D01*
X165087002Y-145417323D01*
X165142017Y-145412509D01*
X165307068Y-145398070D01*
X165520450Y-145340894D01*
X165720662Y-145247534D01*
X165901620Y-145120826D01*
X166057826Y-144964620D01*
X166184534Y-144783662D01*
X166244618Y-144654811D01*
X166290790Y-144602371D01*
X166357983Y-144583219D01*
X166424865Y-144603435D01*
X166469382Y-144654811D01*
X166529464Y-144783658D01*
X166529468Y-144783666D01*
X166656170Y-144964615D01*
X166656175Y-144964621D01*
X166812378Y-145120824D01*
X166812384Y-145120829D01*
X166993333Y-145247531D01*
X166993335Y-145247532D01*
X166993338Y-145247534D01*
X167193550Y-145340894D01*
X167406932Y-145398070D01*
X167564123Y-145411822D01*
X167626998Y-145417323D01*
X167627000Y-145417323D01*
X167627002Y-145417323D01*
X167682017Y-145412509D01*
X167847068Y-145398070D01*
X168060450Y-145340894D01*
X168260662Y-145247534D01*
X168441620Y-145120826D01*
X168597826Y-144964620D01*
X168724534Y-144783662D01*
X168784618Y-144654811D01*
X168830790Y-144602371D01*
X168897983Y-144583219D01*
X168964865Y-144603435D01*
X169009382Y-144654811D01*
X169069464Y-144783658D01*
X169069468Y-144783666D01*
X169196170Y-144964615D01*
X169196175Y-144964621D01*
X169352378Y-145120824D01*
X169352384Y-145120829D01*
X169533333Y-145247531D01*
X169533335Y-145247532D01*
X169533338Y-145247534D01*
X169733550Y-145340894D01*
X169946932Y-145398070D01*
X170104123Y-145411822D01*
X170166998Y-145417323D01*
X170167000Y-145417323D01*
X170167002Y-145417323D01*
X170222017Y-145412509D01*
X170387068Y-145398070D01*
X170600450Y-145340894D01*
X170800662Y-145247534D01*
X170981620Y-145120826D01*
X171137826Y-144964620D01*
X171264534Y-144783662D01*
X171324618Y-144654811D01*
X171370790Y-144602371D01*
X171437983Y-144583219D01*
X171504865Y-144603435D01*
X171549382Y-144654811D01*
X171609464Y-144783658D01*
X171609468Y-144783666D01*
X171736170Y-144964615D01*
X171736175Y-144964621D01*
X171892378Y-145120824D01*
X171892384Y-145120829D01*
X172073333Y-145247531D01*
X172073335Y-145247532D01*
X172073338Y-145247534D01*
X172273550Y-145340894D01*
X172486932Y-145398070D01*
X172644123Y-145411822D01*
X172706998Y-145417323D01*
X172707000Y-145417323D01*
X172707002Y-145417323D01*
X172762017Y-145412509D01*
X172927068Y-145398070D01*
X173140450Y-145340894D01*
X173340662Y-145247534D01*
X173521620Y-145120826D01*
X173677826Y-144964620D01*
X173804534Y-144783662D01*
X173864618Y-144654811D01*
X173910790Y-144602371D01*
X173977983Y-144583219D01*
X174044865Y-144603435D01*
X174089382Y-144654811D01*
X174149464Y-144783658D01*
X174149468Y-144783666D01*
X174276170Y-144964615D01*
X174276175Y-144964621D01*
X174432378Y-145120824D01*
X174432384Y-145120829D01*
X174613333Y-145247531D01*
X174613335Y-145247532D01*
X174613338Y-145247534D01*
X174813550Y-145340894D01*
X175026932Y-145398070D01*
X175184123Y-145411822D01*
X175246998Y-145417323D01*
X175247000Y-145417323D01*
X175247002Y-145417323D01*
X175302017Y-145412509D01*
X175467068Y-145398070D01*
X175680450Y-145340894D01*
X175880662Y-145247534D01*
X176061620Y-145120826D01*
X176217826Y-144964620D01*
X176344534Y-144783662D01*
X176404618Y-144654811D01*
X176450790Y-144602371D01*
X176517983Y-144583219D01*
X176584865Y-144603435D01*
X176629382Y-144654811D01*
X176689464Y-144783658D01*
X176689468Y-144783666D01*
X176816170Y-144964615D01*
X176816175Y-144964621D01*
X176972378Y-145120824D01*
X176972384Y-145120829D01*
X177153333Y-145247531D01*
X177153335Y-145247532D01*
X177153338Y-145247534D01*
X177353550Y-145340894D01*
X177566932Y-145398070D01*
X177724123Y-145411822D01*
X177786998Y-145417323D01*
X177787000Y-145417323D01*
X177787002Y-145417323D01*
X177842017Y-145412509D01*
X178007068Y-145398070D01*
X178220450Y-145340894D01*
X178420662Y-145247534D01*
X178601620Y-145120826D01*
X178757826Y-144964620D01*
X178884534Y-144783662D01*
X178944618Y-144654811D01*
X178990790Y-144602371D01*
X179057983Y-144583219D01*
X179124865Y-144603435D01*
X179169382Y-144654811D01*
X179229464Y-144783658D01*
X179229468Y-144783666D01*
X179356170Y-144964615D01*
X179356175Y-144964621D01*
X179512378Y-145120824D01*
X179512384Y-145120829D01*
X179693333Y-145247531D01*
X179693335Y-145247532D01*
X179693338Y-145247534D01*
X179893550Y-145340894D01*
X180106932Y-145398070D01*
X180264123Y-145411822D01*
X180326998Y-145417323D01*
X180327000Y-145417323D01*
X180327002Y-145417323D01*
X180382017Y-145412509D01*
X180547068Y-145398070D01*
X180760450Y-145340894D01*
X180960662Y-145247534D01*
X181141620Y-145120826D01*
X181297826Y-144964620D01*
X181424534Y-144783662D01*
X181484618Y-144654811D01*
X181530790Y-144602371D01*
X181597983Y-144583219D01*
X181664865Y-144603435D01*
X181709382Y-144654811D01*
X181769464Y-144783658D01*
X181769468Y-144783666D01*
X181896170Y-144964615D01*
X181896175Y-144964621D01*
X182052378Y-145120824D01*
X182052384Y-145120829D01*
X182233333Y-145247531D01*
X182233335Y-145247532D01*
X182233338Y-145247534D01*
X182433550Y-145340894D01*
X182646932Y-145398070D01*
X182804123Y-145411822D01*
X182866998Y-145417323D01*
X182867000Y-145417323D01*
X182867002Y-145417323D01*
X182922017Y-145412509D01*
X183087068Y-145398070D01*
X183300450Y-145340894D01*
X183500662Y-145247534D01*
X183681620Y-145120826D01*
X183837826Y-144964620D01*
X183964534Y-144783662D01*
X184057894Y-144583450D01*
X184115070Y-144370068D01*
X184129509Y-144205017D01*
X184134323Y-144150002D01*
X184134323Y-144149997D01*
X184127103Y-144067474D01*
X184115070Y-143929932D01*
X184057894Y-143716550D01*
X183964534Y-143516339D01*
X183955194Y-143503000D01*
X185335341Y-143503000D01*
X185355936Y-143738403D01*
X185355938Y-143738413D01*
X185417094Y-143966655D01*
X185417096Y-143966659D01*
X185417097Y-143966663D01*
X185467031Y-144073746D01*
X185516964Y-144180828D01*
X185516965Y-144180830D01*
X185652505Y-144374402D01*
X185819597Y-144541494D01*
X186013169Y-144677034D01*
X186013171Y-144677035D01*
X186227337Y-144776903D01*
X186455592Y-144838063D01*
X186632032Y-144853499D01*
X186632033Y-144853500D01*
X186632034Y-144853500D01*
X186749967Y-144853500D01*
X186749967Y-144853499D01*
X186926408Y-144838063D01*
X187154663Y-144776903D01*
X187368829Y-144677035D01*
X187562401Y-144541495D01*
X187729495Y-144374401D01*
X187865035Y-144180830D01*
X187964903Y-143966663D01*
X188026063Y-143738408D01*
X188046659Y-143503000D01*
X188026063Y-143267592D01*
X187978660Y-143090680D01*
X187964905Y-143039344D01*
X187964904Y-143039343D01*
X187964903Y-143039337D01*
X187865035Y-142825171D01*
X187865034Y-142825169D01*
X187729494Y-142631597D01*
X187562402Y-142464505D01*
X187368830Y-142328965D01*
X187368828Y-142328964D01*
X187261746Y-142279031D01*
X187154663Y-142229097D01*
X187154659Y-142229096D01*
X187154655Y-142229094D01*
X186926413Y-142167938D01*
X186926403Y-142167936D01*
X186749967Y-142152500D01*
X186749966Y-142152500D01*
X186632034Y-142152500D01*
X186632033Y-142152500D01*
X186455596Y-142167936D01*
X186455586Y-142167938D01*
X186227344Y-142229094D01*
X186227335Y-142229098D01*
X186013171Y-142328964D01*
X186013169Y-142328965D01*
X185819597Y-142464505D01*
X185652506Y-142631597D01*
X185652501Y-142631604D01*
X185516967Y-142825165D01*
X185516965Y-142825169D01*
X185417098Y-143039335D01*
X185417094Y-143039344D01*
X185355938Y-143267586D01*
X185355936Y-143267596D01*
X185335341Y-143502999D01*
X185335341Y-143503000D01*
X183955194Y-143503000D01*
X183901180Y-143425859D01*
X183837827Y-143335381D01*
X183770032Y-143267586D01*
X183681620Y-143179174D01*
X183681616Y-143179171D01*
X183681615Y-143179170D01*
X183500666Y-143052468D01*
X183500662Y-143052466D01*
X183472522Y-143039344D01*
X183300450Y-142959106D01*
X183300447Y-142959105D01*
X183300445Y-142959104D01*
X183087070Y-142901930D01*
X183087062Y-142901929D01*
X182867002Y-142882677D01*
X182866998Y-142882677D01*
X182646937Y-142901929D01*
X182646929Y-142901930D01*
X182433554Y-142959104D01*
X182433548Y-142959107D01*
X182233340Y-143052465D01*
X182233338Y-143052466D01*
X182052377Y-143179175D01*
X181896175Y-143335377D01*
X181769466Y-143516338D01*
X181769465Y-143516340D01*
X181709382Y-143645189D01*
X181663209Y-143697628D01*
X181596016Y-143716780D01*
X181529135Y-143696564D01*
X181484618Y-143645189D01*
X181424651Y-143516590D01*
X181424534Y-143516339D01*
X181361180Y-143425859D01*
X181297827Y-143335381D01*
X181230032Y-143267586D01*
X181141620Y-143179174D01*
X181141616Y-143179171D01*
X181141615Y-143179170D01*
X180960666Y-143052468D01*
X180960662Y-143052466D01*
X180932522Y-143039344D01*
X180760450Y-142959106D01*
X180760447Y-142959105D01*
X180760445Y-142959104D01*
X180547070Y-142901930D01*
X180547062Y-142901929D01*
X180327002Y-142882677D01*
X180326998Y-142882677D01*
X180106937Y-142901929D01*
X180106929Y-142901930D01*
X179893554Y-142959104D01*
X179893548Y-142959107D01*
X179693340Y-143052465D01*
X179693338Y-143052466D01*
X179512377Y-143179175D01*
X179356175Y-143335377D01*
X179229466Y-143516338D01*
X179229465Y-143516340D01*
X179169382Y-143645189D01*
X179123209Y-143697628D01*
X179056016Y-143716780D01*
X178989135Y-143696564D01*
X178944618Y-143645189D01*
X178884651Y-143516590D01*
X178884534Y-143516339D01*
X178821180Y-143425859D01*
X178757827Y-143335381D01*
X178690032Y-143267586D01*
X178601620Y-143179174D01*
X178601616Y-143179171D01*
X178601615Y-143179170D01*
X178420666Y-143052468D01*
X178420662Y-143052466D01*
X178392522Y-143039344D01*
X178220450Y-142959106D01*
X178220447Y-142959105D01*
X178220445Y-142959104D01*
X178007070Y-142901930D01*
X178007062Y-142901929D01*
X177787002Y-142882677D01*
X177786998Y-142882677D01*
X177566937Y-142901929D01*
X177566929Y-142901930D01*
X177353554Y-142959104D01*
X177353548Y-142959107D01*
X177153340Y-143052465D01*
X177153338Y-143052466D01*
X176972377Y-143179175D01*
X176816175Y-143335377D01*
X176689466Y-143516338D01*
X176689465Y-143516340D01*
X176629382Y-143645189D01*
X176583209Y-143697628D01*
X176516016Y-143716780D01*
X176449135Y-143696564D01*
X176404618Y-143645189D01*
X176344651Y-143516590D01*
X176344534Y-143516339D01*
X176281180Y-143425859D01*
X176217827Y-143335381D01*
X176150032Y-143267586D01*
X176061620Y-143179174D01*
X176061616Y-143179171D01*
X176061615Y-143179170D01*
X175880666Y-143052468D01*
X175880662Y-143052466D01*
X175852522Y-143039344D01*
X175680450Y-142959106D01*
X175680447Y-142959105D01*
X175680445Y-142959104D01*
X175467070Y-142901930D01*
X175467062Y-142901929D01*
X175247002Y-142882677D01*
X175246998Y-142882677D01*
X175026937Y-142901929D01*
X175026929Y-142901930D01*
X174813554Y-142959104D01*
X174813548Y-142959107D01*
X174613340Y-143052465D01*
X174613338Y-143052466D01*
X174432377Y-143179175D01*
X174276175Y-143335377D01*
X174149466Y-143516338D01*
X174149465Y-143516340D01*
X174089382Y-143645189D01*
X174043209Y-143697628D01*
X173976016Y-143716780D01*
X173909135Y-143696564D01*
X173864618Y-143645189D01*
X173804651Y-143516590D01*
X173804534Y-143516339D01*
X173741180Y-143425859D01*
X173677827Y-143335381D01*
X173610032Y-143267586D01*
X173521620Y-143179174D01*
X173521616Y-143179171D01*
X173521615Y-143179170D01*
X173340666Y-143052468D01*
X173340662Y-143052466D01*
X173312522Y-143039344D01*
X173140450Y-142959106D01*
X173140447Y-142959105D01*
X173140445Y-142959104D01*
X172927070Y-142901930D01*
X172927062Y-142901929D01*
X172707002Y-142882677D01*
X172706998Y-142882677D01*
X172486937Y-142901929D01*
X172486929Y-142901930D01*
X172273554Y-142959104D01*
X172273548Y-142959107D01*
X172073340Y-143052465D01*
X172073338Y-143052466D01*
X171892377Y-143179175D01*
X171736175Y-143335377D01*
X171609466Y-143516338D01*
X171609465Y-143516340D01*
X171549382Y-143645189D01*
X171503209Y-143697628D01*
X171436016Y-143716780D01*
X171369135Y-143696564D01*
X171324618Y-143645189D01*
X171264651Y-143516590D01*
X171264534Y-143516339D01*
X171201180Y-143425859D01*
X171137827Y-143335381D01*
X171070032Y-143267586D01*
X170981620Y-143179174D01*
X170981616Y-143179171D01*
X170981615Y-143179170D01*
X170800666Y-143052468D01*
X170800662Y-143052466D01*
X170772522Y-143039344D01*
X170600450Y-142959106D01*
X170600447Y-142959105D01*
X170600445Y-142959104D01*
X170387070Y-142901930D01*
X170387062Y-142901929D01*
X170167002Y-142882677D01*
X170166998Y-142882677D01*
X169946937Y-142901929D01*
X169946929Y-142901930D01*
X169733554Y-142959104D01*
X169733548Y-142959107D01*
X169533340Y-143052465D01*
X169533338Y-143052466D01*
X169352377Y-143179175D01*
X169196175Y-143335377D01*
X169069466Y-143516338D01*
X169069465Y-143516340D01*
X169009382Y-143645189D01*
X168963209Y-143697628D01*
X168896016Y-143716780D01*
X168829135Y-143696564D01*
X168784618Y-143645189D01*
X168724651Y-143516590D01*
X168724534Y-143516339D01*
X168661180Y-143425859D01*
X168597827Y-143335381D01*
X168530032Y-143267586D01*
X168441620Y-143179174D01*
X168441616Y-143179171D01*
X168441615Y-143179170D01*
X168260666Y-143052468D01*
X168260662Y-143052466D01*
X168232522Y-143039344D01*
X168060450Y-142959106D01*
X168060447Y-142959105D01*
X168060445Y-142959104D01*
X167847070Y-142901930D01*
X167847062Y-142901929D01*
X167627002Y-142882677D01*
X167626998Y-142882677D01*
X167406937Y-142901929D01*
X167406929Y-142901930D01*
X167193554Y-142959104D01*
X167193548Y-142959107D01*
X166993340Y-143052465D01*
X166993338Y-143052466D01*
X166812377Y-143179175D01*
X166656175Y-143335377D01*
X166529466Y-143516338D01*
X166529465Y-143516340D01*
X166469382Y-143645189D01*
X166423209Y-143697628D01*
X166356016Y-143716780D01*
X166289135Y-143696564D01*
X166244618Y-143645189D01*
X166184651Y-143516590D01*
X166184534Y-143516339D01*
X166121180Y-143425859D01*
X166057827Y-143335381D01*
X165990032Y-143267586D01*
X165901620Y-143179174D01*
X165901616Y-143179171D01*
X165901615Y-143179170D01*
X165720666Y-143052468D01*
X165720662Y-143052466D01*
X165692522Y-143039344D01*
X165520450Y-142959106D01*
X165520447Y-142959105D01*
X165520445Y-142959104D01*
X165307070Y-142901930D01*
X165307062Y-142901929D01*
X165087002Y-142882677D01*
X165086998Y-142882677D01*
X164866937Y-142901929D01*
X164866929Y-142901930D01*
X164653554Y-142959104D01*
X164653548Y-142959107D01*
X164453340Y-143052465D01*
X164453338Y-143052466D01*
X164272377Y-143179175D01*
X164116175Y-143335377D01*
X163989466Y-143516338D01*
X163989465Y-143516340D01*
X163929382Y-143645189D01*
X163883209Y-143697628D01*
X163816016Y-143716780D01*
X163749135Y-143696564D01*
X163704618Y-143645189D01*
X163644651Y-143516590D01*
X163644534Y-143516339D01*
X163581180Y-143425859D01*
X163517827Y-143335381D01*
X163450032Y-143267586D01*
X163361620Y-143179174D01*
X163361616Y-143179171D01*
X163361615Y-143179170D01*
X163180666Y-143052468D01*
X163180662Y-143052466D01*
X163152522Y-143039344D01*
X162980450Y-142959106D01*
X162980447Y-142959105D01*
X162980445Y-142959104D01*
X162767070Y-142901930D01*
X162767062Y-142901929D01*
X162547002Y-142882677D01*
X162546998Y-142882677D01*
X162326937Y-142901929D01*
X162326929Y-142901930D01*
X162113554Y-142959104D01*
X162113548Y-142959107D01*
X161913340Y-143052465D01*
X161913338Y-143052466D01*
X161732377Y-143179175D01*
X161576175Y-143335377D01*
X161449466Y-143516338D01*
X161449465Y-143516340D01*
X161389382Y-143645189D01*
X161343209Y-143697628D01*
X161276016Y-143716780D01*
X161209135Y-143696564D01*
X161164618Y-143645189D01*
X161104651Y-143516590D01*
X161104534Y-143516339D01*
X161041180Y-143425859D01*
X160977827Y-143335381D01*
X160910032Y-143267586D01*
X160821620Y-143179174D01*
X160821616Y-143179171D01*
X160821615Y-143179170D01*
X160640666Y-143052468D01*
X160640662Y-143052466D01*
X160612522Y-143039344D01*
X160440450Y-142959106D01*
X160440447Y-142959105D01*
X160440445Y-142959104D01*
X160227070Y-142901930D01*
X160227062Y-142901929D01*
X160007002Y-142882677D01*
X160006998Y-142882677D01*
X159786937Y-142901929D01*
X159786929Y-142901930D01*
X159573554Y-142959104D01*
X159573548Y-142959107D01*
X159373340Y-143052465D01*
X159373338Y-143052466D01*
X159192377Y-143179175D01*
X159036175Y-143335377D01*
X158909466Y-143516338D01*
X158909465Y-143516340D01*
X158849382Y-143645189D01*
X158803209Y-143697628D01*
X158736016Y-143716780D01*
X158669135Y-143696564D01*
X158624618Y-143645189D01*
X158564651Y-143516590D01*
X158564534Y-143516339D01*
X158501180Y-143425859D01*
X158437827Y-143335381D01*
X158370032Y-143267586D01*
X158281620Y-143179174D01*
X158281616Y-143179171D01*
X158281615Y-143179170D01*
X158100666Y-143052468D01*
X158100662Y-143052466D01*
X158072522Y-143039344D01*
X157900450Y-142959106D01*
X157900447Y-142959105D01*
X157900445Y-142959104D01*
X157687070Y-142901930D01*
X157687062Y-142901929D01*
X157467002Y-142882677D01*
X157466998Y-142882677D01*
X157246937Y-142901929D01*
X157246929Y-142901930D01*
X157033554Y-142959104D01*
X157033548Y-142959107D01*
X156833340Y-143052465D01*
X156833338Y-143052466D01*
X156652377Y-143179175D01*
X156496175Y-143335377D01*
X156369466Y-143516338D01*
X156369465Y-143516340D01*
X156309382Y-143645189D01*
X156263209Y-143697628D01*
X156196016Y-143716780D01*
X156129135Y-143696564D01*
X156084618Y-143645189D01*
X156024651Y-143516590D01*
X156024534Y-143516339D01*
X155961180Y-143425859D01*
X155897827Y-143335381D01*
X155830032Y-143267586D01*
X155741620Y-143179174D01*
X155741616Y-143179171D01*
X155741615Y-143179170D01*
X155560666Y-143052468D01*
X155560662Y-143052466D01*
X155532522Y-143039344D01*
X155360450Y-142959106D01*
X155360447Y-142959105D01*
X155360445Y-142959104D01*
X155147070Y-142901930D01*
X155147062Y-142901929D01*
X154927002Y-142882677D01*
X154926998Y-142882677D01*
X154706937Y-142901929D01*
X154706929Y-142901930D01*
X154493554Y-142959104D01*
X154493548Y-142959107D01*
X154293340Y-143052465D01*
X154293338Y-143052466D01*
X154112377Y-143179175D01*
X153956175Y-143335377D01*
X153829467Y-143516337D01*
X153769105Y-143645782D01*
X153722932Y-143698221D01*
X153655738Y-143717372D01*
X153588857Y-143697156D01*
X153544341Y-143645780D01*
X153484098Y-143516589D01*
X153484097Y-143516587D01*
X153438741Y-143451811D01*
X153438740Y-143451810D01*
X152876521Y-144014029D01*
X152853845Y-143936799D01*
X152774869Y-143813910D01*
X152664470Y-143718248D01*
X152531592Y-143657565D01*
X152526600Y-143656847D01*
X153085188Y-143098259D01*
X153085187Y-143098258D01*
X153020411Y-143052901D01*
X153020405Y-143052898D01*
X152820284Y-142959580D01*
X152820270Y-142959575D01*
X152606986Y-142902426D01*
X152606976Y-142902424D01*
X152387001Y-142883179D01*
X152386999Y-142883179D01*
X152167023Y-142902424D01*
X152167013Y-142902426D01*
X151953729Y-142959575D01*
X151953720Y-142959579D01*
X151753590Y-143052901D01*
X151688811Y-143098258D01*
X152247400Y-143656847D01*
X152242408Y-143657565D01*
X152109530Y-143718248D01*
X151999131Y-143813910D01*
X151920155Y-143936799D01*
X151897477Y-144014030D01*
X151335258Y-143451811D01*
X151289901Y-143516590D01*
X151229658Y-143645781D01*
X151183485Y-143698220D01*
X151116292Y-143717372D01*
X151049411Y-143697156D01*
X151004894Y-143645781D01*
X150944651Y-143516590D01*
X150944534Y-143516339D01*
X150881180Y-143425859D01*
X150817827Y-143335381D01*
X150750032Y-143267586D01*
X150661620Y-143179174D01*
X150661616Y-143179171D01*
X150661615Y-143179170D01*
X150480666Y-143052468D01*
X150480662Y-143052466D01*
X150452522Y-143039344D01*
X150280450Y-142959106D01*
X150280447Y-142959105D01*
X150280445Y-142959104D01*
X150067070Y-142901930D01*
X150067062Y-142901929D01*
X149847002Y-142882677D01*
X149846998Y-142882677D01*
X149626937Y-142901929D01*
X149626929Y-142901930D01*
X149413554Y-142959104D01*
X149413548Y-142959107D01*
X149213340Y-143052465D01*
X149213338Y-143052466D01*
X149032377Y-143179175D01*
X148876175Y-143335377D01*
X148749466Y-143516338D01*
X148749465Y-143516340D01*
X148689382Y-143645189D01*
X148643209Y-143697628D01*
X148576016Y-143716780D01*
X148509135Y-143696564D01*
X148464618Y-143645189D01*
X148404651Y-143516590D01*
X148404534Y-143516339D01*
X148341180Y-143425859D01*
X148277827Y-143335381D01*
X148210032Y-143267586D01*
X148121620Y-143179174D01*
X148121616Y-143179171D01*
X148121615Y-143179170D01*
X147940666Y-143052468D01*
X147940662Y-143052466D01*
X147912522Y-143039344D01*
X147740450Y-142959106D01*
X147740447Y-142959105D01*
X147740445Y-142959104D01*
X147527070Y-142901930D01*
X147527062Y-142901929D01*
X147307002Y-142882677D01*
X147306998Y-142882677D01*
X147086937Y-142901929D01*
X147086929Y-142901930D01*
X146873554Y-142959104D01*
X146873548Y-142959107D01*
X146673340Y-143052465D01*
X146673338Y-143052466D01*
X146492377Y-143179175D01*
X146336175Y-143335377D01*
X146209466Y-143516338D01*
X146209465Y-143516340D01*
X146149382Y-143645189D01*
X146103209Y-143697628D01*
X146036016Y-143716780D01*
X145969135Y-143696564D01*
X145924618Y-143645189D01*
X145864651Y-143516590D01*
X145864534Y-143516339D01*
X145801180Y-143425859D01*
X145737827Y-143335381D01*
X145670032Y-143267586D01*
X145581620Y-143179174D01*
X145581616Y-143179171D01*
X145581615Y-143179170D01*
X145400666Y-143052468D01*
X145400662Y-143052466D01*
X145372522Y-143039344D01*
X145200450Y-142959106D01*
X145200447Y-142959105D01*
X145200445Y-142959104D01*
X144987070Y-142901930D01*
X144987062Y-142901929D01*
X144767002Y-142882677D01*
X144766998Y-142882677D01*
X144546937Y-142901929D01*
X144546929Y-142901930D01*
X144333554Y-142959104D01*
X144333548Y-142959107D01*
X144133340Y-143052465D01*
X144133338Y-143052466D01*
X143952377Y-143179175D01*
X143796175Y-143335377D01*
X143669466Y-143516338D01*
X143669465Y-143516340D01*
X143576107Y-143716548D01*
X143576104Y-143716554D01*
X143518930Y-143929929D01*
X143518929Y-143929937D01*
X143499677Y-144149997D01*
X143499677Y-144150002D01*
X142587028Y-144150002D01*
X142603189Y-144132698D01*
X142768901Y-143897936D01*
X142901104Y-143642797D01*
X142997334Y-143372032D01*
X143055798Y-143090686D01*
X143075408Y-142804000D01*
X143055798Y-142517314D01*
X142997334Y-142235968D01*
X142994892Y-142229098D01*
X142901105Y-141965206D01*
X142901106Y-141965206D01*
X142768901Y-141710064D01*
X142603187Y-141475299D01*
X142524554Y-141391105D01*
X142407053Y-141265292D01*
X142184147Y-141083945D01*
X142184146Y-141083944D01*
X141938617Y-140934634D01*
X141675063Y-140820158D01*
X141675061Y-140820157D01*
X141675058Y-140820156D01*
X141545578Y-140783877D01*
X141398364Y-140742630D01*
X141398359Y-140742629D01*
X141398358Y-140742629D01*
X141256018Y-140723064D01*
X141113679Y-140703500D01*
X141113678Y-140703500D01*
X140826322Y-140703500D01*
X140826321Y-140703500D01*
X140541642Y-140742629D01*
X140541635Y-140742630D01*
X140333861Y-140800845D01*
X140264942Y-140820156D01*
X140264939Y-140820156D01*
X140264936Y-140820158D01*
X140264935Y-140820158D01*
X140001382Y-140934634D01*
X139755853Y-141083944D01*
X139532950Y-141265289D01*
X139336812Y-141475299D01*
X139171098Y-141710064D01*
X139038894Y-141965206D01*
X138942667Y-142235962D01*
X138942666Y-142235965D01*
X138884201Y-142517319D01*
X138864592Y-142804000D01*
X135120500Y-142804000D01*
X135120500Y-125024000D01*
X138864592Y-125024000D01*
X138884201Y-125310680D01*
X138942666Y-125592034D01*
X138942667Y-125592037D01*
X139038894Y-125862793D01*
X139038893Y-125862793D01*
X139171098Y-126117935D01*
X139336812Y-126352700D01*
X139380672Y-126399662D01*
X139532947Y-126562708D01*
X139571660Y-126594203D01*
X139755853Y-126744055D01*
X140001382Y-126893365D01*
X140188237Y-126974526D01*
X140264942Y-127007844D01*
X140541642Y-127085371D01*
X140791920Y-127119771D01*
X140826321Y-127124500D01*
X140826322Y-127124500D01*
X141113679Y-127124500D01*
X141144370Y-127120281D01*
X141398358Y-127085371D01*
X141675058Y-127007844D01*
X141788015Y-126958779D01*
X141938617Y-126893365D01*
X141938620Y-126893363D01*
X141938625Y-126893361D01*
X142184147Y-126744055D01*
X142407053Y-126562708D01*
X142603189Y-126352698D01*
X142768901Y-126117936D01*
X142901104Y-125862797D01*
X142997334Y-125592032D01*
X143055798Y-125310686D01*
X143075408Y-125024000D01*
X143055798Y-124737314D01*
X142997334Y-124455968D01*
X142955220Y-124337472D01*
X142901105Y-124185206D01*
X142901106Y-124185206D01*
X142768901Y-123930064D01*
X142603187Y-123695299D01*
X142514651Y-123600501D01*
X142407053Y-123485292D01*
X142184147Y-123303945D01*
X142184146Y-123303944D01*
X141938617Y-123154634D01*
X141675063Y-123040158D01*
X141675061Y-123040157D01*
X141675058Y-123040156D01*
X141545578Y-123003877D01*
X141398364Y-122962630D01*
X141398359Y-122962629D01*
X141398358Y-122962629D01*
X141256018Y-122943064D01*
X141113679Y-122923500D01*
X141113678Y-122923500D01*
X140826322Y-122923500D01*
X140826321Y-122923500D01*
X140541642Y-122962629D01*
X140541635Y-122962630D01*
X140333861Y-123020845D01*
X140264942Y-123040156D01*
X140264939Y-123040156D01*
X140264936Y-123040158D01*
X140264935Y-123040158D01*
X140001382Y-123154634D01*
X139755853Y-123303944D01*
X139532950Y-123485289D01*
X139336812Y-123695299D01*
X139171098Y-123930064D01*
X139038894Y-124185206D01*
X138942667Y-124455962D01*
X138942666Y-124455965D01*
X138884201Y-124737319D01*
X138864592Y-125024000D01*
X135120500Y-125024000D01*
X135120500Y-118110005D01*
X139829744Y-118110005D01*
X139848748Y-118412074D01*
X139848749Y-118412081D01*
X139905468Y-118709410D01*
X139979684Y-118937823D01*
X139999001Y-118997274D01*
X140127877Y-119271150D01*
X140127879Y-119271153D01*
X140127880Y-119271155D01*
X140290058Y-119526708D01*
X140290061Y-119526712D01*
X140290062Y-119526713D01*
X140482999Y-119759934D01*
X140703643Y-119967132D01*
X140703653Y-119967140D01*
X140948508Y-120145038D01*
X140948513Y-120145040D01*
X140948520Y-120145046D01*
X141213763Y-120290865D01*
X141213768Y-120290867D01*
X141213770Y-120290868D01*
X141213771Y-120290869D01*
X141495186Y-120402289D01*
X141495189Y-120402290D01*
X141788359Y-120477563D01*
X141788363Y-120477564D01*
X141851360Y-120485522D01*
X142088647Y-120515499D01*
X142088656Y-120515499D01*
X142088659Y-120515500D01*
X142088661Y-120515500D01*
X142391339Y-120515500D01*
X142391341Y-120515500D01*
X142391344Y-120515499D01*
X142391352Y-120515499D01*
X142570539Y-120492862D01*
X142691637Y-120477564D01*
X142984810Y-120402290D01*
X142984813Y-120402289D01*
X143266228Y-120290869D01*
X143266229Y-120290868D01*
X143266227Y-120290868D01*
X143266237Y-120290865D01*
X143531480Y-120145046D01*
X143776355Y-119967134D01*
X143997001Y-119759934D01*
X144189938Y-119526713D01*
X144352123Y-119271150D01*
X144480999Y-118997274D01*
X144574533Y-118709406D01*
X144631250Y-118412085D01*
X144632662Y-118389642D01*
X144650256Y-118110005D01*
X144650256Y-118109994D01*
X144631251Y-117807925D01*
X144631250Y-117807918D01*
X144631250Y-117807915D01*
X144574533Y-117510594D01*
X144480999Y-117222726D01*
X144352123Y-116948850D01*
X144290528Y-116851792D01*
X144189941Y-116693291D01*
X144106389Y-116592294D01*
X143997001Y-116460066D01*
X143776355Y-116252866D01*
X143776352Y-116252864D01*
X143776346Y-116252859D01*
X143531491Y-116074961D01*
X143531484Y-116074956D01*
X143531480Y-116074954D01*
X143266237Y-115929135D01*
X143266234Y-115929133D01*
X143266229Y-115929131D01*
X143266228Y-115929130D01*
X142984813Y-115817710D01*
X142984810Y-115817709D01*
X142691640Y-115742436D01*
X142691627Y-115742434D01*
X142391352Y-115704500D01*
X142391341Y-115704500D01*
X142088659Y-115704500D01*
X142088647Y-115704500D01*
X141788372Y-115742434D01*
X141788359Y-115742436D01*
X141495189Y-115817709D01*
X141495186Y-115817710D01*
X141213771Y-115929130D01*
X141213770Y-115929131D01*
X140948520Y-116074954D01*
X140948508Y-116074961D01*
X140703653Y-116252859D01*
X140703643Y-116252867D01*
X140549084Y-116398008D01*
X140482999Y-116460066D01*
X140418686Y-116537806D01*
X140290058Y-116693291D01*
X140127880Y-116948844D01*
X140127877Y-116948848D01*
X140127877Y-116948850D01*
X140057489Y-117098433D01*
X139999000Y-117222728D01*
X139905468Y-117510589D01*
X139848749Y-117807918D01*
X139848748Y-117807925D01*
X139829744Y-118109994D01*
X139829744Y-118110005D01*
X135120500Y-118110005D01*
X135120500Y-102870005D01*
X139829744Y-102870005D01*
X139848748Y-103172074D01*
X139848749Y-103172081D01*
X139905468Y-103469410D01*
X139979684Y-103697823D01*
X139999001Y-103757274D01*
X140127877Y-104031150D01*
X140127879Y-104031153D01*
X140127880Y-104031155D01*
X140290058Y-104286708D01*
X140290061Y-104286712D01*
X140290062Y-104286713D01*
X140482999Y-104519934D01*
X140636364Y-104663953D01*
X140703643Y-104727132D01*
X140703653Y-104727140D01*
X140948508Y-104905038D01*
X140948513Y-104905040D01*
X140948520Y-104905046D01*
X141213763Y-105050865D01*
X141213768Y-105050867D01*
X141213770Y-105050868D01*
X141213771Y-105050869D01*
X141495186Y-105162289D01*
X141495189Y-105162290D01*
X141788359Y-105237563D01*
X141788363Y-105237564D01*
X141851360Y-105245522D01*
X142088647Y-105275499D01*
X142088656Y-105275499D01*
X142088659Y-105275500D01*
X142088661Y-105275500D01*
X142391339Y-105275500D01*
X142391341Y-105275500D01*
X142391344Y-105275499D01*
X142391352Y-105275499D01*
X142570539Y-105252862D01*
X142691637Y-105237564D01*
X142984810Y-105162290D01*
X142984813Y-105162289D01*
X143266228Y-105050869D01*
X143266229Y-105050868D01*
X143266227Y-105050868D01*
X143266237Y-105050865D01*
X143531480Y-104905046D01*
X143776355Y-104727134D01*
X143997001Y-104519934D01*
X144189938Y-104286713D01*
X144352123Y-104031150D01*
X144480999Y-103757274D01*
X144574533Y-103469406D01*
X144631250Y-103172085D01*
X144634789Y-103115837D01*
X144650256Y-102870005D01*
X144650256Y-102869994D01*
X144631251Y-102567925D01*
X144631250Y-102567918D01*
X144631250Y-102567915D01*
X144574533Y-102270594D01*
X144480999Y-101982726D01*
X144352123Y-101708850D01*
X144189938Y-101453287D01*
X143997001Y-101220066D01*
X143776355Y-101012866D01*
X143776352Y-101012864D01*
X143776346Y-101012859D01*
X143531491Y-100834961D01*
X143531484Y-100834956D01*
X143531480Y-100834954D01*
X143266237Y-100689135D01*
X143266234Y-100689133D01*
X143266229Y-100689131D01*
X143266228Y-100689130D01*
X142984813Y-100577710D01*
X142984810Y-100577709D01*
X142691640Y-100502436D01*
X142691627Y-100502434D01*
X142391352Y-100464500D01*
X142391341Y-100464500D01*
X142088659Y-100464500D01*
X142088647Y-100464500D01*
X141788372Y-100502434D01*
X141788359Y-100502436D01*
X141495189Y-100577709D01*
X141495186Y-100577710D01*
X141213771Y-100689130D01*
X141213770Y-100689131D01*
X140948520Y-100834954D01*
X140948508Y-100834961D01*
X140703653Y-101012859D01*
X140703643Y-101012867D01*
X140483001Y-101220064D01*
X140290058Y-101453291D01*
X140127880Y-101708844D01*
X140127877Y-101708848D01*
X140127877Y-101708850D01*
X140102915Y-101761898D01*
X139999000Y-101982728D01*
X139905468Y-102270589D01*
X139848749Y-102567918D01*
X139848748Y-102567925D01*
X139829744Y-102869994D01*
X139829744Y-102870005D01*
X135120500Y-102870005D01*
X135120500Y-95250005D01*
X137416744Y-95250005D01*
X137435748Y-95552074D01*
X137435749Y-95552081D01*
X137444146Y-95596101D01*
X137488950Y-95830971D01*
X137492468Y-95849410D01*
X137572556Y-96095895D01*
X137586001Y-96137274D01*
X137714877Y-96411150D01*
X137714879Y-96411153D01*
X137714880Y-96411155D01*
X137877058Y-96666708D01*
X137877061Y-96666712D01*
X137877062Y-96666713D01*
X138069999Y-96899934D01*
X138290643Y-97107132D01*
X138290653Y-97107140D01*
X138535508Y-97285038D01*
X138535513Y-97285040D01*
X138535520Y-97285046D01*
X138800763Y-97430865D01*
X138800768Y-97430867D01*
X138800770Y-97430868D01*
X138800771Y-97430869D01*
X139082186Y-97542289D01*
X139082189Y-97542290D01*
X139375359Y-97617563D01*
X139375363Y-97617564D01*
X139438360Y-97625522D01*
X139675647Y-97655499D01*
X139675656Y-97655499D01*
X139675659Y-97655500D01*
X139675661Y-97655500D01*
X139978339Y-97655500D01*
X139978341Y-97655500D01*
X139978344Y-97655499D01*
X139978352Y-97655499D01*
X140157539Y-97632862D01*
X140278637Y-97617564D01*
X140571810Y-97542290D01*
X140571813Y-97542289D01*
X140853228Y-97430869D01*
X140853229Y-97430868D01*
X140853227Y-97430868D01*
X140853237Y-97430865D01*
X141118480Y-97285046D01*
X141363355Y-97107134D01*
X141584001Y-96899934D01*
X141776938Y-96666713D01*
X141939123Y-96411150D01*
X142067999Y-96137274D01*
X142161533Y-95849406D01*
X142218250Y-95552085D01*
X142220750Y-95512349D01*
X142237256Y-95250005D01*
X142237256Y-95249994D01*
X142218251Y-94947925D01*
X142218250Y-94947918D01*
X142218250Y-94947915D01*
X142161533Y-94650594D01*
X142067999Y-94362726D01*
X141939123Y-94088850D01*
X141799007Y-93868062D01*
X141776941Y-93833291D01*
X141776938Y-93833287D01*
X141584001Y-93600066D01*
X141363355Y-93392866D01*
X141363352Y-93392864D01*
X141363346Y-93392859D01*
X141118491Y-93214961D01*
X141118484Y-93214956D01*
X141118480Y-93214954D01*
X140853237Y-93069135D01*
X140853234Y-93069133D01*
X140853229Y-93069131D01*
X140853228Y-93069130D01*
X140571813Y-92957710D01*
X140571810Y-92957709D01*
X140278640Y-92882436D01*
X140278627Y-92882434D01*
X139978352Y-92844500D01*
X139978341Y-92844500D01*
X139675659Y-92844500D01*
X139675647Y-92844500D01*
X139375372Y-92882434D01*
X139375359Y-92882436D01*
X139082189Y-92957709D01*
X139082186Y-92957710D01*
X138800771Y-93069130D01*
X138800770Y-93069131D01*
X138535520Y-93214954D01*
X138535508Y-93214961D01*
X138290653Y-93392859D01*
X138290643Y-93392867D01*
X138088051Y-93583114D01*
X138069999Y-93600066D01*
X138034177Y-93643367D01*
X137877058Y-93833291D01*
X137714880Y-94088844D01*
X137586000Y-94362728D01*
X137492468Y-94650589D01*
X137435749Y-94947918D01*
X137435748Y-94947925D01*
X137416744Y-95249994D01*
X137416744Y-95250005D01*
X135120500Y-95250005D01*
X135120500Y-90170000D01*
X138534180Y-90170000D01*
X138553820Y-90394491D01*
X138553821Y-90394498D01*
X138612145Y-90612165D01*
X138612149Y-90612176D01*
X138707382Y-90816404D01*
X138707385Y-90816410D01*
X138836643Y-91001011D01*
X138995988Y-91160356D01*
X138995991Y-91160358D01*
X139180590Y-91289615D01*
X139294262Y-91342620D01*
X139384823Y-91384850D01*
X139384825Y-91384850D01*
X139384830Y-91384853D01*
X139602504Y-91443179D01*
X139782100Y-91458891D01*
X139826999Y-91462820D01*
X139827000Y-91462820D01*
X139827001Y-91462820D01*
X139864416Y-91459546D01*
X140051496Y-91443179D01*
X140269170Y-91384853D01*
X140473410Y-91289615D01*
X140658009Y-91160358D01*
X140817358Y-91001009D01*
X140946615Y-90816410D01*
X141041853Y-90612170D01*
X141100179Y-90394496D01*
X141119820Y-90170000D01*
X141100179Y-89945504D01*
X141041853Y-89727830D01*
X141009346Y-89658119D01*
X140953598Y-89538565D01*
X140946615Y-89523590D01*
X140817358Y-89338991D01*
X140817356Y-89338988D01*
X140658011Y-89179643D01*
X140473410Y-89050385D01*
X140473404Y-89050382D01*
X140391912Y-89012382D01*
X140339472Y-88966210D01*
X140320320Y-88899017D01*
X140340535Y-88832135D01*
X140391912Y-88787618D01*
X140403198Y-88782354D01*
X140473410Y-88749615D01*
X140658009Y-88620358D01*
X140817358Y-88461009D01*
X140946615Y-88276410D01*
X141041853Y-88072170D01*
X141100179Y-87854496D01*
X141119820Y-87630000D01*
X141100179Y-87405504D01*
X141041853Y-87187830D01*
X141023670Y-87148837D01*
X140984894Y-87065680D01*
X140946615Y-86983590D01*
X140817358Y-86798991D01*
X140817356Y-86798988D01*
X140658011Y-86639643D01*
X140473410Y-86510385D01*
X140473404Y-86510382D01*
X140391912Y-86472382D01*
X140339472Y-86426210D01*
X140320320Y-86359017D01*
X140340535Y-86292135D01*
X140391912Y-86247618D01*
X140403198Y-86242354D01*
X140473410Y-86209615D01*
X140658009Y-86080358D01*
X140817358Y-85921009D01*
X140946615Y-85736410D01*
X141041853Y-85532170D01*
X141100179Y-85314496D01*
X141119820Y-85090000D01*
X141100179Y-84865504D01*
X141041853Y-84647830D01*
X141013719Y-84587497D01*
X140967346Y-84488048D01*
X140946615Y-84443590D01*
X140817358Y-84258991D01*
X140817356Y-84258988D01*
X140658011Y-84099643D01*
X140473410Y-83970385D01*
X140473404Y-83970382D01*
X140391912Y-83932382D01*
X140339472Y-83886210D01*
X140320320Y-83819017D01*
X140340535Y-83752135D01*
X140391912Y-83707618D01*
X140403198Y-83702354D01*
X140473410Y-83669615D01*
X140658009Y-83540358D01*
X140817358Y-83381009D01*
X140946615Y-83196410D01*
X141041853Y-82992170D01*
X141100179Y-82774496D01*
X141119820Y-82550000D01*
X141100179Y-82325504D01*
X141041853Y-82107830D01*
X141009346Y-82038119D01*
X140984894Y-81985680D01*
X140946615Y-81903590D01*
X140817358Y-81718991D01*
X140817356Y-81718988D01*
X140658011Y-81559643D01*
X140473410Y-81430385D01*
X140473404Y-81430382D01*
X140391912Y-81392382D01*
X140339472Y-81346210D01*
X140320320Y-81279017D01*
X140340535Y-81212135D01*
X140391912Y-81167618D01*
X140403198Y-81162354D01*
X140473410Y-81129615D01*
X140658009Y-81000358D01*
X140817358Y-80841009D01*
X140946615Y-80656410D01*
X141041853Y-80452170D01*
X141100179Y-80234496D01*
X141119820Y-80010000D01*
X141100179Y-79785504D01*
X141041853Y-79567830D01*
X141034705Y-79552502D01*
X140984894Y-79445680D01*
X140946615Y-79363590D01*
X140817358Y-79178991D01*
X140817356Y-79178988D01*
X140658011Y-79019643D01*
X140473410Y-78890385D01*
X140473404Y-78890382D01*
X140391912Y-78852382D01*
X140339472Y-78806210D01*
X140320320Y-78739017D01*
X140340535Y-78672135D01*
X140391912Y-78627618D01*
X140420931Y-78614086D01*
X140473410Y-78589615D01*
X140658009Y-78460358D01*
X140817358Y-78301009D01*
X140946615Y-78116410D01*
X141041853Y-77912170D01*
X141100179Y-77694496D01*
X141119820Y-77470000D01*
X141100179Y-77245504D01*
X141041853Y-77027830D01*
X141024757Y-76991168D01*
X140984577Y-76905000D01*
X140946615Y-76823590D01*
X140817358Y-76638991D01*
X140817356Y-76638988D01*
X140658011Y-76479643D01*
X140473410Y-76350385D01*
X140473408Y-76350384D01*
X140391320Y-76312106D01*
X140338881Y-76265934D01*
X140319729Y-76198740D01*
X140339945Y-76131859D01*
X140391321Y-76087342D01*
X140473154Y-76049182D01*
X140543425Y-75999978D01*
X139985951Y-75442503D01*
X140106752Y-75390032D01*
X140220493Y-75297497D01*
X140305051Y-75177706D01*
X140337357Y-75086804D01*
X140896978Y-75646425D01*
X140946181Y-75576156D01*
X141041380Y-75372000D01*
X141041384Y-75371991D01*
X141099683Y-75154414D01*
X141099685Y-75154404D01*
X141111130Y-75023581D01*
X141136582Y-74958513D01*
X141193172Y-74917534D01*
X141262934Y-74913655D01*
X141322338Y-74946705D01*
X141453182Y-75077549D01*
X141486666Y-75138870D01*
X141489500Y-75165229D01*
X141489500Y-83121294D01*
X141488191Y-83139263D01*
X141484710Y-83163025D01*
X141489028Y-83212368D01*
X141489500Y-83223176D01*
X141489500Y-83228711D01*
X141493098Y-83259495D01*
X141493464Y-83263083D01*
X141500000Y-83337791D01*
X141501461Y-83344867D01*
X141501403Y-83344878D01*
X141503034Y-83352237D01*
X141503092Y-83352224D01*
X141504757Y-83359249D01*
X141504758Y-83359254D01*
X141504759Y-83359255D01*
X141521754Y-83405951D01*
X141530400Y-83429705D01*
X141531582Y-83433107D01*
X141555182Y-83504326D01*
X141558236Y-83510874D01*
X141558182Y-83510898D01*
X141561470Y-83517688D01*
X141561521Y-83517663D01*
X141564761Y-83524114D01*
X141605979Y-83586784D01*
X141607889Y-83589782D01*
X141626515Y-83619978D01*
X141647289Y-83653658D01*
X141651766Y-83659319D01*
X141651719Y-83659356D01*
X141656482Y-83665202D01*
X141656528Y-83665164D01*
X141661173Y-83670699D01*
X141715708Y-83722150D01*
X141718296Y-83724664D01*
X156693181Y-98699548D01*
X156726666Y-98760871D01*
X156729500Y-98787229D01*
X156729500Y-116477769D01*
X156709815Y-116544808D01*
X156693181Y-116565450D01*
X156435339Y-116823291D01*
X156374016Y-116856776D01*
X156304324Y-116851792D01*
X156248391Y-116809920D01*
X156224130Y-116746417D01*
X156212685Y-116615596D01*
X156212683Y-116615585D01*
X156154384Y-116398008D01*
X156154381Y-116397999D01*
X156059180Y-116193842D01*
X156059179Y-116193840D01*
X156009978Y-116123574D01*
X156009978Y-116123573D01*
X155451891Y-116681660D01*
X155447327Y-116659696D01*
X155379869Y-116529507D01*
X155279787Y-116422345D01*
X155154505Y-116346160D01*
X155096530Y-116329916D01*
X155656425Y-115770021D01*
X155656424Y-115770020D01*
X155586159Y-115720820D01*
X155586157Y-115720819D01*
X155504319Y-115682657D01*
X155451880Y-115636484D01*
X155432728Y-115569290D01*
X155452944Y-115502409D01*
X155504317Y-115457895D01*
X155586410Y-115419615D01*
X155771009Y-115290358D01*
X155930358Y-115131009D01*
X156059615Y-114946410D01*
X156154853Y-114742170D01*
X156213179Y-114524496D01*
X156232820Y-114300000D01*
X156213179Y-114075504D01*
X156154853Y-113857830D01*
X156059615Y-113653590D01*
X155930358Y-113468991D01*
X155930356Y-113468988D01*
X155771011Y-113309643D01*
X155586410Y-113180385D01*
X155586404Y-113180382D01*
X155504912Y-113142382D01*
X155452472Y-113096210D01*
X155433320Y-113029017D01*
X155453535Y-112962135D01*
X155504912Y-112917618D01*
X155516198Y-112912354D01*
X155586410Y-112879615D01*
X155771009Y-112750358D01*
X155930358Y-112591009D01*
X156059615Y-112406410D01*
X156154853Y-112202170D01*
X156213179Y-111984496D01*
X156232820Y-111760000D01*
X156213179Y-111535504D01*
X156154853Y-111317830D01*
X156059615Y-111113590D01*
X155930358Y-110928991D01*
X155930356Y-110928988D01*
X155771011Y-110769643D01*
X155586410Y-110640385D01*
X155586404Y-110640382D01*
X155504912Y-110602382D01*
X155452472Y-110556210D01*
X155433320Y-110489017D01*
X155453535Y-110422135D01*
X155504912Y-110377618D01*
X155516198Y-110372354D01*
X155586410Y-110339615D01*
X155771009Y-110210358D01*
X155930358Y-110051009D01*
X156059615Y-109866410D01*
X156154853Y-109662170D01*
X156213179Y-109444496D01*
X156232820Y-109220000D01*
X156213179Y-108995504D01*
X156154853Y-108777830D01*
X156137210Y-108739995D01*
X156059617Y-108573595D01*
X156059614Y-108573589D01*
X155930356Y-108388988D01*
X155771011Y-108229643D01*
X155586410Y-108100385D01*
X155586404Y-108100382D01*
X155504912Y-108062382D01*
X155452472Y-108016210D01*
X155433320Y-107949017D01*
X155453535Y-107882135D01*
X155504912Y-107837618D01*
X155516198Y-107832354D01*
X155586410Y-107799615D01*
X155771009Y-107670358D01*
X155930358Y-107511009D01*
X156059615Y-107326410D01*
X156154853Y-107122170D01*
X156213179Y-106904496D01*
X156232820Y-106680000D01*
X156213179Y-106455504D01*
X156154853Y-106237830D01*
X156059615Y-106033590D01*
X155930358Y-105848991D01*
X155930356Y-105848988D01*
X155771011Y-105689643D01*
X155586410Y-105560385D01*
X155586404Y-105560382D01*
X155504912Y-105522382D01*
X155452472Y-105476210D01*
X155433320Y-105409017D01*
X155453535Y-105342135D01*
X155504912Y-105297618D01*
X155516198Y-105292354D01*
X155586410Y-105259615D01*
X155771009Y-105130358D01*
X155930358Y-104971009D01*
X156059615Y-104786410D01*
X156154853Y-104582170D01*
X156213179Y-104364496D01*
X156232820Y-104140000D01*
X156213179Y-103915504D01*
X156154853Y-103697830D01*
X156059615Y-103493590D01*
X155930358Y-103308991D01*
X155930356Y-103308988D01*
X155771011Y-103149643D01*
X155586410Y-103020385D01*
X155586404Y-103020382D01*
X155504912Y-102982382D01*
X155452472Y-102936210D01*
X155433320Y-102869017D01*
X155453535Y-102802135D01*
X155504912Y-102757618D01*
X155516198Y-102752354D01*
X155586410Y-102719615D01*
X155771009Y-102590358D01*
X155930358Y-102431009D01*
X156059615Y-102246410D01*
X156154853Y-102042170D01*
X156213179Y-101824496D01*
X156232820Y-101600000D01*
X156213179Y-101375504D01*
X156154853Y-101157830D01*
X156059615Y-100953590D01*
X155930358Y-100768991D01*
X155930356Y-100768988D01*
X155771011Y-100609643D01*
X155586410Y-100480385D01*
X155586404Y-100480382D01*
X155382176Y-100385149D01*
X155382165Y-100385145D01*
X155164498Y-100326821D01*
X155164491Y-100326820D01*
X154940001Y-100307180D01*
X154939999Y-100307180D01*
X154715508Y-100326820D01*
X154715501Y-100326821D01*
X154497834Y-100385145D01*
X154497823Y-100385149D01*
X154293595Y-100480382D01*
X154293589Y-100480385D01*
X154108988Y-100609643D01*
X153949643Y-100768988D01*
X153820385Y-100953589D01*
X153820382Y-100953595D01*
X153725149Y-101157823D01*
X153725145Y-101157834D01*
X153666821Y-101375501D01*
X153666820Y-101375508D01*
X153647180Y-101599999D01*
X153647180Y-101600000D01*
X153666820Y-101824491D01*
X153666821Y-101824498D01*
X153725145Y-102042165D01*
X153725149Y-102042176D01*
X153820382Y-102246404D01*
X153820385Y-102246410D01*
X153949643Y-102431011D01*
X154108988Y-102590356D01*
X154108991Y-102590358D01*
X154293590Y-102719615D01*
X154357507Y-102749419D01*
X154375088Y-102757618D01*
X154427527Y-102803790D01*
X154446679Y-102870984D01*
X154426463Y-102937865D01*
X154375088Y-102982382D01*
X154293591Y-103020384D01*
X154293589Y-103020385D01*
X154108988Y-103149643D01*
X153949643Y-103308988D01*
X153820385Y-103493589D01*
X153820382Y-103493595D01*
X153725149Y-103697823D01*
X153725145Y-103697834D01*
X153666821Y-103915501D01*
X153666820Y-103915508D01*
X153647180Y-104139999D01*
X153647180Y-104140000D01*
X153666820Y-104364491D01*
X153666821Y-104364498D01*
X153725145Y-104582165D01*
X153725149Y-104582176D01*
X153820382Y-104786404D01*
X153820385Y-104786410D01*
X153949643Y-104971011D01*
X154108988Y-105130356D01*
X154108991Y-105130358D01*
X154293590Y-105259615D01*
X154327654Y-105275499D01*
X154375088Y-105297618D01*
X154427527Y-105343790D01*
X154446679Y-105410984D01*
X154426463Y-105477865D01*
X154375088Y-105522382D01*
X154293591Y-105560384D01*
X154293589Y-105560385D01*
X154108988Y-105689643D01*
X153949643Y-105848988D01*
X153820385Y-106033589D01*
X153820382Y-106033595D01*
X153725149Y-106237823D01*
X153725145Y-106237834D01*
X153666821Y-106455501D01*
X153666820Y-106455508D01*
X153647180Y-106679999D01*
X153647180Y-106680000D01*
X153666820Y-106904491D01*
X153666821Y-106904498D01*
X153725145Y-107122165D01*
X153725149Y-107122176D01*
X153820382Y-107326404D01*
X153820385Y-107326410D01*
X153949643Y-107511011D01*
X154108988Y-107670356D01*
X154108991Y-107670358D01*
X154293590Y-107799615D01*
X154357507Y-107829419D01*
X154375088Y-107837618D01*
X154427527Y-107883790D01*
X154446679Y-107950984D01*
X154426463Y-108017865D01*
X154375088Y-108062382D01*
X154293591Y-108100384D01*
X154293589Y-108100385D01*
X154108988Y-108229643D01*
X153949643Y-108388988D01*
X153820385Y-108573589D01*
X153820382Y-108573595D01*
X153725149Y-108777823D01*
X153725145Y-108777834D01*
X153666821Y-108995501D01*
X153666820Y-108995508D01*
X153647180Y-109219999D01*
X153647180Y-109220000D01*
X153666820Y-109444491D01*
X153666821Y-109444498D01*
X153725145Y-109662165D01*
X153725149Y-109662176D01*
X153820382Y-109866404D01*
X153820385Y-109866410D01*
X153949643Y-110051011D01*
X154108988Y-110210356D01*
X154108991Y-110210358D01*
X154293590Y-110339615D01*
X154357507Y-110369419D01*
X154375088Y-110377618D01*
X154427527Y-110423790D01*
X154446679Y-110490984D01*
X154426463Y-110557865D01*
X154375088Y-110602382D01*
X154293591Y-110640384D01*
X154293589Y-110640385D01*
X154108988Y-110769643D01*
X153949643Y-110928988D01*
X153820385Y-111113589D01*
X153820382Y-111113595D01*
X153725149Y-111317823D01*
X153725145Y-111317834D01*
X153666821Y-111535501D01*
X153666820Y-111535508D01*
X153647180Y-111759999D01*
X153647180Y-111760000D01*
X153666820Y-111984491D01*
X153666821Y-111984498D01*
X153725145Y-112202165D01*
X153725149Y-112202176D01*
X153820382Y-112406404D01*
X153820385Y-112406410D01*
X153949643Y-112591011D01*
X154108988Y-112750356D01*
X154108991Y-112750358D01*
X154293590Y-112879615D01*
X154357507Y-112909419D01*
X154375088Y-112917618D01*
X154427527Y-112963790D01*
X154446679Y-113030984D01*
X154426463Y-113097865D01*
X154375088Y-113142382D01*
X154293591Y-113180384D01*
X154293589Y-113180385D01*
X154108988Y-113309643D01*
X153949643Y-113468988D01*
X153820385Y-113653589D01*
X153820382Y-113653595D01*
X153725149Y-113857823D01*
X153725145Y-113857834D01*
X153666821Y-114075501D01*
X153666820Y-114075508D01*
X153647180Y-114299999D01*
X153647180Y-114300000D01*
X153666820Y-114524491D01*
X153666821Y-114524498D01*
X153725145Y-114742165D01*
X153725149Y-114742176D01*
X153820382Y-114946404D01*
X153820385Y-114946410D01*
X153949643Y-115131011D01*
X154108988Y-115290356D01*
X154108991Y-115290358D01*
X154293590Y-115419615D01*
X154375682Y-115457895D01*
X154428118Y-115504064D01*
X154447271Y-115571258D01*
X154427056Y-115638139D01*
X154375681Y-115682657D01*
X154293836Y-115720822D01*
X154223573Y-115770019D01*
X154781050Y-116327496D01*
X154660248Y-116379968D01*
X154546507Y-116472503D01*
X154461949Y-116592294D01*
X154429642Y-116683196D01*
X153870019Y-116123573D01*
X153820821Y-116193838D01*
X153725618Y-116397999D01*
X153725615Y-116398008D01*
X153667316Y-116615585D01*
X153667314Y-116615596D01*
X153647682Y-116839998D01*
X153647682Y-116840001D01*
X153667314Y-117064403D01*
X153667316Y-117064414D01*
X153725615Y-117281991D01*
X153725618Y-117282000D01*
X153820819Y-117486157D01*
X153820820Y-117486159D01*
X153870020Y-117556424D01*
X153870020Y-117556425D01*
X154428108Y-116998337D01*
X154432673Y-117020304D01*
X154500131Y-117150493D01*
X154600213Y-117257655D01*
X154725495Y-117333840D01*
X154783468Y-117350083D01*
X154223573Y-117909978D01*
X154293840Y-117959179D01*
X154293842Y-117959180D01*
X154375680Y-117997342D01*
X154428119Y-118043514D01*
X154447271Y-118110708D01*
X154427055Y-118177589D01*
X154375680Y-118222106D01*
X154293591Y-118260384D01*
X154293589Y-118260385D01*
X154108988Y-118389643D01*
X153949643Y-118548988D01*
X153820385Y-118733589D01*
X153820382Y-118733595D01*
X153725149Y-118937823D01*
X153725145Y-118937834D01*
X153666821Y-119155501D01*
X153666820Y-119155508D01*
X153647180Y-119379999D01*
X153647180Y-119380000D01*
X153666820Y-119604491D01*
X153666821Y-119604498D01*
X153725145Y-119822165D01*
X153725149Y-119822176D01*
X153820382Y-120026404D01*
X153820385Y-120026410D01*
X153949643Y-120211011D01*
X154108988Y-120370356D01*
X154108991Y-120370358D01*
X154293590Y-120499615D01*
X154407262Y-120552620D01*
X154497823Y-120594850D01*
X154497825Y-120594850D01*
X154497830Y-120594853D01*
X154715504Y-120653179D01*
X154895100Y-120668891D01*
X154939999Y-120672820D01*
X154940000Y-120672820D01*
X154940001Y-120672820D01*
X154977416Y-120669546D01*
X155164496Y-120653179D01*
X155382170Y-120594853D01*
X155586410Y-120499615D01*
X155771009Y-120370358D01*
X155771011Y-120370356D01*
X155867319Y-120274049D01*
X155928642Y-120240564D01*
X155998334Y-120245548D01*
X156042681Y-120274049D01*
X158271733Y-122503101D01*
X158305218Y-122564424D01*
X158300234Y-122634116D01*
X158258362Y-122690049D01*
X158192898Y-122714466D01*
X158131648Y-122703164D01*
X157932176Y-122610149D01*
X157932165Y-122610145D01*
X157714498Y-122551821D01*
X157714491Y-122551820D01*
X157490001Y-122532180D01*
X157489999Y-122532180D01*
X157265508Y-122551820D01*
X157265501Y-122551821D01*
X157047834Y-122610145D01*
X157047823Y-122610149D01*
X156843595Y-122705382D01*
X156843589Y-122705385D01*
X156658988Y-122834643D01*
X156499643Y-122993988D01*
X156370385Y-123178589D01*
X156370384Y-123178591D01*
X156332382Y-123260088D01*
X156286210Y-123312527D01*
X156219016Y-123331679D01*
X156152135Y-123311463D01*
X156107618Y-123260088D01*
X156086576Y-123214964D01*
X156069615Y-123178590D01*
X155940358Y-122993991D01*
X155940356Y-122993988D01*
X155781011Y-122834643D01*
X155596410Y-122705385D01*
X155596404Y-122705382D01*
X155392176Y-122610149D01*
X155392165Y-122610145D01*
X155174498Y-122551821D01*
X155174491Y-122551820D01*
X154950001Y-122532180D01*
X154949999Y-122532180D01*
X154725508Y-122551820D01*
X154725501Y-122551821D01*
X154507834Y-122610145D01*
X154507823Y-122610149D01*
X154303595Y-122705382D01*
X154303589Y-122705385D01*
X154118988Y-122834643D01*
X153959643Y-122993988D01*
X153830385Y-123178589D01*
X153830382Y-123178595D01*
X153735149Y-123382823D01*
X153735145Y-123382834D01*
X153676821Y-123600501D01*
X153676820Y-123600508D01*
X153657180Y-123824999D01*
X153657180Y-123825000D01*
X153676820Y-124049491D01*
X153676821Y-124049498D01*
X153735145Y-124267165D01*
X153735149Y-124267176D01*
X153830382Y-124471404D01*
X153830385Y-124471410D01*
X153959643Y-124656011D01*
X154118988Y-124815356D01*
X154118991Y-124815358D01*
X154303590Y-124944615D01*
X154357909Y-124969944D01*
X154507823Y-125039850D01*
X154507825Y-125039850D01*
X154507830Y-125039853D01*
X154725504Y-125098179D01*
X154893742Y-125112898D01*
X154949999Y-125117820D01*
X154950000Y-125117820D01*
X154950001Y-125117820D01*
X155006235Y-125112900D01*
X155174496Y-125098179D01*
X155392170Y-125039853D01*
X155596410Y-124944615D01*
X155781009Y-124815358D01*
X155940358Y-124656009D01*
X156069615Y-124471410D01*
X156107618Y-124389912D01*
X156153790Y-124337472D01*
X156220983Y-124318320D01*
X156287865Y-124338535D01*
X156332382Y-124389912D01*
X156370382Y-124471404D01*
X156370385Y-124471410D01*
X156499643Y-124656011D01*
X156658988Y-124815356D01*
X156658991Y-124815358D01*
X156843590Y-124944615D01*
X156897909Y-124969944D01*
X157047823Y-125039850D01*
X157047825Y-125039850D01*
X157047830Y-125039853D01*
X157265504Y-125098179D01*
X157433742Y-125112898D01*
X157489999Y-125117820D01*
X157490000Y-125117820D01*
X157490001Y-125117820D01*
X157546235Y-125112900D01*
X157714496Y-125098179D01*
X157932170Y-125039853D01*
X158136410Y-124944615D01*
X158321009Y-124815358D01*
X158480358Y-124656009D01*
X158609615Y-124471410D01*
X158647618Y-124389912D01*
X158693790Y-124337472D01*
X158760983Y-124318320D01*
X158827865Y-124338535D01*
X158872382Y-124389912D01*
X158910382Y-124471404D01*
X158910385Y-124471410D01*
X159039643Y-124656011D01*
X159198988Y-124815356D01*
X159198991Y-124815358D01*
X159383590Y-124944615D01*
X159437909Y-124969944D01*
X159587823Y-125039850D01*
X159587825Y-125039850D01*
X159587830Y-125039853D01*
X159805504Y-125098179D01*
X159973742Y-125112898D01*
X160029999Y-125117820D01*
X160030000Y-125117820D01*
X160030001Y-125117820D01*
X160086235Y-125112900D01*
X160254496Y-125098179D01*
X160472170Y-125039853D01*
X160676410Y-124944615D01*
X160861009Y-124815358D01*
X161020358Y-124656009D01*
X161149615Y-124471410D01*
X161187618Y-124389912D01*
X161233790Y-124337472D01*
X161300983Y-124318320D01*
X161367865Y-124338535D01*
X161412382Y-124389912D01*
X161450382Y-124471404D01*
X161450385Y-124471410D01*
X161579643Y-124656011D01*
X161738988Y-124815356D01*
X161738991Y-124815358D01*
X161923590Y-124944615D01*
X161977909Y-124969944D01*
X162127823Y-125039850D01*
X162127825Y-125039850D01*
X162127830Y-125039853D01*
X162345504Y-125098179D01*
X162513742Y-125112898D01*
X162569999Y-125117820D01*
X162570000Y-125117820D01*
X162570001Y-125117820D01*
X162626235Y-125112900D01*
X162794496Y-125098179D01*
X163012170Y-125039853D01*
X163216410Y-124944615D01*
X163401009Y-124815358D01*
X163560358Y-124656009D01*
X163689615Y-124471410D01*
X163727618Y-124389912D01*
X163773790Y-124337472D01*
X163840983Y-124318320D01*
X163907865Y-124338535D01*
X163952382Y-124389912D01*
X163990382Y-124471404D01*
X163990385Y-124471410D01*
X164119643Y-124656011D01*
X164278988Y-124815356D01*
X164278991Y-124815358D01*
X164463590Y-124944615D01*
X164517909Y-124969944D01*
X164667823Y-125039850D01*
X164667825Y-125039850D01*
X164667830Y-125039853D01*
X164885504Y-125098179D01*
X165053742Y-125112898D01*
X165109999Y-125117820D01*
X165110000Y-125117820D01*
X165110001Y-125117820D01*
X165166235Y-125112900D01*
X165334496Y-125098179D01*
X165552170Y-125039853D01*
X165756410Y-124944615D01*
X165941009Y-124815358D01*
X166100358Y-124656009D01*
X166229615Y-124471410D01*
X166267618Y-124389912D01*
X166313790Y-124337472D01*
X166380983Y-124318320D01*
X166447865Y-124338535D01*
X166492382Y-124389912D01*
X166530382Y-124471404D01*
X166530385Y-124471410D01*
X166659643Y-124656011D01*
X166818988Y-124815356D01*
X166818991Y-124815358D01*
X167003590Y-124944615D01*
X167057909Y-124969944D01*
X167207823Y-125039850D01*
X167207825Y-125039850D01*
X167207830Y-125039853D01*
X167425504Y-125098179D01*
X167593742Y-125112898D01*
X167649999Y-125117820D01*
X167650000Y-125117820D01*
X167650001Y-125117820D01*
X167706235Y-125112900D01*
X167874496Y-125098179D01*
X168092170Y-125039853D01*
X168296410Y-124944615D01*
X168481009Y-124815358D01*
X168640358Y-124656009D01*
X168769615Y-124471410D01*
X168807618Y-124389912D01*
X168853790Y-124337472D01*
X168920983Y-124318320D01*
X168987865Y-124338535D01*
X169032382Y-124389912D01*
X169070382Y-124471404D01*
X169070385Y-124471410D01*
X169199643Y-124656011D01*
X169358988Y-124815356D01*
X169358991Y-124815358D01*
X169543590Y-124944615D01*
X169597909Y-124969944D01*
X169747823Y-125039850D01*
X169747825Y-125039850D01*
X169747830Y-125039853D01*
X169965504Y-125098179D01*
X170133742Y-125112898D01*
X170189999Y-125117820D01*
X170190000Y-125117820D01*
X170190001Y-125117820D01*
X170246235Y-125112900D01*
X170414496Y-125098179D01*
X170632170Y-125039853D01*
X170836410Y-124944615D01*
X171021009Y-124815358D01*
X171180358Y-124656009D01*
X171309615Y-124471410D01*
X171347618Y-124389912D01*
X171393790Y-124337472D01*
X171460983Y-124318320D01*
X171527865Y-124338535D01*
X171572382Y-124389912D01*
X171610382Y-124471404D01*
X171610385Y-124471410D01*
X171739643Y-124656011D01*
X171898988Y-124815356D01*
X171898991Y-124815358D01*
X172083590Y-124944615D01*
X172137909Y-124969944D01*
X172287823Y-125039850D01*
X172287825Y-125039850D01*
X172287830Y-125039853D01*
X172505504Y-125098179D01*
X172673742Y-125112898D01*
X172729999Y-125117820D01*
X172730000Y-125117820D01*
X172730001Y-125117820D01*
X172786235Y-125112900D01*
X172954496Y-125098179D01*
X173172170Y-125039853D01*
X173376410Y-124944615D01*
X173561009Y-124815358D01*
X173720358Y-124656009D01*
X173849615Y-124471410D01*
X173887618Y-124389912D01*
X173933790Y-124337472D01*
X174000983Y-124318320D01*
X174067865Y-124338535D01*
X174112382Y-124389912D01*
X174150382Y-124471404D01*
X174150385Y-124471410D01*
X174279643Y-124656011D01*
X174438988Y-124815356D01*
X174438991Y-124815358D01*
X174623590Y-124944615D01*
X174677909Y-124969944D01*
X174827823Y-125039850D01*
X174827825Y-125039850D01*
X174827830Y-125039853D01*
X175045504Y-125098179D01*
X175213742Y-125112898D01*
X175269999Y-125117820D01*
X175270000Y-125117820D01*
X175270001Y-125117820D01*
X175326235Y-125112900D01*
X175494496Y-125098179D01*
X175712170Y-125039853D01*
X175916410Y-124944615D01*
X176101009Y-124815358D01*
X176260358Y-124656009D01*
X176389615Y-124471410D01*
X176427618Y-124389912D01*
X176473790Y-124337472D01*
X176540983Y-124318320D01*
X176607865Y-124338535D01*
X176652382Y-124389912D01*
X176690382Y-124471404D01*
X176690385Y-124471410D01*
X176819643Y-124656011D01*
X176978988Y-124815356D01*
X176978991Y-124815358D01*
X177163590Y-124944615D01*
X177217909Y-124969944D01*
X177367823Y-125039850D01*
X177367825Y-125039850D01*
X177367830Y-125039853D01*
X177585504Y-125098179D01*
X177753742Y-125112898D01*
X177809999Y-125117820D01*
X177810000Y-125117820D01*
X177810001Y-125117820D01*
X177866235Y-125112900D01*
X178034496Y-125098179D01*
X178252170Y-125039853D01*
X178456410Y-124944615D01*
X178641009Y-124815358D01*
X178800358Y-124656009D01*
X178929615Y-124471410D01*
X178967618Y-124389912D01*
X179013790Y-124337472D01*
X179080983Y-124318320D01*
X179147865Y-124338535D01*
X179192382Y-124389912D01*
X179230382Y-124471404D01*
X179230385Y-124471410D01*
X179359643Y-124656011D01*
X179518988Y-124815356D01*
X179518991Y-124815358D01*
X179703590Y-124944615D01*
X179757909Y-124969944D01*
X179907823Y-125039850D01*
X179907825Y-125039850D01*
X179907830Y-125039853D01*
X180125504Y-125098179D01*
X180293742Y-125112898D01*
X180349999Y-125117820D01*
X180350000Y-125117820D01*
X180350001Y-125117820D01*
X180406235Y-125112900D01*
X180574496Y-125098179D01*
X180792170Y-125039853D01*
X180996410Y-124944615D01*
X181181009Y-124815358D01*
X181340358Y-124656009D01*
X181377324Y-124603214D01*
X181431898Y-124559591D01*
X181501396Y-124552397D01*
X181563752Y-124583918D01*
X181599166Y-124644148D01*
X181602188Y-124661085D01*
X181608509Y-124719883D01*
X181658802Y-124854728D01*
X181658806Y-124854735D01*
X181745052Y-124969944D01*
X181745055Y-124969947D01*
X181860264Y-125056193D01*
X181860271Y-125056197D01*
X181995117Y-125106491D01*
X181995116Y-125106491D01*
X182002044Y-125107235D01*
X182054727Y-125112900D01*
X183725272Y-125112899D01*
X183784883Y-125106491D01*
X183919731Y-125056196D01*
X184034946Y-124969946D01*
X184121196Y-124854731D01*
X184171491Y-124719883D01*
X184177900Y-124660273D01*
X184177900Y-124389000D01*
X185335341Y-124389000D01*
X185355936Y-124624403D01*
X185355938Y-124624413D01*
X185417094Y-124852655D01*
X185417096Y-124852659D01*
X185417097Y-124852663D01*
X185423222Y-124865798D01*
X185516964Y-125066828D01*
X185516965Y-125066830D01*
X185652505Y-125260402D01*
X185819597Y-125427494D01*
X186013169Y-125563034D01*
X186013171Y-125563035D01*
X186227337Y-125662903D01*
X186455592Y-125724063D01*
X186632032Y-125739499D01*
X186632033Y-125739500D01*
X186632034Y-125739500D01*
X186749967Y-125739500D01*
X186749967Y-125739499D01*
X186858477Y-125730006D01*
X223636994Y-125730006D01*
X223656183Y-125961583D01*
X223713229Y-126186855D01*
X223806575Y-126399663D01*
X223913099Y-126562708D01*
X223933675Y-126594202D01*
X224091061Y-126765169D01*
X224091064Y-126765171D01*
X224091067Y-126765174D01*
X224274432Y-126907893D01*
X224274438Y-126907897D01*
X224274441Y-126907899D01*
X224478812Y-127018500D01*
X224698600Y-127093953D01*
X224927810Y-127132201D01*
X225160190Y-127132201D01*
X225389400Y-127093953D01*
X225609188Y-127018500D01*
X225813559Y-126907899D01*
X225832233Y-126893365D01*
X225875138Y-126859970D01*
X225996939Y-126765169D01*
X226154325Y-126594202D01*
X226281425Y-126399662D01*
X226374771Y-126186855D01*
X226431816Y-125961587D01*
X226451006Y-125730001D01*
X226431816Y-125498415D01*
X226374771Y-125273147D01*
X226281425Y-125060340D01*
X226278718Y-125056197D01*
X226154326Y-124865802D01*
X226154325Y-124865800D01*
X225996939Y-124694833D01*
X225996934Y-124694829D01*
X225996932Y-124694827D01*
X225813567Y-124552108D01*
X225813561Y-124552104D01*
X225609188Y-124441502D01*
X225609180Y-124441499D01*
X225389402Y-124366049D01*
X225160190Y-124327801D01*
X224927810Y-124327801D01*
X224698597Y-124366049D01*
X224478819Y-124441499D01*
X224478811Y-124441502D01*
X224274438Y-124552104D01*
X224274432Y-124552108D01*
X224091067Y-124694827D01*
X224091064Y-124694830D01*
X223933676Y-124865798D01*
X223933673Y-124865802D01*
X223806575Y-125060338D01*
X223713229Y-125273146D01*
X223656183Y-125498418D01*
X223636994Y-125729995D01*
X223636994Y-125730006D01*
X186858477Y-125730006D01*
X186926408Y-125724063D01*
X187154663Y-125662903D01*
X187368829Y-125563035D01*
X187562401Y-125427495D01*
X187729495Y-125260401D01*
X187865035Y-125066830D01*
X187964903Y-124852663D01*
X188026063Y-124624408D01*
X188046659Y-124389000D01*
X188026063Y-124153592D01*
X187964903Y-123925337D01*
X187865035Y-123711171D01*
X187865034Y-123711169D01*
X187729494Y-123517597D01*
X187562402Y-123350505D01*
X187368830Y-123214965D01*
X187368828Y-123214964D01*
X187239460Y-123154639D01*
X187154663Y-123115097D01*
X187154659Y-123115096D01*
X187154655Y-123115094D01*
X186926413Y-123053938D01*
X186926403Y-123053936D01*
X186749967Y-123038500D01*
X186749966Y-123038500D01*
X186632034Y-123038500D01*
X186632033Y-123038500D01*
X186455596Y-123053936D01*
X186455586Y-123053938D01*
X186227344Y-123115094D01*
X186227335Y-123115098D01*
X186013171Y-123214964D01*
X186013169Y-123214965D01*
X185819597Y-123350505D01*
X185652506Y-123517597D01*
X185652501Y-123517604D01*
X185516967Y-123711165D01*
X185516965Y-123711169D01*
X185417098Y-123925335D01*
X185417094Y-123925344D01*
X185355938Y-124153586D01*
X185355936Y-124153596D01*
X185335341Y-124388999D01*
X185335341Y-124389000D01*
X184177900Y-124389000D01*
X184177899Y-122989728D01*
X184171491Y-122930117D01*
X184121196Y-122795269D01*
X184121195Y-122795268D01*
X184121193Y-122795264D01*
X184034947Y-122680055D01*
X184034944Y-122680052D01*
X183919735Y-122593806D01*
X183919728Y-122593802D01*
X183784882Y-122543508D01*
X183784883Y-122543508D01*
X183725283Y-122537101D01*
X183725281Y-122537100D01*
X183725273Y-122537100D01*
X183725264Y-122537100D01*
X182054729Y-122537100D01*
X182054723Y-122537101D01*
X181995116Y-122543508D01*
X181860271Y-122593802D01*
X181860264Y-122593806D01*
X181745055Y-122680052D01*
X181745052Y-122680055D01*
X181658806Y-122795264D01*
X181658802Y-122795271D01*
X181608508Y-122930116D01*
X181602187Y-122988915D01*
X181575449Y-123053466D01*
X181518056Y-123093314D01*
X181448231Y-123095807D01*
X181388143Y-123060154D01*
X181377323Y-123046782D01*
X181340357Y-122993989D01*
X181181011Y-122834643D01*
X180996410Y-122705385D01*
X180996404Y-122705382D01*
X180792176Y-122610149D01*
X180792165Y-122610145D01*
X180574498Y-122551821D01*
X180574491Y-122551820D01*
X180350001Y-122532180D01*
X180349999Y-122532180D01*
X180125508Y-122551820D01*
X180125501Y-122551821D01*
X179907834Y-122610145D01*
X179907823Y-122610149D01*
X179703595Y-122705382D01*
X179703589Y-122705385D01*
X179518988Y-122834643D01*
X179359643Y-122993988D01*
X179230385Y-123178589D01*
X179230384Y-123178591D01*
X179192382Y-123260088D01*
X179146210Y-123312527D01*
X179079016Y-123331679D01*
X179012135Y-123311463D01*
X178967618Y-123260088D01*
X178946576Y-123214964D01*
X178929615Y-123178590D01*
X178800358Y-122993991D01*
X178800356Y-122993988D01*
X178641011Y-122834643D01*
X178456410Y-122705385D01*
X178456404Y-122705382D01*
X178252176Y-122610149D01*
X178252165Y-122610145D01*
X178034498Y-122551821D01*
X178034491Y-122551820D01*
X177810001Y-122532180D01*
X177809999Y-122532180D01*
X177585508Y-122551820D01*
X177585501Y-122551821D01*
X177367834Y-122610145D01*
X177367823Y-122610149D01*
X177163595Y-122705382D01*
X177163589Y-122705385D01*
X176978988Y-122834643D01*
X176819643Y-122993988D01*
X176690385Y-123178589D01*
X176690384Y-123178591D01*
X176652382Y-123260088D01*
X176606210Y-123312527D01*
X176539016Y-123331679D01*
X176472135Y-123311463D01*
X176427618Y-123260088D01*
X176406576Y-123214964D01*
X176389615Y-123178590D01*
X176260358Y-122993991D01*
X176260356Y-122993988D01*
X176101011Y-122834643D01*
X175916410Y-122705385D01*
X175916404Y-122705382D01*
X175712176Y-122610149D01*
X175712165Y-122610145D01*
X175494498Y-122551821D01*
X175494491Y-122551820D01*
X175270001Y-122532180D01*
X175269999Y-122532180D01*
X175045508Y-122551820D01*
X175045501Y-122551821D01*
X174827834Y-122610145D01*
X174827823Y-122610149D01*
X174623595Y-122705382D01*
X174623589Y-122705385D01*
X174438988Y-122834643D01*
X174279643Y-122993988D01*
X174150385Y-123178589D01*
X174150384Y-123178591D01*
X174112382Y-123260088D01*
X174066210Y-123312527D01*
X173999016Y-123331679D01*
X173932135Y-123311463D01*
X173887618Y-123260088D01*
X173866576Y-123214964D01*
X173849615Y-123178590D01*
X173720358Y-122993991D01*
X173720356Y-122993988D01*
X173561011Y-122834643D01*
X173376410Y-122705385D01*
X173376404Y-122705382D01*
X173172176Y-122610149D01*
X173172165Y-122610145D01*
X172954498Y-122551821D01*
X172954491Y-122551820D01*
X172730001Y-122532180D01*
X172729999Y-122532180D01*
X172505508Y-122551820D01*
X172505501Y-122551821D01*
X172287834Y-122610145D01*
X172287823Y-122610149D01*
X172083595Y-122705382D01*
X172083589Y-122705385D01*
X171898988Y-122834643D01*
X171739643Y-122993988D01*
X171610385Y-123178589D01*
X171610384Y-123178591D01*
X171572382Y-123260088D01*
X171526210Y-123312527D01*
X171459016Y-123331679D01*
X171392135Y-123311463D01*
X171347618Y-123260088D01*
X171326576Y-123214964D01*
X171309615Y-123178590D01*
X171180358Y-122993991D01*
X171180356Y-122993988D01*
X171021011Y-122834643D01*
X170836410Y-122705385D01*
X170836404Y-122705382D01*
X170632176Y-122610149D01*
X170632165Y-122610145D01*
X170414498Y-122551821D01*
X170414491Y-122551820D01*
X170190001Y-122532180D01*
X170189999Y-122532180D01*
X169965508Y-122551820D01*
X169965501Y-122551821D01*
X169747834Y-122610145D01*
X169747823Y-122610149D01*
X169543595Y-122705382D01*
X169543589Y-122705385D01*
X169358988Y-122834643D01*
X169199643Y-122993988D01*
X169070385Y-123178589D01*
X169070384Y-123178591D01*
X169032382Y-123260088D01*
X168986210Y-123312527D01*
X168919016Y-123331679D01*
X168852135Y-123311463D01*
X168807618Y-123260088D01*
X168786576Y-123214964D01*
X168769615Y-123178590D01*
X168640358Y-122993991D01*
X168640356Y-122993988D01*
X168481011Y-122834643D01*
X168296410Y-122705385D01*
X168296404Y-122705382D01*
X168092176Y-122610149D01*
X168092165Y-122610145D01*
X167874498Y-122551821D01*
X167874491Y-122551820D01*
X167650001Y-122532180D01*
X167649999Y-122532180D01*
X167425508Y-122551820D01*
X167425501Y-122551821D01*
X167207834Y-122610145D01*
X167207823Y-122610149D01*
X167003595Y-122705382D01*
X167003589Y-122705385D01*
X166818988Y-122834643D01*
X166659643Y-122993988D01*
X166530385Y-123178589D01*
X166530384Y-123178591D01*
X166492382Y-123260088D01*
X166446210Y-123312527D01*
X166379016Y-123331679D01*
X166312135Y-123311463D01*
X166267618Y-123260088D01*
X166246576Y-123214964D01*
X166229615Y-123178590D01*
X166100358Y-122993991D01*
X166100356Y-122993988D01*
X165941011Y-122834643D01*
X165756410Y-122705385D01*
X165756404Y-122705382D01*
X165552176Y-122610149D01*
X165552165Y-122610145D01*
X165334498Y-122551821D01*
X165334491Y-122551820D01*
X165110001Y-122532180D01*
X165109999Y-122532180D01*
X164885508Y-122551820D01*
X164885501Y-122551821D01*
X164667834Y-122610145D01*
X164667823Y-122610149D01*
X164463595Y-122705382D01*
X164463589Y-122705385D01*
X164278988Y-122834643D01*
X164119643Y-122993988D01*
X163990385Y-123178589D01*
X163990384Y-123178591D01*
X163952382Y-123260088D01*
X163906210Y-123312527D01*
X163839016Y-123331679D01*
X163772135Y-123311463D01*
X163727618Y-123260088D01*
X163706576Y-123214964D01*
X163689615Y-123178590D01*
X163560358Y-122993991D01*
X163560356Y-122993988D01*
X163401011Y-122834643D01*
X163216410Y-122705385D01*
X163216404Y-122705382D01*
X163012176Y-122610149D01*
X163012165Y-122610145D01*
X162794498Y-122551821D01*
X162794491Y-122551820D01*
X162570001Y-122532180D01*
X162569999Y-122532180D01*
X162345508Y-122551820D01*
X162345501Y-122551821D01*
X162127834Y-122610145D01*
X162127823Y-122610149D01*
X161923595Y-122705382D01*
X161923589Y-122705385D01*
X161738988Y-122834643D01*
X161579643Y-122993988D01*
X161450385Y-123178589D01*
X161450384Y-123178591D01*
X161412382Y-123260088D01*
X161366210Y-123312527D01*
X161299016Y-123331679D01*
X161232135Y-123311463D01*
X161187618Y-123260088D01*
X161166576Y-123214964D01*
X161149615Y-123178590D01*
X161020358Y-122993991D01*
X161020356Y-122993988D01*
X160861011Y-122834643D01*
X160676410Y-122705385D01*
X160676408Y-122705384D01*
X160546966Y-122645024D01*
X160511690Y-122620323D01*
X159811372Y-121920005D01*
X223637496Y-121920005D01*
X223656678Y-122151499D01*
X223713704Y-122376691D01*
X223807015Y-122589418D01*
X223891584Y-122718861D01*
X224443277Y-122167168D01*
X224453285Y-122197969D01*
X224540972Y-122336141D01*
X224660266Y-122448165D01*
X224795204Y-122522348D01*
X224243989Y-123073562D01*
X224243990Y-123073563D01*
X224274712Y-123097475D01*
X224274718Y-123097480D01*
X224479007Y-123208035D01*
X224479017Y-123208040D01*
X224698721Y-123283464D01*
X224927853Y-123321700D01*
X225160147Y-123321700D01*
X225389278Y-123283464D01*
X225608982Y-123208040D01*
X225608987Y-123208038D01*
X225813288Y-123097475D01*
X225844008Y-123073563D01*
X225844008Y-123073562D01*
X225289762Y-122519315D01*
X225358512Y-122492095D01*
X225490905Y-122395906D01*
X225595218Y-122269813D01*
X225643903Y-122166350D01*
X226196414Y-122718861D01*
X226280980Y-122589425D01*
X226280985Y-122589417D01*
X226374295Y-122376691D01*
X226431321Y-122151499D01*
X226450504Y-121920005D01*
X226450504Y-121919994D01*
X226431321Y-121688500D01*
X226374295Y-121463308D01*
X226280982Y-121250576D01*
X226196414Y-121121137D01*
X225644721Y-121672829D01*
X225634715Y-121642031D01*
X225547028Y-121503859D01*
X225427734Y-121391835D01*
X225292795Y-121317651D01*
X225844009Y-120766436D01*
X225844009Y-120766435D01*
X225813286Y-120742523D01*
X225813281Y-120742519D01*
X225608992Y-120631964D01*
X225608982Y-120631959D01*
X225389278Y-120556535D01*
X225160147Y-120518300D01*
X224927853Y-120518300D01*
X224698721Y-120556535D01*
X224479017Y-120631959D01*
X224479007Y-120631964D01*
X224274717Y-120742520D01*
X224274706Y-120742527D01*
X224243990Y-120766434D01*
X224243990Y-120766436D01*
X224798238Y-121320684D01*
X224729488Y-121347905D01*
X224597095Y-121444094D01*
X224492782Y-121570187D01*
X224444096Y-121673649D01*
X223891584Y-121121137D01*
X223807016Y-121250578D01*
X223713704Y-121463308D01*
X223656678Y-121688500D01*
X223637496Y-121919994D01*
X223637496Y-121920005D01*
X159811372Y-121920005D01*
X156785729Y-118894361D01*
X156773949Y-118880730D01*
X156759610Y-118861470D01*
X156732927Y-118839080D01*
X156694226Y-118780908D01*
X156693119Y-118711047D01*
X156724952Y-118656413D01*
X157965638Y-117415727D01*
X157979267Y-117403950D01*
X157998530Y-117389610D01*
X158030366Y-117351669D01*
X158037683Y-117343684D01*
X158038992Y-117342374D01*
X158041590Y-117339777D01*
X158060859Y-117315404D01*
X158063020Y-117312751D01*
X158111302Y-117255214D01*
X158111308Y-117255201D01*
X158115272Y-117249176D01*
X158115324Y-117249210D01*
X158119371Y-117242858D01*
X158119317Y-117242825D01*
X158123106Y-117236681D01*
X158123110Y-117236677D01*
X158154819Y-117168674D01*
X158156348Y-117165516D01*
X158190040Y-117098433D01*
X158190043Y-117098417D01*
X158192510Y-117091644D01*
X158192568Y-117091665D01*
X158195043Y-117084546D01*
X158194985Y-117084527D01*
X158197255Y-117077677D01*
X158197256Y-117077673D01*
X158212431Y-117004171D01*
X158213186Y-117000767D01*
X158230500Y-116927721D01*
X158230500Y-116927719D01*
X158230501Y-116927715D01*
X158231339Y-116920548D01*
X158231397Y-116920554D01*
X158232164Y-116913056D01*
X158232104Y-116913051D01*
X158232733Y-116905860D01*
X158230552Y-116830889D01*
X158230500Y-116827283D01*
X158230500Y-105664001D01*
X200624532Y-105664001D01*
X200644364Y-105890686D01*
X200644366Y-105890697D01*
X200703258Y-106110488D01*
X200703261Y-106110497D01*
X200799431Y-106316732D01*
X200799432Y-106316734D01*
X200929954Y-106503141D01*
X201090858Y-106664045D01*
X201090861Y-106664047D01*
X201277266Y-106794568D01*
X201483504Y-106890739D01*
X201703308Y-106949635D01*
X201865230Y-106963801D01*
X201929998Y-106969468D01*
X201930000Y-106969468D01*
X201930002Y-106969468D01*
X201986673Y-106964509D01*
X202156692Y-106949635D01*
X202376496Y-106890739D01*
X202582734Y-106794568D01*
X202769139Y-106664047D01*
X202930047Y-106503139D01*
X203060568Y-106316734D01*
X203156739Y-106110496D01*
X203215635Y-105890692D01*
X203235468Y-105664001D01*
X213324532Y-105664001D01*
X213344364Y-105890686D01*
X213344366Y-105890697D01*
X213403258Y-106110488D01*
X213403261Y-106110497D01*
X213499431Y-106316732D01*
X213499432Y-106316734D01*
X213629954Y-106503141D01*
X213790858Y-106664045D01*
X213790861Y-106664047D01*
X213977266Y-106794568D01*
X214183504Y-106890739D01*
X214403308Y-106949635D01*
X214565230Y-106963801D01*
X214629998Y-106969468D01*
X214630000Y-106969468D01*
X214630002Y-106969468D01*
X214686673Y-106964509D01*
X214856692Y-106949635D01*
X215076496Y-106890739D01*
X215282734Y-106794568D01*
X215469139Y-106664047D01*
X215630047Y-106503139D01*
X215760568Y-106316734D01*
X215856739Y-106110496D01*
X215915635Y-105890692D01*
X215935468Y-105664000D01*
X215915635Y-105437308D01*
X215856739Y-105217504D01*
X215760568Y-105011266D01*
X215630047Y-104824861D01*
X215630045Y-104824858D01*
X215469141Y-104663954D01*
X215282734Y-104533432D01*
X215282732Y-104533431D01*
X215076497Y-104437261D01*
X215076488Y-104437258D01*
X214856697Y-104378366D01*
X214856693Y-104378365D01*
X214856692Y-104378365D01*
X214856691Y-104378364D01*
X214856686Y-104378364D01*
X214630002Y-104358532D01*
X214629998Y-104358532D01*
X214403313Y-104378364D01*
X214403302Y-104378366D01*
X214183511Y-104437258D01*
X214183502Y-104437261D01*
X213977267Y-104533431D01*
X213977265Y-104533432D01*
X213790858Y-104663954D01*
X213629954Y-104824858D01*
X213499432Y-105011265D01*
X213499431Y-105011267D01*
X213403261Y-105217502D01*
X213403258Y-105217511D01*
X213344366Y-105437302D01*
X213344364Y-105437313D01*
X213324532Y-105663998D01*
X213324532Y-105664001D01*
X203235468Y-105664001D01*
X203235468Y-105664000D01*
X203215635Y-105437308D01*
X203156739Y-105217504D01*
X203060568Y-105011266D01*
X202930047Y-104824861D01*
X202930045Y-104824858D01*
X202769141Y-104663954D01*
X202582734Y-104533432D01*
X202582732Y-104533431D01*
X202376497Y-104437261D01*
X202376488Y-104437258D01*
X202156697Y-104378366D01*
X202156693Y-104378365D01*
X202156692Y-104378365D01*
X202156691Y-104378364D01*
X202156686Y-104378364D01*
X201930002Y-104358532D01*
X201929998Y-104358532D01*
X201703313Y-104378364D01*
X201703302Y-104378366D01*
X201483511Y-104437258D01*
X201483502Y-104437261D01*
X201277267Y-104533431D01*
X201277265Y-104533432D01*
X201090858Y-104663954D01*
X200929954Y-104824858D01*
X200799432Y-105011265D01*
X200799431Y-105011267D01*
X200703261Y-105217502D01*
X200703258Y-105217511D01*
X200644366Y-105437302D01*
X200644364Y-105437313D01*
X200624532Y-105663998D01*
X200624532Y-105664001D01*
X158230500Y-105664001D01*
X158230500Y-100584005D01*
X206872994Y-100584005D01*
X206892183Y-100815582D01*
X206949229Y-101040854D01*
X207042575Y-101253662D01*
X207122177Y-101375501D01*
X207169675Y-101448201D01*
X207327061Y-101619168D01*
X207327064Y-101619170D01*
X207327067Y-101619173D01*
X207510432Y-101761892D01*
X207510438Y-101761896D01*
X207510441Y-101761898D01*
X207714812Y-101872499D01*
X207934600Y-101947952D01*
X208163810Y-101986200D01*
X208396190Y-101986200D01*
X208625400Y-101947952D01*
X208845188Y-101872499D01*
X209049559Y-101761898D01*
X209232939Y-101619168D01*
X209390325Y-101448201D01*
X209517425Y-101253661D01*
X209610771Y-101040854D01*
X209667816Y-100815586D01*
X209678294Y-100689135D01*
X209687006Y-100584005D01*
X209687006Y-100583994D01*
X209674212Y-100429609D01*
X209667816Y-100352414D01*
X209610771Y-100127146D01*
X209517425Y-99914339D01*
X209390325Y-99719799D01*
X209232939Y-99548832D01*
X209232934Y-99548828D01*
X209232932Y-99548826D01*
X209049567Y-99406107D01*
X209049561Y-99406103D01*
X208845188Y-99295501D01*
X208845180Y-99295498D01*
X208625402Y-99220048D01*
X208396190Y-99181800D01*
X208163810Y-99181800D01*
X207934597Y-99220048D01*
X207714819Y-99295498D01*
X207714811Y-99295501D01*
X207510438Y-99406103D01*
X207510432Y-99406107D01*
X207327067Y-99548826D01*
X207327064Y-99548829D01*
X207169676Y-99719797D01*
X207169673Y-99719801D01*
X207042575Y-99914337D01*
X206949229Y-100127145D01*
X206892183Y-100352417D01*
X206872994Y-100583994D01*
X206872994Y-100584005D01*
X158230500Y-100584005D01*
X158230500Y-98488705D01*
X158231809Y-98470735D01*
X158232129Y-98468547D01*
X158235289Y-98446977D01*
X158230972Y-98397630D01*
X158230500Y-98386822D01*
X158230500Y-98381296D01*
X158230500Y-98381291D01*
X158226901Y-98350509D01*
X158226536Y-98346929D01*
X158219999Y-98272201D01*
X158218539Y-98265129D01*
X158218597Y-98265116D01*
X158216965Y-98257757D01*
X158216906Y-98257772D01*
X158215241Y-98250751D01*
X158215241Y-98250745D01*
X158189569Y-98180212D01*
X158188421Y-98176909D01*
X158164814Y-98105666D01*
X158164810Y-98105659D01*
X158161760Y-98099118D01*
X158161815Y-98099091D01*
X158158533Y-98092313D01*
X158158480Y-98092340D01*
X158155235Y-98085880D01*
X158114025Y-98023223D01*
X158112086Y-98020181D01*
X158072710Y-97956342D01*
X158068234Y-97950682D01*
X158068281Y-97950644D01*
X158063519Y-97944799D01*
X158063474Y-97944838D01*
X158058831Y-97939305D01*
X158004272Y-97887831D01*
X158001685Y-97885318D01*
X155366372Y-95250005D01*
X193296744Y-95250005D01*
X193315748Y-95552074D01*
X193315749Y-95552081D01*
X193324146Y-95596101D01*
X193368950Y-95830971D01*
X193372468Y-95849410D01*
X193452556Y-96095895D01*
X193466001Y-96137274D01*
X193594877Y-96411150D01*
X193594879Y-96411153D01*
X193594880Y-96411155D01*
X193757058Y-96666708D01*
X193757061Y-96666712D01*
X193757062Y-96666713D01*
X193949999Y-96899934D01*
X194170643Y-97107132D01*
X194170653Y-97107140D01*
X194415508Y-97285038D01*
X194415513Y-97285040D01*
X194415520Y-97285046D01*
X194680763Y-97430865D01*
X194680768Y-97430867D01*
X194680770Y-97430868D01*
X194680771Y-97430869D01*
X194962186Y-97542289D01*
X194962189Y-97542290D01*
X195255359Y-97617563D01*
X195255363Y-97617564D01*
X195318360Y-97625522D01*
X195555647Y-97655499D01*
X195555656Y-97655499D01*
X195555659Y-97655500D01*
X195555661Y-97655500D01*
X195858339Y-97655500D01*
X195858341Y-97655500D01*
X195858344Y-97655499D01*
X195858352Y-97655499D01*
X196037539Y-97632862D01*
X196158637Y-97617564D01*
X196451810Y-97542290D01*
X196451813Y-97542289D01*
X196733228Y-97430869D01*
X196733229Y-97430868D01*
X196733227Y-97430868D01*
X196733237Y-97430865D01*
X196998480Y-97285046D01*
X197243355Y-97107134D01*
X197464001Y-96899934D01*
X197568179Y-96774004D01*
X206872994Y-96774004D01*
X206892183Y-97005581D01*
X206949229Y-97230853D01*
X207042575Y-97443661D01*
X207156192Y-97617563D01*
X207169675Y-97638200D01*
X207327061Y-97809167D01*
X207327064Y-97809169D01*
X207327067Y-97809172D01*
X207510432Y-97951891D01*
X207510438Y-97951895D01*
X207510441Y-97951897D01*
X207714812Y-98062498D01*
X207934600Y-98137951D01*
X208163810Y-98176199D01*
X208396190Y-98176199D01*
X208625400Y-98137951D01*
X208845188Y-98062498D01*
X209049559Y-97951897D01*
X209058629Y-97944838D01*
X209163089Y-97863533D01*
X209232939Y-97809167D01*
X209390325Y-97638200D01*
X209517425Y-97443660D01*
X209610771Y-97230853D01*
X209667816Y-97005585D01*
X209685132Y-96796615D01*
X209687006Y-96774004D01*
X209687006Y-96773993D01*
X209674212Y-96619608D01*
X209667816Y-96542413D01*
X209610771Y-96317145D01*
X209517425Y-96104338D01*
X209390325Y-95909798D01*
X209232939Y-95738831D01*
X209232934Y-95738827D01*
X209232932Y-95738825D01*
X209049567Y-95596106D01*
X209049561Y-95596102D01*
X208845188Y-95485500D01*
X208845180Y-95485497D01*
X208625402Y-95410047D01*
X208396190Y-95371799D01*
X208163810Y-95371799D01*
X207934597Y-95410047D01*
X207714819Y-95485497D01*
X207714811Y-95485500D01*
X207510438Y-95596102D01*
X207510432Y-95596106D01*
X207327067Y-95738825D01*
X207327064Y-95738828D01*
X207169676Y-95909796D01*
X207169673Y-95909800D01*
X207042575Y-96104336D01*
X206949229Y-96317144D01*
X206892183Y-96542416D01*
X206872994Y-96773993D01*
X206872994Y-96774004D01*
X197568179Y-96774004D01*
X197656938Y-96666713D01*
X197819123Y-96411150D01*
X197947999Y-96137274D01*
X198041533Y-95849406D01*
X198098250Y-95552085D01*
X198100750Y-95512349D01*
X198117256Y-95250005D01*
X198117256Y-95249994D01*
X198098251Y-94947925D01*
X198098250Y-94947918D01*
X198098250Y-94947915D01*
X198041533Y-94650594D01*
X197947999Y-94362726D01*
X197819123Y-94088850D01*
X197679007Y-93868062D01*
X197656941Y-93833291D01*
X197656938Y-93833287D01*
X197464001Y-93600066D01*
X197243355Y-93392866D01*
X197243352Y-93392864D01*
X197243346Y-93392859D01*
X196998491Y-93214961D01*
X196998484Y-93214956D01*
X196998480Y-93214954D01*
X196733237Y-93069135D01*
X196733234Y-93069133D01*
X196733229Y-93069131D01*
X196733228Y-93069130D01*
X196451813Y-92957710D01*
X196451810Y-92957709D01*
X196158640Y-92882436D01*
X196158627Y-92882434D01*
X195858352Y-92844500D01*
X195858341Y-92844500D01*
X195555659Y-92844500D01*
X195555647Y-92844500D01*
X195255372Y-92882434D01*
X195255359Y-92882436D01*
X194962189Y-92957709D01*
X194962186Y-92957710D01*
X194680771Y-93069130D01*
X194680770Y-93069131D01*
X194415520Y-93214954D01*
X194415508Y-93214961D01*
X194170653Y-93392859D01*
X194170643Y-93392867D01*
X193968051Y-93583114D01*
X193949999Y-93600066D01*
X193914177Y-93643367D01*
X193757058Y-93833291D01*
X193594880Y-94088844D01*
X193466000Y-94362728D01*
X193372468Y-94650589D01*
X193315749Y-94947918D01*
X193315748Y-94947925D01*
X193296744Y-95249994D01*
X193296744Y-95250005D01*
X155366372Y-95250005D01*
X150286369Y-90170001D01*
X191884682Y-90170001D01*
X191904314Y-90394403D01*
X191904316Y-90394414D01*
X191962615Y-90611991D01*
X191962618Y-90612000D01*
X192057819Y-90816157D01*
X192057820Y-90816159D01*
X192107020Y-90886424D01*
X192107021Y-90886425D01*
X192665108Y-90328337D01*
X192669673Y-90350304D01*
X192737131Y-90480493D01*
X192837213Y-90587655D01*
X192962495Y-90663840D01*
X193020468Y-90680083D01*
X192460573Y-91239978D01*
X192530840Y-91289179D01*
X192530842Y-91289180D01*
X192734999Y-91384381D01*
X192735008Y-91384384D01*
X192952585Y-91442683D01*
X192952596Y-91442685D01*
X193176998Y-91462318D01*
X193177002Y-91462318D01*
X193401403Y-91442685D01*
X193401414Y-91442683D01*
X193618991Y-91384384D01*
X193619000Y-91384380D01*
X193823156Y-91289181D01*
X193893425Y-91239978D01*
X193335951Y-90682503D01*
X193456752Y-90630032D01*
X193570493Y-90537497D01*
X193655051Y-90417706D01*
X193687357Y-90326804D01*
X194246978Y-90886425D01*
X194296182Y-90816154D01*
X194334342Y-90734321D01*
X194380514Y-90681881D01*
X194447707Y-90662729D01*
X194514589Y-90682944D01*
X194559106Y-90734320D01*
X194597384Y-90816408D01*
X194597385Y-90816410D01*
X194726643Y-91001011D01*
X194885988Y-91160356D01*
X194885991Y-91160358D01*
X195070590Y-91289615D01*
X195184262Y-91342620D01*
X195274823Y-91384850D01*
X195274825Y-91384850D01*
X195274830Y-91384853D01*
X195492504Y-91443179D01*
X195672100Y-91458891D01*
X195716999Y-91462820D01*
X195717000Y-91462820D01*
X195717001Y-91462820D01*
X195754416Y-91459546D01*
X195941496Y-91443179D01*
X196159170Y-91384853D01*
X196363410Y-91289615D01*
X196548009Y-91160358D01*
X196707358Y-91001009D01*
X196755678Y-90932001D01*
X200624532Y-90932001D01*
X200644364Y-91158686D01*
X200644366Y-91158697D01*
X200703258Y-91378488D01*
X200703261Y-91378497D01*
X200799431Y-91584732D01*
X200799432Y-91584734D01*
X200929954Y-91771141D01*
X201090858Y-91932045D01*
X201090861Y-91932047D01*
X201277266Y-92062568D01*
X201483504Y-92158739D01*
X201703308Y-92217635D01*
X201865230Y-92231801D01*
X201929998Y-92237468D01*
X201930000Y-92237468D01*
X201930002Y-92237468D01*
X201986673Y-92232509D01*
X202156692Y-92217635D01*
X202376496Y-92158739D01*
X202582734Y-92062568D01*
X202769139Y-91932047D01*
X202930047Y-91771139D01*
X203060568Y-91584734D01*
X203156739Y-91378496D01*
X203215635Y-91158692D01*
X203235468Y-90932001D01*
X213324532Y-90932001D01*
X213344364Y-91158686D01*
X213344366Y-91158697D01*
X213403258Y-91378488D01*
X213403261Y-91378497D01*
X213499431Y-91584732D01*
X213499432Y-91584734D01*
X213629954Y-91771141D01*
X213790858Y-91932045D01*
X213790861Y-91932047D01*
X213977266Y-92062568D01*
X214183504Y-92158739D01*
X214403308Y-92217635D01*
X214565230Y-92231801D01*
X214629998Y-92237468D01*
X214630000Y-92237468D01*
X214630002Y-92237468D01*
X214686673Y-92232509D01*
X214856692Y-92217635D01*
X215076496Y-92158739D01*
X215282734Y-92062568D01*
X215469139Y-91932047D01*
X215630047Y-91771139D01*
X215760568Y-91584734D01*
X215856739Y-91378496D01*
X215915635Y-91158692D01*
X215935468Y-90932000D01*
X215915635Y-90705308D01*
X215856739Y-90485504D01*
X215760568Y-90279266D01*
X215630047Y-90092861D01*
X215630045Y-90092858D01*
X215469141Y-89931954D01*
X215282734Y-89801432D01*
X215282732Y-89801431D01*
X215076497Y-89705261D01*
X215076488Y-89705258D01*
X214856697Y-89646366D01*
X214856693Y-89646365D01*
X214856692Y-89646365D01*
X214856691Y-89646364D01*
X214856686Y-89646364D01*
X214630002Y-89626532D01*
X214629998Y-89626532D01*
X214403313Y-89646364D01*
X214403302Y-89646366D01*
X214183511Y-89705258D01*
X214183502Y-89705261D01*
X213977267Y-89801431D01*
X213977265Y-89801432D01*
X213790858Y-89931954D01*
X213629954Y-90092858D01*
X213499432Y-90279265D01*
X213499431Y-90279267D01*
X213403261Y-90485502D01*
X213403258Y-90485511D01*
X213344366Y-90705302D01*
X213344364Y-90705313D01*
X213324532Y-90931998D01*
X213324532Y-90932001D01*
X203235468Y-90932001D01*
X203235468Y-90932000D01*
X203215635Y-90705308D01*
X203156739Y-90485504D01*
X203060568Y-90279266D01*
X202930047Y-90092861D01*
X202930045Y-90092858D01*
X202769141Y-89931954D01*
X202582734Y-89801432D01*
X202582732Y-89801431D01*
X202376497Y-89705261D01*
X202376488Y-89705258D01*
X202156697Y-89646366D01*
X202156693Y-89646365D01*
X202156692Y-89646365D01*
X202156691Y-89646364D01*
X202156686Y-89646364D01*
X201930002Y-89626532D01*
X201929998Y-89626532D01*
X201703313Y-89646364D01*
X201703302Y-89646366D01*
X201483511Y-89705258D01*
X201483502Y-89705261D01*
X201277267Y-89801431D01*
X201277265Y-89801432D01*
X201090858Y-89931954D01*
X200929954Y-90092858D01*
X200799432Y-90279265D01*
X200799431Y-90279267D01*
X200703261Y-90485502D01*
X200703258Y-90485511D01*
X200644366Y-90705302D01*
X200644364Y-90705313D01*
X200624532Y-90931998D01*
X200624532Y-90932001D01*
X196755678Y-90932001D01*
X196836615Y-90816410D01*
X196931853Y-90612170D01*
X196990179Y-90394496D01*
X197009820Y-90170000D01*
X196990179Y-89945504D01*
X196931853Y-89727830D01*
X196899346Y-89658119D01*
X196843598Y-89538565D01*
X196836615Y-89523590D01*
X196707358Y-89338991D01*
X196707356Y-89338988D01*
X196548011Y-89179643D01*
X196363410Y-89050385D01*
X196363404Y-89050382D01*
X196281912Y-89012382D01*
X196229472Y-88966210D01*
X196210320Y-88899017D01*
X196230535Y-88832135D01*
X196281912Y-88787618D01*
X196293198Y-88782354D01*
X196363410Y-88749615D01*
X196548009Y-88620358D01*
X196707358Y-88461009D01*
X196836615Y-88276410D01*
X196931853Y-88072170D01*
X196990179Y-87854496D01*
X197009820Y-87630000D01*
X196990179Y-87405504D01*
X196931853Y-87187830D01*
X196913670Y-87148837D01*
X196874894Y-87065680D01*
X196836615Y-86983590D01*
X196707358Y-86798991D01*
X196707356Y-86798988D01*
X196548011Y-86639643D01*
X196363410Y-86510385D01*
X196363404Y-86510382D01*
X196281912Y-86472382D01*
X196229472Y-86426210D01*
X196210320Y-86359017D01*
X196230535Y-86292135D01*
X196281912Y-86247618D01*
X196293198Y-86242354D01*
X196363410Y-86209615D01*
X196548009Y-86080358D01*
X196707358Y-85921009D01*
X196755675Y-85852005D01*
X206872994Y-85852005D01*
X206892183Y-86083582D01*
X206949229Y-86308854D01*
X207042575Y-86521662D01*
X207113990Y-86630969D01*
X207169675Y-86716201D01*
X207327061Y-86887168D01*
X207327064Y-86887170D01*
X207327067Y-86887173D01*
X207510432Y-87029892D01*
X207510438Y-87029896D01*
X207510441Y-87029898D01*
X207714812Y-87140499D01*
X207934600Y-87215952D01*
X208163810Y-87254200D01*
X208396190Y-87254200D01*
X208625400Y-87215952D01*
X208845188Y-87140499D01*
X209049559Y-87029898D01*
X209232939Y-86887168D01*
X209390325Y-86716201D01*
X209517425Y-86521661D01*
X209610771Y-86308854D01*
X209667816Y-86083586D01*
X209687006Y-85852000D01*
X209684694Y-85824104D01*
X209670626Y-85654321D01*
X209667816Y-85620414D01*
X209610771Y-85395146D01*
X209517425Y-85182339D01*
X209390325Y-84987799D01*
X209232939Y-84816832D01*
X209232934Y-84816828D01*
X209232932Y-84816826D01*
X209049567Y-84674107D01*
X209049561Y-84674103D01*
X208845188Y-84563501D01*
X208845180Y-84563498D01*
X208625402Y-84488048D01*
X208396190Y-84449800D01*
X208163810Y-84449800D01*
X207934597Y-84488048D01*
X207714819Y-84563498D01*
X207714811Y-84563501D01*
X207510438Y-84674103D01*
X207510432Y-84674107D01*
X207327067Y-84816826D01*
X207327064Y-84816829D01*
X207169676Y-84987797D01*
X207169673Y-84987801D01*
X207042575Y-85182337D01*
X206949229Y-85395145D01*
X206892183Y-85620417D01*
X206872994Y-85851994D01*
X206872994Y-85852005D01*
X196755675Y-85852005D01*
X196836615Y-85736410D01*
X196931853Y-85532170D01*
X196990179Y-85314496D01*
X197009820Y-85090000D01*
X196990179Y-84865504D01*
X196931853Y-84647830D01*
X196903719Y-84587497D01*
X196857346Y-84488048D01*
X196836615Y-84443590D01*
X196707358Y-84258991D01*
X196707356Y-84258988D01*
X196548011Y-84099643D01*
X196363410Y-83970385D01*
X196363404Y-83970382D01*
X196281912Y-83932382D01*
X196229472Y-83886210D01*
X196210320Y-83819017D01*
X196230535Y-83752135D01*
X196281912Y-83707618D01*
X196293198Y-83702354D01*
X196363410Y-83669615D01*
X196548009Y-83540358D01*
X196707358Y-83381009D01*
X196836615Y-83196410D01*
X196931853Y-82992170D01*
X196990179Y-82774496D01*
X197009820Y-82550000D01*
X196990179Y-82325504D01*
X196931853Y-82107830D01*
X196901158Y-82042004D01*
X206872994Y-82042004D01*
X206892183Y-82273581D01*
X206949229Y-82498853D01*
X207042575Y-82711661D01*
X207083628Y-82774496D01*
X207169675Y-82906200D01*
X207327061Y-83077167D01*
X207327064Y-83077169D01*
X207327067Y-83077172D01*
X207510432Y-83219891D01*
X207510438Y-83219895D01*
X207510441Y-83219897D01*
X207714812Y-83330498D01*
X207934600Y-83405951D01*
X208163810Y-83444199D01*
X208396190Y-83444199D01*
X208625400Y-83405951D01*
X208845188Y-83330498D01*
X209049559Y-83219897D01*
X209052300Y-83217764D01*
X209153158Y-83139263D01*
X209232939Y-83077167D01*
X209390325Y-82906200D01*
X209517425Y-82711660D01*
X209610771Y-82498853D01*
X209667816Y-82273585D01*
X209687006Y-82041999D01*
X209686684Y-82038119D01*
X209667816Y-81810416D01*
X209667816Y-81810413D01*
X209610771Y-81585145D01*
X209517425Y-81372338D01*
X209390325Y-81177798D01*
X209232939Y-81006831D01*
X209232934Y-81006827D01*
X209232932Y-81006825D01*
X209049567Y-80864106D01*
X209049561Y-80864102D01*
X208845188Y-80753500D01*
X208845180Y-80753497D01*
X208625402Y-80678047D01*
X208396190Y-80639799D01*
X208163810Y-80639799D01*
X207934597Y-80678047D01*
X207714819Y-80753497D01*
X207714811Y-80753500D01*
X207510438Y-80864102D01*
X207510432Y-80864106D01*
X207327067Y-81006825D01*
X207327064Y-81006828D01*
X207169676Y-81177796D01*
X207169673Y-81177800D01*
X207042575Y-81372336D01*
X206949229Y-81585144D01*
X206892183Y-81810416D01*
X206872994Y-82041993D01*
X206872994Y-82042004D01*
X196901158Y-82042004D01*
X196899346Y-82038119D01*
X196874894Y-81985680D01*
X196836615Y-81903590D01*
X196707358Y-81718991D01*
X196707356Y-81718988D01*
X196548011Y-81559643D01*
X196363410Y-81430385D01*
X196363404Y-81430382D01*
X196281912Y-81392382D01*
X196229472Y-81346210D01*
X196210320Y-81279017D01*
X196230535Y-81212135D01*
X196281912Y-81167618D01*
X196293198Y-81162354D01*
X196363410Y-81129615D01*
X196548009Y-81000358D01*
X196707358Y-80841009D01*
X196836615Y-80656410D01*
X196931853Y-80452170D01*
X196990179Y-80234496D01*
X197009820Y-80010000D01*
X196990179Y-79785504D01*
X196931853Y-79567830D01*
X196924705Y-79552502D01*
X196874894Y-79445680D01*
X196836615Y-79363590D01*
X196707358Y-79178991D01*
X196707356Y-79178988D01*
X196548011Y-79019643D01*
X196363410Y-78890385D01*
X196363404Y-78890382D01*
X196281912Y-78852382D01*
X196229472Y-78806210D01*
X196210320Y-78739017D01*
X196230535Y-78672135D01*
X196281912Y-78627618D01*
X196310931Y-78614086D01*
X196363410Y-78589615D01*
X196548009Y-78460358D01*
X196707358Y-78301009D01*
X196836615Y-78116410D01*
X196931853Y-77912170D01*
X196967267Y-77780004D01*
X217331916Y-77780004D01*
X217352221Y-78050969D01*
X217409292Y-78301011D01*
X217412688Y-78315890D01*
X217412690Y-78315895D01*
X217511960Y-78568831D01*
X217511963Y-78568839D01*
X217572558Y-78673791D01*
X217647829Y-78804163D01*
X217756170Y-78940019D01*
X217817253Y-79016615D01*
X217992251Y-79178988D01*
X218016443Y-79201435D01*
X218240958Y-79354507D01*
X218485779Y-79472407D01*
X218745438Y-79552501D01*
X218745439Y-79552501D01*
X218745442Y-79552502D01*
X219014126Y-79592999D01*
X219014131Y-79592999D01*
X219014134Y-79593000D01*
X219014135Y-79593000D01*
X219285865Y-79593000D01*
X219285866Y-79593000D01*
X219285873Y-79592999D01*
X219554557Y-79552502D01*
X219554558Y-79552501D01*
X219554562Y-79552501D01*
X219717464Y-79502251D01*
X219787326Y-79501302D01*
X219841694Y-79533062D01*
X221075181Y-80766548D01*
X221108666Y-80827871D01*
X221111500Y-80854229D01*
X221111500Y-85156303D01*
X221091815Y-85223342D01*
X221039011Y-85269097D01*
X220969853Y-85279041D01*
X220906297Y-85250016D01*
X220890553Y-85233616D01*
X220802646Y-85123384D01*
X220603457Y-84938565D01*
X220496292Y-84865501D01*
X220378942Y-84785493D01*
X220378939Y-84785492D01*
X220378937Y-84785490D01*
X220134121Y-84667593D01*
X219874463Y-84587499D01*
X219874457Y-84587497D01*
X219605773Y-84547000D01*
X219605766Y-84547000D01*
X219334034Y-84547000D01*
X219334026Y-84547000D01*
X219065342Y-84587497D01*
X219065336Y-84587499D01*
X218805678Y-84667593D01*
X218560862Y-84785490D01*
X218336342Y-84938565D01*
X218137153Y-85123384D01*
X217967729Y-85335837D01*
X217831863Y-85571160D01*
X217831860Y-85571168D01*
X217732590Y-85824104D01*
X217732585Y-85824121D01*
X217672121Y-86089030D01*
X217651816Y-86359995D01*
X217651816Y-86360004D01*
X217672121Y-86630969D01*
X217730598Y-86887173D01*
X217732588Y-86895890D01*
X217732590Y-86895895D01*
X217831860Y-87148831D01*
X217831863Y-87148839D01*
X217897488Y-87262503D01*
X217967729Y-87384163D01*
X218076419Y-87520456D01*
X218137153Y-87596615D01*
X218291195Y-87739544D01*
X218336343Y-87781435D01*
X218560858Y-87934507D01*
X218805679Y-88052407D01*
X219065338Y-88132501D01*
X219065339Y-88132501D01*
X219065342Y-88132502D01*
X219334026Y-88172999D01*
X219334031Y-88172999D01*
X219334034Y-88173000D01*
X219334035Y-88173000D01*
X219605765Y-88173000D01*
X219605766Y-88173000D01*
X219605773Y-88172999D01*
X219874457Y-88132502D01*
X219874458Y-88132501D01*
X219874462Y-88132501D01*
X220134121Y-88052407D01*
X220378942Y-87934507D01*
X220603457Y-87781435D01*
X220802650Y-87596611D01*
X220890554Y-87486382D01*
X220947741Y-87446243D01*
X221017553Y-87443393D01*
X221077823Y-87478738D01*
X221109416Y-87541057D01*
X221111500Y-87563696D01*
X221111500Y-89756303D01*
X221091815Y-89823342D01*
X221039011Y-89869097D01*
X220969853Y-89879041D01*
X220906297Y-89850016D01*
X220890553Y-89833616D01*
X220802646Y-89723384D01*
X220603457Y-89538565D01*
X220478797Y-89453573D01*
X220378942Y-89385493D01*
X220378939Y-89385492D01*
X220378937Y-89385490D01*
X220134121Y-89267593D01*
X219874463Y-89187499D01*
X219874457Y-89187497D01*
X219605773Y-89147000D01*
X219605766Y-89147000D01*
X219334034Y-89147000D01*
X219334026Y-89147000D01*
X219065342Y-89187497D01*
X219065336Y-89187499D01*
X218805678Y-89267593D01*
X218560862Y-89385490D01*
X218336342Y-89538565D01*
X218137153Y-89723384D01*
X217967729Y-89935837D01*
X217831863Y-90171160D01*
X217831860Y-90171168D01*
X217732590Y-90424104D01*
X217732585Y-90424121D01*
X217672121Y-90689030D01*
X217651816Y-90959995D01*
X217651816Y-90960004D01*
X217672121Y-91230969D01*
X217720444Y-91442683D01*
X217732588Y-91495890D01*
X217732590Y-91495895D01*
X217831860Y-91748831D01*
X217831863Y-91748839D01*
X217922440Y-91905721D01*
X217967729Y-91984163D01*
X218092847Y-92141057D01*
X218137153Y-92196615D01*
X218325190Y-92371087D01*
X218336343Y-92381435D01*
X218560858Y-92534507D01*
X218805679Y-92652407D01*
X219065338Y-92732501D01*
X219065339Y-92732501D01*
X219065342Y-92732502D01*
X219334026Y-92772999D01*
X219334031Y-92772999D01*
X219334034Y-92773000D01*
X219334035Y-92773000D01*
X219605765Y-92773000D01*
X219605766Y-92773000D01*
X219605773Y-92772999D01*
X219874457Y-92732502D01*
X219874458Y-92732501D01*
X219874462Y-92732501D01*
X220134121Y-92652407D01*
X220378942Y-92534507D01*
X220603457Y-92381435D01*
X220802650Y-92196611D01*
X220890554Y-92086382D01*
X220947741Y-92046243D01*
X221017553Y-92043393D01*
X221077823Y-92078738D01*
X221109416Y-92141057D01*
X221111500Y-92163696D01*
X221111500Y-92805669D01*
X221091815Y-92872708D01*
X221075181Y-92893350D01*
X220161594Y-93806936D01*
X220100271Y-93840421D01*
X220037364Y-93837746D01*
X219874467Y-93787500D01*
X219874457Y-93787497D01*
X219605773Y-93747000D01*
X219605766Y-93747000D01*
X219334034Y-93747000D01*
X219334026Y-93747000D01*
X219065342Y-93787497D01*
X219065336Y-93787499D01*
X218805678Y-93867593D01*
X218560862Y-93985490D01*
X218336342Y-94138565D01*
X218137153Y-94323384D01*
X217967729Y-94535837D01*
X217831863Y-94771160D01*
X217831860Y-94771168D01*
X217732590Y-95024104D01*
X217732585Y-95024121D01*
X217672121Y-95289030D01*
X217651816Y-95559995D01*
X217651816Y-95560004D01*
X217672121Y-95830969D01*
X217704373Y-95972274D01*
X217732588Y-96095890D01*
X217732590Y-96095895D01*
X217831860Y-96348831D01*
X217831863Y-96348839D01*
X217881609Y-96435000D01*
X217967729Y-96584163D01*
X218104570Y-96755757D01*
X218137153Y-96796615D01*
X218325190Y-96971087D01*
X218336343Y-96981435D01*
X218560858Y-97134507D01*
X218805679Y-97252407D01*
X219065338Y-97332501D01*
X219065339Y-97332501D01*
X219065342Y-97332502D01*
X219334026Y-97372999D01*
X219334031Y-97372999D01*
X219334034Y-97373000D01*
X219334035Y-97373000D01*
X219605765Y-97373000D01*
X219605766Y-97373000D01*
X219605773Y-97372999D01*
X219874457Y-97332502D01*
X219874458Y-97332501D01*
X219874462Y-97332501D01*
X220037441Y-97282227D01*
X220107303Y-97281278D01*
X220161671Y-97313038D01*
X221463181Y-98614548D01*
X221496666Y-98675871D01*
X221499500Y-98702229D01*
X221499500Y-103784175D01*
X221479815Y-103851214D01*
X221427011Y-103896969D01*
X221357853Y-103906913D01*
X221294297Y-103877888D01*
X221256523Y-103819110D01*
X221254609Y-103811768D01*
X221228601Y-103697823D01*
X221207212Y-103604110D01*
X221107937Y-103351163D01*
X221107936Y-103351160D01*
X221050512Y-103251700D01*
X220972071Y-103115837D01*
X220802650Y-102903389D01*
X220802649Y-102903388D01*
X220802646Y-102903384D01*
X220603457Y-102718565D01*
X220407801Y-102585169D01*
X220378942Y-102565493D01*
X220378939Y-102565492D01*
X220378937Y-102565490D01*
X220134121Y-102447593D01*
X219874463Y-102367499D01*
X219874457Y-102367497D01*
X219605773Y-102327000D01*
X219605766Y-102327000D01*
X219334034Y-102327000D01*
X219334026Y-102327000D01*
X219065342Y-102367497D01*
X219065336Y-102367499D01*
X218805678Y-102447593D01*
X218560862Y-102565490D01*
X218336342Y-102718565D01*
X218137153Y-102903384D01*
X217967729Y-103115837D01*
X217831863Y-103351160D01*
X217831860Y-103351168D01*
X217732590Y-103604104D01*
X217732585Y-103604121D01*
X217672121Y-103869030D01*
X217651816Y-104139995D01*
X217651816Y-104140004D01*
X217672121Y-104410969D01*
X217732585Y-104675878D01*
X217732588Y-104675890D01*
X217732590Y-104675895D01*
X217831860Y-104928831D01*
X217831863Y-104928839D01*
X217879454Y-105011267D01*
X217967729Y-105164163D01*
X218104570Y-105335757D01*
X218137153Y-105376615D01*
X218294254Y-105522382D01*
X218336343Y-105561435D01*
X218560858Y-105714507D01*
X218805679Y-105832407D01*
X219065338Y-105912501D01*
X219065339Y-105912501D01*
X219065342Y-105912502D01*
X219334026Y-105952999D01*
X219334031Y-105952999D01*
X219334034Y-105953000D01*
X219334035Y-105953000D01*
X219605765Y-105953000D01*
X219605766Y-105953000D01*
X219605773Y-105952999D01*
X219874457Y-105912502D01*
X219874458Y-105912501D01*
X219874462Y-105912501D01*
X220134121Y-105832407D01*
X220378942Y-105714507D01*
X220603457Y-105561435D01*
X220802650Y-105376611D01*
X220972071Y-105164163D01*
X221107937Y-104928837D01*
X221207212Y-104675890D01*
X221254609Y-104468231D01*
X221288718Y-104407253D01*
X221350379Y-104374395D01*
X221420016Y-104380090D01*
X221475520Y-104422530D01*
X221499268Y-104488240D01*
X221499500Y-104495824D01*
X221499500Y-108384175D01*
X221479815Y-108451214D01*
X221427011Y-108496969D01*
X221357853Y-108506913D01*
X221294297Y-108477888D01*
X221256523Y-108419110D01*
X221254609Y-108411768D01*
X221232607Y-108315375D01*
X221207212Y-108204110D01*
X221107937Y-107951163D01*
X221107936Y-107951160D01*
X221050512Y-107851700D01*
X220972071Y-107715837D01*
X220802650Y-107503389D01*
X220802649Y-107503388D01*
X220802646Y-107503384D01*
X220603457Y-107318565D01*
X220378942Y-107165493D01*
X220378939Y-107165492D01*
X220378937Y-107165490D01*
X220134121Y-107047593D01*
X219874463Y-106967499D01*
X219874457Y-106967497D01*
X219605773Y-106927000D01*
X219605766Y-106927000D01*
X219334034Y-106927000D01*
X219334026Y-106927000D01*
X219065342Y-106967497D01*
X219065336Y-106967499D01*
X218805678Y-107047593D01*
X218560862Y-107165490D01*
X218336342Y-107318565D01*
X218137153Y-107503384D01*
X217967729Y-107715837D01*
X217831863Y-107951160D01*
X217831860Y-107951168D01*
X217732590Y-108204104D01*
X217732585Y-108204121D01*
X217672121Y-108469030D01*
X217651816Y-108739995D01*
X217651816Y-108740004D01*
X217672121Y-109010969D01*
X217674760Y-109022530D01*
X217732588Y-109275890D01*
X217732590Y-109275895D01*
X217831860Y-109528831D01*
X217831863Y-109528839D01*
X217922440Y-109685721D01*
X217967729Y-109764163D01*
X218049263Y-109866404D01*
X218137153Y-109976615D01*
X218325190Y-110151087D01*
X218336343Y-110161435D01*
X218560858Y-110314507D01*
X218805679Y-110432407D01*
X219065338Y-110512501D01*
X219065339Y-110512501D01*
X219065342Y-110512502D01*
X219334026Y-110552999D01*
X219334031Y-110552999D01*
X219334034Y-110553000D01*
X219334035Y-110553000D01*
X219605765Y-110553000D01*
X219605766Y-110553000D01*
X219605773Y-110552999D01*
X219874457Y-110512502D01*
X219874458Y-110512501D01*
X219874462Y-110512501D01*
X220134121Y-110432407D01*
X220378942Y-110314507D01*
X220603457Y-110161435D01*
X220802650Y-109976611D01*
X220972071Y-109764163D01*
X221107937Y-109528837D01*
X221207212Y-109275890D01*
X221254609Y-109068231D01*
X221288718Y-109007253D01*
X221350379Y-108974395D01*
X221420016Y-108980090D01*
X221475520Y-109022530D01*
X221499268Y-109088240D01*
X221499500Y-109095824D01*
X221499500Y-110197770D01*
X221479815Y-110264809D01*
X221463181Y-110285451D01*
X220161671Y-111586960D01*
X220100348Y-111620445D01*
X220037441Y-111617770D01*
X219874467Y-111567500D01*
X219874457Y-111567497D01*
X219605773Y-111527000D01*
X219605766Y-111527000D01*
X219334034Y-111527000D01*
X219334026Y-111527000D01*
X219065342Y-111567497D01*
X219065336Y-111567499D01*
X218805678Y-111647593D01*
X218560862Y-111765490D01*
X218336342Y-111918565D01*
X218137153Y-112103384D01*
X217967729Y-112315837D01*
X217831863Y-112551160D01*
X217831860Y-112551168D01*
X217732590Y-112804104D01*
X217732585Y-112804121D01*
X217672121Y-113069030D01*
X217651816Y-113339995D01*
X217651816Y-113340004D01*
X217672121Y-113610969D01*
X217704373Y-113752274D01*
X217732588Y-113875890D01*
X217732590Y-113875895D01*
X217831860Y-114128831D01*
X217831863Y-114128839D01*
X217881609Y-114215000D01*
X217967729Y-114364163D01*
X218095586Y-114524491D01*
X218137153Y-114576615D01*
X218315575Y-114742165D01*
X218336343Y-114761435D01*
X218560858Y-114914507D01*
X218805679Y-115032407D01*
X219065338Y-115112501D01*
X219065339Y-115112501D01*
X219065342Y-115112502D01*
X219334026Y-115152999D01*
X219334031Y-115152999D01*
X219334034Y-115153000D01*
X219334035Y-115153000D01*
X219605765Y-115153000D01*
X219605766Y-115153000D01*
X219605773Y-115152999D01*
X219874457Y-115112502D01*
X219874458Y-115112501D01*
X219874462Y-115112501D01*
X220134121Y-115032407D01*
X220378942Y-114914507D01*
X220603457Y-114761435D01*
X220802650Y-114576611D01*
X220972071Y-114364163D01*
X221107937Y-114128837D01*
X221207212Y-113875890D01*
X221267678Y-113610971D01*
X221287984Y-113340004D01*
X224562318Y-113340004D01*
X224582618Y-113610894D01*
X224643065Y-113875730D01*
X224643070Y-113875747D01*
X224742315Y-114128619D01*
X224742314Y-114128619D01*
X224878142Y-114363879D01*
X224933300Y-114433045D01*
X225610174Y-113756172D01*
X225651401Y-113833934D01*
X225774614Y-113978992D01*
X225926130Y-114094171D01*
X225962468Y-114110983D01*
X225285752Y-114787698D01*
X225471108Y-114914071D01*
X225471116Y-114914076D01*
X225715860Y-115031937D01*
X225715858Y-115031937D01*
X225975441Y-115112008D01*
X225975447Y-115112009D01*
X226244066Y-115152499D01*
X226244072Y-115152500D01*
X226515728Y-115152500D01*
X226515733Y-115152499D01*
X226784352Y-115112009D01*
X226784358Y-115112008D01*
X227043940Y-115031937D01*
X227288683Y-114914076D01*
X227288684Y-114914075D01*
X227474046Y-114787698D01*
X226796726Y-114110378D01*
X226912550Y-114040689D01*
X227050725Y-113909804D01*
X227152762Y-113759309D01*
X227826499Y-114433046D01*
X227881654Y-114363883D01*
X228017484Y-114128619D01*
X228116729Y-113875747D01*
X228116734Y-113875730D01*
X228177181Y-113610894D01*
X228197482Y-113340004D01*
X228197482Y-113339995D01*
X228177181Y-113069105D01*
X228116734Y-112804269D01*
X228116729Y-112804252D01*
X228017484Y-112551380D01*
X228017485Y-112551380D01*
X227881657Y-112316120D01*
X227826499Y-112246952D01*
X227149625Y-112923826D01*
X227108399Y-112846066D01*
X226985186Y-112701008D01*
X226833670Y-112585829D01*
X226797330Y-112569016D01*
X227474046Y-111892300D01*
X227288691Y-111765928D01*
X227288683Y-111765923D01*
X227043939Y-111648062D01*
X227043941Y-111648062D01*
X226784358Y-111567991D01*
X226784352Y-111567990D01*
X226515733Y-111527500D01*
X226244066Y-111527500D01*
X225975447Y-111567990D01*
X225975441Y-111567991D01*
X225715859Y-111648062D01*
X225471114Y-111765925D01*
X225471101Y-111765932D01*
X225285752Y-111892299D01*
X225963074Y-112569621D01*
X225847250Y-112639311D01*
X225709075Y-112770196D01*
X225607038Y-112920690D01*
X224933300Y-112246953D01*
X224878139Y-112316124D01*
X224742315Y-112551380D01*
X224643070Y-112804252D01*
X224643065Y-112804269D01*
X224582618Y-113069105D01*
X224562318Y-113339995D01*
X224562318Y-113340004D01*
X221287984Y-113340004D01*
X221287984Y-113340000D01*
X221267678Y-113069029D01*
X221207212Y-112804110D01*
X221197425Y-112779175D01*
X221191257Y-112709581D01*
X221223694Y-112647697D01*
X221225115Y-112646250D01*
X222735638Y-111135727D01*
X222749267Y-111123950D01*
X222768530Y-111109610D01*
X222800366Y-111071669D01*
X222807683Y-111063684D01*
X222808992Y-111062373D01*
X222811591Y-111059776D01*
X222830853Y-111035413D01*
X222833076Y-111032686D01*
X222881300Y-110975216D01*
X222881302Y-110975214D01*
X222881304Y-110975209D01*
X222885274Y-110969175D01*
X222885325Y-110969208D01*
X222889369Y-110962860D01*
X222889317Y-110962828D01*
X222893106Y-110956682D01*
X222893111Y-110956677D01*
X222924832Y-110888647D01*
X222926358Y-110885496D01*
X222960040Y-110818433D01*
X222960041Y-110818428D01*
X222962508Y-110811650D01*
X222962566Y-110811671D01*
X222965043Y-110804544D01*
X222964986Y-110804526D01*
X222967256Y-110797676D01*
X222973044Y-110769642D01*
X222982439Y-110724139D01*
X222983187Y-110720762D01*
X223000500Y-110647721D01*
X223000500Y-110647717D01*
X223000501Y-110647713D01*
X223001339Y-110640548D01*
X223001398Y-110640554D01*
X223002164Y-110633054D01*
X223002105Y-110633049D01*
X223002734Y-110625859D01*
X223000552Y-110550869D01*
X223000500Y-110547262D01*
X223000500Y-108740004D01*
X224561816Y-108740004D01*
X224582121Y-109010969D01*
X224584760Y-109022530D01*
X224642588Y-109275890D01*
X224642590Y-109275895D01*
X224741860Y-109528831D01*
X224741863Y-109528839D01*
X224832440Y-109685721D01*
X224877729Y-109764163D01*
X224959263Y-109866404D01*
X225047153Y-109976615D01*
X225235190Y-110151087D01*
X225246343Y-110161435D01*
X225470858Y-110314507D01*
X225715679Y-110432407D01*
X225975338Y-110512501D01*
X225975339Y-110512501D01*
X225975342Y-110512502D01*
X226244026Y-110552999D01*
X226244031Y-110552999D01*
X226244034Y-110553000D01*
X226244035Y-110553000D01*
X226515765Y-110553000D01*
X226515766Y-110553000D01*
X226515773Y-110552999D01*
X226784457Y-110512502D01*
X226784458Y-110512501D01*
X226784462Y-110512501D01*
X227044121Y-110432407D01*
X227288942Y-110314507D01*
X227513457Y-110161435D01*
X227712650Y-109976611D01*
X227882071Y-109764163D01*
X228017937Y-109528837D01*
X228117212Y-109275890D01*
X228177678Y-109010971D01*
X228197984Y-108740000D01*
X228177678Y-108469029D01*
X228117212Y-108204110D01*
X228017937Y-107951163D01*
X228017936Y-107951160D01*
X227960512Y-107851700D01*
X227882071Y-107715837D01*
X227712650Y-107503389D01*
X227712649Y-107503388D01*
X227712646Y-107503384D01*
X227513457Y-107318565D01*
X227288942Y-107165493D01*
X227288939Y-107165492D01*
X227288937Y-107165490D01*
X227044121Y-107047593D01*
X226784463Y-106967499D01*
X226784457Y-106967497D01*
X226515773Y-106927000D01*
X226515766Y-106927000D01*
X226244034Y-106927000D01*
X226244026Y-106927000D01*
X225975342Y-106967497D01*
X225975336Y-106967499D01*
X225715678Y-107047593D01*
X225470862Y-107165490D01*
X225246342Y-107318565D01*
X225047153Y-107503384D01*
X224877729Y-107715837D01*
X224741863Y-107951160D01*
X224741860Y-107951168D01*
X224642590Y-108204104D01*
X224642585Y-108204121D01*
X224582121Y-108469030D01*
X224561816Y-108739995D01*
X224561816Y-108740004D01*
X223000500Y-108740004D01*
X223000500Y-105500370D01*
X224566900Y-105500370D01*
X224566901Y-105500376D01*
X224573308Y-105559983D01*
X224623602Y-105694828D01*
X224623606Y-105694835D01*
X224709852Y-105810044D01*
X224709855Y-105810047D01*
X224825064Y-105896293D01*
X224825071Y-105896297D01*
X224959917Y-105946591D01*
X224959916Y-105946591D01*
X224966844Y-105947335D01*
X225019527Y-105953000D01*
X227740272Y-105952999D01*
X227799883Y-105946591D01*
X227934731Y-105896296D01*
X228049946Y-105810046D01*
X228136196Y-105694831D01*
X228186491Y-105559983D01*
X228192900Y-105500373D01*
X228192899Y-102779628D01*
X228186491Y-102720017D01*
X228185949Y-102718565D01*
X228136197Y-102585171D01*
X228136193Y-102585164D01*
X228049947Y-102469955D01*
X228049944Y-102469952D01*
X227934735Y-102383706D01*
X227934728Y-102383702D01*
X227799882Y-102333408D01*
X227799883Y-102333408D01*
X227740283Y-102327001D01*
X227740281Y-102327000D01*
X227740273Y-102327000D01*
X227740264Y-102327000D01*
X225019529Y-102327000D01*
X225019523Y-102327001D01*
X224959916Y-102333408D01*
X224825071Y-102383702D01*
X224825064Y-102383706D01*
X224709855Y-102469952D01*
X224709852Y-102469955D01*
X224623606Y-102585164D01*
X224623602Y-102585171D01*
X224573308Y-102720017D01*
X224569266Y-102757618D01*
X224566901Y-102779623D01*
X224566900Y-102779635D01*
X224566900Y-105500370D01*
X223000500Y-105500370D01*
X223000500Y-98403705D01*
X223001809Y-98385735D01*
X223002460Y-98381287D01*
X223005289Y-98361977D01*
X223000972Y-98312630D01*
X223000500Y-98301822D01*
X223000500Y-98296296D01*
X223000500Y-98296291D01*
X222996901Y-98265509D01*
X222996536Y-98261929D01*
X222989999Y-98187201D01*
X222988539Y-98180129D01*
X222988597Y-98180116D01*
X222986965Y-98172757D01*
X222986906Y-98172772D01*
X222985241Y-98165751D01*
X222985241Y-98165745D01*
X222959569Y-98095212D01*
X222958421Y-98091909D01*
X222934814Y-98020666D01*
X222934810Y-98020659D01*
X222931760Y-98014118D01*
X222931815Y-98014091D01*
X222928533Y-98007313D01*
X222928480Y-98007340D01*
X222925235Y-98000880D01*
X222884025Y-97938223D01*
X222882086Y-97935181D01*
X222842712Y-97871345D01*
X222842711Y-97871344D01*
X222842710Y-97871342D01*
X222838234Y-97865682D01*
X222838281Y-97865644D01*
X222833519Y-97859799D01*
X222833474Y-97859838D01*
X222828831Y-97854305D01*
X222774272Y-97802831D01*
X222771685Y-97800318D01*
X221225173Y-96253805D01*
X221191688Y-96192482D01*
X221196672Y-96122790D01*
X221197377Y-96120948D01*
X221207212Y-96095890D01*
X221267678Y-95830971D01*
X221284413Y-95607651D01*
X221287984Y-95560004D01*
X224562318Y-95560004D01*
X224582618Y-95830894D01*
X224643065Y-96095730D01*
X224643070Y-96095747D01*
X224742315Y-96348619D01*
X224742314Y-96348619D01*
X224878142Y-96583879D01*
X224933300Y-96653045D01*
X225610174Y-95976172D01*
X225651401Y-96053934D01*
X225774614Y-96198992D01*
X225926130Y-96314171D01*
X225962468Y-96330983D01*
X225285752Y-97007698D01*
X225471108Y-97134071D01*
X225471116Y-97134076D01*
X225715860Y-97251937D01*
X225715858Y-97251937D01*
X225975441Y-97332008D01*
X225975447Y-97332009D01*
X226244066Y-97372499D01*
X226244072Y-97372500D01*
X226515728Y-97372500D01*
X226515733Y-97372499D01*
X226784352Y-97332009D01*
X226784358Y-97332008D01*
X227043940Y-97251937D01*
X227288683Y-97134076D01*
X227288684Y-97134075D01*
X227474046Y-97007698D01*
X226796726Y-96330378D01*
X226912550Y-96260689D01*
X227050725Y-96129804D01*
X227152762Y-95979309D01*
X227826499Y-96653046D01*
X227881654Y-96583883D01*
X228017484Y-96348619D01*
X228116729Y-96095747D01*
X228116734Y-96095730D01*
X228177181Y-95830894D01*
X228197482Y-95560004D01*
X228197482Y-95559995D01*
X228177181Y-95289105D01*
X228116734Y-95024269D01*
X228116729Y-95024252D01*
X228017484Y-94771380D01*
X228017485Y-94771380D01*
X227881657Y-94536120D01*
X227826499Y-94466952D01*
X227149625Y-95143826D01*
X227108399Y-95066066D01*
X226985186Y-94921008D01*
X226833670Y-94805829D01*
X226797330Y-94789016D01*
X227474046Y-94112300D01*
X227288691Y-93985928D01*
X227288683Y-93985923D01*
X227043939Y-93868062D01*
X227043941Y-93868062D01*
X226784358Y-93787991D01*
X226784352Y-93787990D01*
X226515733Y-93747500D01*
X226244066Y-93747500D01*
X225975447Y-93787990D01*
X225975441Y-93787991D01*
X225715859Y-93868062D01*
X225471114Y-93985925D01*
X225471101Y-93985932D01*
X225285752Y-94112299D01*
X225963074Y-94789621D01*
X225847250Y-94859311D01*
X225709075Y-94990196D01*
X225607038Y-95140690D01*
X224933300Y-94466953D01*
X224878139Y-94536124D01*
X224742315Y-94771380D01*
X224643070Y-95024252D01*
X224643065Y-95024269D01*
X224582618Y-95289105D01*
X224562318Y-95559995D01*
X224562318Y-95560004D01*
X221287984Y-95560004D01*
X221287984Y-95559995D01*
X221267678Y-95289030D01*
X221258770Y-95250000D01*
X221207212Y-95024110D01*
X221197396Y-94999101D01*
X221191229Y-94929507D01*
X221223667Y-94867623D01*
X221225086Y-94866180D01*
X222347638Y-93743627D01*
X222361267Y-93731850D01*
X222380530Y-93717510D01*
X222412366Y-93679569D01*
X222419683Y-93671584D01*
X222420993Y-93670272D01*
X222423590Y-93667677D01*
X222442811Y-93643367D01*
X222445094Y-93640564D01*
X222493301Y-93583115D01*
X222497272Y-93577079D01*
X222497323Y-93577112D01*
X222501369Y-93570760D01*
X222501317Y-93570728D01*
X222505105Y-93564583D01*
X222505111Y-93564577D01*
X222536829Y-93496555D01*
X222538369Y-93493376D01*
X222572040Y-93426333D01*
X222572043Y-93426317D01*
X222574510Y-93419544D01*
X222574568Y-93419565D01*
X222577043Y-93412446D01*
X222576985Y-93412427D01*
X222579255Y-93405577D01*
X222581879Y-93392867D01*
X222594431Y-93332071D01*
X222595186Y-93328667D01*
X222612500Y-93255621D01*
X222612500Y-93255619D01*
X222612501Y-93255615D01*
X222613339Y-93248448D01*
X222613397Y-93248454D01*
X222614164Y-93240956D01*
X222614104Y-93240951D01*
X222614733Y-93233760D01*
X222612552Y-93158789D01*
X222612500Y-93155183D01*
X222612500Y-90960004D01*
X224561816Y-90960004D01*
X224582121Y-91230969D01*
X224630444Y-91442683D01*
X224642588Y-91495890D01*
X224642590Y-91495895D01*
X224741860Y-91748831D01*
X224741863Y-91748839D01*
X224832440Y-91905721D01*
X224877729Y-91984163D01*
X225002847Y-92141057D01*
X225047153Y-92196615D01*
X225235190Y-92371087D01*
X225246343Y-92381435D01*
X225470858Y-92534507D01*
X225715679Y-92652407D01*
X225975338Y-92732501D01*
X225975339Y-92732501D01*
X225975342Y-92732502D01*
X226244026Y-92772999D01*
X226244031Y-92772999D01*
X226244034Y-92773000D01*
X226244035Y-92773000D01*
X226515765Y-92773000D01*
X226515766Y-92773000D01*
X226515773Y-92772999D01*
X226784457Y-92732502D01*
X226784458Y-92732501D01*
X226784462Y-92732501D01*
X227044121Y-92652407D01*
X227288942Y-92534507D01*
X227513457Y-92381435D01*
X227712650Y-92196611D01*
X227882071Y-91984163D01*
X228017937Y-91748837D01*
X228117212Y-91495890D01*
X228177678Y-91230971D01*
X228197984Y-90960000D01*
X228192470Y-90886425D01*
X228177678Y-90689030D01*
X228177678Y-90689029D01*
X228117212Y-90424110D01*
X228017937Y-90171163D01*
X228017936Y-90171160D01*
X227954020Y-90060456D01*
X227882071Y-89935837D01*
X227712650Y-89723389D01*
X227712649Y-89723388D01*
X227712646Y-89723384D01*
X227513457Y-89538565D01*
X227388797Y-89453573D01*
X227288942Y-89385493D01*
X227288939Y-89385492D01*
X227288937Y-89385490D01*
X227044121Y-89267593D01*
X226784463Y-89187499D01*
X226784457Y-89187497D01*
X226515773Y-89147000D01*
X226515766Y-89147000D01*
X226244034Y-89147000D01*
X226244026Y-89147000D01*
X225975342Y-89187497D01*
X225975336Y-89187499D01*
X225715678Y-89267593D01*
X225470862Y-89385490D01*
X225246342Y-89538565D01*
X225047153Y-89723384D01*
X224877729Y-89935837D01*
X224741863Y-90171160D01*
X224741860Y-90171168D01*
X224642590Y-90424104D01*
X224642585Y-90424121D01*
X224582121Y-90689030D01*
X224561816Y-90959995D01*
X224561816Y-90960004D01*
X222612500Y-90960004D01*
X222612500Y-87720370D01*
X224566900Y-87720370D01*
X224566901Y-87720376D01*
X224573308Y-87779983D01*
X224623602Y-87914828D01*
X224623606Y-87914835D01*
X224709852Y-88030044D01*
X224709855Y-88030047D01*
X224825064Y-88116293D01*
X224825071Y-88116297D01*
X224959917Y-88166591D01*
X224959916Y-88166591D01*
X224966844Y-88167335D01*
X225019527Y-88173000D01*
X227740272Y-88172999D01*
X227799883Y-88166591D01*
X227934731Y-88116296D01*
X228049946Y-88030046D01*
X228136196Y-87914831D01*
X228186491Y-87779983D01*
X228192900Y-87720373D01*
X228192899Y-84999628D01*
X228186491Y-84940017D01*
X228185949Y-84938565D01*
X228136197Y-84805171D01*
X228136193Y-84805164D01*
X228049947Y-84689955D01*
X228049944Y-84689952D01*
X227934735Y-84603706D01*
X227934728Y-84603702D01*
X227799882Y-84553408D01*
X227799883Y-84553408D01*
X227740283Y-84547001D01*
X227740281Y-84547000D01*
X227740273Y-84547000D01*
X227740264Y-84547000D01*
X225019529Y-84547000D01*
X225019523Y-84547001D01*
X224959916Y-84553408D01*
X224825071Y-84603702D01*
X224825064Y-84603706D01*
X224709855Y-84689952D01*
X224709852Y-84689955D01*
X224623606Y-84805164D01*
X224623602Y-84805171D01*
X224573308Y-84940017D01*
X224568171Y-84987801D01*
X224566901Y-84999623D01*
X224566900Y-84999635D01*
X224566900Y-87720370D01*
X222612500Y-87720370D01*
X222612500Y-80555705D01*
X222613809Y-80537735D01*
X222615169Y-80528449D01*
X222617289Y-80513977D01*
X222612971Y-80464632D01*
X222612500Y-80453826D01*
X222612500Y-80448296D01*
X222612500Y-80448291D01*
X222608894Y-80417443D01*
X222608534Y-80413916D01*
X222601999Y-80339209D01*
X222600538Y-80332135D01*
X222600598Y-80332122D01*
X222598965Y-80324757D01*
X222598906Y-80324772D01*
X222597241Y-80317751D01*
X222597241Y-80317745D01*
X222571569Y-80247211D01*
X222570422Y-80243913D01*
X222546814Y-80172665D01*
X222546809Y-80172658D01*
X222543761Y-80166118D01*
X222543815Y-80166092D01*
X222540533Y-80159312D01*
X222540480Y-80159340D01*
X222537238Y-80152885D01*
X222515309Y-80119544D01*
X222496026Y-80090225D01*
X222494107Y-80087212D01*
X222454714Y-80023347D01*
X222450234Y-80017681D01*
X222450280Y-80017643D01*
X222445519Y-80011799D01*
X222445474Y-80011838D01*
X222440831Y-80006305D01*
X222386290Y-79954848D01*
X222383703Y-79952335D01*
X220905245Y-78473877D01*
X220871760Y-78412554D01*
X220876744Y-78342862D01*
X220877456Y-78341000D01*
X220887312Y-78315890D01*
X220947778Y-78050971D01*
X220958179Y-77912176D01*
X220968084Y-77780004D01*
X224242418Y-77780004D01*
X224262718Y-78050894D01*
X224323165Y-78315730D01*
X224323170Y-78315747D01*
X224422415Y-78568619D01*
X224422414Y-78568619D01*
X224558242Y-78803879D01*
X224613400Y-78873045D01*
X225290274Y-78196171D01*
X225331501Y-78273934D01*
X225454714Y-78418992D01*
X225606230Y-78534171D01*
X225642568Y-78550983D01*
X224965852Y-79227698D01*
X225151208Y-79354071D01*
X225151216Y-79354076D01*
X225395960Y-79471937D01*
X225395958Y-79471937D01*
X225655541Y-79552008D01*
X225655547Y-79552009D01*
X225924166Y-79592499D01*
X225924172Y-79592500D01*
X226195828Y-79592500D01*
X226195833Y-79592499D01*
X226464452Y-79552009D01*
X226464458Y-79552008D01*
X226724040Y-79471937D01*
X226968783Y-79354076D01*
X226968784Y-79354075D01*
X227154146Y-79227698D01*
X226476826Y-78550378D01*
X226592650Y-78480689D01*
X226730825Y-78349804D01*
X226832862Y-78199309D01*
X227506599Y-78873046D01*
X227561754Y-78803883D01*
X227697584Y-78568619D01*
X227796829Y-78315747D01*
X227796834Y-78315730D01*
X227857281Y-78050894D01*
X227877582Y-77780004D01*
X227877582Y-77779995D01*
X227857281Y-77509105D01*
X227796834Y-77244269D01*
X227796829Y-77244252D01*
X227697584Y-76991380D01*
X227697585Y-76991380D01*
X227561757Y-76756120D01*
X227506599Y-76686952D01*
X226829725Y-77363826D01*
X226788499Y-77286066D01*
X226665286Y-77141008D01*
X226513770Y-77025829D01*
X226477430Y-77009016D01*
X227154146Y-76332300D01*
X226968791Y-76205928D01*
X226968783Y-76205923D01*
X226724039Y-76088062D01*
X226724041Y-76088062D01*
X226464458Y-76007991D01*
X226464452Y-76007990D01*
X226195833Y-75967500D01*
X225924166Y-75967500D01*
X225655547Y-76007990D01*
X225655541Y-76007991D01*
X225395959Y-76088062D01*
X225151214Y-76205925D01*
X225151201Y-76205932D01*
X224965852Y-76332299D01*
X225643174Y-77009621D01*
X225527350Y-77079311D01*
X225389175Y-77210196D01*
X225287138Y-77360690D01*
X224613400Y-76686953D01*
X224558239Y-76756124D01*
X224422415Y-76991380D01*
X224323170Y-77244252D01*
X224323165Y-77244269D01*
X224262718Y-77509105D01*
X224242418Y-77779995D01*
X224242418Y-77780004D01*
X220968084Y-77780004D01*
X220968084Y-77779995D01*
X220947778Y-77509030D01*
X220938870Y-77470000D01*
X220887312Y-77244110D01*
X220788037Y-76991163D01*
X220788036Y-76991160D01*
X220730612Y-76891700D01*
X220652171Y-76755837D01*
X220482750Y-76543389D01*
X220482749Y-76543388D01*
X220482746Y-76543384D01*
X220283557Y-76358565D01*
X220215414Y-76312106D01*
X220059042Y-76205493D01*
X220059039Y-76205492D01*
X220059037Y-76205490D01*
X219814221Y-76087593D01*
X219554563Y-76007499D01*
X219554557Y-76007497D01*
X219285873Y-75967000D01*
X219285866Y-75967000D01*
X219014134Y-75967000D01*
X219014126Y-75967000D01*
X218745442Y-76007497D01*
X218745436Y-76007499D01*
X218485778Y-76087593D01*
X218240962Y-76205490D01*
X218016442Y-76358565D01*
X217817253Y-76543384D01*
X217647829Y-76755837D01*
X217511963Y-76991160D01*
X217511960Y-76991168D01*
X217412690Y-77244104D01*
X217412685Y-77244121D01*
X217352221Y-77509030D01*
X217331916Y-77779995D01*
X217331916Y-77780004D01*
X196967267Y-77780004D01*
X196990179Y-77694496D01*
X197009820Y-77470000D01*
X196990179Y-77245504D01*
X196931853Y-77027830D01*
X196914757Y-76991168D01*
X196874577Y-76905000D01*
X196836615Y-76823590D01*
X196707358Y-76638991D01*
X196707356Y-76638988D01*
X196548011Y-76479643D01*
X196363410Y-76350385D01*
X196363404Y-76350382D01*
X196281912Y-76312382D01*
X196229472Y-76266210D01*
X196210320Y-76199017D01*
X196230535Y-76132135D01*
X196281912Y-76087618D01*
X196293198Y-76082354D01*
X196363410Y-76049615D01*
X196548009Y-75920358D01*
X196707358Y-75761009D01*
X196755678Y-75692001D01*
X200878532Y-75692001D01*
X200898364Y-75918686D01*
X200898366Y-75918697D01*
X200957258Y-76138488D01*
X200957261Y-76138497D01*
X201053431Y-76344732D01*
X201053432Y-76344734D01*
X201183954Y-76531141D01*
X201344858Y-76692045D01*
X201344861Y-76692047D01*
X201531266Y-76822568D01*
X201737504Y-76918739D01*
X201957308Y-76977635D01*
X202111934Y-76991163D01*
X202183998Y-76997468D01*
X202184000Y-76997468D01*
X202184002Y-76997468D01*
X202256066Y-76991163D01*
X202410692Y-76977635D01*
X202630496Y-76918739D01*
X202836734Y-76822568D01*
X203023139Y-76692047D01*
X203184047Y-76531139D01*
X203314568Y-76344734D01*
X203410739Y-76138496D01*
X203469635Y-75918692D01*
X203489468Y-75692001D01*
X213578532Y-75692001D01*
X213598364Y-75918686D01*
X213598366Y-75918697D01*
X213657258Y-76138488D01*
X213657261Y-76138497D01*
X213753431Y-76344732D01*
X213753432Y-76344734D01*
X213883954Y-76531141D01*
X214044858Y-76692045D01*
X214044861Y-76692047D01*
X214231266Y-76822568D01*
X214437504Y-76918739D01*
X214657308Y-76977635D01*
X214811934Y-76991163D01*
X214883998Y-76997468D01*
X214884000Y-76997468D01*
X214884002Y-76997468D01*
X214956066Y-76991163D01*
X215110692Y-76977635D01*
X215330496Y-76918739D01*
X215536734Y-76822568D01*
X215723139Y-76692047D01*
X215884047Y-76531139D01*
X216014568Y-76344734D01*
X216110739Y-76138496D01*
X216169635Y-75918692D01*
X216189468Y-75692000D01*
X216169635Y-75465308D01*
X216110739Y-75245504D01*
X216014568Y-75039266D01*
X215884047Y-74852861D01*
X215884045Y-74852858D01*
X215723141Y-74691954D01*
X215536734Y-74561432D01*
X215536732Y-74561431D01*
X215330497Y-74465261D01*
X215330488Y-74465258D01*
X215110697Y-74406366D01*
X215110693Y-74406365D01*
X215110692Y-74406365D01*
X215110691Y-74406364D01*
X215110686Y-74406364D01*
X214884002Y-74386532D01*
X214883998Y-74386532D01*
X214657313Y-74406364D01*
X214657302Y-74406366D01*
X214437511Y-74465258D01*
X214437502Y-74465261D01*
X214231267Y-74561431D01*
X214231265Y-74561432D01*
X214044858Y-74691954D01*
X213883954Y-74852858D01*
X213753432Y-75039265D01*
X213753431Y-75039267D01*
X213657261Y-75245502D01*
X213657258Y-75245511D01*
X213598366Y-75465302D01*
X213598364Y-75465313D01*
X213578532Y-75691998D01*
X213578532Y-75692001D01*
X203489468Y-75692001D01*
X203489468Y-75692000D01*
X203469635Y-75465308D01*
X203410739Y-75245504D01*
X203314568Y-75039266D01*
X203184047Y-74852861D01*
X203184045Y-74852858D01*
X203023141Y-74691954D01*
X202836734Y-74561432D01*
X202836732Y-74561431D01*
X202630497Y-74465261D01*
X202630488Y-74465258D01*
X202410697Y-74406366D01*
X202410693Y-74406365D01*
X202410692Y-74406365D01*
X202410691Y-74406364D01*
X202410686Y-74406364D01*
X202184002Y-74386532D01*
X202183998Y-74386532D01*
X201957313Y-74406364D01*
X201957302Y-74406366D01*
X201737511Y-74465258D01*
X201737502Y-74465261D01*
X201531267Y-74561431D01*
X201531265Y-74561432D01*
X201344858Y-74691954D01*
X201183954Y-74852858D01*
X201053432Y-75039265D01*
X201053431Y-75039267D01*
X200957261Y-75245502D01*
X200957258Y-75245511D01*
X200898366Y-75465302D01*
X200898364Y-75465313D01*
X200878532Y-75691998D01*
X200878532Y-75692001D01*
X196755678Y-75692001D01*
X196836615Y-75576410D01*
X196931853Y-75372170D01*
X196990179Y-75154496D01*
X197009820Y-74930000D01*
X196990179Y-74705504D01*
X196931853Y-74487830D01*
X196926859Y-74477121D01*
X196856638Y-74326530D01*
X196836615Y-74283590D01*
X196707358Y-74098991D01*
X196707356Y-74098988D01*
X196548011Y-73939643D01*
X196363410Y-73810385D01*
X196363404Y-73810382D01*
X196281912Y-73772382D01*
X196229472Y-73726210D01*
X196210320Y-73659017D01*
X196230535Y-73592135D01*
X196281912Y-73547618D01*
X196293198Y-73542354D01*
X196363410Y-73509615D01*
X196548009Y-73380358D01*
X196707358Y-73221009D01*
X196736070Y-73180004D01*
X217331916Y-73180004D01*
X217352221Y-73450969D01*
X217400657Y-73663179D01*
X217412688Y-73715890D01*
X217412690Y-73715895D01*
X217511960Y-73968831D01*
X217511963Y-73968839D01*
X217587106Y-74098988D01*
X217647829Y-74204163D01*
X217751647Y-74334347D01*
X217817253Y-74416615D01*
X217973329Y-74561431D01*
X218016443Y-74601435D01*
X218240958Y-74754507D01*
X218485779Y-74872407D01*
X218745438Y-74952501D01*
X218745439Y-74952501D01*
X218745442Y-74952502D01*
X219014126Y-74992999D01*
X219014131Y-74992999D01*
X219014134Y-74993000D01*
X219014135Y-74993000D01*
X219285865Y-74993000D01*
X219285866Y-74993000D01*
X219285873Y-74992999D01*
X219554557Y-74952502D01*
X219554558Y-74952501D01*
X219554562Y-74952501D01*
X219814221Y-74872407D01*
X220059042Y-74754507D01*
X220283557Y-74601435D01*
X220481125Y-74418119D01*
X220482746Y-74416615D01*
X220482746Y-74416613D01*
X220482750Y-74416611D01*
X220652171Y-74204163D01*
X220788037Y-73968837D01*
X220887312Y-73715890D01*
X220947778Y-73450971D01*
X220968084Y-73180004D01*
X224241916Y-73180004D01*
X224262221Y-73450969D01*
X224310657Y-73663179D01*
X224322688Y-73715890D01*
X224322690Y-73715895D01*
X224421960Y-73968831D01*
X224421963Y-73968839D01*
X224497106Y-74098988D01*
X224557829Y-74204163D01*
X224661647Y-74334347D01*
X224727253Y-74416615D01*
X224883329Y-74561431D01*
X224926443Y-74601435D01*
X225150958Y-74754507D01*
X225395779Y-74872407D01*
X225655438Y-74952501D01*
X225655439Y-74952501D01*
X225655442Y-74952502D01*
X225924126Y-74992999D01*
X225924131Y-74992999D01*
X225924134Y-74993000D01*
X225924135Y-74993000D01*
X226195865Y-74993000D01*
X226195866Y-74993000D01*
X226195873Y-74992999D01*
X226464557Y-74952502D01*
X226464558Y-74952501D01*
X226464562Y-74952501D01*
X226724221Y-74872407D01*
X226969042Y-74754507D01*
X227193557Y-74601435D01*
X227391125Y-74418119D01*
X227392746Y-74416615D01*
X227392746Y-74416613D01*
X227392750Y-74416611D01*
X227562171Y-74204163D01*
X227698037Y-73968837D01*
X227797312Y-73715890D01*
X227857778Y-73450971D01*
X227878084Y-73180000D01*
X227872570Y-73106425D01*
X227857778Y-72909030D01*
X227857778Y-72909029D01*
X227797312Y-72644110D01*
X227698037Y-72391163D01*
X227698036Y-72391160D01*
X227634120Y-72280456D01*
X227562171Y-72155837D01*
X227392750Y-71943389D01*
X227392749Y-71943388D01*
X227392746Y-71943384D01*
X227193557Y-71758565D01*
X227068897Y-71673573D01*
X226969042Y-71605493D01*
X226969039Y-71605492D01*
X226969037Y-71605490D01*
X226724221Y-71487593D01*
X226464563Y-71407499D01*
X226464557Y-71407497D01*
X226195873Y-71367000D01*
X226195866Y-71367000D01*
X225924134Y-71367000D01*
X225924126Y-71367000D01*
X225655442Y-71407497D01*
X225655436Y-71407499D01*
X225395778Y-71487593D01*
X225150962Y-71605490D01*
X224926442Y-71758565D01*
X224727253Y-71943384D01*
X224557829Y-72155837D01*
X224421963Y-72391160D01*
X224421960Y-72391168D01*
X224322690Y-72644104D01*
X224322685Y-72644121D01*
X224262221Y-72909030D01*
X224241916Y-73179995D01*
X224241916Y-73180004D01*
X220968084Y-73180004D01*
X220968084Y-73180000D01*
X220962570Y-73106425D01*
X220947778Y-72909030D01*
X220947778Y-72909029D01*
X220887312Y-72644110D01*
X220788037Y-72391163D01*
X220788036Y-72391160D01*
X220724120Y-72280456D01*
X220652171Y-72155837D01*
X220482750Y-71943389D01*
X220482749Y-71943388D01*
X220482746Y-71943384D01*
X220283557Y-71758565D01*
X220158897Y-71673573D01*
X220059042Y-71605493D01*
X220059039Y-71605492D01*
X220059037Y-71605490D01*
X219814221Y-71487593D01*
X219554563Y-71407499D01*
X219554557Y-71407497D01*
X219285873Y-71367000D01*
X219285866Y-71367000D01*
X219014134Y-71367000D01*
X219014126Y-71367000D01*
X218745442Y-71407497D01*
X218745436Y-71407499D01*
X218485778Y-71487593D01*
X218240962Y-71605490D01*
X218016442Y-71758565D01*
X217817253Y-71943384D01*
X217647829Y-72155837D01*
X217511963Y-72391160D01*
X217511960Y-72391168D01*
X217412690Y-72644104D01*
X217412685Y-72644121D01*
X217352221Y-72909030D01*
X217331916Y-73179995D01*
X217331916Y-73180004D01*
X196736070Y-73180004D01*
X196836615Y-73036410D01*
X196931853Y-72832170D01*
X196990179Y-72614496D01*
X197009820Y-72390000D01*
X196990179Y-72165504D01*
X196931853Y-71947830D01*
X196899346Y-71878119D01*
X196843598Y-71758565D01*
X196836615Y-71743590D01*
X196707358Y-71558991D01*
X196707356Y-71558988D01*
X196548011Y-71399643D01*
X196363410Y-71270385D01*
X196363404Y-71270382D01*
X196159176Y-71175149D01*
X196159165Y-71175145D01*
X195941498Y-71116821D01*
X195941491Y-71116820D01*
X195717001Y-71097180D01*
X195716999Y-71097180D01*
X195492508Y-71116820D01*
X195492501Y-71116821D01*
X195274834Y-71175145D01*
X195274823Y-71175149D01*
X195070595Y-71270382D01*
X195070589Y-71270385D01*
X194885988Y-71399643D01*
X194726643Y-71558988D01*
X194597385Y-71743589D01*
X194597384Y-71743591D01*
X194559106Y-71825680D01*
X194512934Y-71878119D01*
X194445740Y-71897271D01*
X194378859Y-71877055D01*
X194334342Y-71825680D01*
X194296180Y-71743842D01*
X194296179Y-71743840D01*
X194246978Y-71673574D01*
X194246978Y-71673573D01*
X193688891Y-72231660D01*
X193684327Y-72209696D01*
X193616869Y-72079507D01*
X193516787Y-71972345D01*
X193391505Y-71896160D01*
X193333530Y-71879916D01*
X193893425Y-71320021D01*
X193893424Y-71320020D01*
X193823159Y-71270820D01*
X193823157Y-71270819D01*
X193619000Y-71175618D01*
X193618991Y-71175615D01*
X193401414Y-71117316D01*
X193401403Y-71117314D01*
X193177002Y-71097682D01*
X193176998Y-71097682D01*
X192952596Y-71117314D01*
X192952585Y-71117316D01*
X192735008Y-71175615D01*
X192734999Y-71175618D01*
X192530838Y-71270821D01*
X192460573Y-71320019D01*
X193018050Y-71877496D01*
X192897248Y-71929968D01*
X192783507Y-72022503D01*
X192698949Y-72142294D01*
X192666642Y-72233196D01*
X192107019Y-71673573D01*
X192057821Y-71743838D01*
X191962618Y-71947999D01*
X191962615Y-71948008D01*
X191904316Y-72165585D01*
X191904314Y-72165596D01*
X191884682Y-72389998D01*
X191884682Y-72390001D01*
X191904314Y-72614403D01*
X191904316Y-72614414D01*
X191962615Y-72831991D01*
X191962618Y-72832000D01*
X192057819Y-73036157D01*
X192057820Y-73036159D01*
X192107020Y-73106424D01*
X192107021Y-73106425D01*
X192665108Y-72548337D01*
X192669673Y-72570304D01*
X192737131Y-72700493D01*
X192837213Y-72807655D01*
X192962495Y-72883840D01*
X193020468Y-72900083D01*
X192460573Y-73459978D01*
X192530840Y-73509179D01*
X192530842Y-73509180D01*
X192613271Y-73547618D01*
X192665710Y-73593791D01*
X192684862Y-73660984D01*
X192664646Y-73727865D01*
X192613271Y-73772382D01*
X192530838Y-73810821D01*
X192460573Y-73860019D01*
X193018050Y-74417496D01*
X192897248Y-74469968D01*
X192783507Y-74562503D01*
X192698949Y-74682294D01*
X192666642Y-74773196D01*
X192107019Y-74213573D01*
X192057821Y-74283838D01*
X191962618Y-74487999D01*
X191962615Y-74488008D01*
X191904316Y-74705585D01*
X191904314Y-74705596D01*
X191884682Y-74929998D01*
X191884682Y-74930001D01*
X191904314Y-75154403D01*
X191904316Y-75154414D01*
X191962615Y-75371991D01*
X191962618Y-75372000D01*
X192057819Y-75576157D01*
X192057820Y-75576159D01*
X192107020Y-75646424D01*
X192107021Y-75646425D01*
X192665108Y-75088337D01*
X192669673Y-75110304D01*
X192737131Y-75240493D01*
X192837213Y-75347655D01*
X192962495Y-75423840D01*
X193020468Y-75440083D01*
X192460573Y-75999978D01*
X192530840Y-76049179D01*
X192530842Y-76049180D01*
X192613271Y-76087618D01*
X192665710Y-76133791D01*
X192684862Y-76200984D01*
X192664646Y-76267865D01*
X192613271Y-76312382D01*
X192530838Y-76350821D01*
X192460573Y-76400019D01*
X193018050Y-76957496D01*
X192897248Y-77009968D01*
X192783507Y-77102503D01*
X192698949Y-77222294D01*
X192666642Y-77313196D01*
X192107019Y-76753573D01*
X192057821Y-76823838D01*
X191962618Y-77027999D01*
X191962615Y-77028008D01*
X191904316Y-77245585D01*
X191904314Y-77245596D01*
X191884682Y-77469998D01*
X191884682Y-77470001D01*
X191904314Y-77694403D01*
X191904316Y-77694414D01*
X191962615Y-77911991D01*
X191962618Y-77912000D01*
X192057819Y-78116157D01*
X192057820Y-78116159D01*
X192107020Y-78186424D01*
X192107021Y-78186425D01*
X192665108Y-77628337D01*
X192669673Y-77650304D01*
X192737131Y-77780493D01*
X192837213Y-77887655D01*
X192962495Y-77963840D01*
X193020468Y-77980083D01*
X192460573Y-78539978D01*
X192530840Y-78589179D01*
X192530842Y-78589180D01*
X192613271Y-78627618D01*
X192665710Y-78673791D01*
X192684862Y-78740984D01*
X192664646Y-78807865D01*
X192613271Y-78852382D01*
X192530838Y-78890821D01*
X192460573Y-78940019D01*
X193018050Y-79497496D01*
X192897248Y-79549968D01*
X192783507Y-79642503D01*
X192698949Y-79762294D01*
X192666642Y-79853196D01*
X192107019Y-79293573D01*
X192057821Y-79363838D01*
X191962618Y-79567999D01*
X191962615Y-79568008D01*
X191904316Y-79785585D01*
X191904314Y-79785596D01*
X191884682Y-80009998D01*
X191884682Y-80010001D01*
X191904314Y-80234403D01*
X191904316Y-80234414D01*
X191962615Y-80451991D01*
X191962618Y-80452000D01*
X192057819Y-80656157D01*
X192057820Y-80656159D01*
X192107020Y-80726424D01*
X192107021Y-80726425D01*
X192665108Y-80168337D01*
X192669673Y-80190304D01*
X192737131Y-80320493D01*
X192837213Y-80427655D01*
X192962495Y-80503840D01*
X193020468Y-80520083D01*
X192460573Y-81079978D01*
X192530840Y-81129179D01*
X192530842Y-81129180D01*
X192613271Y-81167618D01*
X192665710Y-81213791D01*
X192684862Y-81280984D01*
X192664646Y-81347865D01*
X192613271Y-81392382D01*
X192530838Y-81430821D01*
X192460573Y-81480019D01*
X193018050Y-82037496D01*
X192897248Y-82089968D01*
X192783507Y-82182503D01*
X192698949Y-82302294D01*
X192666642Y-82393196D01*
X192107019Y-81833573D01*
X192057821Y-81903838D01*
X191962618Y-82107999D01*
X191962615Y-82108008D01*
X191904316Y-82325585D01*
X191904314Y-82325596D01*
X191884682Y-82549998D01*
X191884682Y-82550001D01*
X191904314Y-82774403D01*
X191904316Y-82774414D01*
X191962615Y-82991991D01*
X191962618Y-82992000D01*
X192057819Y-83196157D01*
X192057820Y-83196159D01*
X192107020Y-83266424D01*
X192107021Y-83266425D01*
X192665108Y-82708337D01*
X192669673Y-82730304D01*
X192737131Y-82860493D01*
X192837213Y-82967655D01*
X192962495Y-83043840D01*
X193020468Y-83060083D01*
X192460573Y-83619978D01*
X192530840Y-83669179D01*
X192530842Y-83669180D01*
X192613271Y-83707618D01*
X192665710Y-83753791D01*
X192684862Y-83820984D01*
X192664646Y-83887865D01*
X192613271Y-83932382D01*
X192530838Y-83970821D01*
X192460573Y-84020019D01*
X193018050Y-84577496D01*
X192897248Y-84629968D01*
X192783507Y-84722503D01*
X192698949Y-84842294D01*
X192666642Y-84933196D01*
X192107019Y-84373573D01*
X192057821Y-84443838D01*
X191962618Y-84647999D01*
X191962615Y-84648008D01*
X191904316Y-84865585D01*
X191904314Y-84865596D01*
X191884682Y-85089998D01*
X191884682Y-85090001D01*
X191904314Y-85314403D01*
X191904316Y-85314414D01*
X191962615Y-85531991D01*
X191962618Y-85532000D01*
X192057819Y-85736157D01*
X192057820Y-85736159D01*
X192107020Y-85806424D01*
X192107021Y-85806425D01*
X192665108Y-85248337D01*
X192669673Y-85270304D01*
X192737131Y-85400493D01*
X192837213Y-85507655D01*
X192962495Y-85583840D01*
X193020468Y-85600083D01*
X192460573Y-86159978D01*
X192530840Y-86209179D01*
X192530842Y-86209180D01*
X192613271Y-86247618D01*
X192665710Y-86293791D01*
X192684862Y-86360984D01*
X192664646Y-86427865D01*
X192613271Y-86472382D01*
X192530838Y-86510821D01*
X192460573Y-86560019D01*
X193018050Y-87117496D01*
X192897248Y-87169968D01*
X192783507Y-87262503D01*
X192698949Y-87382294D01*
X192666642Y-87473196D01*
X192107019Y-86913573D01*
X192057821Y-86983838D01*
X191962618Y-87187999D01*
X191962615Y-87188008D01*
X191904316Y-87405585D01*
X191904314Y-87405596D01*
X191884682Y-87629998D01*
X191884682Y-87630001D01*
X191904314Y-87854403D01*
X191904316Y-87854414D01*
X191962615Y-88071991D01*
X191962618Y-88072000D01*
X192057819Y-88276157D01*
X192057820Y-88276159D01*
X192107020Y-88346424D01*
X192107021Y-88346425D01*
X192665108Y-87788337D01*
X192669673Y-87810304D01*
X192737131Y-87940493D01*
X192837213Y-88047655D01*
X192962495Y-88123840D01*
X193020468Y-88140083D01*
X192460573Y-88699978D01*
X192530840Y-88749179D01*
X192530842Y-88749180D01*
X192613271Y-88787618D01*
X192665710Y-88833791D01*
X192684862Y-88900984D01*
X192664646Y-88967865D01*
X192613271Y-89012382D01*
X192530838Y-89050821D01*
X192460573Y-89100019D01*
X193018050Y-89657496D01*
X192897248Y-89709968D01*
X192783507Y-89802503D01*
X192698949Y-89922294D01*
X192666642Y-90013196D01*
X192107019Y-89453573D01*
X192057821Y-89523838D01*
X191962618Y-89727999D01*
X191962615Y-89728008D01*
X191904316Y-89945585D01*
X191904314Y-89945596D01*
X191884682Y-90169998D01*
X191884682Y-90170001D01*
X150286369Y-90170001D01*
X143026819Y-82910451D01*
X142993334Y-82849128D01*
X142990500Y-82822770D01*
X142990500Y-74866705D01*
X142991809Y-74848735D01*
X142995289Y-74824974D01*
X142990972Y-74775635D01*
X142990500Y-74764826D01*
X142990500Y-74759296D01*
X142990500Y-74759291D01*
X142986898Y-74728478D01*
X142986534Y-74724915D01*
X142984836Y-74705501D01*
X142979998Y-74650202D01*
X142979995Y-74650195D01*
X142978538Y-74643133D01*
X142978597Y-74643120D01*
X142976967Y-74635764D01*
X142976908Y-74635779D01*
X142975241Y-74628747D01*
X142975241Y-74628745D01*
X142949563Y-74558196D01*
X142948424Y-74554918D01*
X142924814Y-74483665D01*
X142924813Y-74483663D01*
X142921763Y-74477121D01*
X142921817Y-74477095D01*
X142918533Y-74470312D01*
X142918480Y-74470340D01*
X142915238Y-74463885D01*
X142915237Y-74463883D01*
X142874026Y-74401225D01*
X142872107Y-74398212D01*
X142832714Y-74334347D01*
X142828234Y-74328681D01*
X142828280Y-74328643D01*
X142823519Y-74322799D01*
X142823474Y-74322838D01*
X142818831Y-74317305D01*
X142764290Y-74265848D01*
X142761703Y-74263335D01*
X141142085Y-72643717D01*
X141108600Y-72582394D01*
X141106238Y-72545233D01*
X141119820Y-72390000D01*
X141100179Y-72165504D01*
X141041853Y-71947830D01*
X141009346Y-71878119D01*
X140953598Y-71758565D01*
X140946615Y-71743590D01*
X140817358Y-71558991D01*
X140817356Y-71558988D01*
X140658011Y-71399643D01*
X140473410Y-71270385D01*
X140473404Y-71270382D01*
X140269176Y-71175149D01*
X140269165Y-71175145D01*
X140051498Y-71116821D01*
X140051491Y-71116820D01*
X139827001Y-71097180D01*
X139826999Y-71097180D01*
X139602508Y-71116820D01*
X139602501Y-71116821D01*
X139384834Y-71175145D01*
X139384823Y-71175149D01*
X139180595Y-71270382D01*
X139180589Y-71270385D01*
X138995988Y-71399643D01*
X138836643Y-71558988D01*
X138707385Y-71743589D01*
X138707382Y-71743595D01*
X138612149Y-71947823D01*
X138612145Y-71947834D01*
X138553821Y-72165501D01*
X138553820Y-72165508D01*
X138534180Y-72389999D01*
X138534180Y-72390000D01*
X138553820Y-72614491D01*
X138553821Y-72614498D01*
X138612145Y-72832165D01*
X138612149Y-72832176D01*
X138707382Y-73036404D01*
X138707385Y-73036410D01*
X138836643Y-73221011D01*
X138995988Y-73380356D01*
X139179972Y-73509182D01*
X139180590Y-73509615D01*
X139262682Y-73547895D01*
X139315118Y-73594064D01*
X139334271Y-73661258D01*
X139314056Y-73728139D01*
X139262681Y-73772657D01*
X139180836Y-73810822D01*
X139110573Y-73860019D01*
X139110573Y-73860020D01*
X139668049Y-74417496D01*
X139547248Y-74469968D01*
X139433507Y-74562503D01*
X139348949Y-74682294D01*
X139316642Y-74773196D01*
X138757019Y-74213573D01*
X138707821Y-74283838D01*
X138612618Y-74487999D01*
X138612615Y-74488008D01*
X138554316Y-74705585D01*
X138554314Y-74705596D01*
X138534682Y-74929998D01*
X138534682Y-74930001D01*
X138554314Y-75154403D01*
X138554316Y-75154414D01*
X138612615Y-75371991D01*
X138612618Y-75372000D01*
X138707819Y-75576157D01*
X138707820Y-75576159D01*
X138757020Y-75646424D01*
X138757021Y-75646425D01*
X139315108Y-75088337D01*
X139319673Y-75110304D01*
X139387131Y-75240493D01*
X139487213Y-75347655D01*
X139612495Y-75423840D01*
X139670468Y-75440083D01*
X139110573Y-75999978D01*
X139180840Y-76049179D01*
X139180842Y-76049180D01*
X139262680Y-76087342D01*
X139315119Y-76133514D01*
X139334271Y-76200708D01*
X139314055Y-76267589D01*
X139262680Y-76312106D01*
X139180591Y-76350384D01*
X139180589Y-76350385D01*
X138995988Y-76479643D01*
X138836643Y-76638988D01*
X138707385Y-76823589D01*
X138707382Y-76823595D01*
X138612149Y-77027823D01*
X138612145Y-77027834D01*
X138553821Y-77245501D01*
X138553820Y-77245508D01*
X138534180Y-77469999D01*
X138534180Y-77470000D01*
X138553820Y-77694491D01*
X138553821Y-77694498D01*
X138612145Y-77912165D01*
X138612149Y-77912176D01*
X138707382Y-78116404D01*
X138707385Y-78116410D01*
X138836643Y-78301011D01*
X138995988Y-78460356D01*
X138995991Y-78460358D01*
X139180590Y-78589615D01*
X139233069Y-78614086D01*
X139262088Y-78627618D01*
X139314527Y-78673790D01*
X139333679Y-78740984D01*
X139313463Y-78807865D01*
X139262088Y-78852382D01*
X139180591Y-78890384D01*
X139180589Y-78890385D01*
X138995988Y-79019643D01*
X138836643Y-79178988D01*
X138707385Y-79363589D01*
X138707382Y-79363595D01*
X138612149Y-79567823D01*
X138612145Y-79567834D01*
X138553821Y-79785501D01*
X138553820Y-79785508D01*
X138534180Y-80009999D01*
X138534180Y-80010000D01*
X138553820Y-80234491D01*
X138553821Y-80234498D01*
X138612145Y-80452165D01*
X138612149Y-80452176D01*
X138707382Y-80656404D01*
X138707385Y-80656410D01*
X138836643Y-80841011D01*
X138995988Y-81000356D01*
X138995991Y-81000358D01*
X139180590Y-81129615D01*
X139244507Y-81159419D01*
X139262088Y-81167618D01*
X139314527Y-81213790D01*
X139333679Y-81280984D01*
X139313463Y-81347865D01*
X139262088Y-81392382D01*
X139180591Y-81430384D01*
X139180589Y-81430385D01*
X138995988Y-81559643D01*
X138836643Y-81718988D01*
X138707385Y-81903589D01*
X138707382Y-81903595D01*
X138612149Y-82107823D01*
X138612145Y-82107834D01*
X138553821Y-82325501D01*
X138553820Y-82325508D01*
X138534180Y-82549999D01*
X138534180Y-82550000D01*
X138553820Y-82774491D01*
X138553821Y-82774498D01*
X138612145Y-82992165D01*
X138612149Y-82992176D01*
X138707382Y-83196404D01*
X138707385Y-83196410D01*
X138836643Y-83381011D01*
X138995988Y-83540356D01*
X138995991Y-83540358D01*
X139180590Y-83669615D01*
X139244507Y-83699419D01*
X139262088Y-83707618D01*
X139314527Y-83753790D01*
X139333679Y-83820984D01*
X139313463Y-83887865D01*
X139262088Y-83932382D01*
X139180591Y-83970384D01*
X139180589Y-83970385D01*
X138995988Y-84099643D01*
X138836643Y-84258988D01*
X138707385Y-84443589D01*
X138707382Y-84443595D01*
X138612149Y-84647823D01*
X138612145Y-84647834D01*
X138553821Y-84865501D01*
X138553820Y-84865508D01*
X138534180Y-85089999D01*
X138534180Y-85090000D01*
X138553820Y-85314491D01*
X138553821Y-85314498D01*
X138612145Y-85532165D01*
X138612149Y-85532176D01*
X138707382Y-85736404D01*
X138707385Y-85736410D01*
X138836643Y-85921011D01*
X138995988Y-86080356D01*
X139008376Y-86089030D01*
X139180590Y-86209615D01*
X139244507Y-86239419D01*
X139262088Y-86247618D01*
X139314527Y-86293790D01*
X139333679Y-86360984D01*
X139313463Y-86427865D01*
X139262088Y-86472382D01*
X139180591Y-86510384D01*
X139180589Y-86510385D01*
X138995988Y-86639643D01*
X138836643Y-86798988D01*
X138707385Y-86983589D01*
X138707382Y-86983595D01*
X138612149Y-87187823D01*
X138612145Y-87187834D01*
X138553821Y-87405501D01*
X138553820Y-87405508D01*
X138534180Y-87629999D01*
X138534180Y-87630000D01*
X138553820Y-87854491D01*
X138553821Y-87854498D01*
X138612145Y-88072165D01*
X138612149Y-88072176D01*
X138707382Y-88276404D01*
X138707385Y-88276410D01*
X138836643Y-88461011D01*
X138995988Y-88620356D01*
X138995991Y-88620358D01*
X139180590Y-88749615D01*
X139244507Y-88779419D01*
X139262088Y-88787618D01*
X139314527Y-88833790D01*
X139333679Y-88900984D01*
X139313463Y-88967865D01*
X139262088Y-89012382D01*
X139180591Y-89050384D01*
X139180589Y-89050385D01*
X138995988Y-89179643D01*
X138836643Y-89338988D01*
X138707385Y-89523589D01*
X138707382Y-89523595D01*
X138612149Y-89727823D01*
X138612145Y-89727834D01*
X138553821Y-89945501D01*
X138553820Y-89945508D01*
X138534180Y-90169999D01*
X138534180Y-90170000D01*
X135120500Y-90170000D01*
X135120500Y-70866006D01*
X206872994Y-70866006D01*
X206892183Y-71097583D01*
X206949229Y-71322855D01*
X207042575Y-71535663D01*
X207088196Y-71605490D01*
X207169675Y-71730202D01*
X207327061Y-71901169D01*
X207327064Y-71901171D01*
X207327067Y-71901174D01*
X207510432Y-72043893D01*
X207510438Y-72043897D01*
X207510441Y-72043899D01*
X207714812Y-72154500D01*
X207934600Y-72229953D01*
X208163810Y-72268201D01*
X208396190Y-72268201D01*
X208625400Y-72229953D01*
X208845188Y-72154500D01*
X209049559Y-72043899D01*
X209232939Y-71901169D01*
X209390325Y-71730202D01*
X209517425Y-71535662D01*
X209610771Y-71322855D01*
X209667816Y-71097587D01*
X209687006Y-70866001D01*
X209667816Y-70634415D01*
X209610771Y-70409147D01*
X209517425Y-70196340D01*
X209390325Y-70001800D01*
X209232939Y-69830833D01*
X209232934Y-69830829D01*
X209232932Y-69830827D01*
X209049567Y-69688108D01*
X209049561Y-69688104D01*
X208845188Y-69577502D01*
X208845180Y-69577499D01*
X208625402Y-69502049D01*
X208396190Y-69463801D01*
X208163810Y-69463801D01*
X207934597Y-69502049D01*
X207714819Y-69577499D01*
X207714811Y-69577502D01*
X207510438Y-69688104D01*
X207510432Y-69688108D01*
X207327067Y-69830827D01*
X207327064Y-69830830D01*
X207169676Y-70001798D01*
X207169673Y-70001802D01*
X207042575Y-70196338D01*
X206949229Y-70409146D01*
X206892183Y-70634418D01*
X206872994Y-70865995D01*
X206872994Y-70866006D01*
X135120500Y-70866006D01*
X135120500Y-67310005D01*
X137416744Y-67310005D01*
X137435748Y-67612074D01*
X137435749Y-67612081D01*
X137492468Y-67909410D01*
X137551525Y-68091168D01*
X137586001Y-68197274D01*
X137714877Y-68471150D01*
X137714879Y-68471153D01*
X137714880Y-68471155D01*
X137877058Y-68726708D01*
X137877061Y-68726712D01*
X137877062Y-68726713D01*
X138069999Y-68959934D01*
X138236063Y-69115878D01*
X138290643Y-69167132D01*
X138290653Y-69167140D01*
X138535508Y-69345038D01*
X138535513Y-69345040D01*
X138535520Y-69345046D01*
X138800763Y-69490865D01*
X138800768Y-69490867D01*
X138800770Y-69490868D01*
X138800771Y-69490869D01*
X139082186Y-69602289D01*
X139082189Y-69602290D01*
X139375359Y-69677563D01*
X139375363Y-69677564D01*
X139438360Y-69685522D01*
X139675647Y-69715499D01*
X139675656Y-69715499D01*
X139675659Y-69715500D01*
X139675661Y-69715500D01*
X139978339Y-69715500D01*
X139978341Y-69715500D01*
X139978344Y-69715499D01*
X139978352Y-69715499D01*
X140195172Y-69688108D01*
X140278637Y-69677564D01*
X140571810Y-69602290D01*
X140571813Y-69602289D01*
X140853228Y-69490869D01*
X140853229Y-69490868D01*
X140853227Y-69490868D01*
X140853237Y-69490865D01*
X141118480Y-69345046D01*
X141363355Y-69167134D01*
X141584001Y-68959934D01*
X141776938Y-68726713D01*
X141939123Y-68471150D01*
X142067999Y-68197274D01*
X142161533Y-67909406D01*
X142218250Y-67612085D01*
X142221789Y-67555837D01*
X142237256Y-67310005D01*
X193296744Y-67310005D01*
X193315748Y-67612074D01*
X193315749Y-67612081D01*
X193372468Y-67909410D01*
X193431525Y-68091168D01*
X193466001Y-68197274D01*
X193594877Y-68471150D01*
X193594879Y-68471153D01*
X193594880Y-68471155D01*
X193757058Y-68726708D01*
X193757061Y-68726712D01*
X193757062Y-68726713D01*
X193949999Y-68959934D01*
X194116063Y-69115878D01*
X194170643Y-69167132D01*
X194170653Y-69167140D01*
X194415508Y-69345038D01*
X194415513Y-69345040D01*
X194415520Y-69345046D01*
X194680763Y-69490865D01*
X194680768Y-69490867D01*
X194680770Y-69490868D01*
X194680771Y-69490869D01*
X194962186Y-69602289D01*
X194962189Y-69602290D01*
X195255359Y-69677563D01*
X195255363Y-69677564D01*
X195318360Y-69685522D01*
X195555647Y-69715499D01*
X195555656Y-69715499D01*
X195555659Y-69715500D01*
X195555661Y-69715500D01*
X195858339Y-69715500D01*
X195858341Y-69715500D01*
X195858344Y-69715499D01*
X195858352Y-69715499D01*
X196075172Y-69688108D01*
X196158637Y-69677564D01*
X196451810Y-69602290D01*
X196451813Y-69602289D01*
X196733228Y-69490869D01*
X196733229Y-69490868D01*
X196733227Y-69490868D01*
X196733237Y-69490865D01*
X196998480Y-69345046D01*
X197243355Y-69167134D01*
X197464001Y-68959934D01*
X197656938Y-68726713D01*
X197750042Y-68580004D01*
X217331916Y-68580004D01*
X217352221Y-68850969D01*
X217377092Y-68959934D01*
X217412688Y-69115890D01*
X217412690Y-69115895D01*
X217511960Y-69368831D01*
X217511963Y-69368839D01*
X217582416Y-69490865D01*
X217647829Y-69604163D01*
X217714773Y-69688108D01*
X217817253Y-69816615D01*
X218005290Y-69991087D01*
X218016443Y-70001435D01*
X218240958Y-70154507D01*
X218485779Y-70272407D01*
X218745438Y-70352501D01*
X218745439Y-70352501D01*
X218745442Y-70352502D01*
X219014126Y-70392999D01*
X219014131Y-70392999D01*
X219014134Y-70393000D01*
X219014135Y-70393000D01*
X219285865Y-70393000D01*
X219285866Y-70393000D01*
X219285873Y-70392999D01*
X219554557Y-70352502D01*
X219554558Y-70352501D01*
X219554562Y-70352501D01*
X219814221Y-70272407D01*
X220059042Y-70154507D01*
X220283557Y-70001435D01*
X220349369Y-69940370D01*
X224247000Y-69940370D01*
X224247001Y-69940376D01*
X224253408Y-69999983D01*
X224303702Y-70134828D01*
X224303706Y-70134835D01*
X224389952Y-70250044D01*
X224389955Y-70250047D01*
X224505164Y-70336293D01*
X224505171Y-70336297D01*
X224640017Y-70386591D01*
X224640016Y-70386591D01*
X224646944Y-70387335D01*
X224699627Y-70393000D01*
X227420372Y-70392999D01*
X227479983Y-70386591D01*
X227614831Y-70336296D01*
X227730046Y-70250046D01*
X227816296Y-70134831D01*
X227866591Y-69999983D01*
X227873000Y-69940373D01*
X227872999Y-67219628D01*
X227866591Y-67160017D01*
X227866049Y-67158565D01*
X227816297Y-67025171D01*
X227816293Y-67025164D01*
X227730047Y-66909955D01*
X227730044Y-66909952D01*
X227614835Y-66823706D01*
X227614828Y-66823702D01*
X227479982Y-66773408D01*
X227479983Y-66773408D01*
X227420383Y-66767001D01*
X227420381Y-66767000D01*
X227420373Y-66767000D01*
X227420364Y-66767000D01*
X224699629Y-66767000D01*
X224699623Y-66767001D01*
X224640016Y-66773408D01*
X224505171Y-66823702D01*
X224505164Y-66823706D01*
X224389955Y-66909952D01*
X224389952Y-66909955D01*
X224303706Y-67025164D01*
X224303702Y-67025171D01*
X224253408Y-67160017D01*
X224247001Y-67219616D01*
X224247001Y-67219623D01*
X224247000Y-67219635D01*
X224247000Y-69940370D01*
X220349369Y-69940370D01*
X220438141Y-69858001D01*
X220482746Y-69816615D01*
X220482746Y-69816613D01*
X220482750Y-69816611D01*
X220652171Y-69604163D01*
X220788037Y-69368837D01*
X220887312Y-69115890D01*
X220947778Y-68850971D01*
X220968084Y-68580000D01*
X220959927Y-68471155D01*
X220947778Y-68309030D01*
X220930628Y-68233892D01*
X220887312Y-68044110D01*
X220788037Y-67791163D01*
X220788036Y-67791160D01*
X220730612Y-67691700D01*
X220652171Y-67555837D01*
X220482750Y-67343389D01*
X220482749Y-67343388D01*
X220482746Y-67343384D01*
X220283557Y-67158565D01*
X220087901Y-67025169D01*
X220059042Y-67005493D01*
X220059039Y-67005492D01*
X220059037Y-67005490D01*
X219814221Y-66887593D01*
X219554563Y-66807499D01*
X219554557Y-66807497D01*
X219285873Y-66767000D01*
X219285866Y-66767000D01*
X219014134Y-66767000D01*
X219014126Y-66767000D01*
X218745442Y-66807497D01*
X218745436Y-66807499D01*
X218485778Y-66887593D01*
X218240962Y-67005490D01*
X218016442Y-67158565D01*
X217817253Y-67343384D01*
X217647829Y-67555837D01*
X217511963Y-67791160D01*
X217511960Y-67791168D01*
X217412690Y-68044104D01*
X217412685Y-68044121D01*
X217352221Y-68309030D01*
X217331916Y-68579995D01*
X217331916Y-68580004D01*
X197750042Y-68580004D01*
X197819123Y-68471150D01*
X197947999Y-68197274D01*
X198041533Y-67909406D01*
X198098250Y-67612085D01*
X198101789Y-67555837D01*
X198117256Y-67310005D01*
X198117256Y-67309994D01*
X198101276Y-67056005D01*
X206872994Y-67056005D01*
X206892183Y-67287582D01*
X206949229Y-67512854D01*
X207042575Y-67725662D01*
X207085373Y-67791168D01*
X207169675Y-67920201D01*
X207327061Y-68091168D01*
X207327064Y-68091170D01*
X207327067Y-68091173D01*
X207510432Y-68233892D01*
X207510438Y-68233896D01*
X207510441Y-68233898D01*
X207714812Y-68344499D01*
X207934600Y-68419952D01*
X208163810Y-68458200D01*
X208396190Y-68458200D01*
X208625400Y-68419952D01*
X208845188Y-68344499D01*
X209049559Y-68233898D01*
X209096618Y-68197271D01*
X209111138Y-68185969D01*
X209232939Y-68091168D01*
X209390325Y-67920201D01*
X209517425Y-67725661D01*
X209610771Y-67512854D01*
X209667816Y-67287586D01*
X209687006Y-67056000D01*
X209684451Y-67025171D01*
X209667816Y-66824417D01*
X209667816Y-66824414D01*
X209610771Y-66599146D01*
X209517425Y-66386339D01*
X209390325Y-66191799D01*
X209232939Y-66020832D01*
X209232934Y-66020828D01*
X209232932Y-66020826D01*
X209049567Y-65878107D01*
X209049561Y-65878103D01*
X208845188Y-65767501D01*
X208845180Y-65767498D01*
X208625402Y-65692048D01*
X208396190Y-65653800D01*
X208163810Y-65653800D01*
X207934597Y-65692048D01*
X207714819Y-65767498D01*
X207714811Y-65767501D01*
X207510438Y-65878103D01*
X207510432Y-65878107D01*
X207327067Y-66020826D01*
X207327064Y-66020829D01*
X207169676Y-66191797D01*
X207169673Y-66191801D01*
X207042575Y-66386337D01*
X206949229Y-66599145D01*
X206892183Y-66824417D01*
X206872994Y-67055994D01*
X206872994Y-67056005D01*
X198101276Y-67056005D01*
X198098251Y-67007925D01*
X198098250Y-67007918D01*
X198098250Y-67007915D01*
X198041533Y-66710594D01*
X197947999Y-66422726D01*
X197819123Y-66148850D01*
X197771421Y-66073685D01*
X197656941Y-65893291D01*
X197644380Y-65878107D01*
X197464001Y-65660066D01*
X197243355Y-65452866D01*
X197243352Y-65452864D01*
X197243346Y-65452859D01*
X196998491Y-65274961D01*
X196998484Y-65274956D01*
X196998480Y-65274954D01*
X196733237Y-65129135D01*
X196733234Y-65129133D01*
X196733229Y-65129131D01*
X196733228Y-65129130D01*
X196451813Y-65017710D01*
X196451810Y-65017709D01*
X196158640Y-64942436D01*
X196158627Y-64942434D01*
X195858352Y-64904500D01*
X195858341Y-64904500D01*
X195555659Y-64904500D01*
X195555647Y-64904500D01*
X195255372Y-64942434D01*
X195255359Y-64942436D01*
X194962189Y-65017709D01*
X194962186Y-65017710D01*
X194680771Y-65129130D01*
X194680770Y-65129131D01*
X194415520Y-65274954D01*
X194415508Y-65274961D01*
X194170653Y-65452859D01*
X194170643Y-65452867D01*
X193950001Y-65660064D01*
X193757058Y-65893291D01*
X193594880Y-66148844D01*
X193466000Y-66422728D01*
X193372468Y-66710589D01*
X193315749Y-67007918D01*
X193315748Y-67007925D01*
X193296744Y-67309994D01*
X193296744Y-67310005D01*
X142237256Y-67310005D01*
X142237256Y-67309994D01*
X142218251Y-67007925D01*
X142218250Y-67007918D01*
X142218250Y-67007915D01*
X142161533Y-66710594D01*
X142067999Y-66422726D01*
X141939123Y-66148850D01*
X141891421Y-66073685D01*
X141776941Y-65893291D01*
X141764380Y-65878107D01*
X141584001Y-65660066D01*
X141363355Y-65452866D01*
X141363352Y-65452864D01*
X141363346Y-65452859D01*
X141118491Y-65274961D01*
X141118484Y-65274956D01*
X141118480Y-65274954D01*
X140853237Y-65129135D01*
X140853234Y-65129133D01*
X140853229Y-65129131D01*
X140853228Y-65129130D01*
X140571813Y-65017710D01*
X140571810Y-65017709D01*
X140278640Y-64942436D01*
X140278627Y-64942434D01*
X139978352Y-64904500D01*
X139978341Y-64904500D01*
X139675659Y-64904500D01*
X139675647Y-64904500D01*
X139375372Y-64942434D01*
X139375359Y-64942436D01*
X139082189Y-65017709D01*
X139082186Y-65017710D01*
X138800771Y-65129130D01*
X138800770Y-65129131D01*
X138535520Y-65274954D01*
X138535508Y-65274961D01*
X138290653Y-65452859D01*
X138290643Y-65452867D01*
X138070001Y-65660064D01*
X137877058Y-65893291D01*
X137714880Y-66148844D01*
X137586000Y-66422728D01*
X137492468Y-66710589D01*
X137435749Y-67007918D01*
X137435748Y-67007925D01*
X137416744Y-67309994D01*
X137416744Y-67310005D01*
X135120500Y-67310005D01*
X135120500Y-64124500D01*
X135140185Y-64057461D01*
X135192989Y-64011706D01*
X135244500Y-64000500D01*
X230515500Y-64000500D01*
X230582539Y-64020185D01*
G37*
%TD.AperFunction*%
%TD*%
M02*
