%TF.GenerationSoftware,KiCad,Pcbnew,7.0.11+dfsg-1build4*%
%TF.CreationDate,2024-09-23T14:49:35-04:00*%
%TF.ProjectId,Geophone+Accel+CalibSwitch,47656f70-686f-46e6-952b-416363656c2b,rev?*%
%TF.SameCoordinates,Original*%
%TF.FileFunction,Soldermask,Top*%
%TF.FilePolarity,Negative*%
%FSLAX46Y46*%
G04 Gerber Fmt 4.6, Leading zero omitted, Abs format (unit mm)*
G04 Created by KiCad (PCBNEW 7.0.11+dfsg-1build4) date 2024-09-23 14:49:35*
%MOMM*%
%LPD*%
G01*
G04 APERTURE LIST*
G04 Aperture macros list*
%AMRoundRect*
0 Rectangle with rounded corners*
0 $1 Rounding radius*
0 $2 $3 $4 $5 $6 $7 $8 $9 X,Y pos of 4 corners*
0 Add a 4 corners polygon primitive as box body*
4,1,4,$2,$3,$4,$5,$6,$7,$8,$9,$2,$3,0*
0 Add four circle primitives for the rounded corners*
1,1,$1+$1,$2,$3*
1,1,$1+$1,$4,$5*
1,1,$1+$1,$6,$7*
1,1,$1+$1,$8,$9*
0 Add four rect primitives between the rounded corners*
20,1,$1+$1,$2,$3,$4,$5,0*
20,1,$1+$1,$4,$5,$6,$7,0*
20,1,$1+$1,$6,$7,$8,$9,0*
20,1,$1+$1,$8,$9,$2,$3,0*%
G04 Aperture macros list end*
%ADD10RoundRect,0.102000X-1.312500X1.312500X-1.312500X-1.312500X1.312500X-1.312500X1.312500X1.312500X0*%
%ADD11C,2.829000*%
%ADD12C,1.803400*%
%ADD13C,1.600000*%
%ADD14O,1.600000X1.600000*%
%ADD15C,3.200000*%
%ADD16C,2.200000*%
%ADD17C,1.524000*%
%ADD18R,1.574800X1.574800*%
%ADD19C,1.574800*%
%ADD20C,3.810000*%
G04 APERTURE END LIST*
D10*
%TO.C,S2*%
X226379900Y-86360000D03*
D11*
X226379900Y-90960000D03*
X226379900Y-95560000D03*
X219469900Y-86360000D03*
X219469900Y-90960000D03*
X219469900Y-95560000D03*
%TD*%
D12*
%TO.C,G3*%
X208280000Y-100584000D03*
X208280000Y-96773999D03*
%TD*%
%TO.C,G2*%
X208280000Y-85852000D03*
X208280000Y-82041999D03*
%TD*%
%TO.C,G1*%
X208280000Y-70866001D03*
X208280000Y-67056000D03*
%TD*%
D13*
%TO.C,R3*%
X214630000Y-105664000D03*
D14*
X201930000Y-105664000D03*
%TD*%
D15*
%TO.C,MCU1*%
X140970000Y-125024000D03*
X140970000Y-142804000D03*
D16*
X186691000Y-124389000D03*
X186691000Y-143503000D03*
D17*
X144767000Y-144150000D03*
X147307000Y-144150000D03*
X149847000Y-144150000D03*
X152387000Y-144150000D03*
X154927000Y-144150000D03*
X157467000Y-144150000D03*
X160007000Y-144150000D03*
X162547000Y-144150000D03*
X165087000Y-144150000D03*
X167627000Y-144150000D03*
X170167000Y-144150000D03*
X172707000Y-144150000D03*
X175247000Y-144150000D03*
X177787000Y-144150000D03*
X180327000Y-144150000D03*
X182867000Y-144150000D03*
D18*
X182890000Y-123825000D03*
D19*
X180350000Y-123825000D03*
X177810000Y-123825000D03*
X175270000Y-123825000D03*
X172730000Y-123825000D03*
X170190000Y-123825000D03*
X167650000Y-123825000D03*
X165110000Y-123825000D03*
X162570000Y-123825000D03*
X160030000Y-123825000D03*
X157490000Y-123825000D03*
X154950000Y-123825000D03*
%TD*%
D13*
%TO.C,R2*%
X214630000Y-90932000D03*
D14*
X201930000Y-90932000D03*
%TD*%
D10*
%TO.C,S3*%
X226379900Y-104140000D03*
D11*
X226379900Y-108740000D03*
X226379900Y-113340000D03*
X219469900Y-104140000D03*
X219469900Y-108740000D03*
X219469900Y-113340000D03*
%TD*%
D13*
%TO.C,R1*%
X214884000Y-75692000D03*
D14*
X202184000Y-75692000D03*
%TD*%
D10*
%TO.C,S1*%
X226060000Y-68580000D03*
D11*
X226060000Y-73180000D03*
X226060000Y-77780000D03*
X219150000Y-68580000D03*
X219150000Y-73180000D03*
X219150000Y-77780000D03*
%TD*%
D20*
%TO.C,AD1*%
X195707000Y-67310000D03*
X139827000Y-67310000D03*
X195707000Y-95250000D03*
X139827000Y-95250000D03*
D19*
X139827000Y-72390000D03*
X139827000Y-74930000D03*
X139827000Y-77470000D03*
X139827000Y-80010000D03*
X139827000Y-82550000D03*
X139827000Y-85090000D03*
X139827000Y-87630000D03*
X139827000Y-90170000D03*
X195717000Y-72390000D03*
X195717000Y-74930000D03*
X195717000Y-77470000D03*
X195717000Y-80010000D03*
X195717000Y-82550000D03*
X195717000Y-85090000D03*
X195717000Y-87630000D03*
X195717000Y-90170000D03*
X193177000Y-90170000D03*
X193177000Y-87630000D03*
X193177000Y-85090000D03*
X193177000Y-82550000D03*
X193177000Y-80010000D03*
X193177000Y-77470000D03*
X193177000Y-74930000D03*
X193177000Y-72390000D03*
%TD*%
D12*
%TO.C,V1*%
X225044000Y-125730001D03*
X225044000Y-121920000D03*
%TD*%
D20*
%TO.C,A1*%
X142240000Y-118110000D03*
X142240000Y-102870000D03*
D19*
X154940000Y-119380000D03*
X154940000Y-116840000D03*
X154940000Y-114300000D03*
X154940000Y-111760000D03*
X154940000Y-109220000D03*
X154940000Y-106680000D03*
X154940000Y-104140000D03*
X154940000Y-101600000D03*
%TD*%
M02*
