%TF.GenerationSoftware,KiCad,Pcbnew,7.0.11+dfsg-1build4*%
%TF.CreationDate,2024-09-23T14:49:35-04:00*%
%TF.ProjectId,Geophone+Accel+CalibSwitch,47656f70-686f-46e6-952b-416363656c2b,rev?*%
%TF.SameCoordinates,Original*%
%TF.FileFunction,Legend,Top*%
%TF.FilePolarity,Positive*%
%FSLAX46Y46*%
G04 Gerber Fmt 4.6, Leading zero omitted, Abs format (unit mm)*
G04 Created by KiCad (PCBNEW 7.0.11+dfsg-1build4) date 2024-09-23 14:49:35*
%MOMM*%
%LPD*%
G01*
G04 APERTURE LIST*
%ADD10C,0.300000*%
%ADD11C,0.200000*%
%ADD12C,0.600000*%
%ADD13C,0.150000*%
%ADD14C,0.127000*%
%ADD15C,0.152400*%
%ADD16C,0.508000*%
%ADD17C,0.120000*%
G04 APERTURE END LIST*
D10*
X146279082Y-135008257D02*
X146993368Y-135008257D01*
X146136225Y-135436828D02*
X146636225Y-133936828D01*
X146636225Y-133936828D02*
X147136225Y-135436828D01*
X148279082Y-135436828D02*
X148279082Y-133936828D01*
X148279082Y-135365400D02*
X148136224Y-135436828D01*
X148136224Y-135436828D02*
X147850510Y-135436828D01*
X147850510Y-135436828D02*
X147707653Y-135365400D01*
X147707653Y-135365400D02*
X147636224Y-135293971D01*
X147636224Y-135293971D02*
X147564796Y-135151114D01*
X147564796Y-135151114D02*
X147564796Y-134722542D01*
X147564796Y-134722542D02*
X147636224Y-134579685D01*
X147636224Y-134579685D02*
X147707653Y-134508257D01*
X147707653Y-134508257D02*
X147850510Y-134436828D01*
X147850510Y-134436828D02*
X148136224Y-134436828D01*
X148136224Y-134436828D02*
X148279082Y-134508257D01*
X149636225Y-135436828D02*
X149636225Y-134651114D01*
X149636225Y-134651114D02*
X149564796Y-134508257D01*
X149564796Y-134508257D02*
X149421939Y-134436828D01*
X149421939Y-134436828D02*
X149136225Y-134436828D01*
X149136225Y-134436828D02*
X148993367Y-134508257D01*
X149636225Y-135365400D02*
X149493367Y-135436828D01*
X149493367Y-135436828D02*
X149136225Y-135436828D01*
X149136225Y-135436828D02*
X148993367Y-135365400D01*
X148993367Y-135365400D02*
X148921939Y-135222542D01*
X148921939Y-135222542D02*
X148921939Y-135079685D01*
X148921939Y-135079685D02*
X148993367Y-134936828D01*
X148993367Y-134936828D02*
X149136225Y-134865400D01*
X149136225Y-134865400D02*
X149493367Y-134865400D01*
X149493367Y-134865400D02*
X149636225Y-134793971D01*
X150136225Y-134436828D02*
X150707653Y-134436828D01*
X150350510Y-135436828D02*
X150350510Y-134151114D01*
X150350510Y-134151114D02*
X150421939Y-134008257D01*
X150421939Y-134008257D02*
X150564796Y-133936828D01*
X150564796Y-133936828D02*
X150707653Y-133936828D01*
X151207653Y-135436828D02*
X151207653Y-134436828D01*
X151207653Y-134722542D02*
X151279082Y-134579685D01*
X151279082Y-134579685D02*
X151350511Y-134508257D01*
X151350511Y-134508257D02*
X151493368Y-134436828D01*
X151493368Y-134436828D02*
X151636225Y-134436828D01*
X152779082Y-134436828D02*
X152779082Y-135436828D01*
X152136224Y-134436828D02*
X152136224Y-135222542D01*
X152136224Y-135222542D02*
X152207653Y-135365400D01*
X152207653Y-135365400D02*
X152350510Y-135436828D01*
X152350510Y-135436828D02*
X152564796Y-135436828D01*
X152564796Y-135436828D02*
X152707653Y-135365400D01*
X152707653Y-135365400D02*
X152779082Y-135293971D01*
X153493367Y-135436828D02*
X153493367Y-134436828D01*
X153493367Y-133936828D02*
X153421939Y-134008257D01*
X153421939Y-134008257D02*
X153493367Y-134079685D01*
X153493367Y-134079685D02*
X153564796Y-134008257D01*
X153564796Y-134008257D02*
X153493367Y-133936828D01*
X153493367Y-133936828D02*
X153493367Y-134079685D01*
X153993368Y-134436828D02*
X154564796Y-134436828D01*
X154207653Y-133936828D02*
X154207653Y-135222542D01*
X154207653Y-135222542D02*
X154279082Y-135365400D01*
X154279082Y-135365400D02*
X154421939Y-135436828D01*
X154421939Y-135436828D02*
X154564796Y-135436828D01*
X156707653Y-134651114D02*
X156207653Y-134651114D01*
X156207653Y-135436828D02*
X156207653Y-133936828D01*
X156207653Y-133936828D02*
X156921939Y-133936828D01*
X158064796Y-135365400D02*
X157921939Y-135436828D01*
X157921939Y-135436828D02*
X157636225Y-135436828D01*
X157636225Y-135436828D02*
X157493367Y-135365400D01*
X157493367Y-135365400D02*
X157421939Y-135222542D01*
X157421939Y-135222542D02*
X157421939Y-134651114D01*
X157421939Y-134651114D02*
X157493367Y-134508257D01*
X157493367Y-134508257D02*
X157636225Y-134436828D01*
X157636225Y-134436828D02*
X157921939Y-134436828D01*
X157921939Y-134436828D02*
X158064796Y-134508257D01*
X158064796Y-134508257D02*
X158136225Y-134651114D01*
X158136225Y-134651114D02*
X158136225Y-134793971D01*
X158136225Y-134793971D02*
X157421939Y-134936828D01*
X159421939Y-135436828D02*
X159421939Y-134651114D01*
X159421939Y-134651114D02*
X159350510Y-134508257D01*
X159350510Y-134508257D02*
X159207653Y-134436828D01*
X159207653Y-134436828D02*
X158921939Y-134436828D01*
X158921939Y-134436828D02*
X158779081Y-134508257D01*
X159421939Y-135365400D02*
X159279081Y-135436828D01*
X159279081Y-135436828D02*
X158921939Y-135436828D01*
X158921939Y-135436828D02*
X158779081Y-135365400D01*
X158779081Y-135365400D02*
X158707653Y-135222542D01*
X158707653Y-135222542D02*
X158707653Y-135079685D01*
X158707653Y-135079685D02*
X158779081Y-134936828D01*
X158779081Y-134936828D02*
X158921939Y-134865400D01*
X158921939Y-134865400D02*
X159279081Y-134865400D01*
X159279081Y-134865400D02*
X159421939Y-134793971D01*
X159921939Y-134436828D02*
X160493367Y-134436828D01*
X160136224Y-133936828D02*
X160136224Y-135222542D01*
X160136224Y-135222542D02*
X160207653Y-135365400D01*
X160207653Y-135365400D02*
X160350510Y-135436828D01*
X160350510Y-135436828D02*
X160493367Y-135436828D01*
X160993367Y-135436828D02*
X160993367Y-133936828D01*
X161636225Y-135436828D02*
X161636225Y-134651114D01*
X161636225Y-134651114D02*
X161564796Y-134508257D01*
X161564796Y-134508257D02*
X161421939Y-134436828D01*
X161421939Y-134436828D02*
X161207653Y-134436828D01*
X161207653Y-134436828D02*
X161064796Y-134508257D01*
X161064796Y-134508257D02*
X160993367Y-134579685D01*
X162921939Y-135365400D02*
X162779082Y-135436828D01*
X162779082Y-135436828D02*
X162493368Y-135436828D01*
X162493368Y-135436828D02*
X162350510Y-135365400D01*
X162350510Y-135365400D02*
X162279082Y-135222542D01*
X162279082Y-135222542D02*
X162279082Y-134651114D01*
X162279082Y-134651114D02*
X162350510Y-134508257D01*
X162350510Y-134508257D02*
X162493368Y-134436828D01*
X162493368Y-134436828D02*
X162779082Y-134436828D01*
X162779082Y-134436828D02*
X162921939Y-134508257D01*
X162921939Y-134508257D02*
X162993368Y-134651114D01*
X162993368Y-134651114D02*
X162993368Y-134793971D01*
X162993368Y-134793971D02*
X162279082Y-134936828D01*
X163636224Y-135436828D02*
X163636224Y-134436828D01*
X163636224Y-134722542D02*
X163707653Y-134579685D01*
X163707653Y-134579685D02*
X163779082Y-134508257D01*
X163779082Y-134508257D02*
X163921939Y-134436828D01*
X163921939Y-134436828D02*
X164064796Y-134436828D01*
X165707652Y-135436828D02*
X165707652Y-133936828D01*
X165707652Y-134651114D02*
X166564795Y-134651114D01*
X166564795Y-135436828D02*
X166564795Y-133936828D01*
X167921939Y-134436828D02*
X167921939Y-135436828D01*
X167279081Y-134436828D02*
X167279081Y-135222542D01*
X167279081Y-135222542D02*
X167350510Y-135365400D01*
X167350510Y-135365400D02*
X167493367Y-135436828D01*
X167493367Y-135436828D02*
X167707653Y-135436828D01*
X167707653Y-135436828D02*
X167850510Y-135365400D01*
X167850510Y-135365400D02*
X167921939Y-135293971D01*
X168493367Y-134436828D02*
X169279082Y-134436828D01*
X169279082Y-134436828D02*
X168493367Y-135436828D01*
X168493367Y-135436828D02*
X169279082Y-135436828D01*
X169707653Y-134436828D02*
X170493368Y-134436828D01*
X170493368Y-134436828D02*
X169707653Y-135436828D01*
X169707653Y-135436828D02*
X170493368Y-135436828D01*
X171707654Y-135436828D02*
X171707654Y-134651114D01*
X171707654Y-134651114D02*
X171636225Y-134508257D01*
X171636225Y-134508257D02*
X171493368Y-134436828D01*
X171493368Y-134436828D02*
X171207654Y-134436828D01*
X171207654Y-134436828D02*
X171064796Y-134508257D01*
X171707654Y-135365400D02*
X171564796Y-135436828D01*
X171564796Y-135436828D02*
X171207654Y-135436828D01*
X171207654Y-135436828D02*
X171064796Y-135365400D01*
X171064796Y-135365400D02*
X170993368Y-135222542D01*
X170993368Y-135222542D02*
X170993368Y-135079685D01*
X170993368Y-135079685D02*
X171064796Y-134936828D01*
X171064796Y-134936828D02*
X171207654Y-134865400D01*
X171207654Y-134865400D02*
X171564796Y-134865400D01*
X171564796Y-134865400D02*
X171707654Y-134793971D01*
X172421939Y-135436828D02*
X172421939Y-133936828D01*
X173064797Y-135436828D02*
X173064797Y-134651114D01*
X173064797Y-134651114D02*
X172993368Y-134508257D01*
X172993368Y-134508257D02*
X172850511Y-134436828D01*
X172850511Y-134436828D02*
X172636225Y-134436828D01*
X172636225Y-134436828D02*
X172493368Y-134508257D01*
X172493368Y-134508257D02*
X172421939Y-134579685D01*
X173636225Y-133936828D02*
X174564797Y-133936828D01*
X174564797Y-133936828D02*
X174064797Y-134508257D01*
X174064797Y-134508257D02*
X174279082Y-134508257D01*
X174279082Y-134508257D02*
X174421940Y-134579685D01*
X174421940Y-134579685D02*
X174493368Y-134651114D01*
X174493368Y-134651114D02*
X174564797Y-134793971D01*
X174564797Y-134793971D02*
X174564797Y-135151114D01*
X174564797Y-135151114D02*
X174493368Y-135293971D01*
X174493368Y-135293971D02*
X174421940Y-135365400D01*
X174421940Y-135365400D02*
X174279082Y-135436828D01*
X174279082Y-135436828D02*
X173850511Y-135436828D01*
X173850511Y-135436828D02*
X173707654Y-135365400D01*
X173707654Y-135365400D02*
X173636225Y-135293971D01*
X175136225Y-134079685D02*
X175207653Y-134008257D01*
X175207653Y-134008257D02*
X175350511Y-133936828D01*
X175350511Y-133936828D02*
X175707653Y-133936828D01*
X175707653Y-133936828D02*
X175850511Y-134008257D01*
X175850511Y-134008257D02*
X175921939Y-134079685D01*
X175921939Y-134079685D02*
X175993368Y-134222542D01*
X175993368Y-134222542D02*
X175993368Y-134365400D01*
X175993368Y-134365400D02*
X175921939Y-134579685D01*
X175921939Y-134579685D02*
X175064796Y-135436828D01*
X175064796Y-135436828D02*
X175993368Y-135436828D01*
X177779081Y-134865400D02*
X178921939Y-134865400D01*
X180779081Y-134651114D02*
X181279081Y-134651114D01*
X181493367Y-135436828D02*
X180779081Y-135436828D01*
X180779081Y-135436828D02*
X180779081Y-133936828D01*
X180779081Y-133936828D02*
X181493367Y-133936828D01*
X182064796Y-135365400D02*
X182279082Y-135436828D01*
X182279082Y-135436828D02*
X182636224Y-135436828D01*
X182636224Y-135436828D02*
X182779082Y-135365400D01*
X182779082Y-135365400D02*
X182850510Y-135293971D01*
X182850510Y-135293971D02*
X182921939Y-135151114D01*
X182921939Y-135151114D02*
X182921939Y-135008257D01*
X182921939Y-135008257D02*
X182850510Y-134865400D01*
X182850510Y-134865400D02*
X182779082Y-134793971D01*
X182779082Y-134793971D02*
X182636224Y-134722542D01*
X182636224Y-134722542D02*
X182350510Y-134651114D01*
X182350510Y-134651114D02*
X182207653Y-134579685D01*
X182207653Y-134579685D02*
X182136224Y-134508257D01*
X182136224Y-134508257D02*
X182064796Y-134365400D01*
X182064796Y-134365400D02*
X182064796Y-134222542D01*
X182064796Y-134222542D02*
X182136224Y-134079685D01*
X182136224Y-134079685D02*
X182207653Y-134008257D01*
X182207653Y-134008257D02*
X182350510Y-133936828D01*
X182350510Y-133936828D02*
X182707653Y-133936828D01*
X182707653Y-133936828D02*
X182921939Y-134008257D01*
X183564795Y-135436828D02*
X183564795Y-133936828D01*
X183564795Y-133936828D02*
X184136224Y-133936828D01*
X184136224Y-133936828D02*
X184279081Y-134008257D01*
X184279081Y-134008257D02*
X184350510Y-134079685D01*
X184350510Y-134079685D02*
X184421938Y-134222542D01*
X184421938Y-134222542D02*
X184421938Y-134436828D01*
X184421938Y-134436828D02*
X184350510Y-134579685D01*
X184350510Y-134579685D02*
X184279081Y-134651114D01*
X184279081Y-134651114D02*
X184136224Y-134722542D01*
X184136224Y-134722542D02*
X183564795Y-134722542D01*
X184921938Y-133936828D02*
X185850510Y-133936828D01*
X185850510Y-133936828D02*
X185350510Y-134508257D01*
X185350510Y-134508257D02*
X185564795Y-134508257D01*
X185564795Y-134508257D02*
X185707653Y-134579685D01*
X185707653Y-134579685D02*
X185779081Y-134651114D01*
X185779081Y-134651114D02*
X185850510Y-134793971D01*
X185850510Y-134793971D02*
X185850510Y-135151114D01*
X185850510Y-135151114D02*
X185779081Y-135293971D01*
X185779081Y-135293971D02*
X185707653Y-135365400D01*
X185707653Y-135365400D02*
X185564795Y-135436828D01*
X185564795Y-135436828D02*
X185136224Y-135436828D01*
X185136224Y-135436828D02*
X184993367Y-135365400D01*
X184993367Y-135365400D02*
X184921938Y-135293971D01*
X186421938Y-134079685D02*
X186493366Y-134008257D01*
X186493366Y-134008257D02*
X186636224Y-133936828D01*
X186636224Y-133936828D02*
X186993366Y-133936828D01*
X186993366Y-133936828D02*
X187136224Y-134008257D01*
X187136224Y-134008257D02*
X187207652Y-134079685D01*
X187207652Y-134079685D02*
X187279081Y-134222542D01*
X187279081Y-134222542D02*
X187279081Y-134365400D01*
X187279081Y-134365400D02*
X187207652Y-134579685D01*
X187207652Y-134579685D02*
X186350509Y-135436828D01*
X186350509Y-135436828D02*
X187279081Y-135436828D01*
X216232828Y-128183774D02*
X217732828Y-127683774D01*
X217732828Y-127683774D02*
X216232828Y-127183774D01*
X217732828Y-126683775D02*
X216732828Y-126683775D01*
X216232828Y-126683775D02*
X216304257Y-126755203D01*
X216304257Y-126755203D02*
X216375685Y-126683775D01*
X216375685Y-126683775D02*
X216304257Y-126612346D01*
X216304257Y-126612346D02*
X216232828Y-126683775D01*
X216232828Y-126683775D02*
X216375685Y-126683775D01*
X216304257Y-123119774D02*
X216232828Y-123262632D01*
X216232828Y-123262632D02*
X216232828Y-123476917D01*
X216232828Y-123476917D02*
X216304257Y-123691203D01*
X216304257Y-123691203D02*
X216447114Y-123834060D01*
X216447114Y-123834060D02*
X216589971Y-123905489D01*
X216589971Y-123905489D02*
X216875685Y-123976917D01*
X216875685Y-123976917D02*
X217089971Y-123976917D01*
X217089971Y-123976917D02*
X217375685Y-123905489D01*
X217375685Y-123905489D02*
X217518542Y-123834060D01*
X217518542Y-123834060D02*
X217661400Y-123691203D01*
X217661400Y-123691203D02*
X217732828Y-123476917D01*
X217732828Y-123476917D02*
X217732828Y-123334060D01*
X217732828Y-123334060D02*
X217661400Y-123119774D01*
X217661400Y-123119774D02*
X217589971Y-123048346D01*
X217589971Y-123048346D02*
X217089971Y-123048346D01*
X217089971Y-123048346D02*
X217089971Y-123334060D01*
X217732828Y-122405489D02*
X216232828Y-122405489D01*
X216232828Y-122405489D02*
X217732828Y-121548346D01*
X217732828Y-121548346D02*
X216232828Y-121548346D01*
X217732828Y-120834060D02*
X216232828Y-120834060D01*
X216232828Y-120834060D02*
X216232828Y-120476917D01*
X216232828Y-120476917D02*
X216304257Y-120262631D01*
X216304257Y-120262631D02*
X216447114Y-120119774D01*
X216447114Y-120119774D02*
X216589971Y-120048345D01*
X216589971Y-120048345D02*
X216875685Y-119976917D01*
X216875685Y-119976917D02*
X217089971Y-119976917D01*
X217089971Y-119976917D02*
X217375685Y-120048345D01*
X217375685Y-120048345D02*
X217518542Y-120119774D01*
X217518542Y-120119774D02*
X217661400Y-120262631D01*
X217661400Y-120262631D02*
X217732828Y-120476917D01*
X217732828Y-120476917D02*
X217732828Y-120834060D01*
X152883082Y-68968257D02*
X153597368Y-68968257D01*
X152740225Y-69396828D02*
X153240225Y-67896828D01*
X153240225Y-67896828D02*
X153740225Y-69396828D01*
X154240224Y-69396828D02*
X154240224Y-67896828D01*
X154240224Y-67896828D02*
X154597367Y-67896828D01*
X154597367Y-67896828D02*
X154811653Y-67968257D01*
X154811653Y-67968257D02*
X154954510Y-68111114D01*
X154954510Y-68111114D02*
X155025939Y-68253971D01*
X155025939Y-68253971D02*
X155097367Y-68539685D01*
X155097367Y-68539685D02*
X155097367Y-68753971D01*
X155097367Y-68753971D02*
X155025939Y-69039685D01*
X155025939Y-69039685D02*
X154954510Y-69182542D01*
X154954510Y-69182542D02*
X154811653Y-69325400D01*
X154811653Y-69325400D02*
X154597367Y-69396828D01*
X154597367Y-69396828D02*
X154240224Y-69396828D01*
X155668796Y-69325400D02*
X155883082Y-69396828D01*
X155883082Y-69396828D02*
X156240224Y-69396828D01*
X156240224Y-69396828D02*
X156383082Y-69325400D01*
X156383082Y-69325400D02*
X156454510Y-69253971D01*
X156454510Y-69253971D02*
X156525939Y-69111114D01*
X156525939Y-69111114D02*
X156525939Y-68968257D01*
X156525939Y-68968257D02*
X156454510Y-68825400D01*
X156454510Y-68825400D02*
X156383082Y-68753971D01*
X156383082Y-68753971D02*
X156240224Y-68682542D01*
X156240224Y-68682542D02*
X155954510Y-68611114D01*
X155954510Y-68611114D02*
X155811653Y-68539685D01*
X155811653Y-68539685D02*
X155740224Y-68468257D01*
X155740224Y-68468257D02*
X155668796Y-68325400D01*
X155668796Y-68325400D02*
X155668796Y-68182542D01*
X155668796Y-68182542D02*
X155740224Y-68039685D01*
X155740224Y-68039685D02*
X155811653Y-67968257D01*
X155811653Y-67968257D02*
X155954510Y-67896828D01*
X155954510Y-67896828D02*
X156311653Y-67896828D01*
X156311653Y-67896828D02*
X156525939Y-67968257D01*
X157954510Y-69396828D02*
X157097367Y-69396828D01*
X157525938Y-69396828D02*
X157525938Y-67896828D01*
X157525938Y-67896828D02*
X157383081Y-68111114D01*
X157383081Y-68111114D02*
X157240224Y-68253971D01*
X157240224Y-68253971D02*
X157097367Y-68325400D01*
X158525938Y-68039685D02*
X158597366Y-67968257D01*
X158597366Y-67968257D02*
X158740224Y-67896828D01*
X158740224Y-67896828D02*
X159097366Y-67896828D01*
X159097366Y-67896828D02*
X159240224Y-67968257D01*
X159240224Y-67968257D02*
X159311652Y-68039685D01*
X159311652Y-68039685D02*
X159383081Y-68182542D01*
X159383081Y-68182542D02*
X159383081Y-68325400D01*
X159383081Y-68325400D02*
X159311652Y-68539685D01*
X159311652Y-68539685D02*
X158454509Y-69396828D01*
X158454509Y-69396828D02*
X159383081Y-69396828D01*
X160740223Y-67896828D02*
X160025937Y-67896828D01*
X160025937Y-67896828D02*
X159954509Y-68611114D01*
X159954509Y-68611114D02*
X160025937Y-68539685D01*
X160025937Y-68539685D02*
X160168795Y-68468257D01*
X160168795Y-68468257D02*
X160525937Y-68468257D01*
X160525937Y-68468257D02*
X160668795Y-68539685D01*
X160668795Y-68539685D02*
X160740223Y-68611114D01*
X160740223Y-68611114D02*
X160811652Y-68753971D01*
X160811652Y-68753971D02*
X160811652Y-69111114D01*
X160811652Y-69111114D02*
X160740223Y-69253971D01*
X160740223Y-69253971D02*
X160668795Y-69325400D01*
X160668795Y-69325400D02*
X160525937Y-69396828D01*
X160525937Y-69396828D02*
X160168795Y-69396828D01*
X160168795Y-69396828D02*
X160025937Y-69325400D01*
X160025937Y-69325400D02*
X159954509Y-69253971D01*
X162097366Y-67896828D02*
X161811651Y-67896828D01*
X161811651Y-67896828D02*
X161668794Y-67968257D01*
X161668794Y-67968257D02*
X161597366Y-68039685D01*
X161597366Y-68039685D02*
X161454508Y-68253971D01*
X161454508Y-68253971D02*
X161383080Y-68539685D01*
X161383080Y-68539685D02*
X161383080Y-69111114D01*
X161383080Y-69111114D02*
X161454508Y-69253971D01*
X161454508Y-69253971D02*
X161525937Y-69325400D01*
X161525937Y-69325400D02*
X161668794Y-69396828D01*
X161668794Y-69396828D02*
X161954508Y-69396828D01*
X161954508Y-69396828D02*
X162097366Y-69325400D01*
X162097366Y-69325400D02*
X162168794Y-69253971D01*
X162168794Y-69253971D02*
X162240223Y-69111114D01*
X162240223Y-69111114D02*
X162240223Y-68753971D01*
X162240223Y-68753971D02*
X162168794Y-68611114D01*
X162168794Y-68611114D02*
X162097366Y-68539685D01*
X162097366Y-68539685D02*
X161954508Y-68468257D01*
X161954508Y-68468257D02*
X161668794Y-68468257D01*
X161668794Y-68468257D02*
X161525937Y-68539685D01*
X161525937Y-68539685D02*
X161454508Y-68611114D01*
X161454508Y-68611114D02*
X161383080Y-68753971D01*
X164025936Y-68825400D02*
X165168794Y-68825400D01*
X166954508Y-68968257D02*
X167668794Y-68968257D01*
X166811651Y-69396828D02*
X167311651Y-67896828D01*
X167311651Y-67896828D02*
X167811651Y-69396828D01*
X168311650Y-68825400D02*
X169454508Y-68825400D01*
X169954508Y-68396828D02*
X170525936Y-68396828D01*
X170168793Y-67896828D02*
X170168793Y-69182542D01*
X170168793Y-69182542D02*
X170240222Y-69325400D01*
X170240222Y-69325400D02*
X170383079Y-69396828D01*
X170383079Y-69396828D02*
X170525936Y-69396828D01*
X171240222Y-69396828D02*
X171097365Y-69325400D01*
X171097365Y-69325400D02*
X171025936Y-69253971D01*
X171025936Y-69253971D02*
X170954508Y-69111114D01*
X170954508Y-69111114D02*
X170954508Y-68682542D01*
X170954508Y-68682542D02*
X171025936Y-68539685D01*
X171025936Y-68539685D02*
X171097365Y-68468257D01*
X171097365Y-68468257D02*
X171240222Y-68396828D01*
X171240222Y-68396828D02*
X171454508Y-68396828D01*
X171454508Y-68396828D02*
X171597365Y-68468257D01*
X171597365Y-68468257D02*
X171668794Y-68539685D01*
X171668794Y-68539685D02*
X171740222Y-68682542D01*
X171740222Y-68682542D02*
X171740222Y-69111114D01*
X171740222Y-69111114D02*
X171668794Y-69253971D01*
X171668794Y-69253971D02*
X171597365Y-69325400D01*
X171597365Y-69325400D02*
X171454508Y-69396828D01*
X171454508Y-69396828D02*
X171240222Y-69396828D01*
X172383079Y-68825400D02*
X173525937Y-68825400D01*
X174240222Y-69396828D02*
X174240222Y-67896828D01*
X174240222Y-67896828D02*
X174597365Y-67896828D01*
X174597365Y-67896828D02*
X174811651Y-67968257D01*
X174811651Y-67968257D02*
X174954508Y-68111114D01*
X174954508Y-68111114D02*
X175025937Y-68253971D01*
X175025937Y-68253971D02*
X175097365Y-68539685D01*
X175097365Y-68539685D02*
X175097365Y-68753971D01*
X175097365Y-68753971D02*
X175025937Y-69039685D01*
X175025937Y-69039685D02*
X174954508Y-69182542D01*
X174954508Y-69182542D02*
X174811651Y-69325400D01*
X174811651Y-69325400D02*
X174597365Y-69396828D01*
X174597365Y-69396828D02*
X174240222Y-69396828D01*
X220010510Y-138992828D02*
X220010510Y-137492828D01*
X220867653Y-138992828D02*
X220224796Y-138135685D01*
X220867653Y-137492828D02*
X220010510Y-138349971D01*
X222367653Y-138992828D02*
X221867653Y-138278542D01*
X221510510Y-138992828D02*
X221510510Y-137492828D01*
X221510510Y-137492828D02*
X222081939Y-137492828D01*
X222081939Y-137492828D02*
X222224796Y-137564257D01*
X222224796Y-137564257D02*
X222296225Y-137635685D01*
X222296225Y-137635685D02*
X222367653Y-137778542D01*
X222367653Y-137778542D02*
X222367653Y-137992828D01*
X222367653Y-137992828D02*
X222296225Y-138135685D01*
X222296225Y-138135685D02*
X222224796Y-138207114D01*
X222224796Y-138207114D02*
X222081939Y-138278542D01*
X222081939Y-138278542D02*
X221510510Y-138278542D01*
X222939082Y-138921400D02*
X223153368Y-138992828D01*
X223153368Y-138992828D02*
X223510510Y-138992828D01*
X223510510Y-138992828D02*
X223653368Y-138921400D01*
X223653368Y-138921400D02*
X223724796Y-138849971D01*
X223724796Y-138849971D02*
X223796225Y-138707114D01*
X223796225Y-138707114D02*
X223796225Y-138564257D01*
X223796225Y-138564257D02*
X223724796Y-138421400D01*
X223724796Y-138421400D02*
X223653368Y-138349971D01*
X223653368Y-138349971D02*
X223510510Y-138278542D01*
X223510510Y-138278542D02*
X223224796Y-138207114D01*
X223224796Y-138207114D02*
X223081939Y-138135685D01*
X223081939Y-138135685D02*
X223010510Y-138064257D01*
X223010510Y-138064257D02*
X222939082Y-137921400D01*
X222939082Y-137921400D02*
X222939082Y-137778542D01*
X222939082Y-137778542D02*
X223010510Y-137635685D01*
X223010510Y-137635685D02*
X223081939Y-137564257D01*
X223081939Y-137564257D02*
X223224796Y-137492828D01*
X223224796Y-137492828D02*
X223581939Y-137492828D01*
X223581939Y-137492828D02*
X223796225Y-137564257D01*
X224439081Y-138421400D02*
X225581939Y-138421400D01*
X225010510Y-138992828D02*
X225010510Y-137849971D01*
X226296224Y-138992828D02*
X226296224Y-137492828D01*
X226296224Y-138207114D02*
X227153367Y-138207114D01*
X227153367Y-138992828D02*
X227153367Y-137492828D01*
X227867653Y-138992828D02*
X227867653Y-137492828D01*
X227867653Y-137492828D02*
X228439082Y-137492828D01*
X228439082Y-137492828D02*
X228581939Y-137564257D01*
X228581939Y-137564257D02*
X228653368Y-137635685D01*
X228653368Y-137635685D02*
X228724796Y-137778542D01*
X228724796Y-137778542D02*
X228724796Y-137992828D01*
X228724796Y-137992828D02*
X228653368Y-138135685D01*
X228653368Y-138135685D02*
X228581939Y-138207114D01*
X228581939Y-138207114D02*
X228439082Y-138278542D01*
X228439082Y-138278542D02*
X227867653Y-138278542D01*
X230153368Y-137564257D02*
X230010511Y-137492828D01*
X230010511Y-137492828D02*
X229796225Y-137492828D01*
X229796225Y-137492828D02*
X229581939Y-137564257D01*
X229581939Y-137564257D02*
X229439082Y-137707114D01*
X229439082Y-137707114D02*
X229367653Y-137849971D01*
X229367653Y-137849971D02*
X229296225Y-138135685D01*
X229296225Y-138135685D02*
X229296225Y-138349971D01*
X229296225Y-138349971D02*
X229367653Y-138635685D01*
X229367653Y-138635685D02*
X229439082Y-138778542D01*
X229439082Y-138778542D02*
X229581939Y-138921400D01*
X229581939Y-138921400D02*
X229796225Y-138992828D01*
X229796225Y-138992828D02*
X229939082Y-138992828D01*
X229939082Y-138992828D02*
X230153368Y-138921400D01*
X230153368Y-138921400D02*
X230224796Y-138849971D01*
X230224796Y-138849971D02*
X230224796Y-138349971D01*
X230224796Y-138349971D02*
X229939082Y-138349971D01*
X214613400Y-125802632D02*
X214684828Y-125945489D01*
X214684828Y-125945489D02*
X214684828Y-126231203D01*
X214684828Y-126231203D02*
X214613400Y-126374060D01*
X214613400Y-126374060D02*
X214541971Y-126445489D01*
X214541971Y-126445489D02*
X214399114Y-126516917D01*
X214399114Y-126516917D02*
X213970542Y-126516917D01*
X213970542Y-126516917D02*
X213827685Y-126445489D01*
X213827685Y-126445489D02*
X213756257Y-126374060D01*
X213756257Y-126374060D02*
X213684828Y-126231203D01*
X213684828Y-126231203D02*
X213684828Y-125945489D01*
X213684828Y-125945489D02*
X213756257Y-125802632D01*
X214684828Y-124516918D02*
X213899114Y-124516918D01*
X213899114Y-124516918D02*
X213756257Y-124588346D01*
X213756257Y-124588346D02*
X213684828Y-124731203D01*
X213684828Y-124731203D02*
X213684828Y-125016918D01*
X213684828Y-125016918D02*
X213756257Y-125159775D01*
X214613400Y-124516918D02*
X214684828Y-124659775D01*
X214684828Y-124659775D02*
X214684828Y-125016918D01*
X214684828Y-125016918D02*
X214613400Y-125159775D01*
X214613400Y-125159775D02*
X214470542Y-125231203D01*
X214470542Y-125231203D02*
X214327685Y-125231203D01*
X214327685Y-125231203D02*
X214184828Y-125159775D01*
X214184828Y-125159775D02*
X214113400Y-125016918D01*
X214113400Y-125016918D02*
X214113400Y-124659775D01*
X214113400Y-124659775D02*
X214041971Y-124516918D01*
X214684828Y-123588346D02*
X214613400Y-123731203D01*
X214613400Y-123731203D02*
X214470542Y-123802632D01*
X214470542Y-123802632D02*
X213184828Y-123802632D01*
X214684828Y-123016918D02*
X213684828Y-123016918D01*
X213184828Y-123016918D02*
X213256257Y-123088346D01*
X213256257Y-123088346D02*
X213327685Y-123016918D01*
X213327685Y-123016918D02*
X213256257Y-122945489D01*
X213256257Y-122945489D02*
X213184828Y-123016918D01*
X213184828Y-123016918D02*
X213327685Y-123016918D01*
X214684828Y-122302632D02*
X213184828Y-122302632D01*
X213756257Y-122302632D02*
X213684828Y-122159775D01*
X213684828Y-122159775D02*
X213684828Y-121874060D01*
X213684828Y-121874060D02*
X213756257Y-121731203D01*
X213756257Y-121731203D02*
X213827685Y-121659775D01*
X213827685Y-121659775D02*
X213970542Y-121588346D01*
X213970542Y-121588346D02*
X214399114Y-121588346D01*
X214399114Y-121588346D02*
X214541971Y-121659775D01*
X214541971Y-121659775D02*
X214613400Y-121731203D01*
X214613400Y-121731203D02*
X214684828Y-121874060D01*
X214684828Y-121874060D02*
X214684828Y-122159775D01*
X214684828Y-122159775D02*
X214613400Y-122302632D01*
D11*
X210824530Y-140511314D02*
X210919768Y-140416076D01*
X210919768Y-140416076D02*
X211110244Y-140320838D01*
X211110244Y-140320838D02*
X211586435Y-140320838D01*
X211586435Y-140320838D02*
X211776911Y-140416076D01*
X211776911Y-140416076D02*
X211872149Y-140511314D01*
X211872149Y-140511314D02*
X211967387Y-140701790D01*
X211967387Y-140701790D02*
X211967387Y-140892266D01*
X211967387Y-140892266D02*
X211872149Y-141177980D01*
X211872149Y-141177980D02*
X210729292Y-142320838D01*
X210729292Y-142320838D02*
X211967387Y-142320838D01*
X213205482Y-140320838D02*
X213395959Y-140320838D01*
X213395959Y-140320838D02*
X213586435Y-140416076D01*
X213586435Y-140416076D02*
X213681673Y-140511314D01*
X213681673Y-140511314D02*
X213776911Y-140701790D01*
X213776911Y-140701790D02*
X213872149Y-141082742D01*
X213872149Y-141082742D02*
X213872149Y-141558933D01*
X213872149Y-141558933D02*
X213776911Y-141939885D01*
X213776911Y-141939885D02*
X213681673Y-142130361D01*
X213681673Y-142130361D02*
X213586435Y-142225600D01*
X213586435Y-142225600D02*
X213395959Y-142320838D01*
X213395959Y-142320838D02*
X213205482Y-142320838D01*
X213205482Y-142320838D02*
X213015006Y-142225600D01*
X213015006Y-142225600D02*
X212919768Y-142130361D01*
X212919768Y-142130361D02*
X212824530Y-141939885D01*
X212824530Y-141939885D02*
X212729292Y-141558933D01*
X212729292Y-141558933D02*
X212729292Y-141082742D01*
X212729292Y-141082742D02*
X212824530Y-140701790D01*
X212824530Y-140701790D02*
X212919768Y-140511314D01*
X212919768Y-140511314D02*
X213015006Y-140416076D01*
X213015006Y-140416076D02*
X213205482Y-140320838D01*
X215015006Y-141177980D02*
X214824530Y-141082742D01*
X214824530Y-141082742D02*
X214729292Y-140987504D01*
X214729292Y-140987504D02*
X214634054Y-140797028D01*
X214634054Y-140797028D02*
X214634054Y-140701790D01*
X214634054Y-140701790D02*
X214729292Y-140511314D01*
X214729292Y-140511314D02*
X214824530Y-140416076D01*
X214824530Y-140416076D02*
X215015006Y-140320838D01*
X215015006Y-140320838D02*
X215395959Y-140320838D01*
X215395959Y-140320838D02*
X215586435Y-140416076D01*
X215586435Y-140416076D02*
X215681673Y-140511314D01*
X215681673Y-140511314D02*
X215776911Y-140701790D01*
X215776911Y-140701790D02*
X215776911Y-140797028D01*
X215776911Y-140797028D02*
X215681673Y-140987504D01*
X215681673Y-140987504D02*
X215586435Y-141082742D01*
X215586435Y-141082742D02*
X215395959Y-141177980D01*
X215395959Y-141177980D02*
X215015006Y-141177980D01*
X215015006Y-141177980D02*
X214824530Y-141273219D01*
X214824530Y-141273219D02*
X214729292Y-141368457D01*
X214729292Y-141368457D02*
X214634054Y-141558933D01*
X214634054Y-141558933D02*
X214634054Y-141939885D01*
X214634054Y-141939885D02*
X214729292Y-142130361D01*
X214729292Y-142130361D02*
X214824530Y-142225600D01*
X214824530Y-142225600D02*
X215015006Y-142320838D01*
X215015006Y-142320838D02*
X215395959Y-142320838D01*
X215395959Y-142320838D02*
X215586435Y-142225600D01*
X215586435Y-142225600D02*
X215681673Y-142130361D01*
X215681673Y-142130361D02*
X215776911Y-141939885D01*
X215776911Y-141939885D02*
X215776911Y-141558933D01*
X215776911Y-141558933D02*
X215681673Y-141368457D01*
X215681673Y-141368457D02*
X215586435Y-141273219D01*
X215586435Y-141273219D02*
X215395959Y-141177980D01*
X217681673Y-142320838D02*
X216538816Y-142320838D01*
X217110244Y-142320838D02*
X217110244Y-140320838D01*
X217110244Y-140320838D02*
X216919768Y-140606552D01*
X216919768Y-140606552D02*
X216729292Y-140797028D01*
X216729292Y-140797028D02*
X216538816Y-140892266D01*
X218538816Y-141558933D02*
X220062626Y-141558933D01*
X221395958Y-140320838D02*
X221586435Y-140320838D01*
X221586435Y-140320838D02*
X221776911Y-140416076D01*
X221776911Y-140416076D02*
X221872149Y-140511314D01*
X221872149Y-140511314D02*
X221967387Y-140701790D01*
X221967387Y-140701790D02*
X222062625Y-141082742D01*
X222062625Y-141082742D02*
X222062625Y-141558933D01*
X222062625Y-141558933D02*
X221967387Y-141939885D01*
X221967387Y-141939885D02*
X221872149Y-142130361D01*
X221872149Y-142130361D02*
X221776911Y-142225600D01*
X221776911Y-142225600D02*
X221586435Y-142320838D01*
X221586435Y-142320838D02*
X221395958Y-142320838D01*
X221395958Y-142320838D02*
X221205482Y-142225600D01*
X221205482Y-142225600D02*
X221110244Y-142130361D01*
X221110244Y-142130361D02*
X221015006Y-141939885D01*
X221015006Y-141939885D02*
X220919768Y-141558933D01*
X220919768Y-141558933D02*
X220919768Y-141082742D01*
X220919768Y-141082742D02*
X221015006Y-140701790D01*
X221015006Y-140701790D02*
X221110244Y-140511314D01*
X221110244Y-140511314D02*
X221205482Y-140416076D01*
X221205482Y-140416076D02*
X221395958Y-140320838D01*
X223776911Y-140320838D02*
X223395958Y-140320838D01*
X223395958Y-140320838D02*
X223205482Y-140416076D01*
X223205482Y-140416076D02*
X223110244Y-140511314D01*
X223110244Y-140511314D02*
X222919768Y-140797028D01*
X222919768Y-140797028D02*
X222824530Y-141177980D01*
X222824530Y-141177980D02*
X222824530Y-141939885D01*
X222824530Y-141939885D02*
X222919768Y-142130361D01*
X222919768Y-142130361D02*
X223015006Y-142225600D01*
X223015006Y-142225600D02*
X223205482Y-142320838D01*
X223205482Y-142320838D02*
X223586435Y-142320838D01*
X223586435Y-142320838D02*
X223776911Y-142225600D01*
X223776911Y-142225600D02*
X223872149Y-142130361D01*
X223872149Y-142130361D02*
X223967387Y-141939885D01*
X223967387Y-141939885D02*
X223967387Y-141463695D01*
X223967387Y-141463695D02*
X223872149Y-141273219D01*
X223872149Y-141273219D02*
X223776911Y-141177980D01*
X223776911Y-141177980D02*
X223586435Y-141082742D01*
X223586435Y-141082742D02*
X223205482Y-141082742D01*
X223205482Y-141082742D02*
X223015006Y-141177980D01*
X223015006Y-141177980D02*
X222919768Y-141273219D01*
X222919768Y-141273219D02*
X222824530Y-141463695D01*
X224824530Y-141558933D02*
X226348340Y-141558933D01*
X227681672Y-140320838D02*
X227872149Y-140320838D01*
X227872149Y-140320838D02*
X228062625Y-140416076D01*
X228062625Y-140416076D02*
X228157863Y-140511314D01*
X228157863Y-140511314D02*
X228253101Y-140701790D01*
X228253101Y-140701790D02*
X228348339Y-141082742D01*
X228348339Y-141082742D02*
X228348339Y-141558933D01*
X228348339Y-141558933D02*
X228253101Y-141939885D01*
X228253101Y-141939885D02*
X228157863Y-142130361D01*
X228157863Y-142130361D02*
X228062625Y-142225600D01*
X228062625Y-142225600D02*
X227872149Y-142320838D01*
X227872149Y-142320838D02*
X227681672Y-142320838D01*
X227681672Y-142320838D02*
X227491196Y-142225600D01*
X227491196Y-142225600D02*
X227395958Y-142130361D01*
X227395958Y-142130361D02*
X227300720Y-141939885D01*
X227300720Y-141939885D02*
X227205482Y-141558933D01*
X227205482Y-141558933D02*
X227205482Y-141082742D01*
X227205482Y-141082742D02*
X227300720Y-140701790D01*
X227300720Y-140701790D02*
X227395958Y-140511314D01*
X227395958Y-140511314D02*
X227491196Y-140416076D01*
X227491196Y-140416076D02*
X227681672Y-140320838D01*
X229015006Y-140320838D02*
X230348339Y-140320838D01*
X230348339Y-140320838D02*
X229491196Y-142320838D01*
X210824530Y-143731314D02*
X210919768Y-143636076D01*
X210919768Y-143636076D02*
X211110244Y-143540838D01*
X211110244Y-143540838D02*
X211586435Y-143540838D01*
X211586435Y-143540838D02*
X211776911Y-143636076D01*
X211776911Y-143636076D02*
X211872149Y-143731314D01*
X211872149Y-143731314D02*
X211967387Y-143921790D01*
X211967387Y-143921790D02*
X211967387Y-144112266D01*
X211967387Y-144112266D02*
X211872149Y-144397980D01*
X211872149Y-144397980D02*
X210729292Y-145540838D01*
X210729292Y-145540838D02*
X211967387Y-145540838D01*
X213205482Y-143540838D02*
X213395959Y-143540838D01*
X213395959Y-143540838D02*
X213586435Y-143636076D01*
X213586435Y-143636076D02*
X213681673Y-143731314D01*
X213681673Y-143731314D02*
X213776911Y-143921790D01*
X213776911Y-143921790D02*
X213872149Y-144302742D01*
X213872149Y-144302742D02*
X213872149Y-144778933D01*
X213872149Y-144778933D02*
X213776911Y-145159885D01*
X213776911Y-145159885D02*
X213681673Y-145350361D01*
X213681673Y-145350361D02*
X213586435Y-145445600D01*
X213586435Y-145445600D02*
X213395959Y-145540838D01*
X213395959Y-145540838D02*
X213205482Y-145540838D01*
X213205482Y-145540838D02*
X213015006Y-145445600D01*
X213015006Y-145445600D02*
X212919768Y-145350361D01*
X212919768Y-145350361D02*
X212824530Y-145159885D01*
X212824530Y-145159885D02*
X212729292Y-144778933D01*
X212729292Y-144778933D02*
X212729292Y-144302742D01*
X212729292Y-144302742D02*
X212824530Y-143921790D01*
X212824530Y-143921790D02*
X212919768Y-143731314D01*
X212919768Y-143731314D02*
X213015006Y-143636076D01*
X213015006Y-143636076D02*
X213205482Y-143540838D01*
X214634054Y-143731314D02*
X214729292Y-143636076D01*
X214729292Y-143636076D02*
X214919768Y-143540838D01*
X214919768Y-143540838D02*
X215395959Y-143540838D01*
X215395959Y-143540838D02*
X215586435Y-143636076D01*
X215586435Y-143636076D02*
X215681673Y-143731314D01*
X215681673Y-143731314D02*
X215776911Y-143921790D01*
X215776911Y-143921790D02*
X215776911Y-144112266D01*
X215776911Y-144112266D02*
X215681673Y-144397980D01*
X215681673Y-144397980D02*
X214538816Y-145540838D01*
X214538816Y-145540838D02*
X215776911Y-145540838D01*
X217491197Y-144207504D02*
X217491197Y-145540838D01*
X217015006Y-143445600D02*
X216538816Y-144874171D01*
X216538816Y-144874171D02*
X217776911Y-144874171D01*
X218538816Y-144778933D02*
X220062626Y-144778933D01*
X221395958Y-143540838D02*
X221586435Y-143540838D01*
X221586435Y-143540838D02*
X221776911Y-143636076D01*
X221776911Y-143636076D02*
X221872149Y-143731314D01*
X221872149Y-143731314D02*
X221967387Y-143921790D01*
X221967387Y-143921790D02*
X222062625Y-144302742D01*
X222062625Y-144302742D02*
X222062625Y-144778933D01*
X222062625Y-144778933D02*
X221967387Y-145159885D01*
X221967387Y-145159885D02*
X221872149Y-145350361D01*
X221872149Y-145350361D02*
X221776911Y-145445600D01*
X221776911Y-145445600D02*
X221586435Y-145540838D01*
X221586435Y-145540838D02*
X221395958Y-145540838D01*
X221395958Y-145540838D02*
X221205482Y-145445600D01*
X221205482Y-145445600D02*
X221110244Y-145350361D01*
X221110244Y-145350361D02*
X221015006Y-145159885D01*
X221015006Y-145159885D02*
X220919768Y-144778933D01*
X220919768Y-144778933D02*
X220919768Y-144302742D01*
X220919768Y-144302742D02*
X221015006Y-143921790D01*
X221015006Y-143921790D02*
X221110244Y-143731314D01*
X221110244Y-143731314D02*
X221205482Y-143636076D01*
X221205482Y-143636076D02*
X221395958Y-143540838D01*
X223015006Y-145540838D02*
X223395958Y-145540838D01*
X223395958Y-145540838D02*
X223586435Y-145445600D01*
X223586435Y-145445600D02*
X223681673Y-145350361D01*
X223681673Y-145350361D02*
X223872149Y-145064647D01*
X223872149Y-145064647D02*
X223967387Y-144683695D01*
X223967387Y-144683695D02*
X223967387Y-143921790D01*
X223967387Y-143921790D02*
X223872149Y-143731314D01*
X223872149Y-143731314D02*
X223776911Y-143636076D01*
X223776911Y-143636076D02*
X223586435Y-143540838D01*
X223586435Y-143540838D02*
X223205482Y-143540838D01*
X223205482Y-143540838D02*
X223015006Y-143636076D01*
X223015006Y-143636076D02*
X222919768Y-143731314D01*
X222919768Y-143731314D02*
X222824530Y-143921790D01*
X222824530Y-143921790D02*
X222824530Y-144397980D01*
X222824530Y-144397980D02*
X222919768Y-144588457D01*
X222919768Y-144588457D02*
X223015006Y-144683695D01*
X223015006Y-144683695D02*
X223205482Y-144778933D01*
X223205482Y-144778933D02*
X223586435Y-144778933D01*
X223586435Y-144778933D02*
X223776911Y-144683695D01*
X223776911Y-144683695D02*
X223872149Y-144588457D01*
X223872149Y-144588457D02*
X223967387Y-144397980D01*
X224824530Y-144778933D02*
X226348340Y-144778933D01*
X227205482Y-143731314D02*
X227300720Y-143636076D01*
X227300720Y-143636076D02*
X227491196Y-143540838D01*
X227491196Y-143540838D02*
X227967387Y-143540838D01*
X227967387Y-143540838D02*
X228157863Y-143636076D01*
X228157863Y-143636076D02*
X228253101Y-143731314D01*
X228253101Y-143731314D02*
X228348339Y-143921790D01*
X228348339Y-143921790D02*
X228348339Y-144112266D01*
X228348339Y-144112266D02*
X228253101Y-144397980D01*
X228253101Y-144397980D02*
X227110244Y-145540838D01*
X227110244Y-145540838D02*
X228348339Y-145540838D01*
X229015006Y-143540838D02*
X230253101Y-143540838D01*
X230253101Y-143540838D02*
X229586434Y-144302742D01*
X229586434Y-144302742D02*
X229872149Y-144302742D01*
X229872149Y-144302742D02*
X230062625Y-144397980D01*
X230062625Y-144397980D02*
X230157863Y-144493219D01*
X230157863Y-144493219D02*
X230253101Y-144683695D01*
X230253101Y-144683695D02*
X230253101Y-145159885D01*
X230253101Y-145159885D02*
X230157863Y-145350361D01*
X230157863Y-145350361D02*
X230062625Y-145445600D01*
X230062625Y-145445600D02*
X229872149Y-145540838D01*
X229872149Y-145540838D02*
X229300720Y-145540838D01*
X229300720Y-145540838D02*
X229110244Y-145445600D01*
X229110244Y-145445600D02*
X229015006Y-145350361D01*
D12*
X164177021Y-109321657D02*
X164177021Y-106321657D01*
X165605592Y-109035942D02*
X165748449Y-109178800D01*
X165748449Y-109178800D02*
X165605592Y-109321657D01*
X165605592Y-109321657D02*
X165462735Y-109178800D01*
X165462735Y-109178800D02*
X165605592Y-109035942D01*
X165605592Y-109035942D02*
X165605592Y-109321657D01*
X167605592Y-106321657D02*
X168177020Y-106321657D01*
X168177020Y-106321657D02*
X168462735Y-106464514D01*
X168462735Y-106464514D02*
X168748449Y-106750228D01*
X168748449Y-106750228D02*
X168891306Y-107321657D01*
X168891306Y-107321657D02*
X168891306Y-108321657D01*
X168891306Y-108321657D02*
X168748449Y-108893085D01*
X168748449Y-108893085D02*
X168462735Y-109178800D01*
X168462735Y-109178800D02*
X168177020Y-109321657D01*
X168177020Y-109321657D02*
X167605592Y-109321657D01*
X167605592Y-109321657D02*
X167319878Y-109178800D01*
X167319878Y-109178800D02*
X167034163Y-108893085D01*
X167034163Y-108893085D02*
X166891306Y-108321657D01*
X166891306Y-108321657D02*
X166891306Y-107321657D01*
X166891306Y-107321657D02*
X167034163Y-106750228D01*
X167034163Y-106750228D02*
X167319878Y-106464514D01*
X167319878Y-106464514D02*
X167605592Y-106321657D01*
X170177020Y-109035942D02*
X170319877Y-109178800D01*
X170319877Y-109178800D02*
X170177020Y-109321657D01*
X170177020Y-109321657D02*
X170034163Y-109178800D01*
X170034163Y-109178800D02*
X170177020Y-109035942D01*
X170177020Y-109035942D02*
X170177020Y-109321657D01*
X171605591Y-107750228D02*
X172605591Y-107750228D01*
X173034163Y-109321657D02*
X171605591Y-109321657D01*
X171605591Y-109321657D02*
X171605591Y-106321657D01*
X171605591Y-106321657D02*
X173034163Y-106321657D01*
X174319877Y-109035942D02*
X174462734Y-109178800D01*
X174462734Y-109178800D02*
X174319877Y-109321657D01*
X174319877Y-109321657D02*
X174177020Y-109178800D01*
X174177020Y-109178800D02*
X174319877Y-109035942D01*
X174319877Y-109035942D02*
X174319877Y-109321657D01*
X180034162Y-109321657D02*
X181605591Y-107321657D01*
X180034162Y-107321657D02*
X181605591Y-109321657D01*
X187319875Y-109321657D02*
X187319875Y-106321657D01*
X187319875Y-106321657D02*
X188034161Y-106321657D01*
X188034161Y-106321657D02*
X188462732Y-106464514D01*
X188462732Y-106464514D02*
X188748447Y-106750228D01*
X188748447Y-106750228D02*
X188891304Y-107035942D01*
X188891304Y-107035942D02*
X189034161Y-107607371D01*
X189034161Y-107607371D02*
X189034161Y-108035942D01*
X189034161Y-108035942D02*
X188891304Y-108607371D01*
X188891304Y-108607371D02*
X188748447Y-108893085D01*
X188748447Y-108893085D02*
X188462732Y-109178800D01*
X188462732Y-109178800D02*
X188034161Y-109321657D01*
X188034161Y-109321657D02*
X187319875Y-109321657D01*
X191605590Y-107321657D02*
X191605590Y-109321657D01*
X190319875Y-107321657D02*
X190319875Y-108893085D01*
X190319875Y-108893085D02*
X190462732Y-109178800D01*
X190462732Y-109178800D02*
X190748447Y-109321657D01*
X190748447Y-109321657D02*
X191177018Y-109321657D01*
X191177018Y-109321657D02*
X191462732Y-109178800D01*
X191462732Y-109178800D02*
X191605590Y-109035942D01*
X193034161Y-109321657D02*
X193034161Y-106321657D01*
X193319876Y-108178800D02*
X194177018Y-109321657D01*
X194177018Y-107321657D02*
X193034161Y-108464514D01*
X196605589Y-109178800D02*
X196319875Y-109321657D01*
X196319875Y-109321657D02*
X195748447Y-109321657D01*
X195748447Y-109321657D02*
X195462732Y-109178800D01*
X195462732Y-109178800D02*
X195319875Y-108893085D01*
X195319875Y-108893085D02*
X195319875Y-107750228D01*
X195319875Y-107750228D02*
X195462732Y-107464514D01*
X195462732Y-107464514D02*
X195748447Y-107321657D01*
X195748447Y-107321657D02*
X196319875Y-107321657D01*
X196319875Y-107321657D02*
X196605589Y-107464514D01*
X196605589Y-107464514D02*
X196748447Y-107750228D01*
X196748447Y-107750228D02*
X196748447Y-108035942D01*
X196748447Y-108035942D02*
X195319875Y-108321657D01*
X168748449Y-114151657D02*
X168748449Y-111151657D01*
X170462735Y-114151657D02*
X169177021Y-112437371D01*
X170462735Y-111151657D02*
X168748449Y-112865942D01*
X171319878Y-111151657D02*
X173034164Y-111151657D01*
X172177021Y-114151657D02*
X172177021Y-111151657D01*
X174034163Y-114151657D02*
X174034163Y-111151657D01*
X174034163Y-111151657D02*
X175034163Y-113294514D01*
X175034163Y-113294514D02*
X176034163Y-111151657D01*
X176034163Y-111151657D02*
X176034163Y-114151657D01*
X181034163Y-112151657D02*
X181034163Y-114580228D01*
X181034163Y-114580228D02*
X180891305Y-114865942D01*
X180891305Y-114865942D02*
X180748448Y-115008800D01*
X180748448Y-115008800D02*
X180462734Y-115151657D01*
X180462734Y-115151657D02*
X180034163Y-115151657D01*
X180034163Y-115151657D02*
X179748448Y-115008800D01*
X181034163Y-114008800D02*
X180748448Y-114151657D01*
X180748448Y-114151657D02*
X180177020Y-114151657D01*
X180177020Y-114151657D02*
X179891305Y-114008800D01*
X179891305Y-114008800D02*
X179748448Y-113865942D01*
X179748448Y-113865942D02*
X179605591Y-113580228D01*
X179605591Y-113580228D02*
X179605591Y-112723085D01*
X179605591Y-112723085D02*
X179748448Y-112437371D01*
X179748448Y-112437371D02*
X179891305Y-112294514D01*
X179891305Y-112294514D02*
X180177020Y-112151657D01*
X180177020Y-112151657D02*
X180748448Y-112151657D01*
X180748448Y-112151657D02*
X181034163Y-112294514D01*
X183605591Y-114008800D02*
X183319877Y-114151657D01*
X183319877Y-114151657D02*
X182748449Y-114151657D01*
X182748449Y-114151657D02*
X182462734Y-114008800D01*
X182462734Y-114008800D02*
X182319877Y-113723085D01*
X182319877Y-113723085D02*
X182319877Y-112580228D01*
X182319877Y-112580228D02*
X182462734Y-112294514D01*
X182462734Y-112294514D02*
X182748449Y-112151657D01*
X182748449Y-112151657D02*
X183319877Y-112151657D01*
X183319877Y-112151657D02*
X183605591Y-112294514D01*
X183605591Y-112294514D02*
X183748449Y-112580228D01*
X183748449Y-112580228D02*
X183748449Y-112865942D01*
X183748449Y-112865942D02*
X182319877Y-113151657D01*
X185462735Y-114151657D02*
X185177020Y-114008800D01*
X185177020Y-114008800D02*
X185034163Y-113865942D01*
X185034163Y-113865942D02*
X184891306Y-113580228D01*
X184891306Y-113580228D02*
X184891306Y-112723085D01*
X184891306Y-112723085D02*
X185034163Y-112437371D01*
X185034163Y-112437371D02*
X185177020Y-112294514D01*
X185177020Y-112294514D02*
X185462735Y-112151657D01*
X185462735Y-112151657D02*
X185891306Y-112151657D01*
X185891306Y-112151657D02*
X186177020Y-112294514D01*
X186177020Y-112294514D02*
X186319878Y-112437371D01*
X186319878Y-112437371D02*
X186462735Y-112723085D01*
X186462735Y-112723085D02*
X186462735Y-113580228D01*
X186462735Y-113580228D02*
X186319878Y-113865942D01*
X186319878Y-113865942D02*
X186177020Y-114008800D01*
X186177020Y-114008800D02*
X185891306Y-114151657D01*
X185891306Y-114151657D02*
X185462735Y-114151657D01*
X188177021Y-114151657D02*
X187891306Y-114008800D01*
X187891306Y-114008800D02*
X187748449Y-113723085D01*
X187748449Y-113723085D02*
X187748449Y-111151657D01*
X190605593Y-114151657D02*
X190605593Y-112580228D01*
X190605593Y-112580228D02*
X190462735Y-112294514D01*
X190462735Y-112294514D02*
X190177021Y-112151657D01*
X190177021Y-112151657D02*
X189605593Y-112151657D01*
X189605593Y-112151657D02*
X189319878Y-112294514D01*
X190605593Y-114008800D02*
X190319878Y-114151657D01*
X190319878Y-114151657D02*
X189605593Y-114151657D01*
X189605593Y-114151657D02*
X189319878Y-114008800D01*
X189319878Y-114008800D02*
X189177021Y-113723085D01*
X189177021Y-113723085D02*
X189177021Y-113437371D01*
X189177021Y-113437371D02*
X189319878Y-113151657D01*
X189319878Y-113151657D02*
X189605593Y-113008800D01*
X189605593Y-113008800D02*
X190319878Y-113008800D01*
X190319878Y-113008800D02*
X190605593Y-112865942D01*
X192034164Y-114151657D02*
X192034164Y-111151657D01*
X192034164Y-112294514D02*
X192319879Y-112151657D01*
X192319879Y-112151657D02*
X192891307Y-112151657D01*
X192891307Y-112151657D02*
X193177021Y-112294514D01*
X193177021Y-112294514D02*
X193319879Y-112437371D01*
X193319879Y-112437371D02*
X193462736Y-112723085D01*
X193462736Y-112723085D02*
X193462736Y-113580228D01*
X193462736Y-113580228D02*
X193319879Y-113865942D01*
X193319879Y-113865942D02*
X193177021Y-114008800D01*
X193177021Y-114008800D02*
X192891307Y-114151657D01*
X192891307Y-114151657D02*
X192319879Y-114151657D01*
X192319879Y-114151657D02*
X192034164Y-114008800D01*
X175319877Y-116981657D02*
X176034163Y-118981657D01*
X176034163Y-118981657D02*
X176748448Y-116981657D01*
X177605591Y-115981657D02*
X179462734Y-115981657D01*
X179462734Y-115981657D02*
X178462734Y-117124514D01*
X178462734Y-117124514D02*
X178891305Y-117124514D01*
X178891305Y-117124514D02*
X179177020Y-117267371D01*
X179177020Y-117267371D02*
X179319877Y-117410228D01*
X179319877Y-117410228D02*
X179462734Y-117695942D01*
X179462734Y-117695942D02*
X179462734Y-118410228D01*
X179462734Y-118410228D02*
X179319877Y-118695942D01*
X179319877Y-118695942D02*
X179177020Y-118838800D01*
X179177020Y-118838800D02*
X178891305Y-118981657D01*
X178891305Y-118981657D02*
X178034162Y-118981657D01*
X178034162Y-118981657D02*
X177748448Y-118838800D01*
X177748448Y-118838800D02*
X177605591Y-118695942D01*
X180748448Y-118695942D02*
X180891305Y-118838800D01*
X180891305Y-118838800D02*
X180748448Y-118981657D01*
X180748448Y-118981657D02*
X180605591Y-118838800D01*
X180605591Y-118838800D02*
X180748448Y-118695942D01*
X180748448Y-118695942D02*
X180748448Y-118981657D01*
X183748448Y-118981657D02*
X182034162Y-118981657D01*
X182891305Y-118981657D02*
X182891305Y-115981657D01*
X182891305Y-115981657D02*
X182605591Y-116410228D01*
X182605591Y-116410228D02*
X182319876Y-116695942D01*
X182319876Y-116695942D02*
X182034162Y-116838800D01*
D13*
X222250095Y-95911200D02*
X222392952Y-95958819D01*
X222392952Y-95958819D02*
X222631047Y-95958819D01*
X222631047Y-95958819D02*
X222726285Y-95911200D01*
X222726285Y-95911200D02*
X222773904Y-95863580D01*
X222773904Y-95863580D02*
X222821523Y-95768342D01*
X222821523Y-95768342D02*
X222821523Y-95673104D01*
X222821523Y-95673104D02*
X222773904Y-95577866D01*
X222773904Y-95577866D02*
X222726285Y-95530247D01*
X222726285Y-95530247D02*
X222631047Y-95482628D01*
X222631047Y-95482628D02*
X222440571Y-95435009D01*
X222440571Y-95435009D02*
X222345333Y-95387390D01*
X222345333Y-95387390D02*
X222297714Y-95339771D01*
X222297714Y-95339771D02*
X222250095Y-95244533D01*
X222250095Y-95244533D02*
X222250095Y-95149295D01*
X222250095Y-95149295D02*
X222297714Y-95054057D01*
X222297714Y-95054057D02*
X222345333Y-95006438D01*
X222345333Y-95006438D02*
X222440571Y-94958819D01*
X222440571Y-94958819D02*
X222678666Y-94958819D01*
X222678666Y-94958819D02*
X222821523Y-95006438D01*
X223202476Y-95054057D02*
X223250095Y-95006438D01*
X223250095Y-95006438D02*
X223345333Y-94958819D01*
X223345333Y-94958819D02*
X223583428Y-94958819D01*
X223583428Y-94958819D02*
X223678666Y-95006438D01*
X223678666Y-95006438D02*
X223726285Y-95054057D01*
X223726285Y-95054057D02*
X223773904Y-95149295D01*
X223773904Y-95149295D02*
X223773904Y-95244533D01*
X223773904Y-95244533D02*
X223726285Y-95387390D01*
X223726285Y-95387390D02*
X223154857Y-95958819D01*
X223154857Y-95958819D02*
X223773904Y-95958819D01*
X210322438Y-99098285D02*
X210274819Y-99193523D01*
X210274819Y-99193523D02*
X210274819Y-99336380D01*
X210274819Y-99336380D02*
X210322438Y-99479237D01*
X210322438Y-99479237D02*
X210417676Y-99574475D01*
X210417676Y-99574475D02*
X210512914Y-99622094D01*
X210512914Y-99622094D02*
X210703390Y-99669713D01*
X210703390Y-99669713D02*
X210846247Y-99669713D01*
X210846247Y-99669713D02*
X211036723Y-99622094D01*
X211036723Y-99622094D02*
X211131961Y-99574475D01*
X211131961Y-99574475D02*
X211227200Y-99479237D01*
X211227200Y-99479237D02*
X211274819Y-99336380D01*
X211274819Y-99336380D02*
X211274819Y-99241142D01*
X211274819Y-99241142D02*
X211227200Y-99098285D01*
X211227200Y-99098285D02*
X211179580Y-99050666D01*
X211179580Y-99050666D02*
X210846247Y-99050666D01*
X210846247Y-99050666D02*
X210846247Y-99241142D01*
X210274819Y-98717332D02*
X210274819Y-98098285D01*
X210274819Y-98098285D02*
X210655771Y-98431618D01*
X210655771Y-98431618D02*
X210655771Y-98288761D01*
X210655771Y-98288761D02*
X210703390Y-98193523D01*
X210703390Y-98193523D02*
X210751009Y-98145904D01*
X210751009Y-98145904D02*
X210846247Y-98098285D01*
X210846247Y-98098285D02*
X211084342Y-98098285D01*
X211084342Y-98098285D02*
X211179580Y-98145904D01*
X211179580Y-98145904D02*
X211227200Y-98193523D01*
X211227200Y-98193523D02*
X211274819Y-98288761D01*
X211274819Y-98288761D02*
X211274819Y-98574475D01*
X211274819Y-98574475D02*
X211227200Y-98669713D01*
X211227200Y-98669713D02*
X211179580Y-98717332D01*
X210322438Y-84366285D02*
X210274819Y-84461523D01*
X210274819Y-84461523D02*
X210274819Y-84604380D01*
X210274819Y-84604380D02*
X210322438Y-84747237D01*
X210322438Y-84747237D02*
X210417676Y-84842475D01*
X210417676Y-84842475D02*
X210512914Y-84890094D01*
X210512914Y-84890094D02*
X210703390Y-84937713D01*
X210703390Y-84937713D02*
X210846247Y-84937713D01*
X210846247Y-84937713D02*
X211036723Y-84890094D01*
X211036723Y-84890094D02*
X211131961Y-84842475D01*
X211131961Y-84842475D02*
X211227200Y-84747237D01*
X211227200Y-84747237D02*
X211274819Y-84604380D01*
X211274819Y-84604380D02*
X211274819Y-84509142D01*
X211274819Y-84509142D02*
X211227200Y-84366285D01*
X211227200Y-84366285D02*
X211179580Y-84318666D01*
X211179580Y-84318666D02*
X210846247Y-84318666D01*
X210846247Y-84318666D02*
X210846247Y-84509142D01*
X210370057Y-83937713D02*
X210322438Y-83890094D01*
X210322438Y-83890094D02*
X210274819Y-83794856D01*
X210274819Y-83794856D02*
X210274819Y-83556761D01*
X210274819Y-83556761D02*
X210322438Y-83461523D01*
X210322438Y-83461523D02*
X210370057Y-83413904D01*
X210370057Y-83413904D02*
X210465295Y-83366285D01*
X210465295Y-83366285D02*
X210560533Y-83366285D01*
X210560533Y-83366285D02*
X210703390Y-83413904D01*
X210703390Y-83413904D02*
X211274819Y-83985332D01*
X211274819Y-83985332D02*
X211274819Y-83366285D01*
X210322438Y-69380286D02*
X210274819Y-69475524D01*
X210274819Y-69475524D02*
X210274819Y-69618381D01*
X210274819Y-69618381D02*
X210322438Y-69761238D01*
X210322438Y-69761238D02*
X210417676Y-69856476D01*
X210417676Y-69856476D02*
X210512914Y-69904095D01*
X210512914Y-69904095D02*
X210703390Y-69951714D01*
X210703390Y-69951714D02*
X210846247Y-69951714D01*
X210846247Y-69951714D02*
X211036723Y-69904095D01*
X211036723Y-69904095D02*
X211131961Y-69856476D01*
X211131961Y-69856476D02*
X211227200Y-69761238D01*
X211227200Y-69761238D02*
X211274819Y-69618381D01*
X211274819Y-69618381D02*
X211274819Y-69523143D01*
X211274819Y-69523143D02*
X211227200Y-69380286D01*
X211227200Y-69380286D02*
X211179580Y-69332667D01*
X211179580Y-69332667D02*
X210846247Y-69332667D01*
X210846247Y-69332667D02*
X210846247Y-69523143D01*
X211274819Y-68380286D02*
X211274819Y-68951714D01*
X211274819Y-68666000D02*
X210274819Y-68666000D01*
X210274819Y-68666000D02*
X210417676Y-68761238D01*
X210417676Y-68761238D02*
X210512914Y-68856476D01*
X210512914Y-68856476D02*
X210560533Y-68951714D01*
X205065333Y-106118819D02*
X204732000Y-105642628D01*
X204493905Y-106118819D02*
X204493905Y-105118819D01*
X204493905Y-105118819D02*
X204874857Y-105118819D01*
X204874857Y-105118819D02*
X204970095Y-105166438D01*
X204970095Y-105166438D02*
X205017714Y-105214057D01*
X205017714Y-105214057D02*
X205065333Y-105309295D01*
X205065333Y-105309295D02*
X205065333Y-105452152D01*
X205065333Y-105452152D02*
X205017714Y-105547390D01*
X205017714Y-105547390D02*
X204970095Y-105595009D01*
X204970095Y-105595009D02*
X204874857Y-105642628D01*
X204874857Y-105642628D02*
X204493905Y-105642628D01*
X205398667Y-105118819D02*
X206017714Y-105118819D01*
X206017714Y-105118819D02*
X205684381Y-105499771D01*
X205684381Y-105499771D02*
X205827238Y-105499771D01*
X205827238Y-105499771D02*
X205922476Y-105547390D01*
X205922476Y-105547390D02*
X205970095Y-105595009D01*
X205970095Y-105595009D02*
X206017714Y-105690247D01*
X206017714Y-105690247D02*
X206017714Y-105928342D01*
X206017714Y-105928342D02*
X205970095Y-106023580D01*
X205970095Y-106023580D02*
X205922476Y-106071200D01*
X205922476Y-106071200D02*
X205827238Y-106118819D01*
X205827238Y-106118819D02*
X205541524Y-106118819D01*
X205541524Y-106118819D02*
X205446286Y-106071200D01*
X205446286Y-106071200D02*
X205398667Y-106023580D01*
X146756667Y-130558819D02*
X146756667Y-129558819D01*
X146756667Y-129558819D02*
X147090000Y-130273104D01*
X147090000Y-130273104D02*
X147423333Y-129558819D01*
X147423333Y-129558819D02*
X147423333Y-130558819D01*
X148470952Y-130463580D02*
X148423333Y-130511200D01*
X148423333Y-130511200D02*
X148280476Y-130558819D01*
X148280476Y-130558819D02*
X148185238Y-130558819D01*
X148185238Y-130558819D02*
X148042381Y-130511200D01*
X148042381Y-130511200D02*
X147947143Y-130415961D01*
X147947143Y-130415961D02*
X147899524Y-130320723D01*
X147899524Y-130320723D02*
X147851905Y-130130247D01*
X147851905Y-130130247D02*
X147851905Y-129987390D01*
X147851905Y-129987390D02*
X147899524Y-129796914D01*
X147899524Y-129796914D02*
X147947143Y-129701676D01*
X147947143Y-129701676D02*
X148042381Y-129606438D01*
X148042381Y-129606438D02*
X148185238Y-129558819D01*
X148185238Y-129558819D02*
X148280476Y-129558819D01*
X148280476Y-129558819D02*
X148423333Y-129606438D01*
X148423333Y-129606438D02*
X148470952Y-129654057D01*
X148899524Y-129558819D02*
X148899524Y-130368342D01*
X148899524Y-130368342D02*
X148947143Y-130463580D01*
X148947143Y-130463580D02*
X148994762Y-130511200D01*
X148994762Y-130511200D02*
X149090000Y-130558819D01*
X149090000Y-130558819D02*
X149280476Y-130558819D01*
X149280476Y-130558819D02*
X149375714Y-130511200D01*
X149375714Y-130511200D02*
X149423333Y-130463580D01*
X149423333Y-130463580D02*
X149470952Y-130368342D01*
X149470952Y-130368342D02*
X149470952Y-129558819D01*
X150470952Y-130558819D02*
X149899524Y-130558819D01*
X150185238Y-130558819D02*
X150185238Y-129558819D01*
X150185238Y-129558819D02*
X150090000Y-129701676D01*
X150090000Y-129701676D02*
X149994762Y-129796914D01*
X149994762Y-129796914D02*
X149899524Y-129844533D01*
X151902438Y-141689411D02*
X151854819Y-141784649D01*
X151854819Y-141784649D02*
X151854819Y-141927506D01*
X151854819Y-141927506D02*
X151902438Y-142070363D01*
X151902438Y-142070363D02*
X151997676Y-142165601D01*
X151997676Y-142165601D02*
X152092914Y-142213220D01*
X152092914Y-142213220D02*
X152283390Y-142260839D01*
X152283390Y-142260839D02*
X152426247Y-142260839D01*
X152426247Y-142260839D02*
X152616723Y-142213220D01*
X152616723Y-142213220D02*
X152711961Y-142165601D01*
X152711961Y-142165601D02*
X152807200Y-142070363D01*
X152807200Y-142070363D02*
X152854819Y-141927506D01*
X152854819Y-141927506D02*
X152854819Y-141832268D01*
X152854819Y-141832268D02*
X152807200Y-141689411D01*
X152807200Y-141689411D02*
X152759580Y-141641792D01*
X152759580Y-141641792D02*
X152426247Y-141641792D01*
X152426247Y-141641792D02*
X152426247Y-141832268D01*
X152854819Y-141213220D02*
X151854819Y-141213220D01*
X151854819Y-141213220D02*
X152854819Y-140641792D01*
X152854819Y-140641792D02*
X151854819Y-140641792D01*
X152854819Y-140165601D02*
X151854819Y-140165601D01*
X151854819Y-140165601D02*
X151854819Y-139927506D01*
X151854819Y-139927506D02*
X151902438Y-139784649D01*
X151902438Y-139784649D02*
X151997676Y-139689411D01*
X151997676Y-139689411D02*
X152092914Y-139641792D01*
X152092914Y-139641792D02*
X152283390Y-139594173D01*
X152283390Y-139594173D02*
X152426247Y-139594173D01*
X152426247Y-139594173D02*
X152616723Y-139641792D01*
X152616723Y-139641792D02*
X152711961Y-139689411D01*
X152711961Y-139689411D02*
X152807200Y-139784649D01*
X152807200Y-139784649D02*
X152854819Y-139927506D01*
X152854819Y-139927506D02*
X152854819Y-140165601D01*
X162729104Y-142260839D02*
X162729104Y-141784649D01*
X163014819Y-142356077D02*
X162014819Y-142022744D01*
X162014819Y-142022744D02*
X163014819Y-141689411D01*
X162014819Y-141451315D02*
X162014819Y-140832268D01*
X162014819Y-140832268D02*
X162395771Y-141165601D01*
X162395771Y-141165601D02*
X162395771Y-141022744D01*
X162395771Y-141022744D02*
X162443390Y-140927506D01*
X162443390Y-140927506D02*
X162491009Y-140879887D01*
X162491009Y-140879887D02*
X162586247Y-140832268D01*
X162586247Y-140832268D02*
X162824342Y-140832268D01*
X162824342Y-140832268D02*
X162919580Y-140879887D01*
X162919580Y-140879887D02*
X162967200Y-140927506D01*
X162967200Y-140927506D02*
X163014819Y-141022744D01*
X163014819Y-141022744D02*
X163014819Y-141308458D01*
X163014819Y-141308458D02*
X162967200Y-141403696D01*
X162967200Y-141403696D02*
X162919580Y-141451315D01*
X160565180Y-125614779D02*
X159755657Y-125614779D01*
X159755657Y-125614779D02*
X159660419Y-125662398D01*
X159660419Y-125662398D02*
X159612800Y-125710017D01*
X159612800Y-125710017D02*
X159565180Y-125805255D01*
X159565180Y-125805255D02*
X159565180Y-125995731D01*
X159565180Y-125995731D02*
X159612800Y-126090969D01*
X159612800Y-126090969D02*
X159660419Y-126138588D01*
X159660419Y-126138588D02*
X159755657Y-126186207D01*
X159755657Y-126186207D02*
X160565180Y-126186207D01*
X159612800Y-126614779D02*
X159565180Y-126757636D01*
X159565180Y-126757636D02*
X159565180Y-126995731D01*
X159565180Y-126995731D02*
X159612800Y-127090969D01*
X159612800Y-127090969D02*
X159660419Y-127138588D01*
X159660419Y-127138588D02*
X159755657Y-127186207D01*
X159755657Y-127186207D02*
X159850895Y-127186207D01*
X159850895Y-127186207D02*
X159946133Y-127138588D01*
X159946133Y-127138588D02*
X159993752Y-127090969D01*
X159993752Y-127090969D02*
X160041371Y-126995731D01*
X160041371Y-126995731D02*
X160088990Y-126805255D01*
X160088990Y-126805255D02*
X160136609Y-126710017D01*
X160136609Y-126710017D02*
X160184228Y-126662398D01*
X160184228Y-126662398D02*
X160279466Y-126614779D01*
X160279466Y-126614779D02*
X160374704Y-126614779D01*
X160374704Y-126614779D02*
X160469942Y-126662398D01*
X160469942Y-126662398D02*
X160517561Y-126710017D01*
X160517561Y-126710017D02*
X160565180Y-126805255D01*
X160565180Y-126805255D02*
X160565180Y-127043350D01*
X160565180Y-127043350D02*
X160517561Y-127186207D01*
X160088990Y-127948112D02*
X160041371Y-128090969D01*
X160041371Y-128090969D02*
X159993752Y-128138588D01*
X159993752Y-128138588D02*
X159898514Y-128186207D01*
X159898514Y-128186207D02*
X159755657Y-128186207D01*
X159755657Y-128186207D02*
X159660419Y-128138588D01*
X159660419Y-128138588D02*
X159612800Y-128090969D01*
X159612800Y-128090969D02*
X159565180Y-127995731D01*
X159565180Y-127995731D02*
X159565180Y-127614779D01*
X159565180Y-127614779D02*
X160565180Y-127614779D01*
X160565180Y-127614779D02*
X160565180Y-127948112D01*
X160565180Y-127948112D02*
X160517561Y-128043350D01*
X160517561Y-128043350D02*
X160469942Y-128090969D01*
X160469942Y-128090969D02*
X160374704Y-128138588D01*
X160374704Y-128138588D02*
X160279466Y-128138588D01*
X160279466Y-128138588D02*
X160184228Y-128090969D01*
X160184228Y-128090969D02*
X160136609Y-128043350D01*
X160136609Y-128043350D02*
X160088990Y-127948112D01*
X160088990Y-127948112D02*
X160088990Y-127614779D01*
X179932800Y-125567160D02*
X179885180Y-125710017D01*
X179885180Y-125710017D02*
X179885180Y-125948112D01*
X179885180Y-125948112D02*
X179932800Y-126043350D01*
X179932800Y-126043350D02*
X179980419Y-126090969D01*
X179980419Y-126090969D02*
X180075657Y-126138588D01*
X180075657Y-126138588D02*
X180170895Y-126138588D01*
X180170895Y-126138588D02*
X180266133Y-126090969D01*
X180266133Y-126090969D02*
X180313752Y-126043350D01*
X180313752Y-126043350D02*
X180361371Y-125948112D01*
X180361371Y-125948112D02*
X180408990Y-125757636D01*
X180408990Y-125757636D02*
X180456609Y-125662398D01*
X180456609Y-125662398D02*
X180504228Y-125614779D01*
X180504228Y-125614779D02*
X180599466Y-125567160D01*
X180599466Y-125567160D02*
X180694704Y-125567160D01*
X180694704Y-125567160D02*
X180789942Y-125614779D01*
X180789942Y-125614779D02*
X180837561Y-125662398D01*
X180837561Y-125662398D02*
X180885180Y-125757636D01*
X180885180Y-125757636D02*
X180885180Y-125995731D01*
X180885180Y-125995731D02*
X180837561Y-126138588D01*
X179980419Y-127138588D02*
X179932800Y-127090969D01*
X179932800Y-127090969D02*
X179885180Y-126948112D01*
X179885180Y-126948112D02*
X179885180Y-126852874D01*
X179885180Y-126852874D02*
X179932800Y-126710017D01*
X179932800Y-126710017D02*
X180028038Y-126614779D01*
X180028038Y-126614779D02*
X180123276Y-126567160D01*
X180123276Y-126567160D02*
X180313752Y-126519541D01*
X180313752Y-126519541D02*
X180456609Y-126519541D01*
X180456609Y-126519541D02*
X180647085Y-126567160D01*
X180647085Y-126567160D02*
X180742323Y-126614779D01*
X180742323Y-126614779D02*
X180837561Y-126710017D01*
X180837561Y-126710017D02*
X180885180Y-126852874D01*
X180885180Y-126852874D02*
X180885180Y-126948112D01*
X180885180Y-126948112D02*
X180837561Y-127090969D01*
X180837561Y-127090969D02*
X180789942Y-127138588D01*
X179885180Y-128043350D02*
X179885180Y-127567160D01*
X179885180Y-127567160D02*
X180885180Y-127567160D01*
X145234819Y-141641792D02*
X144758628Y-141975125D01*
X145234819Y-142213220D02*
X144234819Y-142213220D01*
X144234819Y-142213220D02*
X144234819Y-141832268D01*
X144234819Y-141832268D02*
X144282438Y-141737030D01*
X144282438Y-141737030D02*
X144330057Y-141689411D01*
X144330057Y-141689411D02*
X144425295Y-141641792D01*
X144425295Y-141641792D02*
X144568152Y-141641792D01*
X144568152Y-141641792D02*
X144663390Y-141689411D01*
X144663390Y-141689411D02*
X144711009Y-141737030D01*
X144711009Y-141737030D02*
X144758628Y-141832268D01*
X144758628Y-141832268D02*
X144758628Y-142213220D01*
X145187200Y-141260839D02*
X145234819Y-141117982D01*
X145234819Y-141117982D02*
X145234819Y-140879887D01*
X145234819Y-140879887D02*
X145187200Y-140784649D01*
X145187200Y-140784649D02*
X145139580Y-140737030D01*
X145139580Y-140737030D02*
X145044342Y-140689411D01*
X145044342Y-140689411D02*
X144949104Y-140689411D01*
X144949104Y-140689411D02*
X144853866Y-140737030D01*
X144853866Y-140737030D02*
X144806247Y-140784649D01*
X144806247Y-140784649D02*
X144758628Y-140879887D01*
X144758628Y-140879887D02*
X144711009Y-141070363D01*
X144711009Y-141070363D02*
X144663390Y-141165601D01*
X144663390Y-141165601D02*
X144615771Y-141213220D01*
X144615771Y-141213220D02*
X144520533Y-141260839D01*
X144520533Y-141260839D02*
X144425295Y-141260839D01*
X144425295Y-141260839D02*
X144330057Y-141213220D01*
X144330057Y-141213220D02*
X144282438Y-141165601D01*
X144282438Y-141165601D02*
X144234819Y-141070363D01*
X144234819Y-141070363D02*
X144234819Y-140832268D01*
X144234819Y-140832268D02*
X144282438Y-140689411D01*
X144234819Y-140403696D02*
X144234819Y-139832268D01*
X145234819Y-140117982D02*
X144234819Y-140117982D01*
X177345180Y-126138588D02*
X177345180Y-125567160D01*
X177345180Y-125852874D02*
X178345180Y-125852874D01*
X178345180Y-125852874D02*
X178202323Y-125757636D01*
X178202323Y-125757636D02*
X178107085Y-125662398D01*
X178107085Y-125662398D02*
X178059466Y-125567160D01*
X178011847Y-126995731D02*
X177345180Y-126995731D01*
X178392800Y-126757636D02*
X177678514Y-126519541D01*
X177678514Y-126519541D02*
X177678514Y-127138588D01*
X165269104Y-142260839D02*
X165269104Y-141784649D01*
X165554819Y-142356077D02*
X164554819Y-142022744D01*
X164554819Y-142022744D02*
X165554819Y-141689411D01*
X164888152Y-140927506D02*
X165554819Y-140927506D01*
X164507200Y-141165601D02*
X165221485Y-141403696D01*
X165221485Y-141403696D02*
X165221485Y-140784649D01*
X155008990Y-125948112D02*
X154961371Y-126090969D01*
X154961371Y-126090969D02*
X154913752Y-126138588D01*
X154913752Y-126138588D02*
X154818514Y-126186207D01*
X154818514Y-126186207D02*
X154675657Y-126186207D01*
X154675657Y-126186207D02*
X154580419Y-126138588D01*
X154580419Y-126138588D02*
X154532800Y-126090969D01*
X154532800Y-126090969D02*
X154485180Y-125995731D01*
X154485180Y-125995731D02*
X154485180Y-125614779D01*
X154485180Y-125614779D02*
X155485180Y-125614779D01*
X155485180Y-125614779D02*
X155485180Y-125948112D01*
X155485180Y-125948112D02*
X155437561Y-126043350D01*
X155437561Y-126043350D02*
X155389942Y-126090969D01*
X155389942Y-126090969D02*
X155294704Y-126138588D01*
X155294704Y-126138588D02*
X155199466Y-126138588D01*
X155199466Y-126138588D02*
X155104228Y-126090969D01*
X155104228Y-126090969D02*
X155056609Y-126043350D01*
X155056609Y-126043350D02*
X155008990Y-125948112D01*
X155008990Y-125948112D02*
X155008990Y-125614779D01*
X154770895Y-126567160D02*
X154770895Y-127043350D01*
X154485180Y-126471922D02*
X155485180Y-126805255D01*
X155485180Y-126805255D02*
X154485180Y-127138588D01*
X155485180Y-127329065D02*
X155485180Y-127900493D01*
X154485180Y-127614779D02*
X155485180Y-127614779D01*
X164645180Y-126138588D02*
X164645180Y-125567160D01*
X164645180Y-125852874D02*
X165645180Y-125852874D01*
X165645180Y-125852874D02*
X165502323Y-125757636D01*
X165502323Y-125757636D02*
X165407085Y-125662398D01*
X165407085Y-125662398D02*
X165359466Y-125567160D01*
X165549942Y-126519541D02*
X165597561Y-126567160D01*
X165597561Y-126567160D02*
X165645180Y-126662398D01*
X165645180Y-126662398D02*
X165645180Y-126900493D01*
X165645180Y-126900493D02*
X165597561Y-126995731D01*
X165597561Y-126995731D02*
X165549942Y-127043350D01*
X165549942Y-127043350D02*
X165454704Y-127090969D01*
X165454704Y-127090969D02*
X165359466Y-127090969D01*
X165359466Y-127090969D02*
X165216609Y-127043350D01*
X165216609Y-127043350D02*
X164645180Y-126471922D01*
X164645180Y-126471922D02*
X164645180Y-127090969D01*
X179794819Y-142356077D02*
X179794819Y-141784649D01*
X180794819Y-142070363D02*
X179794819Y-142070363D01*
X179794819Y-141546553D02*
X180794819Y-140879887D01*
X179794819Y-140879887D02*
X180794819Y-141546553D01*
X182430057Y-142260839D02*
X182382438Y-142213220D01*
X182382438Y-142213220D02*
X182334819Y-142117982D01*
X182334819Y-142117982D02*
X182334819Y-141879887D01*
X182334819Y-141879887D02*
X182382438Y-141784649D01*
X182382438Y-141784649D02*
X182430057Y-141737030D01*
X182430057Y-141737030D02*
X182525295Y-141689411D01*
X182525295Y-141689411D02*
X182620533Y-141689411D01*
X182620533Y-141689411D02*
X182763390Y-141737030D01*
X182763390Y-141737030D02*
X183334819Y-142308458D01*
X183334819Y-142308458D02*
X183334819Y-141689411D01*
X183334819Y-140737030D02*
X183334819Y-141308458D01*
X183334819Y-141022744D02*
X182334819Y-141022744D01*
X182334819Y-141022744D02*
X182477676Y-141117982D01*
X182477676Y-141117982D02*
X182572914Y-141213220D01*
X182572914Y-141213220D02*
X182620533Y-141308458D01*
X146774819Y-142308458D02*
X146774819Y-141689411D01*
X146774819Y-141689411D02*
X147155771Y-142022744D01*
X147155771Y-142022744D02*
X147155771Y-141879887D01*
X147155771Y-141879887D02*
X147203390Y-141784649D01*
X147203390Y-141784649D02*
X147251009Y-141737030D01*
X147251009Y-141737030D02*
X147346247Y-141689411D01*
X147346247Y-141689411D02*
X147584342Y-141689411D01*
X147584342Y-141689411D02*
X147679580Y-141737030D01*
X147679580Y-141737030D02*
X147727200Y-141784649D01*
X147727200Y-141784649D02*
X147774819Y-141879887D01*
X147774819Y-141879887D02*
X147774819Y-142165601D01*
X147774819Y-142165601D02*
X147727200Y-142260839D01*
X147727200Y-142260839D02*
X147679580Y-142308458D01*
X146774819Y-141403696D02*
X147774819Y-141070363D01*
X147774819Y-141070363D02*
X146774819Y-140737030D01*
X178254819Y-141641792D02*
X177778628Y-141975125D01*
X178254819Y-142213220D02*
X177254819Y-142213220D01*
X177254819Y-142213220D02*
X177254819Y-141832268D01*
X177254819Y-141832268D02*
X177302438Y-141737030D01*
X177302438Y-141737030D02*
X177350057Y-141689411D01*
X177350057Y-141689411D02*
X177445295Y-141641792D01*
X177445295Y-141641792D02*
X177588152Y-141641792D01*
X177588152Y-141641792D02*
X177683390Y-141689411D01*
X177683390Y-141689411D02*
X177731009Y-141737030D01*
X177731009Y-141737030D02*
X177778628Y-141832268D01*
X177778628Y-141832268D02*
X177778628Y-142213220D01*
X177254819Y-141308458D02*
X178254819Y-140641792D01*
X177254819Y-140641792D02*
X178254819Y-141308458D01*
X157649104Y-142260839D02*
X157649104Y-141784649D01*
X157934819Y-142356077D02*
X156934819Y-142022744D01*
X156934819Y-142022744D02*
X157934819Y-141689411D01*
X157934819Y-140832268D02*
X157934819Y-141403696D01*
X157934819Y-141117982D02*
X156934819Y-141117982D01*
X156934819Y-141117982D02*
X157077676Y-141213220D01*
X157077676Y-141213220D02*
X157172914Y-141308458D01*
X157172914Y-141308458D02*
X157220533Y-141403696D01*
X150314819Y-142213220D02*
X149314819Y-142213220D01*
X149314819Y-142213220D02*
X150314819Y-141641792D01*
X150314819Y-141641792D02*
X149314819Y-141641792D01*
X150219580Y-140594173D02*
X150267200Y-140641792D01*
X150267200Y-140641792D02*
X150314819Y-140784649D01*
X150314819Y-140784649D02*
X150314819Y-140879887D01*
X150314819Y-140879887D02*
X150267200Y-141022744D01*
X150267200Y-141022744D02*
X150171961Y-141117982D01*
X150171961Y-141117982D02*
X150076723Y-141165601D01*
X150076723Y-141165601D02*
X149886247Y-141213220D01*
X149886247Y-141213220D02*
X149743390Y-141213220D01*
X149743390Y-141213220D02*
X149552914Y-141165601D01*
X149552914Y-141165601D02*
X149457676Y-141117982D01*
X149457676Y-141117982D02*
X149362438Y-141022744D01*
X149362438Y-141022744D02*
X149314819Y-140879887D01*
X149314819Y-140879887D02*
X149314819Y-140784649D01*
X149314819Y-140784649D02*
X149362438Y-140641792D01*
X149362438Y-140641792D02*
X149410057Y-140594173D01*
X162105180Y-126138588D02*
X162105180Y-125567160D01*
X162105180Y-125852874D02*
X163105180Y-125852874D01*
X163105180Y-125852874D02*
X162962323Y-125757636D01*
X162962323Y-125757636D02*
X162867085Y-125662398D01*
X162867085Y-125662398D02*
X162819466Y-125567160D01*
X163105180Y-126471922D02*
X163105180Y-127090969D01*
X163105180Y-127090969D02*
X162724228Y-126757636D01*
X162724228Y-126757636D02*
X162724228Y-126900493D01*
X162724228Y-126900493D02*
X162676609Y-126995731D01*
X162676609Y-126995731D02*
X162628990Y-127043350D01*
X162628990Y-127043350D02*
X162533752Y-127090969D01*
X162533752Y-127090969D02*
X162295657Y-127090969D01*
X162295657Y-127090969D02*
X162200419Y-127043350D01*
X162200419Y-127043350D02*
X162152800Y-126995731D01*
X162152800Y-126995731D02*
X162105180Y-126900493D01*
X162105180Y-126900493D02*
X162105180Y-126614779D01*
X162105180Y-126614779D02*
X162152800Y-126519541D01*
X162152800Y-126519541D02*
X162200419Y-126471922D01*
X172265180Y-126138588D02*
X172265180Y-125567160D01*
X172265180Y-125852874D02*
X173265180Y-125852874D01*
X173265180Y-125852874D02*
X173122323Y-125757636D01*
X173122323Y-125757636D02*
X173027085Y-125662398D01*
X173027085Y-125662398D02*
X172979466Y-125567160D01*
X173265180Y-127043350D02*
X173265180Y-126567160D01*
X173265180Y-126567160D02*
X172788990Y-126519541D01*
X172788990Y-126519541D02*
X172836609Y-126567160D01*
X172836609Y-126567160D02*
X172884228Y-126662398D01*
X172884228Y-126662398D02*
X172884228Y-126900493D01*
X172884228Y-126900493D02*
X172836609Y-126995731D01*
X172836609Y-126995731D02*
X172788990Y-127043350D01*
X172788990Y-127043350D02*
X172693752Y-127090969D01*
X172693752Y-127090969D02*
X172455657Y-127090969D01*
X172455657Y-127090969D02*
X172360419Y-127043350D01*
X172360419Y-127043350D02*
X172312800Y-126995731D01*
X172312800Y-126995731D02*
X172265180Y-126900493D01*
X172265180Y-126900493D02*
X172265180Y-126662398D01*
X172265180Y-126662398D02*
X172312800Y-126567160D01*
X172312800Y-126567160D02*
X172360419Y-126519541D01*
X157548990Y-125614779D02*
X157548990Y-125948112D01*
X157025180Y-126090969D02*
X157025180Y-125614779D01*
X157025180Y-125614779D02*
X158025180Y-125614779D01*
X158025180Y-125614779D02*
X158025180Y-126090969D01*
X157025180Y-126519541D02*
X158025180Y-126519541D01*
X158025180Y-126519541D02*
X157025180Y-127090969D01*
X157025180Y-127090969D02*
X158025180Y-127090969D01*
X155109104Y-142260839D02*
X155109104Y-141784649D01*
X155394819Y-142356077D02*
X154394819Y-142022744D01*
X154394819Y-142022744D02*
X155394819Y-141689411D01*
X154394819Y-141165601D02*
X154394819Y-141070363D01*
X154394819Y-141070363D02*
X154442438Y-140975125D01*
X154442438Y-140975125D02*
X154490057Y-140927506D01*
X154490057Y-140927506D02*
X154585295Y-140879887D01*
X154585295Y-140879887D02*
X154775771Y-140832268D01*
X154775771Y-140832268D02*
X155013866Y-140832268D01*
X155013866Y-140832268D02*
X155204342Y-140879887D01*
X155204342Y-140879887D02*
X155299580Y-140927506D01*
X155299580Y-140927506D02*
X155347200Y-140975125D01*
X155347200Y-140975125D02*
X155394819Y-141070363D01*
X155394819Y-141070363D02*
X155394819Y-141165601D01*
X155394819Y-141165601D02*
X155347200Y-141260839D01*
X155347200Y-141260839D02*
X155299580Y-141308458D01*
X155299580Y-141308458D02*
X155204342Y-141356077D01*
X155204342Y-141356077D02*
X155013866Y-141403696D01*
X155013866Y-141403696D02*
X154775771Y-141403696D01*
X154775771Y-141403696D02*
X154585295Y-141356077D01*
X154585295Y-141356077D02*
X154490057Y-141308458D01*
X154490057Y-141308458D02*
X154442438Y-141260839D01*
X154442438Y-141260839D02*
X154394819Y-141165601D01*
X170725180Y-125519541D02*
X170725180Y-126138588D01*
X170725180Y-126138588D02*
X170344228Y-125805255D01*
X170344228Y-125805255D02*
X170344228Y-125948112D01*
X170344228Y-125948112D02*
X170296609Y-126043350D01*
X170296609Y-126043350D02*
X170248990Y-126090969D01*
X170248990Y-126090969D02*
X170153752Y-126138588D01*
X170153752Y-126138588D02*
X169915657Y-126138588D01*
X169915657Y-126138588D02*
X169820419Y-126090969D01*
X169820419Y-126090969D02*
X169772800Y-126043350D01*
X169772800Y-126043350D02*
X169725180Y-125948112D01*
X169725180Y-125948112D02*
X169725180Y-125662398D01*
X169725180Y-125662398D02*
X169772800Y-125567160D01*
X169772800Y-125567160D02*
X169820419Y-125519541D01*
X170725180Y-126471922D02*
X170725180Y-127090969D01*
X170725180Y-127090969D02*
X170344228Y-126757636D01*
X170344228Y-126757636D02*
X170344228Y-126900493D01*
X170344228Y-126900493D02*
X170296609Y-126995731D01*
X170296609Y-126995731D02*
X170248990Y-127043350D01*
X170248990Y-127043350D02*
X170153752Y-127090969D01*
X170153752Y-127090969D02*
X169915657Y-127090969D01*
X169915657Y-127090969D02*
X169820419Y-127043350D01*
X169820419Y-127043350D02*
X169772800Y-126995731D01*
X169772800Y-126995731D02*
X169725180Y-126900493D01*
X169725180Y-126900493D02*
X169725180Y-126614779D01*
X169725180Y-126614779D02*
X169772800Y-126519541D01*
X169772800Y-126519541D02*
X169820419Y-126471922D01*
X175714819Y-142213220D02*
X174714819Y-142213220D01*
X174714819Y-142213220D02*
X175429104Y-141879887D01*
X175429104Y-141879887D02*
X174714819Y-141546554D01*
X174714819Y-141546554D02*
X175714819Y-141546554D01*
X175714819Y-140546554D02*
X175714819Y-141117982D01*
X175714819Y-140832268D02*
X174714819Y-140832268D01*
X174714819Y-140832268D02*
X174857676Y-140927506D01*
X174857676Y-140927506D02*
X174952914Y-141022744D01*
X174952914Y-141022744D02*
X175000533Y-141117982D01*
X175805180Y-125519541D02*
X175805180Y-126138588D01*
X175805180Y-126138588D02*
X175424228Y-125805255D01*
X175424228Y-125805255D02*
X175424228Y-125948112D01*
X175424228Y-125948112D02*
X175376609Y-126043350D01*
X175376609Y-126043350D02*
X175328990Y-126090969D01*
X175328990Y-126090969D02*
X175233752Y-126138588D01*
X175233752Y-126138588D02*
X174995657Y-126138588D01*
X174995657Y-126138588D02*
X174900419Y-126090969D01*
X174900419Y-126090969D02*
X174852800Y-126043350D01*
X174852800Y-126043350D02*
X174805180Y-125948112D01*
X174805180Y-125948112D02*
X174805180Y-125662398D01*
X174805180Y-125662398D02*
X174852800Y-125567160D01*
X174852800Y-125567160D02*
X174900419Y-125519541D01*
X175709942Y-126519541D02*
X175757561Y-126567160D01*
X175757561Y-126567160D02*
X175805180Y-126662398D01*
X175805180Y-126662398D02*
X175805180Y-126900493D01*
X175805180Y-126900493D02*
X175757561Y-126995731D01*
X175757561Y-126995731D02*
X175709942Y-127043350D01*
X175709942Y-127043350D02*
X175614704Y-127090969D01*
X175614704Y-127090969D02*
X175519466Y-127090969D01*
X175519466Y-127090969D02*
X175376609Y-127043350D01*
X175376609Y-127043350D02*
X174805180Y-126471922D01*
X174805180Y-126471922D02*
X174805180Y-127090969D01*
X167809104Y-142260839D02*
X167809104Y-141784649D01*
X168094819Y-142356077D02*
X167094819Y-142022744D01*
X167094819Y-142022744D02*
X168094819Y-141689411D01*
X167094819Y-140879887D02*
X167094819Y-141356077D01*
X167094819Y-141356077D02*
X167571009Y-141403696D01*
X167571009Y-141403696D02*
X167523390Y-141356077D01*
X167523390Y-141356077D02*
X167475771Y-141260839D01*
X167475771Y-141260839D02*
X167475771Y-141022744D01*
X167475771Y-141022744D02*
X167523390Y-140927506D01*
X167523390Y-140927506D02*
X167571009Y-140879887D01*
X167571009Y-140879887D02*
X167666247Y-140832268D01*
X167666247Y-140832268D02*
X167904342Y-140832268D01*
X167904342Y-140832268D02*
X167999580Y-140879887D01*
X167999580Y-140879887D02*
X168047200Y-140927506D01*
X168047200Y-140927506D02*
X168094819Y-141022744D01*
X168094819Y-141022744D02*
X168094819Y-141260839D01*
X168094819Y-141260839D02*
X168047200Y-141356077D01*
X168047200Y-141356077D02*
X167999580Y-141403696D01*
X160189104Y-142260839D02*
X160189104Y-141784649D01*
X160474819Y-142356077D02*
X159474819Y-142022744D01*
X159474819Y-142022744D02*
X160474819Y-141689411D01*
X159570057Y-141403696D02*
X159522438Y-141356077D01*
X159522438Y-141356077D02*
X159474819Y-141260839D01*
X159474819Y-141260839D02*
X159474819Y-141022744D01*
X159474819Y-141022744D02*
X159522438Y-140927506D01*
X159522438Y-140927506D02*
X159570057Y-140879887D01*
X159570057Y-140879887D02*
X159665295Y-140832268D01*
X159665295Y-140832268D02*
X159760533Y-140832268D01*
X159760533Y-140832268D02*
X159903390Y-140879887D01*
X159903390Y-140879887D02*
X160474819Y-141451315D01*
X160474819Y-141451315D02*
X160474819Y-140832268D01*
X170587200Y-142260839D02*
X170634819Y-142117982D01*
X170634819Y-142117982D02*
X170634819Y-141879887D01*
X170634819Y-141879887D02*
X170587200Y-141784649D01*
X170587200Y-141784649D02*
X170539580Y-141737030D01*
X170539580Y-141737030D02*
X170444342Y-141689411D01*
X170444342Y-141689411D02*
X170349104Y-141689411D01*
X170349104Y-141689411D02*
X170253866Y-141737030D01*
X170253866Y-141737030D02*
X170206247Y-141784649D01*
X170206247Y-141784649D02*
X170158628Y-141879887D01*
X170158628Y-141879887D02*
X170111009Y-142070363D01*
X170111009Y-142070363D02*
X170063390Y-142165601D01*
X170063390Y-142165601D02*
X170015771Y-142213220D01*
X170015771Y-142213220D02*
X169920533Y-142260839D01*
X169920533Y-142260839D02*
X169825295Y-142260839D01*
X169825295Y-142260839D02*
X169730057Y-142213220D01*
X169730057Y-142213220D02*
X169682438Y-142165601D01*
X169682438Y-142165601D02*
X169634819Y-142070363D01*
X169634819Y-142070363D02*
X169634819Y-141832268D01*
X169634819Y-141832268D02*
X169682438Y-141689411D01*
X170539580Y-140689411D02*
X170587200Y-140737030D01*
X170587200Y-140737030D02*
X170634819Y-140879887D01*
X170634819Y-140879887D02*
X170634819Y-140975125D01*
X170634819Y-140975125D02*
X170587200Y-141117982D01*
X170587200Y-141117982D02*
X170491961Y-141213220D01*
X170491961Y-141213220D02*
X170396723Y-141260839D01*
X170396723Y-141260839D02*
X170206247Y-141308458D01*
X170206247Y-141308458D02*
X170063390Y-141308458D01*
X170063390Y-141308458D02*
X169872914Y-141260839D01*
X169872914Y-141260839D02*
X169777676Y-141213220D01*
X169777676Y-141213220D02*
X169682438Y-141117982D01*
X169682438Y-141117982D02*
X169634819Y-140975125D01*
X169634819Y-140975125D02*
X169634819Y-140879887D01*
X169634819Y-140879887D02*
X169682438Y-140737030D01*
X169682438Y-140737030D02*
X169730057Y-140689411D01*
X170634819Y-140260839D02*
X169634819Y-140260839D01*
X170634819Y-139689411D02*
X170063390Y-140117982D01*
X169634819Y-139689411D02*
X170206247Y-140260839D01*
X182472800Y-125567160D02*
X182425180Y-125710017D01*
X182425180Y-125710017D02*
X182425180Y-125948112D01*
X182425180Y-125948112D02*
X182472800Y-126043350D01*
X182472800Y-126043350D02*
X182520419Y-126090969D01*
X182520419Y-126090969D02*
X182615657Y-126138588D01*
X182615657Y-126138588D02*
X182710895Y-126138588D01*
X182710895Y-126138588D02*
X182806133Y-126090969D01*
X182806133Y-126090969D02*
X182853752Y-126043350D01*
X182853752Y-126043350D02*
X182901371Y-125948112D01*
X182901371Y-125948112D02*
X182948990Y-125757636D01*
X182948990Y-125757636D02*
X182996609Y-125662398D01*
X182996609Y-125662398D02*
X183044228Y-125614779D01*
X183044228Y-125614779D02*
X183139466Y-125567160D01*
X183139466Y-125567160D02*
X183234704Y-125567160D01*
X183234704Y-125567160D02*
X183329942Y-125614779D01*
X183329942Y-125614779D02*
X183377561Y-125662398D01*
X183377561Y-125662398D02*
X183425180Y-125757636D01*
X183425180Y-125757636D02*
X183425180Y-125995731D01*
X183425180Y-125995731D02*
X183377561Y-126138588D01*
X182425180Y-126567160D02*
X183425180Y-126567160D01*
X183425180Y-126567160D02*
X183425180Y-126805255D01*
X183425180Y-126805255D02*
X183377561Y-126948112D01*
X183377561Y-126948112D02*
X183282323Y-127043350D01*
X183282323Y-127043350D02*
X183187085Y-127090969D01*
X183187085Y-127090969D02*
X182996609Y-127138588D01*
X182996609Y-127138588D02*
X182853752Y-127138588D01*
X182853752Y-127138588D02*
X182663276Y-127090969D01*
X182663276Y-127090969D02*
X182568038Y-127043350D01*
X182568038Y-127043350D02*
X182472800Y-126948112D01*
X182472800Y-126948112D02*
X182425180Y-126805255D01*
X182425180Y-126805255D02*
X182425180Y-126567160D01*
X182710895Y-127519541D02*
X182710895Y-127995731D01*
X182425180Y-127424303D02*
X183425180Y-127757636D01*
X183425180Y-127757636D02*
X182425180Y-128090969D01*
X173174819Y-142213220D02*
X172174819Y-142213220D01*
X172174819Y-142213220D02*
X172889104Y-141879887D01*
X172889104Y-141879887D02*
X172174819Y-141546554D01*
X172174819Y-141546554D02*
X173174819Y-141546554D01*
X172174819Y-140879887D02*
X172174819Y-140784649D01*
X172174819Y-140784649D02*
X172222438Y-140689411D01*
X172222438Y-140689411D02*
X172270057Y-140641792D01*
X172270057Y-140641792D02*
X172365295Y-140594173D01*
X172365295Y-140594173D02*
X172555771Y-140546554D01*
X172555771Y-140546554D02*
X172793866Y-140546554D01*
X172793866Y-140546554D02*
X172984342Y-140594173D01*
X172984342Y-140594173D02*
X173079580Y-140641792D01*
X173079580Y-140641792D02*
X173127200Y-140689411D01*
X173127200Y-140689411D02*
X173174819Y-140784649D01*
X173174819Y-140784649D02*
X173174819Y-140879887D01*
X173174819Y-140879887D02*
X173127200Y-140975125D01*
X173127200Y-140975125D02*
X173079580Y-141022744D01*
X173079580Y-141022744D02*
X172984342Y-141070363D01*
X172984342Y-141070363D02*
X172793866Y-141117982D01*
X172793866Y-141117982D02*
X172555771Y-141117982D01*
X172555771Y-141117982D02*
X172365295Y-141070363D01*
X172365295Y-141070363D02*
X172270057Y-141022744D01*
X172270057Y-141022744D02*
X172222438Y-140975125D01*
X172222438Y-140975125D02*
X172174819Y-140879887D01*
X168089942Y-125567160D02*
X168137561Y-125614779D01*
X168137561Y-125614779D02*
X168185180Y-125710017D01*
X168185180Y-125710017D02*
X168185180Y-125948112D01*
X168185180Y-125948112D02*
X168137561Y-126043350D01*
X168137561Y-126043350D02*
X168089942Y-126090969D01*
X168089942Y-126090969D02*
X167994704Y-126138588D01*
X167994704Y-126138588D02*
X167899466Y-126138588D01*
X167899466Y-126138588D02*
X167756609Y-126090969D01*
X167756609Y-126090969D02*
X167185180Y-125519541D01*
X167185180Y-125519541D02*
X167185180Y-126138588D01*
X168185180Y-126471922D02*
X168185180Y-127138588D01*
X168185180Y-127138588D02*
X167185180Y-126710017D01*
X205065333Y-91386819D02*
X204732000Y-90910628D01*
X204493905Y-91386819D02*
X204493905Y-90386819D01*
X204493905Y-90386819D02*
X204874857Y-90386819D01*
X204874857Y-90386819D02*
X204970095Y-90434438D01*
X204970095Y-90434438D02*
X205017714Y-90482057D01*
X205017714Y-90482057D02*
X205065333Y-90577295D01*
X205065333Y-90577295D02*
X205065333Y-90720152D01*
X205065333Y-90720152D02*
X205017714Y-90815390D01*
X205017714Y-90815390D02*
X204970095Y-90863009D01*
X204970095Y-90863009D02*
X204874857Y-90910628D01*
X204874857Y-90910628D02*
X204493905Y-90910628D01*
X205446286Y-90482057D02*
X205493905Y-90434438D01*
X205493905Y-90434438D02*
X205589143Y-90386819D01*
X205589143Y-90386819D02*
X205827238Y-90386819D01*
X205827238Y-90386819D02*
X205922476Y-90434438D01*
X205922476Y-90434438D02*
X205970095Y-90482057D01*
X205970095Y-90482057D02*
X206017714Y-90577295D01*
X206017714Y-90577295D02*
X206017714Y-90672533D01*
X206017714Y-90672533D02*
X205970095Y-90815390D01*
X205970095Y-90815390D02*
X205398667Y-91386819D01*
X205398667Y-91386819D02*
X206017714Y-91386819D01*
X222250095Y-113691200D02*
X222392952Y-113738819D01*
X222392952Y-113738819D02*
X222631047Y-113738819D01*
X222631047Y-113738819D02*
X222726285Y-113691200D01*
X222726285Y-113691200D02*
X222773904Y-113643580D01*
X222773904Y-113643580D02*
X222821523Y-113548342D01*
X222821523Y-113548342D02*
X222821523Y-113453104D01*
X222821523Y-113453104D02*
X222773904Y-113357866D01*
X222773904Y-113357866D02*
X222726285Y-113310247D01*
X222726285Y-113310247D02*
X222631047Y-113262628D01*
X222631047Y-113262628D02*
X222440571Y-113215009D01*
X222440571Y-113215009D02*
X222345333Y-113167390D01*
X222345333Y-113167390D02*
X222297714Y-113119771D01*
X222297714Y-113119771D02*
X222250095Y-113024533D01*
X222250095Y-113024533D02*
X222250095Y-112929295D01*
X222250095Y-112929295D02*
X222297714Y-112834057D01*
X222297714Y-112834057D02*
X222345333Y-112786438D01*
X222345333Y-112786438D02*
X222440571Y-112738819D01*
X222440571Y-112738819D02*
X222678666Y-112738819D01*
X222678666Y-112738819D02*
X222821523Y-112786438D01*
X223154857Y-112738819D02*
X223773904Y-112738819D01*
X223773904Y-112738819D02*
X223440571Y-113119771D01*
X223440571Y-113119771D02*
X223583428Y-113119771D01*
X223583428Y-113119771D02*
X223678666Y-113167390D01*
X223678666Y-113167390D02*
X223726285Y-113215009D01*
X223726285Y-113215009D02*
X223773904Y-113310247D01*
X223773904Y-113310247D02*
X223773904Y-113548342D01*
X223773904Y-113548342D02*
X223726285Y-113643580D01*
X223726285Y-113643580D02*
X223678666Y-113691200D01*
X223678666Y-113691200D02*
X223583428Y-113738819D01*
X223583428Y-113738819D02*
X223297714Y-113738819D01*
X223297714Y-113738819D02*
X223202476Y-113691200D01*
X223202476Y-113691200D02*
X223154857Y-113643580D01*
X205319333Y-76146819D02*
X204986000Y-75670628D01*
X204747905Y-76146819D02*
X204747905Y-75146819D01*
X204747905Y-75146819D02*
X205128857Y-75146819D01*
X205128857Y-75146819D02*
X205224095Y-75194438D01*
X205224095Y-75194438D02*
X205271714Y-75242057D01*
X205271714Y-75242057D02*
X205319333Y-75337295D01*
X205319333Y-75337295D02*
X205319333Y-75480152D01*
X205319333Y-75480152D02*
X205271714Y-75575390D01*
X205271714Y-75575390D02*
X205224095Y-75623009D01*
X205224095Y-75623009D02*
X205128857Y-75670628D01*
X205128857Y-75670628D02*
X204747905Y-75670628D01*
X206271714Y-76146819D02*
X205700286Y-76146819D01*
X205986000Y-76146819D02*
X205986000Y-75146819D01*
X205986000Y-75146819D02*
X205890762Y-75289676D01*
X205890762Y-75289676D02*
X205795524Y-75384914D01*
X205795524Y-75384914D02*
X205700286Y-75432533D01*
X221742095Y-78131200D02*
X221884952Y-78178819D01*
X221884952Y-78178819D02*
X222123047Y-78178819D01*
X222123047Y-78178819D02*
X222218285Y-78131200D01*
X222218285Y-78131200D02*
X222265904Y-78083580D01*
X222265904Y-78083580D02*
X222313523Y-77988342D01*
X222313523Y-77988342D02*
X222313523Y-77893104D01*
X222313523Y-77893104D02*
X222265904Y-77797866D01*
X222265904Y-77797866D02*
X222218285Y-77750247D01*
X222218285Y-77750247D02*
X222123047Y-77702628D01*
X222123047Y-77702628D02*
X221932571Y-77655009D01*
X221932571Y-77655009D02*
X221837333Y-77607390D01*
X221837333Y-77607390D02*
X221789714Y-77559771D01*
X221789714Y-77559771D02*
X221742095Y-77464533D01*
X221742095Y-77464533D02*
X221742095Y-77369295D01*
X221742095Y-77369295D02*
X221789714Y-77274057D01*
X221789714Y-77274057D02*
X221837333Y-77226438D01*
X221837333Y-77226438D02*
X221932571Y-77178819D01*
X221932571Y-77178819D02*
X222170666Y-77178819D01*
X222170666Y-77178819D02*
X222313523Y-77226438D01*
X223265904Y-78178819D02*
X222694476Y-78178819D01*
X222980190Y-78178819D02*
X222980190Y-77178819D01*
X222980190Y-77178819D02*
X222884952Y-77321676D01*
X222884952Y-77321676D02*
X222789714Y-77416914D01*
X222789714Y-77416914D02*
X222694476Y-77464533D01*
X155236104Y-81224285D02*
X155236104Y-80748095D01*
X155521819Y-81319523D02*
X154521819Y-80986190D01*
X154521819Y-80986190D02*
X155521819Y-80652857D01*
X155521819Y-80319523D02*
X154521819Y-80319523D01*
X154521819Y-80319523D02*
X154521819Y-80081428D01*
X154521819Y-80081428D02*
X154569438Y-79938571D01*
X154569438Y-79938571D02*
X154664676Y-79843333D01*
X154664676Y-79843333D02*
X154759914Y-79795714D01*
X154759914Y-79795714D02*
X154950390Y-79748095D01*
X154950390Y-79748095D02*
X155093247Y-79748095D01*
X155093247Y-79748095D02*
X155283723Y-79795714D01*
X155283723Y-79795714D02*
X155378961Y-79843333D01*
X155378961Y-79843333D02*
X155474200Y-79938571D01*
X155474200Y-79938571D02*
X155521819Y-80081428D01*
X155521819Y-80081428D02*
X155521819Y-80319523D01*
X155521819Y-78795714D02*
X155521819Y-79367142D01*
X155521819Y-79081428D02*
X154521819Y-79081428D01*
X154521819Y-79081428D02*
X154664676Y-79176666D01*
X154664676Y-79176666D02*
X154759914Y-79271904D01*
X154759914Y-79271904D02*
X154807533Y-79367142D01*
X178990810Y-87799104D02*
X179467000Y-87799104D01*
X178895572Y-88084819D02*
X179228905Y-87084819D01*
X179228905Y-87084819D02*
X179562238Y-88084819D01*
X179895572Y-88084819D02*
X179895572Y-87084819D01*
X180371762Y-88084819D02*
X180371762Y-87084819D01*
X180371762Y-87084819D02*
X180943190Y-88084819D01*
X180943190Y-88084819D02*
X180943190Y-87084819D01*
X181847952Y-87084819D02*
X181657476Y-87084819D01*
X181657476Y-87084819D02*
X181562238Y-87132438D01*
X181562238Y-87132438D02*
X181514619Y-87180057D01*
X181514619Y-87180057D02*
X181419381Y-87322914D01*
X181419381Y-87322914D02*
X181371762Y-87513390D01*
X181371762Y-87513390D02*
X181371762Y-87894342D01*
X181371762Y-87894342D02*
X181419381Y-87989580D01*
X181419381Y-87989580D02*
X181467000Y-88037200D01*
X181467000Y-88037200D02*
X181562238Y-88084819D01*
X181562238Y-88084819D02*
X181752714Y-88084819D01*
X181752714Y-88084819D02*
X181847952Y-88037200D01*
X181847952Y-88037200D02*
X181895571Y-87989580D01*
X181895571Y-87989580D02*
X181943190Y-87894342D01*
X181943190Y-87894342D02*
X181943190Y-87656247D01*
X181943190Y-87656247D02*
X181895571Y-87561009D01*
X181895571Y-87561009D02*
X181847952Y-87513390D01*
X181847952Y-87513390D02*
X181752714Y-87465771D01*
X181752714Y-87465771D02*
X181562238Y-87465771D01*
X181562238Y-87465771D02*
X181467000Y-87513390D01*
X181467000Y-87513390D02*
X181419381Y-87561009D01*
X181419381Y-87561009D02*
X181371762Y-87656247D01*
X144145095Y-74432438D02*
X144049857Y-74384819D01*
X144049857Y-74384819D02*
X143907000Y-74384819D01*
X143907000Y-74384819D02*
X143764143Y-74432438D01*
X143764143Y-74432438D02*
X143668905Y-74527676D01*
X143668905Y-74527676D02*
X143621286Y-74622914D01*
X143621286Y-74622914D02*
X143573667Y-74813390D01*
X143573667Y-74813390D02*
X143573667Y-74956247D01*
X143573667Y-74956247D02*
X143621286Y-75146723D01*
X143621286Y-75146723D02*
X143668905Y-75241961D01*
X143668905Y-75241961D02*
X143764143Y-75337200D01*
X143764143Y-75337200D02*
X143907000Y-75384819D01*
X143907000Y-75384819D02*
X144002238Y-75384819D01*
X144002238Y-75384819D02*
X144145095Y-75337200D01*
X144145095Y-75337200D02*
X144192714Y-75289580D01*
X144192714Y-75289580D02*
X144192714Y-74956247D01*
X144192714Y-74956247D02*
X144002238Y-74956247D01*
X144621286Y-75384819D02*
X144621286Y-74384819D01*
X144621286Y-74384819D02*
X145192714Y-75384819D01*
X145192714Y-75384819D02*
X145192714Y-74384819D01*
X145668905Y-75384819D02*
X145668905Y-74384819D01*
X145668905Y-74384819D02*
X145907000Y-74384819D01*
X145907000Y-74384819D02*
X146049857Y-74432438D01*
X146049857Y-74432438D02*
X146145095Y-74527676D01*
X146145095Y-74527676D02*
X146192714Y-74622914D01*
X146192714Y-74622914D02*
X146240333Y-74813390D01*
X146240333Y-74813390D02*
X146240333Y-74956247D01*
X146240333Y-74956247D02*
X146192714Y-75146723D01*
X146192714Y-75146723D02*
X146145095Y-75241961D01*
X146145095Y-75241961D02*
X146049857Y-75337200D01*
X146049857Y-75337200D02*
X145907000Y-75384819D01*
X145907000Y-75384819D02*
X145668905Y-75384819D01*
X178990810Y-80179104D02*
X179467000Y-80179104D01*
X178895572Y-80464819D02*
X179228905Y-79464819D01*
X179228905Y-79464819D02*
X179562238Y-80464819D01*
X179895572Y-80464819D02*
X179895572Y-79464819D01*
X180371762Y-80464819D02*
X180371762Y-79464819D01*
X180371762Y-79464819D02*
X180943190Y-80464819D01*
X180943190Y-80464819D02*
X180943190Y-79464819D01*
X181324143Y-79464819D02*
X181943190Y-79464819D01*
X181943190Y-79464819D02*
X181609857Y-79845771D01*
X181609857Y-79845771D02*
X181752714Y-79845771D01*
X181752714Y-79845771D02*
X181847952Y-79893390D01*
X181847952Y-79893390D02*
X181895571Y-79941009D01*
X181895571Y-79941009D02*
X181943190Y-80036247D01*
X181943190Y-80036247D02*
X181943190Y-80274342D01*
X181943190Y-80274342D02*
X181895571Y-80369580D01*
X181895571Y-80369580D02*
X181847952Y-80417200D01*
X181847952Y-80417200D02*
X181752714Y-80464819D01*
X181752714Y-80464819D02*
X181467000Y-80464819D01*
X181467000Y-80464819D02*
X181371762Y-80417200D01*
X181371762Y-80417200D02*
X181324143Y-80369580D01*
X152696104Y-83129047D02*
X152696104Y-82652857D01*
X152981819Y-83224285D02*
X151981819Y-82890952D01*
X151981819Y-82890952D02*
X152981819Y-82557619D01*
X152981819Y-82224285D02*
X151981819Y-82224285D01*
X151981819Y-82224285D02*
X151981819Y-81986190D01*
X151981819Y-81986190D02*
X152029438Y-81843333D01*
X152029438Y-81843333D02*
X152124676Y-81748095D01*
X152124676Y-81748095D02*
X152219914Y-81700476D01*
X152219914Y-81700476D02*
X152410390Y-81652857D01*
X152410390Y-81652857D02*
X152553247Y-81652857D01*
X152553247Y-81652857D02*
X152743723Y-81700476D01*
X152743723Y-81700476D02*
X152838961Y-81748095D01*
X152838961Y-81748095D02*
X152934200Y-81843333D01*
X152934200Y-81843333D02*
X152981819Y-81986190D01*
X152981819Y-81986190D02*
X152981819Y-82224285D01*
X152934200Y-81271904D02*
X152981819Y-81129047D01*
X152981819Y-81129047D02*
X152981819Y-80890952D01*
X152981819Y-80890952D02*
X152934200Y-80795714D01*
X152934200Y-80795714D02*
X152886580Y-80748095D01*
X152886580Y-80748095D02*
X152791342Y-80700476D01*
X152791342Y-80700476D02*
X152696104Y-80700476D01*
X152696104Y-80700476D02*
X152600866Y-80748095D01*
X152600866Y-80748095D02*
X152553247Y-80795714D01*
X152553247Y-80795714D02*
X152505628Y-80890952D01*
X152505628Y-80890952D02*
X152458009Y-81081428D01*
X152458009Y-81081428D02*
X152410390Y-81176666D01*
X152410390Y-81176666D02*
X152362771Y-81224285D01*
X152362771Y-81224285D02*
X152267533Y-81271904D01*
X152267533Y-81271904D02*
X152172295Y-81271904D01*
X152172295Y-81271904D02*
X152077057Y-81224285D01*
X152077057Y-81224285D02*
X152029438Y-81176666D01*
X152029438Y-81176666D02*
X151981819Y-81081428D01*
X151981819Y-81081428D02*
X151981819Y-80843333D01*
X151981819Y-80843333D02*
X152029438Y-80700476D01*
X152981819Y-79748095D02*
X152981819Y-80319523D01*
X152981819Y-80033809D02*
X151981819Y-80033809D01*
X151981819Y-80033809D02*
X152124676Y-80129047D01*
X152124676Y-80129047D02*
X152219914Y-80224285D01*
X152219914Y-80224285D02*
X152267533Y-80319523D01*
X152077057Y-79367142D02*
X152029438Y-79319523D01*
X152029438Y-79319523D02*
X151981819Y-79224285D01*
X151981819Y-79224285D02*
X151981819Y-78986190D01*
X151981819Y-78986190D02*
X152029438Y-78890952D01*
X152029438Y-78890952D02*
X152077057Y-78843333D01*
X152077057Y-78843333D02*
X152172295Y-78795714D01*
X152172295Y-78795714D02*
X152267533Y-78795714D01*
X152267533Y-78795714D02*
X152410390Y-78843333D01*
X152410390Y-78843333D02*
X152981819Y-79414761D01*
X152981819Y-79414761D02*
X152981819Y-78795714D01*
X151981819Y-77890952D02*
X151981819Y-78367142D01*
X151981819Y-78367142D02*
X152458009Y-78414761D01*
X152458009Y-78414761D02*
X152410390Y-78367142D01*
X152410390Y-78367142D02*
X152362771Y-78271904D01*
X152362771Y-78271904D02*
X152362771Y-78033809D01*
X152362771Y-78033809D02*
X152410390Y-77938571D01*
X152410390Y-77938571D02*
X152458009Y-77890952D01*
X152458009Y-77890952D02*
X152553247Y-77843333D01*
X152553247Y-77843333D02*
X152791342Y-77843333D01*
X152791342Y-77843333D02*
X152886580Y-77890952D01*
X152886580Y-77890952D02*
X152934200Y-77938571D01*
X152934200Y-77938571D02*
X152981819Y-78033809D01*
X152981819Y-78033809D02*
X152981819Y-78271904D01*
X152981819Y-78271904D02*
X152934200Y-78367142D01*
X152934200Y-78367142D02*
X152886580Y-78414761D01*
X151981819Y-76986190D02*
X151981819Y-77176666D01*
X151981819Y-77176666D02*
X152029438Y-77271904D01*
X152029438Y-77271904D02*
X152077057Y-77319523D01*
X152077057Y-77319523D02*
X152219914Y-77414761D01*
X152219914Y-77414761D02*
X152410390Y-77462380D01*
X152410390Y-77462380D02*
X152791342Y-77462380D01*
X152791342Y-77462380D02*
X152886580Y-77414761D01*
X152886580Y-77414761D02*
X152934200Y-77367142D01*
X152934200Y-77367142D02*
X152981819Y-77271904D01*
X152981819Y-77271904D02*
X152981819Y-77081428D01*
X152981819Y-77081428D02*
X152934200Y-76986190D01*
X152934200Y-76986190D02*
X152886580Y-76938571D01*
X152886580Y-76938571D02*
X152791342Y-76890952D01*
X152791342Y-76890952D02*
X152553247Y-76890952D01*
X152553247Y-76890952D02*
X152458009Y-76938571D01*
X152458009Y-76938571D02*
X152410390Y-76986190D01*
X152410390Y-76986190D02*
X152362771Y-77081428D01*
X152362771Y-77081428D02*
X152362771Y-77271904D01*
X152362771Y-77271904D02*
X152410390Y-77367142D01*
X152410390Y-77367142D02*
X152458009Y-77414761D01*
X152458009Y-77414761D02*
X152553247Y-77462380D01*
X144716523Y-71844819D02*
X144240333Y-71844819D01*
X144240333Y-71844819D02*
X144192714Y-72321009D01*
X144192714Y-72321009D02*
X144240333Y-72273390D01*
X144240333Y-72273390D02*
X144335571Y-72225771D01*
X144335571Y-72225771D02*
X144573666Y-72225771D01*
X144573666Y-72225771D02*
X144668904Y-72273390D01*
X144668904Y-72273390D02*
X144716523Y-72321009D01*
X144716523Y-72321009D02*
X144764142Y-72416247D01*
X144764142Y-72416247D02*
X144764142Y-72654342D01*
X144764142Y-72654342D02*
X144716523Y-72749580D01*
X144716523Y-72749580D02*
X144668904Y-72797200D01*
X144668904Y-72797200D02*
X144573666Y-72844819D01*
X144573666Y-72844819D02*
X144335571Y-72844819D01*
X144335571Y-72844819D02*
X144240333Y-72797200D01*
X144240333Y-72797200D02*
X144192714Y-72749580D01*
X145049857Y-71844819D02*
X145383190Y-72844819D01*
X145383190Y-72844819D02*
X145716523Y-71844819D01*
X174371095Y-89672438D02*
X174275857Y-89624819D01*
X174275857Y-89624819D02*
X174133000Y-89624819D01*
X174133000Y-89624819D02*
X173990143Y-89672438D01*
X173990143Y-89672438D02*
X173894905Y-89767676D01*
X173894905Y-89767676D02*
X173847286Y-89862914D01*
X173847286Y-89862914D02*
X173799667Y-90053390D01*
X173799667Y-90053390D02*
X173799667Y-90196247D01*
X173799667Y-90196247D02*
X173847286Y-90386723D01*
X173847286Y-90386723D02*
X173894905Y-90481961D01*
X173894905Y-90481961D02*
X173990143Y-90577200D01*
X173990143Y-90577200D02*
X174133000Y-90624819D01*
X174133000Y-90624819D02*
X174228238Y-90624819D01*
X174228238Y-90624819D02*
X174371095Y-90577200D01*
X174371095Y-90577200D02*
X174418714Y-90529580D01*
X174418714Y-90529580D02*
X174418714Y-90196247D01*
X174418714Y-90196247D02*
X174228238Y-90196247D01*
X174847286Y-90624819D02*
X174847286Y-89624819D01*
X174847286Y-89624819D02*
X175418714Y-90624819D01*
X175418714Y-90624819D02*
X175418714Y-89624819D01*
X175894905Y-90624819D02*
X175894905Y-89624819D01*
X175894905Y-89624819D02*
X176133000Y-89624819D01*
X176133000Y-89624819D02*
X176275857Y-89672438D01*
X176275857Y-89672438D02*
X176371095Y-89767676D01*
X176371095Y-89767676D02*
X176418714Y-89862914D01*
X176418714Y-89862914D02*
X176466333Y-90053390D01*
X176466333Y-90053390D02*
X176466333Y-90196247D01*
X176466333Y-90196247D02*
X176418714Y-90386723D01*
X176418714Y-90386723D02*
X176371095Y-90481961D01*
X176371095Y-90481961D02*
X176275857Y-90577200D01*
X176275857Y-90577200D02*
X176133000Y-90624819D01*
X176133000Y-90624819D02*
X175894905Y-90624819D01*
X174371095Y-74432438D02*
X174275857Y-74384819D01*
X174275857Y-74384819D02*
X174133000Y-74384819D01*
X174133000Y-74384819D02*
X173990143Y-74432438D01*
X173990143Y-74432438D02*
X173894905Y-74527676D01*
X173894905Y-74527676D02*
X173847286Y-74622914D01*
X173847286Y-74622914D02*
X173799667Y-74813390D01*
X173799667Y-74813390D02*
X173799667Y-74956247D01*
X173799667Y-74956247D02*
X173847286Y-75146723D01*
X173847286Y-75146723D02*
X173894905Y-75241961D01*
X173894905Y-75241961D02*
X173990143Y-75337200D01*
X173990143Y-75337200D02*
X174133000Y-75384819D01*
X174133000Y-75384819D02*
X174228238Y-75384819D01*
X174228238Y-75384819D02*
X174371095Y-75337200D01*
X174371095Y-75337200D02*
X174418714Y-75289580D01*
X174418714Y-75289580D02*
X174418714Y-74956247D01*
X174418714Y-74956247D02*
X174228238Y-74956247D01*
X174847286Y-75384819D02*
X174847286Y-74384819D01*
X174847286Y-74384819D02*
X175418714Y-75384819D01*
X175418714Y-75384819D02*
X175418714Y-74384819D01*
X175894905Y-75384819D02*
X175894905Y-74384819D01*
X175894905Y-74384819D02*
X176133000Y-74384819D01*
X176133000Y-74384819D02*
X176275857Y-74432438D01*
X176275857Y-74432438D02*
X176371095Y-74527676D01*
X176371095Y-74527676D02*
X176418714Y-74622914D01*
X176418714Y-74622914D02*
X176466333Y-74813390D01*
X176466333Y-74813390D02*
X176466333Y-74956247D01*
X176466333Y-74956247D02*
X176418714Y-75146723D01*
X176418714Y-75146723D02*
X176371095Y-75241961D01*
X176371095Y-75241961D02*
X176275857Y-75337200D01*
X176275857Y-75337200D02*
X176133000Y-75384819D01*
X176133000Y-75384819D02*
X175894905Y-75384819D01*
X174371095Y-79512438D02*
X174275857Y-79464819D01*
X174275857Y-79464819D02*
X174133000Y-79464819D01*
X174133000Y-79464819D02*
X173990143Y-79512438D01*
X173990143Y-79512438D02*
X173894905Y-79607676D01*
X173894905Y-79607676D02*
X173847286Y-79702914D01*
X173847286Y-79702914D02*
X173799667Y-79893390D01*
X173799667Y-79893390D02*
X173799667Y-80036247D01*
X173799667Y-80036247D02*
X173847286Y-80226723D01*
X173847286Y-80226723D02*
X173894905Y-80321961D01*
X173894905Y-80321961D02*
X173990143Y-80417200D01*
X173990143Y-80417200D02*
X174133000Y-80464819D01*
X174133000Y-80464819D02*
X174228238Y-80464819D01*
X174228238Y-80464819D02*
X174371095Y-80417200D01*
X174371095Y-80417200D02*
X174418714Y-80369580D01*
X174418714Y-80369580D02*
X174418714Y-80036247D01*
X174418714Y-80036247D02*
X174228238Y-80036247D01*
X174847286Y-80464819D02*
X174847286Y-79464819D01*
X174847286Y-79464819D02*
X175418714Y-80464819D01*
X175418714Y-80464819D02*
X175418714Y-79464819D01*
X175894905Y-80464819D02*
X175894905Y-79464819D01*
X175894905Y-79464819D02*
X176133000Y-79464819D01*
X176133000Y-79464819D02*
X176275857Y-79512438D01*
X176275857Y-79512438D02*
X176371095Y-79607676D01*
X176371095Y-79607676D02*
X176418714Y-79702914D01*
X176418714Y-79702914D02*
X176466333Y-79893390D01*
X176466333Y-79893390D02*
X176466333Y-80036247D01*
X176466333Y-80036247D02*
X176418714Y-80226723D01*
X176418714Y-80226723D02*
X176371095Y-80321961D01*
X176371095Y-80321961D02*
X176275857Y-80417200D01*
X176275857Y-80417200D02*
X176133000Y-80464819D01*
X176133000Y-80464819D02*
X175894905Y-80464819D01*
X174371095Y-71892438D02*
X174275857Y-71844819D01*
X174275857Y-71844819D02*
X174133000Y-71844819D01*
X174133000Y-71844819D02*
X173990143Y-71892438D01*
X173990143Y-71892438D02*
X173894905Y-71987676D01*
X173894905Y-71987676D02*
X173847286Y-72082914D01*
X173847286Y-72082914D02*
X173799667Y-72273390D01*
X173799667Y-72273390D02*
X173799667Y-72416247D01*
X173799667Y-72416247D02*
X173847286Y-72606723D01*
X173847286Y-72606723D02*
X173894905Y-72701961D01*
X173894905Y-72701961D02*
X173990143Y-72797200D01*
X173990143Y-72797200D02*
X174133000Y-72844819D01*
X174133000Y-72844819D02*
X174228238Y-72844819D01*
X174228238Y-72844819D02*
X174371095Y-72797200D01*
X174371095Y-72797200D02*
X174418714Y-72749580D01*
X174418714Y-72749580D02*
X174418714Y-72416247D01*
X174418714Y-72416247D02*
X174228238Y-72416247D01*
X174847286Y-72844819D02*
X174847286Y-71844819D01*
X174847286Y-71844819D02*
X175418714Y-72844819D01*
X175418714Y-72844819D02*
X175418714Y-71844819D01*
X175894905Y-72844819D02*
X175894905Y-71844819D01*
X175894905Y-71844819D02*
X176133000Y-71844819D01*
X176133000Y-71844819D02*
X176275857Y-71892438D01*
X176275857Y-71892438D02*
X176371095Y-71987676D01*
X176371095Y-71987676D02*
X176418714Y-72082914D01*
X176418714Y-72082914D02*
X176466333Y-72273390D01*
X176466333Y-72273390D02*
X176466333Y-72416247D01*
X176466333Y-72416247D02*
X176418714Y-72606723D01*
X176418714Y-72606723D02*
X176371095Y-72701961D01*
X176371095Y-72701961D02*
X176275857Y-72797200D01*
X176275857Y-72797200D02*
X176133000Y-72844819D01*
X176133000Y-72844819D02*
X175894905Y-72844819D01*
X174371095Y-76972438D02*
X174275857Y-76924819D01*
X174275857Y-76924819D02*
X174133000Y-76924819D01*
X174133000Y-76924819D02*
X173990143Y-76972438D01*
X173990143Y-76972438D02*
X173894905Y-77067676D01*
X173894905Y-77067676D02*
X173847286Y-77162914D01*
X173847286Y-77162914D02*
X173799667Y-77353390D01*
X173799667Y-77353390D02*
X173799667Y-77496247D01*
X173799667Y-77496247D02*
X173847286Y-77686723D01*
X173847286Y-77686723D02*
X173894905Y-77781961D01*
X173894905Y-77781961D02*
X173990143Y-77877200D01*
X173990143Y-77877200D02*
X174133000Y-77924819D01*
X174133000Y-77924819D02*
X174228238Y-77924819D01*
X174228238Y-77924819D02*
X174371095Y-77877200D01*
X174371095Y-77877200D02*
X174418714Y-77829580D01*
X174418714Y-77829580D02*
X174418714Y-77496247D01*
X174418714Y-77496247D02*
X174228238Y-77496247D01*
X174847286Y-77924819D02*
X174847286Y-76924819D01*
X174847286Y-76924819D02*
X175418714Y-77924819D01*
X175418714Y-77924819D02*
X175418714Y-76924819D01*
X175894905Y-77924819D02*
X175894905Y-76924819D01*
X175894905Y-76924819D02*
X176133000Y-76924819D01*
X176133000Y-76924819D02*
X176275857Y-76972438D01*
X176275857Y-76972438D02*
X176371095Y-77067676D01*
X176371095Y-77067676D02*
X176418714Y-77162914D01*
X176418714Y-77162914D02*
X176466333Y-77353390D01*
X176466333Y-77353390D02*
X176466333Y-77496247D01*
X176466333Y-77496247D02*
X176418714Y-77686723D01*
X176418714Y-77686723D02*
X176371095Y-77781961D01*
X176371095Y-77781961D02*
X176275857Y-77877200D01*
X176275857Y-77877200D02*
X176133000Y-77924819D01*
X176133000Y-77924819D02*
X175894905Y-77924819D01*
X178990810Y-77639104D02*
X179467000Y-77639104D01*
X178895572Y-77924819D02*
X179228905Y-76924819D01*
X179228905Y-76924819D02*
X179562238Y-77924819D01*
X179895572Y-77924819D02*
X179895572Y-76924819D01*
X180371762Y-77924819D02*
X180371762Y-76924819D01*
X180371762Y-76924819D02*
X180943190Y-77924819D01*
X180943190Y-77924819D02*
X180943190Y-76924819D01*
X181371762Y-77020057D02*
X181419381Y-76972438D01*
X181419381Y-76972438D02*
X181514619Y-76924819D01*
X181514619Y-76924819D02*
X181752714Y-76924819D01*
X181752714Y-76924819D02*
X181847952Y-76972438D01*
X181847952Y-76972438D02*
X181895571Y-77020057D01*
X181895571Y-77020057D02*
X181943190Y-77115295D01*
X181943190Y-77115295D02*
X181943190Y-77210533D01*
X181943190Y-77210533D02*
X181895571Y-77353390D01*
X181895571Y-77353390D02*
X181324143Y-77924819D01*
X181324143Y-77924819D02*
X181943190Y-77924819D01*
X178990810Y-75099104D02*
X179467000Y-75099104D01*
X178895572Y-75384819D02*
X179228905Y-74384819D01*
X179228905Y-74384819D02*
X179562238Y-75384819D01*
X179895572Y-75384819D02*
X179895572Y-74384819D01*
X180371762Y-75384819D02*
X180371762Y-74384819D01*
X180371762Y-74384819D02*
X180943190Y-75384819D01*
X180943190Y-75384819D02*
X180943190Y-74384819D01*
X181943190Y-75384819D02*
X181371762Y-75384819D01*
X181657476Y-75384819D02*
X181657476Y-74384819D01*
X181657476Y-74384819D02*
X181562238Y-74527676D01*
X181562238Y-74527676D02*
X181467000Y-74622914D01*
X181467000Y-74622914D02*
X181371762Y-74670533D01*
X174371095Y-87132438D02*
X174275857Y-87084819D01*
X174275857Y-87084819D02*
X174133000Y-87084819D01*
X174133000Y-87084819D02*
X173990143Y-87132438D01*
X173990143Y-87132438D02*
X173894905Y-87227676D01*
X173894905Y-87227676D02*
X173847286Y-87322914D01*
X173847286Y-87322914D02*
X173799667Y-87513390D01*
X173799667Y-87513390D02*
X173799667Y-87656247D01*
X173799667Y-87656247D02*
X173847286Y-87846723D01*
X173847286Y-87846723D02*
X173894905Y-87941961D01*
X173894905Y-87941961D02*
X173990143Y-88037200D01*
X173990143Y-88037200D02*
X174133000Y-88084819D01*
X174133000Y-88084819D02*
X174228238Y-88084819D01*
X174228238Y-88084819D02*
X174371095Y-88037200D01*
X174371095Y-88037200D02*
X174418714Y-87989580D01*
X174418714Y-87989580D02*
X174418714Y-87656247D01*
X174418714Y-87656247D02*
X174228238Y-87656247D01*
X174847286Y-88084819D02*
X174847286Y-87084819D01*
X174847286Y-87084819D02*
X175418714Y-88084819D01*
X175418714Y-88084819D02*
X175418714Y-87084819D01*
X175894905Y-88084819D02*
X175894905Y-87084819D01*
X175894905Y-87084819D02*
X176133000Y-87084819D01*
X176133000Y-87084819D02*
X176275857Y-87132438D01*
X176275857Y-87132438D02*
X176371095Y-87227676D01*
X176371095Y-87227676D02*
X176418714Y-87322914D01*
X176418714Y-87322914D02*
X176466333Y-87513390D01*
X176466333Y-87513390D02*
X176466333Y-87656247D01*
X176466333Y-87656247D02*
X176418714Y-87846723D01*
X176418714Y-87846723D02*
X176371095Y-87941961D01*
X176371095Y-87941961D02*
X176275857Y-88037200D01*
X176275857Y-88037200D02*
X176133000Y-88084819D01*
X176133000Y-88084819D02*
X175894905Y-88084819D01*
X174371095Y-82052438D02*
X174275857Y-82004819D01*
X174275857Y-82004819D02*
X174133000Y-82004819D01*
X174133000Y-82004819D02*
X173990143Y-82052438D01*
X173990143Y-82052438D02*
X173894905Y-82147676D01*
X173894905Y-82147676D02*
X173847286Y-82242914D01*
X173847286Y-82242914D02*
X173799667Y-82433390D01*
X173799667Y-82433390D02*
X173799667Y-82576247D01*
X173799667Y-82576247D02*
X173847286Y-82766723D01*
X173847286Y-82766723D02*
X173894905Y-82861961D01*
X173894905Y-82861961D02*
X173990143Y-82957200D01*
X173990143Y-82957200D02*
X174133000Y-83004819D01*
X174133000Y-83004819D02*
X174228238Y-83004819D01*
X174228238Y-83004819D02*
X174371095Y-82957200D01*
X174371095Y-82957200D02*
X174418714Y-82909580D01*
X174418714Y-82909580D02*
X174418714Y-82576247D01*
X174418714Y-82576247D02*
X174228238Y-82576247D01*
X174847286Y-83004819D02*
X174847286Y-82004819D01*
X174847286Y-82004819D02*
X175418714Y-83004819D01*
X175418714Y-83004819D02*
X175418714Y-82004819D01*
X175894905Y-83004819D02*
X175894905Y-82004819D01*
X175894905Y-82004819D02*
X176133000Y-82004819D01*
X176133000Y-82004819D02*
X176275857Y-82052438D01*
X176275857Y-82052438D02*
X176371095Y-82147676D01*
X176371095Y-82147676D02*
X176418714Y-82242914D01*
X176418714Y-82242914D02*
X176466333Y-82433390D01*
X176466333Y-82433390D02*
X176466333Y-82576247D01*
X176466333Y-82576247D02*
X176418714Y-82766723D01*
X176418714Y-82766723D02*
X176371095Y-82861961D01*
X176371095Y-82861961D02*
X176275857Y-82957200D01*
X176275857Y-82957200D02*
X176133000Y-83004819D01*
X176133000Y-83004819D02*
X175894905Y-83004819D01*
X143216524Y-85544819D02*
X143216524Y-84544819D01*
X143216524Y-84544819D02*
X143454619Y-84544819D01*
X143454619Y-84544819D02*
X143597476Y-84592438D01*
X143597476Y-84592438D02*
X143692714Y-84687676D01*
X143692714Y-84687676D02*
X143740333Y-84782914D01*
X143740333Y-84782914D02*
X143787952Y-84973390D01*
X143787952Y-84973390D02*
X143787952Y-85116247D01*
X143787952Y-85116247D02*
X143740333Y-85306723D01*
X143740333Y-85306723D02*
X143692714Y-85401961D01*
X143692714Y-85401961D02*
X143597476Y-85497200D01*
X143597476Y-85497200D02*
X143454619Y-85544819D01*
X143454619Y-85544819D02*
X143216524Y-85544819D01*
X144787952Y-85544819D02*
X144454619Y-85068628D01*
X144216524Y-85544819D02*
X144216524Y-84544819D01*
X144216524Y-84544819D02*
X144597476Y-84544819D01*
X144597476Y-84544819D02*
X144692714Y-84592438D01*
X144692714Y-84592438D02*
X144740333Y-84640057D01*
X144740333Y-84640057D02*
X144787952Y-84735295D01*
X144787952Y-84735295D02*
X144787952Y-84878152D01*
X144787952Y-84878152D02*
X144740333Y-84973390D01*
X144740333Y-84973390D02*
X144692714Y-85021009D01*
X144692714Y-85021009D02*
X144597476Y-85068628D01*
X144597476Y-85068628D02*
X144216524Y-85068628D01*
X145216524Y-85544819D02*
X145216524Y-84544819D01*
X145216524Y-84544819D02*
X145454619Y-84544819D01*
X145454619Y-84544819D02*
X145597476Y-84592438D01*
X145597476Y-84592438D02*
X145692714Y-84687676D01*
X145692714Y-84687676D02*
X145740333Y-84782914D01*
X145740333Y-84782914D02*
X145787952Y-84973390D01*
X145787952Y-84973390D02*
X145787952Y-85116247D01*
X145787952Y-85116247D02*
X145740333Y-85306723D01*
X145740333Y-85306723D02*
X145692714Y-85401961D01*
X145692714Y-85401961D02*
X145597476Y-85497200D01*
X145597476Y-85497200D02*
X145454619Y-85544819D01*
X145454619Y-85544819D02*
X145216524Y-85544819D01*
X146407000Y-85068628D02*
X146407000Y-85544819D01*
X146073667Y-84544819D02*
X146407000Y-85068628D01*
X146407000Y-85068628D02*
X146740333Y-84544819D01*
X143049857Y-89939019D02*
X143049857Y-88939019D01*
X143049857Y-88939019D02*
X143430809Y-88939019D01*
X143430809Y-88939019D02*
X143526047Y-88986638D01*
X143526047Y-88986638D02*
X143573666Y-89034257D01*
X143573666Y-89034257D02*
X143621285Y-89129495D01*
X143621285Y-89129495D02*
X143621285Y-89272352D01*
X143621285Y-89272352D02*
X143573666Y-89367590D01*
X143573666Y-89367590D02*
X143526047Y-89415209D01*
X143526047Y-89415209D02*
X143430809Y-89462828D01*
X143430809Y-89462828D02*
X143049857Y-89462828D01*
X144049857Y-89939019D02*
X144049857Y-88939019D01*
X144049857Y-88939019D02*
X144287952Y-88939019D01*
X144287952Y-88939019D02*
X144430809Y-88986638D01*
X144430809Y-88986638D02*
X144526047Y-89081876D01*
X144526047Y-89081876D02*
X144573666Y-89177114D01*
X144573666Y-89177114D02*
X144621285Y-89367590D01*
X144621285Y-89367590D02*
X144621285Y-89510447D01*
X144621285Y-89510447D02*
X144573666Y-89700923D01*
X144573666Y-89700923D02*
X144526047Y-89796161D01*
X144526047Y-89796161D02*
X144430809Y-89891400D01*
X144430809Y-89891400D02*
X144287952Y-89939019D01*
X144287952Y-89939019D02*
X144049857Y-89939019D01*
X144954619Y-88939019D02*
X145192714Y-89939019D01*
X145192714Y-89939019D02*
X145383190Y-89224733D01*
X145383190Y-89224733D02*
X145573666Y-89939019D01*
X145573666Y-89939019D02*
X145811762Y-88939019D01*
X146192714Y-89939019D02*
X146192714Y-88939019D01*
X146192714Y-88939019D02*
X146764142Y-89939019D01*
X146764142Y-89939019D02*
X146764142Y-88939019D01*
X174371095Y-84592438D02*
X174275857Y-84544819D01*
X174275857Y-84544819D02*
X174133000Y-84544819D01*
X174133000Y-84544819D02*
X173990143Y-84592438D01*
X173990143Y-84592438D02*
X173894905Y-84687676D01*
X173894905Y-84687676D02*
X173847286Y-84782914D01*
X173847286Y-84782914D02*
X173799667Y-84973390D01*
X173799667Y-84973390D02*
X173799667Y-85116247D01*
X173799667Y-85116247D02*
X173847286Y-85306723D01*
X173847286Y-85306723D02*
X173894905Y-85401961D01*
X173894905Y-85401961D02*
X173990143Y-85497200D01*
X173990143Y-85497200D02*
X174133000Y-85544819D01*
X174133000Y-85544819D02*
X174228238Y-85544819D01*
X174228238Y-85544819D02*
X174371095Y-85497200D01*
X174371095Y-85497200D02*
X174418714Y-85449580D01*
X174418714Y-85449580D02*
X174418714Y-85116247D01*
X174418714Y-85116247D02*
X174228238Y-85116247D01*
X174847286Y-85544819D02*
X174847286Y-84544819D01*
X174847286Y-84544819D02*
X175418714Y-85544819D01*
X175418714Y-85544819D02*
X175418714Y-84544819D01*
X175894905Y-85544819D02*
X175894905Y-84544819D01*
X175894905Y-84544819D02*
X176133000Y-84544819D01*
X176133000Y-84544819D02*
X176275857Y-84592438D01*
X176275857Y-84592438D02*
X176371095Y-84687676D01*
X176371095Y-84687676D02*
X176418714Y-84782914D01*
X176418714Y-84782914D02*
X176466333Y-84973390D01*
X176466333Y-84973390D02*
X176466333Y-85116247D01*
X176466333Y-85116247D02*
X176418714Y-85306723D01*
X176418714Y-85306723D02*
X176371095Y-85401961D01*
X176371095Y-85401961D02*
X176275857Y-85497200D01*
X176275857Y-85497200D02*
X176133000Y-85544819D01*
X176133000Y-85544819D02*
X175894905Y-85544819D01*
X143883191Y-80464819D02*
X143883191Y-79464819D01*
X143883191Y-79464819D02*
X144121286Y-79464819D01*
X144121286Y-79464819D02*
X144264143Y-79512438D01*
X144264143Y-79512438D02*
X144359381Y-79607676D01*
X144359381Y-79607676D02*
X144407000Y-79702914D01*
X144407000Y-79702914D02*
X144454619Y-79893390D01*
X144454619Y-79893390D02*
X144454619Y-80036247D01*
X144454619Y-80036247D02*
X144407000Y-80226723D01*
X144407000Y-80226723D02*
X144359381Y-80321961D01*
X144359381Y-80321961D02*
X144264143Y-80417200D01*
X144264143Y-80417200D02*
X144121286Y-80464819D01*
X144121286Y-80464819D02*
X143883191Y-80464819D01*
X144883191Y-80464819D02*
X144883191Y-79464819D01*
X145359381Y-80464819D02*
X145359381Y-79464819D01*
X145359381Y-79464819D02*
X145930809Y-80464819D01*
X145930809Y-80464819D02*
X145930809Y-79464819D01*
X144740333Y-87989580D02*
X144692714Y-88037200D01*
X144692714Y-88037200D02*
X144549857Y-88084819D01*
X144549857Y-88084819D02*
X144454619Y-88084819D01*
X144454619Y-88084819D02*
X144311762Y-88037200D01*
X144311762Y-88037200D02*
X144216524Y-87941961D01*
X144216524Y-87941961D02*
X144168905Y-87846723D01*
X144168905Y-87846723D02*
X144121286Y-87656247D01*
X144121286Y-87656247D02*
X144121286Y-87513390D01*
X144121286Y-87513390D02*
X144168905Y-87322914D01*
X144168905Y-87322914D02*
X144216524Y-87227676D01*
X144216524Y-87227676D02*
X144311762Y-87132438D01*
X144311762Y-87132438D02*
X144454619Y-87084819D01*
X144454619Y-87084819D02*
X144549857Y-87084819D01*
X144549857Y-87084819D02*
X144692714Y-87132438D01*
X144692714Y-87132438D02*
X144740333Y-87180057D01*
X145121286Y-88037200D02*
X145264143Y-88084819D01*
X145264143Y-88084819D02*
X145502238Y-88084819D01*
X145502238Y-88084819D02*
X145597476Y-88037200D01*
X145597476Y-88037200D02*
X145645095Y-87989580D01*
X145645095Y-87989580D02*
X145692714Y-87894342D01*
X145692714Y-87894342D02*
X145692714Y-87799104D01*
X145692714Y-87799104D02*
X145645095Y-87703866D01*
X145645095Y-87703866D02*
X145597476Y-87656247D01*
X145597476Y-87656247D02*
X145502238Y-87608628D01*
X145502238Y-87608628D02*
X145311762Y-87561009D01*
X145311762Y-87561009D02*
X145216524Y-87513390D01*
X145216524Y-87513390D02*
X145168905Y-87465771D01*
X145168905Y-87465771D02*
X145121286Y-87370533D01*
X145121286Y-87370533D02*
X145121286Y-87275295D01*
X145121286Y-87275295D02*
X145168905Y-87180057D01*
X145168905Y-87180057D02*
X145216524Y-87132438D01*
X145216524Y-87132438D02*
X145311762Y-87084819D01*
X145311762Y-87084819D02*
X145549857Y-87084819D01*
X145549857Y-87084819D02*
X145692714Y-87132438D01*
X178990810Y-82719104D02*
X179467000Y-82719104D01*
X178895572Y-83004819D02*
X179228905Y-82004819D01*
X179228905Y-82004819D02*
X179562238Y-83004819D01*
X179895572Y-83004819D02*
X179895572Y-82004819D01*
X180371762Y-83004819D02*
X180371762Y-82004819D01*
X180371762Y-82004819D02*
X180943190Y-83004819D01*
X180943190Y-83004819D02*
X180943190Y-82004819D01*
X181847952Y-82338152D02*
X181847952Y-83004819D01*
X181609857Y-81957200D02*
X181371762Y-82671485D01*
X181371762Y-82671485D02*
X181990809Y-82671485D01*
X178990810Y-90339104D02*
X179467000Y-90339104D01*
X178895572Y-90624819D02*
X179228905Y-89624819D01*
X179228905Y-89624819D02*
X179562238Y-90624819D01*
X179895572Y-90624819D02*
X179895572Y-89624819D01*
X180371762Y-90624819D02*
X180371762Y-89624819D01*
X180371762Y-89624819D02*
X180943190Y-90624819D01*
X180943190Y-90624819D02*
X180943190Y-89624819D01*
X181324143Y-89624819D02*
X181990809Y-89624819D01*
X181990809Y-89624819D02*
X181562238Y-90624819D01*
X178990810Y-72559104D02*
X179467000Y-72559104D01*
X178895572Y-72844819D02*
X179228905Y-71844819D01*
X179228905Y-71844819D02*
X179562238Y-72844819D01*
X179895572Y-72844819D02*
X179895572Y-71844819D01*
X180371762Y-72844819D02*
X180371762Y-71844819D01*
X180371762Y-71844819D02*
X180943190Y-72844819D01*
X180943190Y-72844819D02*
X180943190Y-71844819D01*
X181609857Y-71844819D02*
X181705095Y-71844819D01*
X181705095Y-71844819D02*
X181800333Y-71892438D01*
X181800333Y-71892438D02*
X181847952Y-71940057D01*
X181847952Y-71940057D02*
X181895571Y-72035295D01*
X181895571Y-72035295D02*
X181943190Y-72225771D01*
X181943190Y-72225771D02*
X181943190Y-72463866D01*
X181943190Y-72463866D02*
X181895571Y-72654342D01*
X181895571Y-72654342D02*
X181847952Y-72749580D01*
X181847952Y-72749580D02*
X181800333Y-72797200D01*
X181800333Y-72797200D02*
X181705095Y-72844819D01*
X181705095Y-72844819D02*
X181609857Y-72844819D01*
X181609857Y-72844819D02*
X181514619Y-72797200D01*
X181514619Y-72797200D02*
X181467000Y-72749580D01*
X181467000Y-72749580D02*
X181419381Y-72654342D01*
X181419381Y-72654342D02*
X181371762Y-72463866D01*
X181371762Y-72463866D02*
X181371762Y-72225771D01*
X181371762Y-72225771D02*
X181419381Y-72035295D01*
X181419381Y-72035295D02*
X181467000Y-71940057D01*
X181467000Y-71940057D02*
X181514619Y-71892438D01*
X181514619Y-71892438D02*
X181609857Y-71844819D01*
X143216524Y-77877200D02*
X143359381Y-77924819D01*
X143359381Y-77924819D02*
X143597476Y-77924819D01*
X143597476Y-77924819D02*
X143692714Y-77877200D01*
X143692714Y-77877200D02*
X143740333Y-77829580D01*
X143740333Y-77829580D02*
X143787952Y-77734342D01*
X143787952Y-77734342D02*
X143787952Y-77639104D01*
X143787952Y-77639104D02*
X143740333Y-77543866D01*
X143740333Y-77543866D02*
X143692714Y-77496247D01*
X143692714Y-77496247D02*
X143597476Y-77448628D01*
X143597476Y-77448628D02*
X143407000Y-77401009D01*
X143407000Y-77401009D02*
X143311762Y-77353390D01*
X143311762Y-77353390D02*
X143264143Y-77305771D01*
X143264143Y-77305771D02*
X143216524Y-77210533D01*
X143216524Y-77210533D02*
X143216524Y-77115295D01*
X143216524Y-77115295D02*
X143264143Y-77020057D01*
X143264143Y-77020057D02*
X143311762Y-76972438D01*
X143311762Y-76972438D02*
X143407000Y-76924819D01*
X143407000Y-76924819D02*
X143645095Y-76924819D01*
X143645095Y-76924819D02*
X143787952Y-76972438D01*
X144787952Y-77829580D02*
X144740333Y-77877200D01*
X144740333Y-77877200D02*
X144597476Y-77924819D01*
X144597476Y-77924819D02*
X144502238Y-77924819D01*
X144502238Y-77924819D02*
X144359381Y-77877200D01*
X144359381Y-77877200D02*
X144264143Y-77781961D01*
X144264143Y-77781961D02*
X144216524Y-77686723D01*
X144216524Y-77686723D02*
X144168905Y-77496247D01*
X144168905Y-77496247D02*
X144168905Y-77353390D01*
X144168905Y-77353390D02*
X144216524Y-77162914D01*
X144216524Y-77162914D02*
X144264143Y-77067676D01*
X144264143Y-77067676D02*
X144359381Y-76972438D01*
X144359381Y-76972438D02*
X144502238Y-76924819D01*
X144502238Y-76924819D02*
X144597476Y-76924819D01*
X144597476Y-76924819D02*
X144740333Y-76972438D01*
X144740333Y-76972438D02*
X144787952Y-77020057D01*
X145692714Y-77924819D02*
X145216524Y-77924819D01*
X145216524Y-77924819D02*
X145216524Y-76924819D01*
X146026048Y-77924819D02*
X146026048Y-76924819D01*
X146597476Y-77924819D02*
X146168905Y-77353390D01*
X146597476Y-76924819D02*
X146026048Y-77496247D01*
X143216524Y-83004819D02*
X143216524Y-82004819D01*
X143216524Y-82004819D02*
X143454619Y-82004819D01*
X143454619Y-82004819D02*
X143597476Y-82052438D01*
X143597476Y-82052438D02*
X143692714Y-82147676D01*
X143692714Y-82147676D02*
X143740333Y-82242914D01*
X143740333Y-82242914D02*
X143787952Y-82433390D01*
X143787952Y-82433390D02*
X143787952Y-82576247D01*
X143787952Y-82576247D02*
X143740333Y-82766723D01*
X143740333Y-82766723D02*
X143692714Y-82861961D01*
X143692714Y-82861961D02*
X143597476Y-82957200D01*
X143597476Y-82957200D02*
X143454619Y-83004819D01*
X143454619Y-83004819D02*
X143216524Y-83004819D01*
X144407000Y-82004819D02*
X144597476Y-82004819D01*
X144597476Y-82004819D02*
X144692714Y-82052438D01*
X144692714Y-82052438D02*
X144787952Y-82147676D01*
X144787952Y-82147676D02*
X144835571Y-82338152D01*
X144835571Y-82338152D02*
X144835571Y-82671485D01*
X144835571Y-82671485D02*
X144787952Y-82861961D01*
X144787952Y-82861961D02*
X144692714Y-82957200D01*
X144692714Y-82957200D02*
X144597476Y-83004819D01*
X144597476Y-83004819D02*
X144407000Y-83004819D01*
X144407000Y-83004819D02*
X144311762Y-82957200D01*
X144311762Y-82957200D02*
X144216524Y-82861961D01*
X144216524Y-82861961D02*
X144168905Y-82671485D01*
X144168905Y-82671485D02*
X144168905Y-82338152D01*
X144168905Y-82338152D02*
X144216524Y-82147676D01*
X144216524Y-82147676D02*
X144311762Y-82052438D01*
X144311762Y-82052438D02*
X144407000Y-82004819D01*
X145264143Y-82004819D02*
X145264143Y-82814342D01*
X145264143Y-82814342D02*
X145311762Y-82909580D01*
X145311762Y-82909580D02*
X145359381Y-82957200D01*
X145359381Y-82957200D02*
X145454619Y-83004819D01*
X145454619Y-83004819D02*
X145645095Y-83004819D01*
X145645095Y-83004819D02*
X145740333Y-82957200D01*
X145740333Y-82957200D02*
X145787952Y-82909580D01*
X145787952Y-82909580D02*
X145835571Y-82814342D01*
X145835571Y-82814342D02*
X145835571Y-82004819D01*
X146168905Y-82004819D02*
X146740333Y-82004819D01*
X146454619Y-83004819D02*
X146454619Y-82004819D01*
X178990810Y-85259104D02*
X179467000Y-85259104D01*
X178895572Y-85544819D02*
X179228905Y-84544819D01*
X179228905Y-84544819D02*
X179562238Y-85544819D01*
X179895572Y-85544819D02*
X179895572Y-84544819D01*
X180371762Y-85544819D02*
X180371762Y-84544819D01*
X180371762Y-84544819D02*
X180943190Y-85544819D01*
X180943190Y-85544819D02*
X180943190Y-84544819D01*
X181895571Y-84544819D02*
X181419381Y-84544819D01*
X181419381Y-84544819D02*
X181371762Y-85021009D01*
X181371762Y-85021009D02*
X181419381Y-84973390D01*
X181419381Y-84973390D02*
X181514619Y-84925771D01*
X181514619Y-84925771D02*
X181752714Y-84925771D01*
X181752714Y-84925771D02*
X181847952Y-84973390D01*
X181847952Y-84973390D02*
X181895571Y-85021009D01*
X181895571Y-85021009D02*
X181943190Y-85116247D01*
X181943190Y-85116247D02*
X181943190Y-85354342D01*
X181943190Y-85354342D02*
X181895571Y-85449580D01*
X181895571Y-85449580D02*
X181847952Y-85497200D01*
X181847952Y-85497200D02*
X181752714Y-85544819D01*
X181752714Y-85544819D02*
X181514619Y-85544819D01*
X181514619Y-85544819D02*
X181419381Y-85497200D01*
X181419381Y-85497200D02*
X181371762Y-85449580D01*
X227038819Y-124839524D02*
X228038819Y-124506191D01*
X228038819Y-124506191D02*
X227038819Y-124172858D01*
X228038819Y-123315715D02*
X228038819Y-123887143D01*
X228038819Y-123601429D02*
X227038819Y-123601429D01*
X227038819Y-123601429D02*
X227181676Y-123696667D01*
X227181676Y-123696667D02*
X227276914Y-123791905D01*
X227276914Y-123791905D02*
X227324533Y-123887143D01*
X139869104Y-112474285D02*
X139869104Y-111998095D01*
X140154819Y-112569523D02*
X139154819Y-112236190D01*
X139154819Y-112236190D02*
X140154819Y-111902857D01*
X140154819Y-111045714D02*
X140154819Y-111617142D01*
X140154819Y-111331428D02*
X139154819Y-111331428D01*
X139154819Y-111331428D02*
X139297676Y-111426666D01*
X139297676Y-111426666D02*
X139392914Y-111521904D01*
X139392914Y-111521904D02*
X139440533Y-111617142D01*
X149383810Y-112214819D02*
X149383810Y-111214819D01*
X149812381Y-111310057D02*
X149860000Y-111262438D01*
X149860000Y-111262438D02*
X149955238Y-111214819D01*
X149955238Y-111214819D02*
X150193333Y-111214819D01*
X150193333Y-111214819D02*
X150288571Y-111262438D01*
X150288571Y-111262438D02*
X150336190Y-111310057D01*
X150336190Y-111310057D02*
X150383809Y-111405295D01*
X150383809Y-111405295D02*
X150383809Y-111500533D01*
X150383809Y-111500533D02*
X150336190Y-111643390D01*
X150336190Y-111643390D02*
X149764762Y-112214819D01*
X149764762Y-112214819D02*
X150383809Y-112214819D01*
X148764762Y-118834819D02*
X149098095Y-119834819D01*
X149098095Y-119834819D02*
X149431428Y-118834819D01*
X149764762Y-119834819D02*
X149764762Y-118834819D01*
X150240952Y-119834819D02*
X150240952Y-118834819D01*
X150240952Y-118834819D02*
X150812380Y-119834819D01*
X150812380Y-119834819D02*
X150812380Y-118834819D01*
X148669524Y-107087200D02*
X148812381Y-107134819D01*
X148812381Y-107134819D02*
X149050476Y-107134819D01*
X149050476Y-107134819D02*
X149145714Y-107087200D01*
X149145714Y-107087200D02*
X149193333Y-107039580D01*
X149193333Y-107039580D02*
X149240952Y-106944342D01*
X149240952Y-106944342D02*
X149240952Y-106849104D01*
X149240952Y-106849104D02*
X149193333Y-106753866D01*
X149193333Y-106753866D02*
X149145714Y-106706247D01*
X149145714Y-106706247D02*
X149050476Y-106658628D01*
X149050476Y-106658628D02*
X148860000Y-106611009D01*
X148860000Y-106611009D02*
X148764762Y-106563390D01*
X148764762Y-106563390D02*
X148717143Y-106515771D01*
X148717143Y-106515771D02*
X148669524Y-106420533D01*
X148669524Y-106420533D02*
X148669524Y-106325295D01*
X148669524Y-106325295D02*
X148717143Y-106230057D01*
X148717143Y-106230057D02*
X148764762Y-106182438D01*
X148764762Y-106182438D02*
X148860000Y-106134819D01*
X148860000Y-106134819D02*
X149098095Y-106134819D01*
X149098095Y-106134819D02*
X149240952Y-106182438D01*
X150240952Y-107039580D02*
X150193333Y-107087200D01*
X150193333Y-107087200D02*
X150050476Y-107134819D01*
X150050476Y-107134819D02*
X149955238Y-107134819D01*
X149955238Y-107134819D02*
X149812381Y-107087200D01*
X149812381Y-107087200D02*
X149717143Y-106991961D01*
X149717143Y-106991961D02*
X149669524Y-106896723D01*
X149669524Y-106896723D02*
X149621905Y-106706247D01*
X149621905Y-106706247D02*
X149621905Y-106563390D01*
X149621905Y-106563390D02*
X149669524Y-106372914D01*
X149669524Y-106372914D02*
X149717143Y-106277676D01*
X149717143Y-106277676D02*
X149812381Y-106182438D01*
X149812381Y-106182438D02*
X149955238Y-106134819D01*
X149955238Y-106134819D02*
X150050476Y-106134819D01*
X150050476Y-106134819D02*
X150193333Y-106182438D01*
X150193333Y-106182438D02*
X150240952Y-106230057D01*
X151145714Y-107134819D02*
X150669524Y-107134819D01*
X150669524Y-107134819D02*
X150669524Y-106134819D01*
X148645714Y-104547200D02*
X148788571Y-104594819D01*
X148788571Y-104594819D02*
X149026666Y-104594819D01*
X149026666Y-104594819D02*
X149121904Y-104547200D01*
X149121904Y-104547200D02*
X149169523Y-104499580D01*
X149169523Y-104499580D02*
X149217142Y-104404342D01*
X149217142Y-104404342D02*
X149217142Y-104309104D01*
X149217142Y-104309104D02*
X149169523Y-104213866D01*
X149169523Y-104213866D02*
X149121904Y-104166247D01*
X149121904Y-104166247D02*
X149026666Y-104118628D01*
X149026666Y-104118628D02*
X148836190Y-104071009D01*
X148836190Y-104071009D02*
X148740952Y-104023390D01*
X148740952Y-104023390D02*
X148693333Y-103975771D01*
X148693333Y-103975771D02*
X148645714Y-103880533D01*
X148645714Y-103880533D02*
X148645714Y-103785295D01*
X148645714Y-103785295D02*
X148693333Y-103690057D01*
X148693333Y-103690057D02*
X148740952Y-103642438D01*
X148740952Y-103642438D02*
X148836190Y-103594819D01*
X148836190Y-103594819D02*
X149074285Y-103594819D01*
X149074285Y-103594819D02*
X149217142Y-103642438D01*
X149645714Y-104594819D02*
X149645714Y-103594819D01*
X149645714Y-103594819D02*
X149883809Y-103594819D01*
X149883809Y-103594819D02*
X150026666Y-103642438D01*
X150026666Y-103642438D02*
X150121904Y-103737676D01*
X150121904Y-103737676D02*
X150169523Y-103832914D01*
X150169523Y-103832914D02*
X150217142Y-104023390D01*
X150217142Y-104023390D02*
X150217142Y-104166247D01*
X150217142Y-104166247D02*
X150169523Y-104356723D01*
X150169523Y-104356723D02*
X150121904Y-104451961D01*
X150121904Y-104451961D02*
X150026666Y-104547200D01*
X150026666Y-104547200D02*
X149883809Y-104594819D01*
X149883809Y-104594819D02*
X149645714Y-104594819D01*
X150598095Y-104309104D02*
X151074285Y-104309104D01*
X150502857Y-104594819D02*
X150836190Y-103594819D01*
X150836190Y-103594819D02*
X151169523Y-104594819D01*
X149098095Y-116342438D02*
X149002857Y-116294819D01*
X149002857Y-116294819D02*
X148860000Y-116294819D01*
X148860000Y-116294819D02*
X148717143Y-116342438D01*
X148717143Y-116342438D02*
X148621905Y-116437676D01*
X148621905Y-116437676D02*
X148574286Y-116532914D01*
X148574286Y-116532914D02*
X148526667Y-116723390D01*
X148526667Y-116723390D02*
X148526667Y-116866247D01*
X148526667Y-116866247D02*
X148574286Y-117056723D01*
X148574286Y-117056723D02*
X148621905Y-117151961D01*
X148621905Y-117151961D02*
X148717143Y-117247200D01*
X148717143Y-117247200D02*
X148860000Y-117294819D01*
X148860000Y-117294819D02*
X148955238Y-117294819D01*
X148955238Y-117294819D02*
X149098095Y-117247200D01*
X149098095Y-117247200D02*
X149145714Y-117199580D01*
X149145714Y-117199580D02*
X149145714Y-116866247D01*
X149145714Y-116866247D02*
X148955238Y-116866247D01*
X149574286Y-117294819D02*
X149574286Y-116294819D01*
X149574286Y-116294819D02*
X150145714Y-117294819D01*
X150145714Y-117294819D02*
X150145714Y-116294819D01*
X150621905Y-117294819D02*
X150621905Y-116294819D01*
X150621905Y-116294819D02*
X150860000Y-116294819D01*
X150860000Y-116294819D02*
X151002857Y-116342438D01*
X151002857Y-116342438D02*
X151098095Y-116437676D01*
X151098095Y-116437676D02*
X151145714Y-116532914D01*
X151145714Y-116532914D02*
X151193333Y-116723390D01*
X151193333Y-116723390D02*
X151193333Y-116866247D01*
X151193333Y-116866247D02*
X151145714Y-117056723D01*
X151145714Y-117056723D02*
X151098095Y-117151961D01*
X151098095Y-117151961D02*
X151002857Y-117247200D01*
X151002857Y-117247200D02*
X150860000Y-117294819D01*
X150860000Y-117294819D02*
X150621905Y-117294819D01*
X142694819Y-114998094D02*
X141694819Y-114998094D01*
X141694819Y-114998094D02*
X142409104Y-114664761D01*
X142409104Y-114664761D02*
X141694819Y-114331428D01*
X141694819Y-114331428D02*
X142694819Y-114331428D01*
X142694819Y-113855237D02*
X141694819Y-113855237D01*
X141694819Y-113855237D02*
X142409104Y-113521904D01*
X142409104Y-113521904D02*
X141694819Y-113188571D01*
X141694819Y-113188571D02*
X142694819Y-113188571D01*
X142409104Y-112759999D02*
X142409104Y-112283809D01*
X142694819Y-112855237D02*
X141694819Y-112521904D01*
X141694819Y-112521904D02*
X142694819Y-112188571D01*
X142123390Y-111712380D02*
X142075771Y-111807618D01*
X142075771Y-111807618D02*
X142028152Y-111855237D01*
X142028152Y-111855237D02*
X141932914Y-111902856D01*
X141932914Y-111902856D02*
X141885295Y-111902856D01*
X141885295Y-111902856D02*
X141790057Y-111855237D01*
X141790057Y-111855237D02*
X141742438Y-111807618D01*
X141742438Y-111807618D02*
X141694819Y-111712380D01*
X141694819Y-111712380D02*
X141694819Y-111521904D01*
X141694819Y-111521904D02*
X141742438Y-111426666D01*
X141742438Y-111426666D02*
X141790057Y-111379047D01*
X141790057Y-111379047D02*
X141885295Y-111331428D01*
X141885295Y-111331428D02*
X141932914Y-111331428D01*
X141932914Y-111331428D02*
X142028152Y-111379047D01*
X142028152Y-111379047D02*
X142075771Y-111426666D01*
X142075771Y-111426666D02*
X142123390Y-111521904D01*
X142123390Y-111521904D02*
X142123390Y-111712380D01*
X142123390Y-111712380D02*
X142171009Y-111807618D01*
X142171009Y-111807618D02*
X142218628Y-111855237D01*
X142218628Y-111855237D02*
X142313866Y-111902856D01*
X142313866Y-111902856D02*
X142504342Y-111902856D01*
X142504342Y-111902856D02*
X142599580Y-111855237D01*
X142599580Y-111855237D02*
X142647200Y-111807618D01*
X142647200Y-111807618D02*
X142694819Y-111712380D01*
X142694819Y-111712380D02*
X142694819Y-111521904D01*
X142694819Y-111521904D02*
X142647200Y-111426666D01*
X142647200Y-111426666D02*
X142599580Y-111379047D01*
X142599580Y-111379047D02*
X142504342Y-111331428D01*
X142504342Y-111331428D02*
X142313866Y-111331428D01*
X142313866Y-111331428D02*
X142218628Y-111379047D01*
X142218628Y-111379047D02*
X142171009Y-111426666D01*
X142171009Y-111426666D02*
X142123390Y-111521904D01*
X142028152Y-110474285D02*
X142694819Y-110474285D01*
X141647200Y-110712380D02*
X142361485Y-110950475D01*
X142361485Y-110950475D02*
X142361485Y-110331428D01*
X141694819Y-109474285D02*
X141694819Y-109950475D01*
X141694819Y-109950475D02*
X142171009Y-109998094D01*
X142171009Y-109998094D02*
X142123390Y-109950475D01*
X142123390Y-109950475D02*
X142075771Y-109855237D01*
X142075771Y-109855237D02*
X142075771Y-109617142D01*
X142075771Y-109617142D02*
X142123390Y-109521904D01*
X142123390Y-109521904D02*
X142171009Y-109474285D01*
X142171009Y-109474285D02*
X142266247Y-109426666D01*
X142266247Y-109426666D02*
X142504342Y-109426666D01*
X142504342Y-109426666D02*
X142599580Y-109474285D01*
X142599580Y-109474285D02*
X142647200Y-109521904D01*
X142647200Y-109521904D02*
X142694819Y-109617142D01*
X142694819Y-109617142D02*
X142694819Y-109855237D01*
X142694819Y-109855237D02*
X142647200Y-109950475D01*
X142647200Y-109950475D02*
X142599580Y-109998094D01*
X142694819Y-108474285D02*
X142694819Y-109045713D01*
X142694819Y-108759999D02*
X141694819Y-108759999D01*
X141694819Y-108759999D02*
X141837676Y-108855237D01*
X141837676Y-108855237D02*
X141932914Y-108950475D01*
X141932914Y-108950475D02*
X141980533Y-109045713D01*
X148645714Y-113754819D02*
X149264761Y-113754819D01*
X149264761Y-113754819D02*
X148931428Y-114135771D01*
X148931428Y-114135771D02*
X149074285Y-114135771D01*
X149074285Y-114135771D02*
X149169523Y-114183390D01*
X149169523Y-114183390D02*
X149217142Y-114231009D01*
X149217142Y-114231009D02*
X149264761Y-114326247D01*
X149264761Y-114326247D02*
X149264761Y-114564342D01*
X149264761Y-114564342D02*
X149217142Y-114659580D01*
X149217142Y-114659580D02*
X149169523Y-114707200D01*
X149169523Y-114707200D02*
X149074285Y-114754819D01*
X149074285Y-114754819D02*
X148788571Y-114754819D01*
X148788571Y-114754819D02*
X148693333Y-114707200D01*
X148693333Y-114707200D02*
X148645714Y-114659580D01*
X149550476Y-113754819D02*
X149883809Y-114754819D01*
X149883809Y-114754819D02*
X150217142Y-113754819D01*
X150693333Y-114754819D02*
X150598095Y-114707200D01*
X150598095Y-114707200D02*
X150550476Y-114659580D01*
X150550476Y-114659580D02*
X150502857Y-114564342D01*
X150502857Y-114564342D02*
X150502857Y-114278628D01*
X150502857Y-114278628D02*
X150550476Y-114183390D01*
X150550476Y-114183390D02*
X150598095Y-114135771D01*
X150598095Y-114135771D02*
X150693333Y-114088152D01*
X150693333Y-114088152D02*
X150836190Y-114088152D01*
X150836190Y-114088152D02*
X150931428Y-114135771D01*
X150931428Y-114135771D02*
X150979047Y-114183390D01*
X150979047Y-114183390D02*
X151026666Y-114278628D01*
X151026666Y-114278628D02*
X151026666Y-114564342D01*
X151026666Y-114564342D02*
X150979047Y-114659580D01*
X150979047Y-114659580D02*
X150931428Y-114707200D01*
X150931428Y-114707200D02*
X150836190Y-114754819D01*
X150836190Y-114754819D02*
X150693333Y-114754819D01*
X149383810Y-109674819D02*
X149383810Y-108674819D01*
X150383809Y-109674819D02*
X149812381Y-109674819D01*
X150098095Y-109674819D02*
X150098095Y-108674819D01*
X150098095Y-108674819D02*
X150002857Y-108817676D01*
X150002857Y-108817676D02*
X149907619Y-108912914D01*
X149907619Y-108912914D02*
X149812381Y-108960533D01*
X149621905Y-102454904D02*
X150098095Y-102454904D01*
X149526667Y-102740619D02*
X149860000Y-101740619D01*
X149860000Y-101740619D02*
X150193333Y-102740619D01*
D14*
%TO.C,S2*%
X228004900Y-82730000D02*
X228004900Y-84727500D01*
X217844900Y-82730000D02*
X228004900Y-82730000D01*
X217844900Y-84727500D02*
X217844900Y-82730000D01*
X228004900Y-97192500D02*
X228004900Y-99190000D01*
X228004900Y-99190000D02*
X217844900Y-99190000D01*
X217844900Y-99190000D02*
X217844900Y-97192500D01*
D11*
X226479900Y-81980000D02*
G75*
G03*
X226279900Y-81980000I-100000J0D01*
G01*
X226279900Y-81980000D02*
G75*
G03*
X226479900Y-81980000I100000J0D01*
G01*
D15*
%TO.C,G3*%
X204153000Y-103024200D02*
X211798400Y-103024200D01*
X211798400Y-103024200D02*
X211798400Y-94743800D01*
X204153000Y-94743800D02*
X204153000Y-103024200D01*
X211798400Y-94743800D02*
X204153000Y-94743800D01*
D16*
X208661000Y-104802200D02*
G75*
G03*
X207899000Y-104802200I-381000J0D01*
G01*
X207899000Y-104802200D02*
G75*
G03*
X208661000Y-104802200I381000J0D01*
G01*
D15*
%TO.C,G2*%
X204153000Y-88292200D02*
X211798400Y-88292200D01*
X211798400Y-88292200D02*
X211798400Y-80011800D01*
X204153000Y-80011800D02*
X204153000Y-88292200D01*
X211798400Y-80011800D02*
X204153000Y-80011800D01*
D16*
X208661000Y-90070200D02*
G75*
G03*
X207899000Y-90070200I-381000J0D01*
G01*
X207899000Y-90070200D02*
G75*
G03*
X208661000Y-90070200I381000J0D01*
G01*
D15*
%TO.C,G1*%
X204153000Y-73306201D02*
X211798400Y-73306201D01*
X211798400Y-73306201D02*
X211798400Y-65025801D01*
X204153000Y-65025801D02*
X204153000Y-73306201D01*
X211798400Y-65025801D02*
X204153000Y-65025801D01*
D16*
X208661000Y-75084201D02*
G75*
G03*
X207899000Y-75084201I-381000J0D01*
G01*
X207899000Y-75084201D02*
G75*
G03*
X208661000Y-75084201I381000J0D01*
G01*
D17*
%TO.C,R3*%
X213590000Y-105664000D02*
X212900000Y-105664000D01*
X212900000Y-107384000D02*
X212900000Y-103944000D01*
X212900000Y-103944000D02*
X203660000Y-103944000D01*
X203660000Y-107384000D02*
X212900000Y-107384000D01*
X203660000Y-103944000D02*
X203660000Y-107384000D01*
X202970000Y-105664000D02*
X203660000Y-105664000D01*
%TO.C,MCU1*%
X138430000Y-125024000D02*
X138430000Y-142804000D01*
X140970000Y-145344000D02*
X186690000Y-145344000D01*
D15*
X143116000Y-142753000D02*
X143116000Y-145547000D01*
X143116000Y-145547000D02*
X184518000Y-145547000D01*
X144164500Y-147210000D02*
X144799500Y-145940000D01*
X144799500Y-145940000D02*
X145434500Y-147210000D01*
X145434500Y-147210000D02*
X144164500Y-147210000D01*
X153299000Y-122428000D02*
X153299000Y-125222000D01*
X153299000Y-125222000D02*
X184541000Y-125222000D01*
X184518000Y-142753000D02*
X143116000Y-142753000D01*
X184518000Y-145547000D02*
X184518000Y-142753000D01*
X184541000Y-122428000D02*
X153299000Y-122428000D01*
X184541000Y-125222000D02*
X184541000Y-122428000D01*
D17*
X186690000Y-122484000D02*
X140970000Y-122484000D01*
X189230000Y-125024000D02*
X189230000Y-142804000D01*
X138430000Y-130104000D02*
X143510000Y-130104000D01*
X143510000Y-130104000D02*
X143510000Y-137724000D01*
X143510000Y-137724000D02*
X138430000Y-137724000D01*
X138430000Y-137724000D02*
X138430000Y-130104000D01*
X140970000Y-122484000D02*
G75*
G03*
X138430000Y-125024000I1J-2540001D01*
G01*
X138430000Y-142804000D02*
G75*
G03*
X140970000Y-145344000I2540001J1D01*
G01*
X189230000Y-125024000D02*
G75*
G03*
X186690000Y-122484000I-2540000J0D01*
G01*
X186690000Y-145344000D02*
G75*
G03*
X189230000Y-142804000I0J2540000D01*
G01*
D16*
X142837000Y-144175000D02*
G75*
G03*
X142075000Y-144175000I-381000J0D01*
G01*
X142075000Y-144175000D02*
G75*
G03*
X142837000Y-144175000I381000J0D01*
G01*
D17*
%TO.C,R2*%
X213590000Y-90932000D02*
X212900000Y-90932000D01*
X212900000Y-92652000D02*
X212900000Y-89212000D01*
X212900000Y-89212000D02*
X203660000Y-89212000D01*
X203660000Y-92652000D02*
X212900000Y-92652000D01*
X203660000Y-89212000D02*
X203660000Y-92652000D01*
X202970000Y-90932000D02*
X203660000Y-90932000D01*
D14*
%TO.C,S3*%
X228004900Y-100510000D02*
X228004900Y-102507500D01*
X217844900Y-100510000D02*
X228004900Y-100510000D01*
X217844900Y-102507500D02*
X217844900Y-100510000D01*
X228004900Y-114972500D02*
X228004900Y-116970000D01*
X228004900Y-116970000D02*
X217844900Y-116970000D01*
X217844900Y-116970000D02*
X217844900Y-114972500D01*
D11*
X226479900Y-99760000D02*
G75*
G03*
X226279900Y-99760000I-100000J0D01*
G01*
X226279900Y-99760000D02*
G75*
G03*
X226479900Y-99760000I100000J0D01*
G01*
D17*
%TO.C,R1*%
X213844000Y-75692000D02*
X213154000Y-75692000D01*
X213154000Y-77412000D02*
X213154000Y-73972000D01*
X213154000Y-73972000D02*
X203914000Y-73972000D01*
X203914000Y-77412000D02*
X213154000Y-77412000D01*
X203914000Y-73972000D02*
X203914000Y-77412000D01*
X203224000Y-75692000D02*
X203914000Y-75692000D01*
D14*
%TO.C,S1*%
X227685000Y-64950000D02*
X227685000Y-66947500D01*
X217525000Y-64950000D02*
X227685000Y-64950000D01*
X217525000Y-66947500D02*
X217525000Y-64950000D01*
X227685000Y-79412500D02*
X227685000Y-81410000D01*
X227685000Y-81410000D02*
X217525000Y-81410000D01*
X217525000Y-81410000D02*
X217525000Y-79412500D01*
D11*
X226160000Y-64200000D02*
G75*
G03*
X225960000Y-64200000I-100000J0D01*
G01*
X225960000Y-64200000D02*
G75*
G03*
X226160000Y-64200000I100000J0D01*
G01*
D17*
%TO.C,AD1*%
X198247000Y-64770000D02*
X137287000Y-64770000D01*
D15*
X198257000Y-70561200D02*
X190510000Y-70561200D01*
X190510000Y-70561200D02*
X190510000Y-91998800D01*
X142494000Y-70561200D02*
X137160000Y-70561200D01*
X137160000Y-70561200D02*
X137160000Y-91998800D01*
X199517000Y-71755000D02*
X199517000Y-73025000D01*
X135763000Y-71755000D02*
X137033000Y-72390000D01*
X198247000Y-72390000D02*
X199517000Y-71755000D01*
X137033000Y-72390000D02*
X135763000Y-73025000D01*
X199517000Y-73025000D02*
X198247000Y-72390000D01*
X135763000Y-73025000D02*
X135763000Y-71755000D01*
X198257000Y-91998800D02*
X198257000Y-70561200D01*
X190510000Y-91998800D02*
X198257000Y-91998800D01*
X142494000Y-91998800D02*
X142494000Y-70561200D01*
X137160000Y-91998800D02*
X142494000Y-91998800D01*
D17*
X198247000Y-97790000D02*
X198247000Y-64770000D01*
X198247000Y-97790000D02*
X137287000Y-97790000D01*
X137287000Y-97790000D02*
X137287000Y-64770000D01*
D15*
%TO.C,V1*%
X220917000Y-128170201D02*
X228562400Y-128170201D01*
X228562400Y-128170201D02*
X228562400Y-119889801D01*
X220917000Y-119889801D02*
X220917000Y-128170201D01*
X228562400Y-119889801D02*
X220917000Y-119889801D01*
D16*
X225425000Y-129948201D02*
G75*
G03*
X224663000Y-129948201I-381000J0D01*
G01*
X224663000Y-129948201D02*
G75*
G03*
X225425000Y-129948201I381000J0D01*
G01*
D17*
%TO.C,A1*%
X138430000Y-121920000D02*
X138430000Y-99060000D01*
X160020000Y-121920000D02*
X138430000Y-121920000D01*
D15*
X152273000Y-121208800D02*
X157607000Y-121208800D01*
X157607000Y-121208800D02*
X157607000Y-99771200D01*
X159004000Y-120015000D02*
X157734000Y-119380000D01*
X157734000Y-119380000D02*
X159004000Y-118745000D01*
X159004000Y-118745000D02*
X159004000Y-120015000D01*
X152273000Y-99771200D02*
X152273000Y-121208800D01*
X157607000Y-99771200D02*
X152273000Y-99771200D01*
D17*
X138430000Y-99060000D02*
X160020000Y-99060000D01*
X160020000Y-99060000D02*
X160020000Y-121920000D01*
%TD*%
M02*
